<svg width="150" height="150" viewBox="0 0 150 150" fill="none" xmlns="http://www.w3.org/2000/svg">
<path d="M120.504 106.441L92.3789 134.566C91.9436 135.002 91.4266 135.348 90.8575 135.584C90.2885 135.82 89.6785 135.941 89.0625 135.941C88.4465 135.941 87.8365 135.82 87.2675 135.584C86.6984 135.348 86.1814 135.002 85.7461 134.566L57.6211 106.441C56.7415 105.562 56.2474 104.369 56.2474 103.125C56.2474 101.881 56.7415 100.688 57.6211 99.8086C58.5007 98.929 59.6936 98.4349 60.9375 98.4349C62.1814 98.4349 63.3743 98.929 64.2539 99.8086L84.375 119.936V75C84.3595 61.3295 78.9221 48.2234 69.2556 38.5569C59.5891 28.8904 46.483 23.453 32.8125 23.4375C31.5693 23.4375 30.377 22.9436 29.4979 22.0646C28.6189 21.1855 28.125 19.9932 28.125 18.75C28.125 17.5068 28.6189 16.3145 29.4979 15.4354C30.377 14.5564 31.5693 14.0625 32.8125 14.0625C48.9689 14.0796 64.4587 20.5052 75.883 31.9295C87.3073 43.3538 93.7329 58.8436 93.75 75V119.936L113.871 99.8086C114.751 98.929 115.944 98.4349 117.188 98.4349C118.431 98.4349 119.624 98.929 120.504 99.8086C121.383 100.688 121.878 101.881 121.878 103.125C121.878 104.369 121.383 105.562 120.504 106.441Z" fill="#3A5832"/>
</svg>
