<svg width="141" height="154" viewBox="0 0 141 154" fill="none" xmlns="http://www.w3.org/2000/svg">
<path d="M114.777 74.5755C106.386 80.6709 94.6434 78.8105 88.5477 70.4205C86.0552 66.9897 84.8936 62.9984 84.9641 59.0617L84.8938 59.1128L84.992 58.3292C85.0399 57.4861 85.145 56.6476 85.305 55.8192L87.6267 37.2053L105.424 40.6827C106.713 40.7993 107.988 41.0472 109.227 41.4249L109.236 41.427L109.235 41.4276C113.001 42.577 116.438 44.9152 118.931 48.3459C125.027 56.736 123.167 68.4797 114.777 74.5755Z" fill="#FAE0BE"/>
<path d="M71.6813 69.4305C63.2915 63.3347 61.4321 51.5915 67.5277 43.2015C70.0204 39.7708 73.4575 37.4327 77.2232 36.2832L77.1529 36.2321L77.9285 36.0834C78.7451 35.8684 79.575 35.7092 80.4123 35.6054L98.8327 32.0615L101.025 50.0625C101.313 51.3241 101.471 52.6134 101.495 53.9089L101.495 53.9179L101.495 53.9173C101.565 57.854 100.403 61.8454 97.9109 65.2762C91.8151 73.6663 80.0714 75.5263 71.6813 69.4305Z" fill="#FAE0BE"/>
<path d="M63.2579 26.854C66.4628 16.9911 77.0567 11.5938 86.9197 14.7985C90.9527 16.109 94.2385 18.6553 96.4954 21.8816L96.5223 21.7989L96.9034 22.4906C97.3602 23.2008 97.768 23.9409 98.1255 24.7052L107.188 41.1289L90.7458 48.7767C89.6346 49.4398 88.4574 49.9888 87.2326 50.4117L87.2243 50.4152L87.2246 50.4142C83.5024 51.6977 79.3474 51.8264 75.3143 50.5161C65.4512 47.3113 60.0532 36.7172 63.2579 26.854Z" fill="#FAE0BE"/>
<path d="M101.147 5.68542C111.518 5.68567 119.925 14.0932 119.925 24.4637C119.925 28.7044 118.518 32.6162 116.147 35.7596H116.234L115.694 36.3358C115.16 36.9897 114.582 37.6063 113.966 38.1825L101.146 51.8768L88.792 38.6024C87.818 37.7506 86.9321 36.8006 86.1514 35.7665L86.1455 35.7596H86.1465C83.7756 32.6162 82.3692 28.7044 82.3691 24.4637C82.3691 14.093 90.7767 5.68543 101.147 5.68542Z" fill="#FAE0BE"/>
<path d="M132.987 35.1788C136.191 45.0419 130.793 55.6353 120.93 58.84C116.897 60.1503 112.742 60.0216 109.02 58.7381L109.047 58.8208L108.332 58.4852C107.545 58.1791 106.78 57.8201 106.041 57.412L89.056 49.4518L97.8629 33.6C98.3721 32.4104 99.0018 31.2743 99.7441 30.2122L99.7488 30.2046L99.7491 30.2055C102.006 26.9792 105.292 24.4329 109.325 23.1224C119.188 19.9177 129.782 25.3157 132.987 35.1788Z" fill="#FAE0BE"/>
<path d="M95.663 32.5122C95.7648 31.285 97.561 31.285 97.6628 32.5122C97.7461 33.517 99.0932 33.7849 99.5547 32.8885C100.118 31.7936 101.778 32.481 101.402 33.6538C101.095 34.614 102.237 35.377 103.006 34.7255C103.946 33.9297 105.216 35.1998 104.42 36.1395C103.769 36.9089 104.532 38.051 105.492 37.7434C106.665 37.3678 107.352 39.0273 106.257 39.591C105.361 40.0525 105.629 41.3996 106.634 41.4829C107.861 41.5847 107.861 43.3809 106.634 43.4827C105.629 43.566 105.361 44.9131 106.257 45.3746C107.352 45.9383 106.665 47.5978 105.492 47.2222C104.532 46.9147 103.769 48.0567 104.42 48.8261C105.216 49.7658 103.946 51.036 103.006 50.2402C102.237 49.5886 101.095 50.3517 101.402 51.3119C101.778 52.4846 100.118 53.172 99.5547 52.0772C99.0932 51.1807 97.7461 51.4487 97.6628 52.4535C97.561 53.6807 95.7648 53.6807 95.663 52.4535C95.5797 51.4487 94.2325 51.1807 93.771 52.0772C93.2074 53.172 91.5479 52.4846 91.9235 51.3119C92.231 50.3517 91.089 49.5886 90.3196 50.2402C89.3799 51.036 88.1097 49.7658 88.9055 48.8261C89.5571 48.0567 88.794 46.9147 87.8338 47.2222C86.6611 47.5978 85.9737 45.9383 87.0685 45.3746C87.965 44.9131 87.697 43.566 86.6922 43.4827C85.465 43.3809 85.465 41.5847 86.6922 41.4829C87.697 41.3996 87.965 40.0525 87.0685 39.591C85.9737 39.0273 86.6611 37.3678 87.8338 37.7434C88.794 38.051 89.5571 36.9089 88.9055 36.1395C88.1097 35.1998 89.3799 33.9297 90.3196 34.7255C91.089 35.377 92.231 34.614 91.9235 33.6538C91.5479 32.481 93.2074 31.7936 93.771 32.8885C94.2325 33.7849 95.5797 33.517 95.663 32.5122Z" fill="#FFA21C"/>
<path d="M92.1218 116.419C84.295 105.646 69.2173 103.258 58.4447 111.085C47.6721 118.911 45.284 133.989 53.1107 144.762C60.9375 155.534 75.1795 151.785 80.3732 141.267C92.1019 139.49 99.9485 127.191 92.1218 116.419Z" fill="#FFA21C"/>
<path d="M45.9412 93.5823C44.3193 94.7607 48.4187 130.242 48.4187 130.242L79.6735 107.534C79.6735 107.534 47.563 92.4039 45.9412 93.5823Z" fill="#FFA21C"/>
<path d="M50.6862 140.937C58.5129 130.164 56.1249 115.086 45.3523 107.26C34.5797 99.4329 19.5019 101.821 11.6751 112.594C3.84838 123.366 11.8156 135.752 23.4237 137.442C28.7378 148.047 42.8594 151.709 50.6862 140.937Z" fill="#FFA21C"/>
<path d="M58.134 89.9597C56.5122 88.7813 24.0346 103.644 24.0346 103.644L55.2894 126.352C55.2894 126.352 59.7559 91.138 58.134 89.9597Z" fill="#FFA21C"/>
<path d="M14.564 109.107C27.228 113.222 40.8298 106.291 44.9446 93.6271C49.0594 80.9632 42.1289 67.3613 29.4649 63.2465C16.801 59.1318 7.48297 70.5366 9.46349 82.0986C1.01903 90.4299 1.90007 104.992 14.564 109.107Z" fill="#FFA21C"/>
<path d="M65.3478 100.437C65.9673 98.5308 41.7956 72.2358 41.7956 72.2358L29.8573 108.978C29.8573 108.978 64.7283 102.344 65.3478 100.437Z" fill="#FFA21C"/>
<path d="M33.6747 64.9166C33.6747 78.2322 44.4692 89.0267 57.7849 89.0267C71.1005 89.0267 81.895 78.2322 81.895 64.9166C81.895 51.6009 68.169 46.2632 57.7849 51.7197C47.2519 46.263 33.6747 51.6009 33.6747 64.9166Z" fill="#FFA21C"/>
<path d="M57.6128 110.536C59.6176 110.536 77.1562 79.4215 77.1562 79.4215L38.5232 79.4215C38.5232 79.4215 55.6081 110.536 57.6128 110.536Z" fill="#FFA21C"/>
<path d="M81.6086 69.4353C68.9446 73.55 62.0141 87.1519 66.1289 99.8158C70.2436 112.48 83.8455 119.41 96.5095 115.295C109.173 111.181 110.008 96.4771 101.61 88.2873C103.545 76.5836 94.2725 65.3205 81.6086 69.4353Z" fill="#FFA21C"/>
<path d="M45.6195 106.299C46.239 108.206 81.2501 115.271 81.2501 115.271L69.3119 78.5287C69.3119 78.5287 45 104.392 45.6195 106.299Z" fill="#FFA21C"/>
<path d="M51.9592 85.67C52.3228 82.8668 56.3811 82.8668 56.7447 85.67C57.0063 87.6872 59.4934 88.4953 60.8907 87.0171C62.8326 84.963 66.1158 87.3484 64.7623 89.83C63.7883 91.6157 65.3254 93.7313 67.3247 93.3568C70.1031 92.8364 71.3571 96.696 68.8035 97.9081C66.9659 98.7803 66.9659 101.395 68.8035 102.267C71.3571 103.48 70.1031 107.339 67.3247 106.819C65.3254 106.444 63.7883 108.56 64.7623 110.346C66.1158 112.827 62.8326 115.213 60.8907 113.158C59.4934 111.68 57.0063 112.488 56.7447 114.506C56.3811 117.309 52.3228 117.309 51.9592 114.506C51.6975 112.488 49.2105 111.68 47.8131 113.158C45.8713 115.213 42.5881 112.827 43.9416 110.346C44.9156 108.56 43.3785 106.444 41.3792 106.819C38.6008 107.339 37.3468 103.48 39.9004 102.267C41.738 101.395 41.738 98.7803 39.9004 97.9081C37.3468 96.696 38.6008 92.8364 41.3792 93.3568C43.3785 93.7313 44.9156 91.6157 43.9416 89.83C42.5881 87.3484 45.8713 84.963 47.8131 87.0171C49.2105 88.4953 51.6975 87.6872 51.9592 85.67Z" fill="#FFCE88"/>
</svg>
