<svg width="173" height="86" viewBox="0 0 173 86" fill="none" xmlns="http://www.w3.org/2000/svg">
<path d="M26.529 72.8125C26.1887 73.0235 25.7582 73.0235 25.4178 72.8125L0.49897 57.3642C0.188808 57.1719 0.000118256 56.8329 0.000118256 56.468L0.00012207 16.9722C0.00012207 15.8802 1.45631 15.5083 1.9799 16.4666L9.62115 30.4524C9.80604 30.7908 10.1609 31.0012 10.5465 31.0012H41.4004C41.786 31.0012 42.1408 30.7908 42.3257 30.4524L49.967 16.4666C50.4906 15.5083 51.9468 15.8802 51.9468 16.9722L51.9467 56.468C51.9467 56.8329 51.7581 57.1719 51.4479 57.3642L26.529 72.8125Z" fill="url(#paint0_linear_130_66)"/>
<path fill-rule="evenodd" clip-rule="evenodd" d="M26.5285 72.8124C26.1882 73.0234 25.7577 73.0234 25.4174 72.8124L3.26682 59.0801C2.36472 58.5208 2.76103 57.1295 3.82242 57.1295H48.1243C49.1857 57.1295 49.582 58.5209 48.6799 59.0801L26.5285 72.8124Z" fill="url(#paint1_linear_130_66)"/>
<rect x="22.354" y="55.2315" width="7.38107" height="3.58509" rx="1.05444" fill="url(#paint2_linear_130_66)"/>
<path d="M97.9001 22.9056V29.3966H81.1845V39.6786H93.9941V46.0547H81.1845V63H73.1427V22.9056H97.9001ZM120.031 63.517C116.967 63.517 114.21 62.8468 111.759 61.5065C109.308 60.1279 107.375 58.194 105.958 55.7049C104.579 53.2157 103.89 50.3437 103.89 47.0886C103.89 43.8336 104.598 40.9615 106.015 38.4724C107.47 35.9832 109.442 34.0685 111.932 32.7282C114.421 31.3496 117.197 30.6603 120.261 30.6603C123.324 30.6603 126.101 31.3496 128.59 32.7282C131.079 34.0685 133.032 35.9832 134.449 38.4724C135.904 40.9615 136.632 43.8336 136.632 47.0886C136.632 50.3437 135.885 53.2157 134.391 55.7049C132.936 58.194 130.945 60.1279 128.417 61.5065C125.928 62.8468 123.133 63.517 120.031 63.517ZM120.031 56.5091C121.486 56.5091 122.846 56.1644 124.109 55.4751C125.411 54.7475 126.445 53.6753 127.211 52.2584C127.977 50.8415 128.36 49.1182 128.36 47.0886C128.36 44.0634 127.556 41.7465 125.947 40.1382C124.377 38.4915 122.443 37.6682 120.146 37.6682C117.848 37.6682 115.914 38.4915 114.344 40.1382C112.812 41.7465 112.046 44.0634 112.046 47.0886C112.046 50.1139 112.793 52.4499 114.287 54.0965C115.818 55.7049 117.733 56.5091 120.031 56.5091ZM162.405 63L155.857 53.12L150.055 63H141.439L151.836 47.0312L141.324 31.1772H150.4L156.891 40.9998L162.75 31.1772H171.366L160.912 47.0312L171.481 63H162.405Z" fill="url(#paint3_linear_130_66)"/>
<defs>
<linearGradient id="paint0_linear_130_66" x1="25.9734" y1="12.8431" x2="25.9734" y2="73.1569" gradientUnits="userSpaceOnUse">
<stop stop-color="#D54310"/>
<stop offset="1" stop-color="#D27B5D"/>
</linearGradient>
<linearGradient id="paint1_linear_130_66" x1="25.9734" y1="57.1295" x2="25.9734" y2="72.9706" gradientUnits="userSpaceOnUse">
<stop stop-color="#E9E1E1"/>
<stop offset="1" stop-color="white"/>
</linearGradient>
<linearGradient id="paint2_linear_130_66" x1="26.0445" y1="55.2315" x2="26.0445" y2="58.8166" gradientUnits="userSpaceOnUse">
<stop stop-color="#39393F"/>
<stop offset="1" stop-color="#9695A5"/>
</linearGradient>
<linearGradient id="paint3_linear_130_66" x1="120.679" y1="0" x2="120.679" y2="86" gradientUnits="userSpaceOnUse">
<stop stop-color="#131313"/>
<stop offset="1" stop-color="#39393F"/>
</linearGradient>
</defs>
</svg>
