<svg width="260" height="352" viewBox="0 0 260 352" fill="none" xmlns="http://www.w3.org/2000/svg">
<path d="M86.5484 269.683C87.2966 273.509 82.688 276.036 79.8646 273.348L32.2705 228.033C31.1252 226.943 30.7298 225.28 31.2617 223.791L56.2901 153.714C57.6576 149.885 63.2023 150.301 63.9827 154.291L86.5484 269.683Z" fill="#D8633B"/>
<path fill-rule="evenodd" clip-rule="evenodd" d="M56.2905 153.714C57.658 149.885 63.2023 150.301 63.9829 154.291L72.5659 198.181H40.4087L56.2905 153.714Z" fill="#FAE0BE"/>
<path d="M95.3816 132.159C105.288 111.443 134.778 111.443 144.685 132.159L198.352 244.385C207.025 262.521 193.804 283.499 173.701 283.499H66.3656C46.262 283.499 33.0411 262.521 41.7141 244.385L95.3816 132.159Z" fill="#DD704B"/>
<path d="M96.1004 210.931C106.036 190.314 135.396 190.314 145.332 210.931L161.583 244.652C170.326 262.795 157.107 283.84 136.967 283.84H104.465C84.3257 283.84 71.1061 262.795 79.8494 244.652L96.1004 210.931Z" fill="#FAE0BE"/>
<path d="M120.978 175.09C119.984 175.706 118.727 175.706 117.733 175.09L44.979 129.986C44.0735 129.425 43.5226 128.435 43.5226 127.37L43.5226 12.0558C43.5226 8.86752 47.7741 7.78183 49.3028 10.5797L71.6126 51.4132C72.1524 52.4012 73.1884 53.0157 74.3143 53.0157H164.397C165.523 53.0157 166.559 52.4012 167.098 51.4132L189.408 10.5797C190.937 7.7818 195.188 8.86751 195.188 12.0558L195.188 127.37C195.188 128.435 194.637 129.425 193.732 129.986L120.978 175.09Z" fill="url(#paint0_linear_904_729)"/>
<path fill-rule="evenodd" clip-rule="evenodd" d="M120.975 175.09C119.981 175.706 118.724 175.706 117.73 175.09L53.0573 134.996C50.4235 133.363 51.5806 129.301 54.6795 129.301H184.024C187.123 129.301 188.28 133.363 185.647 134.996L120.975 175.09Z" fill="url(#paint1_linear_904_729)"/>
<rect x="108.786" y="123.759" width="21.5501" height="10.4672" rx="3.07859" fill="url(#paint2_linear_904_729)"/>
<path d="M233.777 290.575C225.386 296.671 213.643 294.811 207.548 286.421C205.055 282.99 203.894 278.998 203.964 275.062L203.894 275.113L203.992 274.329C204.04 273.486 204.145 272.648 204.305 271.819L206.627 253.205L224.424 256.683C225.713 256.799 226.988 257.047 228.227 257.425L228.236 257.427L228.235 257.428C232.001 258.577 235.438 260.915 237.931 264.346C244.027 272.736 242.167 284.48 233.777 290.575Z" fill="#FFCAD5"/>
<path d="M190.681 285.431C182.292 279.335 180.432 267.592 186.528 259.202C189.02 255.771 192.457 253.433 196.223 252.283L196.153 252.232L196.928 252.084C197.745 251.869 198.575 251.709 199.412 251.606L217.833 248.062L220.025 266.063C220.313 267.324 220.471 268.613 220.495 269.909L220.495 269.918L220.495 269.917C220.565 273.854 219.403 277.845 216.911 281.276C210.815 289.666 199.071 291.526 190.681 285.431Z" fill="#FFCAD5"/>
<path d="M182.258 242.854C185.463 232.991 196.057 227.594 205.92 230.799C209.953 232.109 213.239 234.655 215.495 237.882L215.522 237.799L215.903 238.491C216.36 239.201 216.768 239.941 217.126 240.705L226.188 257.129L209.746 264.777C208.635 265.44 207.457 265.989 206.233 266.412L206.224 266.415L206.225 266.414C202.502 267.698 198.347 267.827 194.314 266.516C184.451 263.311 179.053 252.717 182.258 242.854Z" fill="#FFCAD5"/>
<path d="M220.147 221.685C230.518 221.686 238.925 230.093 238.925 240.464C238.925 244.704 237.518 248.616 235.147 251.76H235.234L234.694 252.336C234.16 252.99 233.582 253.606 232.966 254.182L220.146 267.877L207.792 254.602C206.818 253.75 205.932 252.801 205.151 251.766L205.146 251.76H205.146C202.776 248.616 201.369 244.704 201.369 240.464C201.369 230.093 209.777 221.685 220.147 221.685Z" fill="#FFCAD5"/>
<path d="M251.987 251.179C255.191 261.042 249.793 271.635 239.93 274.84C235.897 276.15 231.742 276.021 228.02 274.738L228.047 274.821L227.332 274.485C226.545 274.179 225.78 273.82 225.041 273.412L208.056 265.452L216.863 249.6C217.372 248.41 218.002 247.274 218.744 246.212L218.749 246.204L218.749 246.205C221.006 242.979 224.292 240.433 228.325 239.122C238.188 235.917 248.782 241.315 251.987 251.179Z" fill="#FFCAD5"/>
<path d="M214.663 248.512C214.765 247.285 216.561 247.285 216.663 248.512C216.746 249.517 218.093 249.785 218.555 248.889C219.118 247.794 220.778 248.481 220.402 249.654C220.095 250.614 221.237 251.377 222.006 250.726C222.946 249.93 224.216 251.2 223.42 252.14C222.769 252.909 223.532 254.051 224.492 253.744C225.665 253.368 226.352 255.027 225.257 255.591C224.361 256.053 224.629 257.4 225.634 257.483C226.861 257.585 226.861 259.381 225.634 259.483C224.629 259.566 224.361 260.913 225.257 261.375C226.352 261.938 225.665 263.598 224.492 263.222C223.532 262.915 222.769 264.057 223.42 264.826C224.216 265.766 222.946 267.036 222.006 266.24C221.237 265.589 220.095 266.352 220.402 267.312C220.778 268.485 219.118 269.172 218.555 268.077C218.093 267.181 216.746 267.449 216.663 268.454C216.561 269.681 214.765 269.681 214.663 268.454C214.58 267.449 213.233 267.181 212.771 268.077C212.207 269.172 210.548 268.485 210.923 267.312C211.231 266.352 210.089 265.589 209.32 266.24C208.38 267.036 207.11 265.766 207.906 264.826C208.557 264.057 207.794 262.915 206.834 263.222C205.661 263.598 204.974 261.938 206.069 261.375C206.965 260.913 206.697 259.566 205.692 259.483C204.465 259.381 204.465 257.585 205.692 257.483C206.697 257.4 206.965 256.053 206.069 255.591C204.974 255.027 205.661 253.368 206.834 253.744C207.794 254.051 208.557 252.909 207.906 252.14C207.11 251.2 208.38 249.93 209.32 250.726C210.089 251.377 211.231 250.614 210.923 249.654C210.548 248.481 212.207 247.794 212.771 248.889C213.233 249.785 214.58 249.517 214.663 248.512Z" fill="#FFF8F0"/>
<defs>
<linearGradient id="paint0_linear_904_729" x1="119.356" y1="0.000213623" x2="119.356" y2="176.095" gradientUnits="userSpaceOnUse">
<stop stop-color="#D54310"/>
<stop offset="1" stop-color="#D27B5D"/>
</linearGradient>
<linearGradient id="paint1_linear_904_729" x1="119.352" y1="129.301" x2="119.352" y2="175.552" gradientUnits="userSpaceOnUse">
<stop stop-color="#FFEACF"/>
<stop offset="1" stop-color="#FAE0BE"/>
</linearGradient>
<linearGradient id="paint2_linear_904_729" x1="119.561" y1="123.759" x2="119.561" y2="134.226" gradientUnits="userSpaceOnUse">
<stop stop-color="#39393F"/>
<stop offset="1" stop-color="#9695A5"/>
</linearGradient>
</defs>
</svg>
