<svg width="287" height="352" viewBox="0 0 287 352" fill="none" xmlns="http://www.w3.org/2000/svg">
<path d="M113.549 269.683C114.297 273.509 109.689 276.036 106.865 273.348L59.2712 228.033C58.1259 226.943 57.7306 225.28 58.2624 223.791L83.2908 153.714C84.6583 149.885 90.2031 150.301 90.9834 154.291L113.549 269.683Z" fill="#D8633B"/>
<path fill-rule="evenodd" clip-rule="evenodd" d="M83.291 153.714C84.6585 149.885 90.2028 150.301 90.9834 154.291L99.5664 198.181H67.4092L83.291 153.714Z" fill="#FAE0BE"/>
<path d="M122.383 132.159C132.289 111.443 161.779 111.443 171.686 132.159L225.353 244.385C234.026 262.521 220.805 283.499 200.702 283.499H93.3666C73.263 283.499 60.0421 262.521 68.7151 244.385L122.383 132.159Z" fill="#DD704B"/>
<path d="M123.101 210.931C133.036 190.314 162.397 190.314 172.332 210.931L188.583 244.652C197.327 262.795 184.107 283.84 163.968 283.84H131.466C111.326 283.84 98.1066 262.795 106.85 244.652L123.101 210.931Z" fill="#FAE0BE"/>
<path d="M147.979 175.09C146.985 175.706 145.728 175.706 144.734 175.09L71.98 129.986C71.0744 129.425 70.5235 128.435 70.5235 127.37L70.5236 12.0558C70.5236 8.86752 74.7751 7.78183 76.3038 10.5797L98.6136 51.4132C99.1534 52.4012 100.189 53.0157 101.315 53.0157H191.398C192.523 53.0157 193.56 52.4012 194.099 51.4132L216.409 10.5797C217.938 7.7818 222.189 8.86751 222.189 12.0558L222.189 127.37C222.189 128.435 221.638 129.425 220.733 129.986L147.979 175.09Z" fill="url(#paint0_linear_1573_5170)"/>
<path fill-rule="evenodd" clip-rule="evenodd" d="M147.975 175.09C146.981 175.706 145.724 175.706 144.73 175.09L80.0576 134.996C77.4238 133.363 78.5809 129.301 81.6797 129.301H211.026C214.124 129.301 215.281 133.363 212.648 134.996L147.975 175.09Z" fill="url(#paint1_linear_1573_5170)"/>
<rect x="135.786" y="123.759" width="21.5501" height="10.4672" rx="3.07859" fill="url(#paint2_linear_1573_5170)"/>
<path d="M260.778 290.575C252.388 296.671 240.645 294.81 234.549 286.42C232.056 282.989 230.895 278.998 230.965 275.061L230.895 275.113L230.993 274.329C231.041 273.486 231.146 272.647 231.306 271.819L233.628 253.205L251.425 256.682C252.714 256.799 253.989 257.047 255.229 257.425L255.237 257.427L255.237 257.427C259.002 258.577 262.439 260.915 264.932 264.346C271.028 272.736 269.168 284.479 260.778 290.575Z" fill="#FFCAD5"/>
<path d="M217.682 285.431C209.292 279.335 207.433 267.592 213.528 259.202C216.021 255.771 219.458 253.433 223.224 252.283L223.154 252.232L223.929 252.084C224.746 251.869 225.576 251.709 226.413 251.606L244.833 248.062L247.026 266.063C247.313 267.324 247.472 268.613 247.495 269.909L247.496 269.918L247.495 269.917C247.566 273.854 246.404 277.845 243.912 281.276C237.816 289.666 226.072 291.526 217.682 285.431Z" fill="#FFCAD5"/>
<path d="M209.259 242.854C212.464 232.991 223.058 227.594 232.921 230.798C236.954 232.109 240.24 234.655 242.496 237.881L242.523 237.799L242.904 238.49C243.361 239.201 243.769 239.941 244.127 240.705L253.189 257.129L236.747 264.777C235.636 265.44 234.458 265.989 233.234 266.412L233.225 266.415L233.226 266.414C229.503 267.698 225.348 267.826 221.315 266.516C211.452 263.311 206.054 252.717 209.259 242.854Z" fill="#FFCAD5"/>
<path d="M247.148 221.685C257.519 221.686 265.926 230.093 265.926 240.464C265.926 244.704 264.519 248.616 262.148 251.76H262.235L261.695 252.336C261.161 252.99 260.583 253.606 259.967 254.182L247.147 267.877L234.793 254.602C233.819 253.75 232.933 252.801 232.152 251.766L232.146 251.76H232.147C229.777 248.616 228.37 244.704 228.37 240.464C228.37 230.093 236.778 221.685 247.148 221.685Z" fill="#FFCAD5"/>
<path d="M278.988 251.179C282.193 261.042 276.795 271.635 266.932 274.84C262.899 276.15 258.744 276.021 255.021 274.738L255.048 274.821L254.333 274.485C253.546 274.179 252.781 273.82 252.043 273.412L235.057 265.452L243.864 249.6C244.374 248.41 245.003 247.274 245.746 246.212L245.75 246.204L245.751 246.205C248.007 242.979 251.293 240.433 255.326 239.122C265.189 235.917 275.784 241.315 278.988 251.179Z" fill="#FFCAD5"/>
<path d="M241.664 248.512C241.766 247.285 243.562 247.285 243.664 248.512C243.747 249.517 245.094 249.785 245.556 248.889C246.119 247.794 247.779 248.481 247.403 249.654C247.096 250.614 248.238 251.377 249.007 250.726C249.947 249.93 251.217 251.2 250.421 252.14C249.77 252.909 250.533 254.051 251.493 253.744C252.666 253.368 253.353 255.027 252.258 255.591C251.362 256.053 251.63 257.4 252.635 257.483C253.862 257.585 253.862 259.381 252.635 259.483C251.63 259.566 251.362 260.913 252.258 261.375C253.353 261.938 252.666 263.598 251.493 263.222C250.533 262.915 249.77 264.057 250.421 264.826C251.217 265.766 249.947 267.036 249.007 266.24C248.238 265.589 247.096 266.352 247.403 267.312C247.779 268.485 246.119 269.172 245.556 268.077C245.094 267.181 243.747 267.449 243.664 268.454C243.562 269.681 241.766 269.681 241.664 268.454C241.581 267.449 240.234 267.181 239.772 268.077C239.208 269.172 237.549 268.485 237.924 267.312C238.232 266.352 237.09 265.589 236.321 266.24C235.381 267.036 234.111 265.766 234.906 264.826C235.558 264.057 234.795 262.915 233.835 263.222C232.662 263.598 231.975 261.938 233.07 261.375C233.966 260.913 233.698 259.566 232.693 259.483C231.466 259.381 231.466 257.585 232.693 257.483C233.698 257.4 233.966 256.053 233.07 255.591C231.975 255.027 232.662 253.368 233.835 253.744C234.795 254.051 235.558 252.909 234.906 252.14C234.111 251.2 235.381 249.93 236.321 250.726C237.09 251.377 238.232 250.614 237.924 249.654C237.549 248.481 239.208 247.794 239.772 248.889C240.234 249.785 241.581 249.517 241.664 248.512Z" fill="#FFF8F0"/>
<path d="M38.0827 159.971C32.9108 163.728 25.6721 162.582 21.9145 157.41C20.3776 155.295 19.6626 152.834 19.7063 150.406L19.6613 150.439L19.723 149.948C19.7522 149.441 19.8167 148.938 19.9114 148.441L21.3464 136.935L32.3373 139.082C33.1217 139.154 33.8978 139.305 34.6526 139.534L34.6668 139.537L34.6652 139.538C36.9871 140.247 39.1067 141.687 40.6435 143.802C44.4011 148.974 43.2546 156.213 38.0827 159.971Z" fill="#92BB87"/>
<path d="M11.5163 156.799C6.34442 153.042 5.19798 145.803 8.95553 140.631C10.4924 138.516 12.6119 137.075 14.9339 136.367L14.8888 136.334L15.3754 136.241C15.8658 136.112 16.3641 136.018 16.8667 135.954L28.2527 133.764L29.6072 144.88C29.7808 145.649 29.8777 146.433 29.8928 147.222L29.8944 147.236L29.8928 147.235C29.9365 149.662 29.2214 152.123 27.6846 154.238C23.927 159.41 16.6882 160.557 11.5163 156.799Z" fill="#92BB87"/>
<path d="M6.324 130.554C8.2995 124.474 14.8297 121.147 20.9096 123.122C23.3963 123.93 25.4213 125.501 26.8126 127.49L26.8298 127.437L27.0687 127.871C27.3427 128.298 27.5862 128.743 27.8021 129.201L33.404 139.353L23.2502 144.076C22.573 144.479 21.8569 144.813 21.1114 145.071L21.0982 145.077L21.0988 145.076C18.8039 145.867 16.2424 145.948 13.7557 145.14C7.67586 143.164 4.34859 136.634 6.324 130.554Z" fill="#92BB87"/>
<path d="M29.6797 117.505C36.0725 117.505 41.2548 122.687 41.2549 129.08C41.2549 131.694 40.3869 134.106 38.9248 136.044H38.9805L38.6416 136.405C38.3205 136.797 37.9726 137.166 37.6035 137.513L29.6797 145.978L22.0498 137.781C21.4577 137.261 20.9182 136.684 20.4424 136.054L20.4326 136.044H20.4346C18.9726 134.106 18.1045 131.694 18.1045 129.08C18.1046 122.687 23.2869 117.505 29.6797 117.505Z" fill="#92BB87"/>
<path d="M49.3074 135.685C51.2829 141.765 47.9556 148.295 41.8757 150.27C39.389 151.078 36.8275 150.998 34.5326 150.206L34.5498 150.259L34.1014 150.049C33.6291 149.864 33.1705 149.648 32.7265 149.404L22.2274 144.484L27.6657 134.694C27.9769 133.97 28.3596 133.279 28.811 132.632L28.8182 132.619L28.8188 132.621C30.2101 130.632 32.2352 129.061 34.7218 128.253C40.8017 126.278 47.3319 129.605 49.3074 135.685Z" fill="#92BB87"/>
<path d="M26.2994 134.042C26.3622 133.285 27.4694 133.285 27.5321 134.042C27.5835 134.661 28.4139 134.826 28.6984 134.273C29.0459 133.599 30.0688 134.022 29.8373 134.745C29.6477 135.337 30.3517 135.808 30.826 135.406C31.4053 134.915 32.1882 135.698 31.6977 136.278C31.296 136.752 31.7664 137.456 32.3583 137.266C33.0812 137.035 33.505 138.058 32.8301 138.405C32.2775 138.69 32.4426 139.52 33.062 139.571C33.8185 139.634 33.8185 140.741 33.062 140.804C32.4426 140.855 32.2775 141.686 32.8301 141.97C33.505 142.318 33.0812 143.341 32.3583 143.109C31.7664 142.92 31.296 143.624 31.6977 144.098C32.1882 144.677 31.4053 145.46 30.826 144.97C30.3517 144.568 29.6477 145.038 29.8373 145.63C30.0688 146.353 29.0459 146.777 28.6984 146.102C28.4139 145.549 27.5835 145.715 27.5321 146.334C27.4694 147.09 26.3622 147.09 26.2994 146.334C26.2481 145.715 25.4176 145.549 25.1332 146.102C24.7857 146.777 23.7627 146.353 23.9943 145.63C24.1838 145.038 23.4799 144.568 23.0056 144.97C22.4263 145.46 21.6433 144.677 22.1339 144.098C22.5355 143.624 22.0652 142.92 21.4733 143.109C20.7503 143.341 20.3266 142.318 21.0015 141.97C21.5541 141.686 21.3889 140.855 20.7695 140.804C20.013 140.741 20.013 139.634 20.7695 139.571C21.3889 139.52 21.5541 138.69 21.0015 138.405C20.3266 138.058 20.7503 137.035 21.4733 137.266C22.0652 137.456 22.5355 136.752 22.1339 136.278C21.6433 135.698 22.4263 134.915 23.0056 135.406C23.4799 135.808 24.1838 135.337 23.9943 134.745C23.7627 134.022 24.7857 133.599 25.1332 134.273C25.4176 134.826 26.2481 134.661 26.2994 134.042Z" fill="#FFF8F0"/>
<defs>
<linearGradient id="paint0_linear_1573_5170" x1="146.356" y1="0.000213623" x2="146.356" y2="176.095" gradientUnits="userSpaceOnUse">
<stop stop-color="#D54310"/>
<stop offset="1" stop-color="#D27B5D"/>
</linearGradient>
<linearGradient id="paint1_linear_1573_5170" x1="146.353" y1="129.301" x2="146.353" y2="175.552" gradientUnits="userSpaceOnUse">
<stop stop-color="#FFEACF"/>
<stop offset="1" stop-color="#FAE0BE"/>
</linearGradient>
<linearGradient id="paint2_linear_1573_5170" x1="146.561" y1="123.759" x2="146.561" y2="134.226" gradientUnits="userSpaceOnUse">
<stop stop-color="#39393F"/>
<stop offset="1" stop-color="#9695A5"/>
</linearGradient>
</defs>
</svg>
