<svg width="175" height="265" viewBox="0 0 175 265" fill="none" xmlns="http://www.w3.org/2000/svg">
<path d="M65.2424 203.295C65.8064 206.179 62.3323 208.083 60.204 206.057L24.3261 171.898C23.4628 171.076 23.1648 169.822 23.5657 168.7L42.4328 115.873C43.4637 112.987 47.6435 113.301 48.2317 116.309L65.2424 203.295Z" fill="#D8633B"/>
<path fill-rule="evenodd" clip-rule="evenodd" d="M42.4326 115.873C43.4636 112.987 47.643 113.301 48.2314 116.309L54.7012 149.394H30.46L42.4326 115.873Z" fill="#FAE0BE"/>
<path d="M71.9016 99.6246C79.3693 84.0087 101.6 84.0087 109.068 99.6246L149.524 184.224C156.062 197.896 146.095 213.709 130.941 213.709H50.0284C34.8737 213.709 24.9075 197.896 31.4454 184.224L71.9016 99.6246Z" fill="#DD704B"/>
<path d="M72.4439 159.005C79.9335 143.464 102.066 143.464 109.556 159.005L121.807 184.426C128.397 198.102 118.432 213.967 103.25 213.967H78.7495C63.5678 213.967 53.6025 198.102 60.1934 184.426L72.4439 159.005Z" fill="#FAE0BE"/>
<path d="M91.1964 131.988C90.4473 132.452 89.4998 132.452 88.7507 131.988L33.9064 97.987C33.2238 97.5638 32.8085 96.8178 32.8085 96.0146L32.8085 9.08775C32.8085 6.68433 36.0135 5.86588 37.1658 7.97504L53.9836 38.7565C54.3905 39.5013 55.1715 39.9645 56.0202 39.9645H123.927C124.776 39.9645 125.557 39.5013 125.963 38.7565L142.781 7.97501C143.934 5.86586 147.139 6.6843 147.139 9.08773L147.139 96.0146C147.139 96.8178 146.723 97.5638 146.041 97.987L91.1964 131.988Z" fill="url(#paint0_linear_1580_1815)"/>
<path fill-rule="evenodd" clip-rule="evenodd" d="M91.1938 131.988C90.4447 132.452 89.4972 132.452 88.7481 131.988L39.9956 101.763C38.0101 100.533 38.8824 97.4702 41.2184 97.4702H138.723C141.06 97.4702 141.932 100.533 139.946 101.763L91.1938 131.988Z" fill="url(#paint1_linear_1580_1815)"/>
<rect x="82.0054" y="93.293" width="16.2451" height="7.89048" rx="2.32073" fill="url(#paint2_linear_1580_1815)"/>
<path d="M128.5 72C143.136 72 155 83.8645 155 98.5C155 113.136 143.136 125 128.5 125C113.864 125 102 113.136 102 98.5C102 83.8645 113.864 72 128.5 72ZM128.5 79C117.73 79 109 87.7304 109 98.5C109 109.27 117.73 118 128.5 118C139.27 118 148 109.27 148 98.5C148 87.7304 139.27 79 128.5 79Z" fill="#39393F"/>
<circle cx="128.5" cy="98.5" r="19.5" fill="#D9D9D9" fill-opacity="0.6"/>
<rect x="133.924" y="122.268" width="10" height="40" rx="3" transform="rotate(-29.55 133.924 122.268)" fill="#39393F"/>
<defs>
<linearGradient id="paint0_linear_1580_1815" x1="89.9736" y1="-0.00012207" x2="89.9736" y2="132.746" gradientUnits="userSpaceOnUse">
<stop stop-color="#D54310"/>
<stop offset="1" stop-color="#D27B5D"/>
</linearGradient>
<linearGradient id="paint1_linear_1580_1815" x1="89.9711" y1="97.4702" x2="89.9711" y2="132.336" gradientUnits="userSpaceOnUse">
<stop stop-color="#FFEACF"/>
<stop offset="1" stop-color="#FAE0BE"/>
</linearGradient>
<linearGradient id="paint2_linear_1580_1815" x1="90.1279" y1="93.293" x2="90.1279" y2="101.183" gradientUnits="userSpaceOnUse">
<stop stop-color="#39393F"/>
<stop offset="1" stop-color="#9695A5"/>
</linearGradient>
</defs>
</svg>
