<svg width="88" height="75" viewBox="0 0 88 75" fill="none" xmlns="http://www.w3.org/2000/svg">
<path d="M87.2774 39.4531L74.7774 8.20312C74.5022 7.51479 73.9912 6.94672 73.3357 6.60039C72.6803 6.25405 71.923 6.15202 71.1993 6.3125L46.8751 11.7188V3.125C46.8751 2.2962 46.5458 1.50134 45.9598 0.915292C45.3737 0.329241 44.5789 0 43.7501 0C42.9213 0 42.1264 0.329241 41.5404 0.915292C40.9543 1.50134 40.6251 2.2962 40.6251 3.125V13.1172L14.9454 18.8242C14.4503 18.9336 13.9892 19.1618 13.602 19.4891C13.2147 19.8165 12.913 20.2331 12.7227 20.7031V20.7266L0.222716 51.9531C0.0731817 52.3256 -0.00244236 52.7236 6.01358e-05 53.125C6.01358e-05 62.2305 9.586 65.625 15.6251 65.625C21.6641 65.625 31.2501 62.2305 31.2501 53.125C31.2526 52.7236 31.1769 52.3256 31.0274 51.9531L19.8907 24.1289L40.6251 19.5312V68.75H34.3751C33.5463 68.75 32.7514 69.0792 32.1654 69.6653C31.5793 70.2513 31.2501 71.0462 31.2501 71.875C31.2501 72.7038 31.5793 73.4987 32.1654 74.0847C32.7514 74.6708 33.5463 75 34.3751 75H53.1251C53.9539 75 54.7487 74.6708 55.3348 74.0847C55.9208 73.4987 56.2501 72.7038 56.2501 71.875C56.2501 71.0462 55.9208 70.2513 55.3348 69.6653C54.7487 69.0792 53.9539 68.75 53.1251 68.75H46.8751V18.1328L66.7969 13.7109L56.4727 39.4531C56.3232 39.8256 56.2476 40.2236 56.2501 40.625C56.2501 49.7305 65.836 53.125 71.8751 53.125C77.9141 53.125 87.5001 49.7305 87.5001 40.625C87.5026 40.2236 87.4269 39.8256 87.2774 39.4531ZM15.6251 59.375C12.6837 59.375 6.73444 57.9648 6.2774 53.6562L15.6251 30.2891L24.9727 53.6562C24.5157 57.9648 18.5665 59.375 15.6251 59.375ZM71.8751 46.875C68.9337 46.875 62.9844 45.4648 62.5274 41.1562L71.8751 17.7891L81.2227 41.1562C80.7657 45.4648 74.8165 46.875 71.8751 46.875Z" fill="#FFF8F0"/>
</svg>
