<svg width="100" height="100" viewBox="0 0 100 100" fill="none" xmlns="http://www.w3.org/2000/svg">
<path d="M50 9.375C41.9652 9.375 34.1107 11.7576 27.43 16.2215C20.7492 20.6855 15.5422 27.0302 12.4674 34.4535C9.3926 41.8767 8.58809 50.0451 10.1556 57.9255C11.7231 65.806 15.5923 73.0447 21.2738 78.7262C26.9553 84.4077 34.194 88.2769 42.0745 89.8444C49.955 91.4119 58.1233 90.6074 65.5465 87.5326C72.9698 84.4578 79.3145 79.2508 83.7785 72.57C88.2424 65.8893 90.625 58.0349 90.625 50C90.6136 39.2291 86.3299 28.9025 78.7137 21.2863C71.0975 13.6701 60.7709 9.38637 50 9.375ZM50 84.375C43.2013 84.375 36.5552 82.3589 30.9023 78.5818C25.2494 74.8046 20.8434 69.436 18.2417 63.1547C15.6399 56.8735 14.9592 49.9619 16.2855 43.2938C17.6119 36.6257 20.8858 30.5006 25.6932 25.6932C30.5007 20.8858 36.6257 17.6119 43.2938 16.2855C49.9619 14.9591 56.8736 15.6399 63.1548 18.2416C69.436 20.8434 74.8046 25.2493 78.5818 30.9023C82.359 36.5552 84.375 43.2013 84.375 50C84.3647 59.1136 80.7397 67.8511 74.2954 74.2954C67.8511 80.7397 59.1137 84.3647 50 84.375ZM31.25 42.1875C31.25 41.2604 31.5249 40.3541 32.04 39.5833C32.5551 38.8124 33.2872 38.2116 34.1437 37.8568C35.0002 37.502 35.9427 37.4092 36.852 37.5901C37.7613 37.7709 38.5965 38.2174 39.2521 38.8729C39.9076 39.5285 40.3541 40.3637 40.535 41.273C40.7158 42.1823 40.623 43.1248 40.2682 43.9813C39.9134 44.8379 39.3126 45.5699 38.5418 46.085C37.7709 46.6001 36.8646 46.875 35.9375 46.875C34.6943 46.875 33.502 46.3811 32.623 45.5021C31.7439 44.623 31.25 43.4307 31.25 42.1875ZM68.75 42.1875C68.75 43.1146 68.4751 44.0209 67.96 44.7917C67.445 45.5626 66.7129 46.1634 65.8563 46.5182C64.9998 46.873 64.0573 46.9658 63.148 46.7849C62.2387 46.6041 61.4035 46.1576 60.748 45.5021C60.0924 44.8465 59.646 44.0113 59.4651 43.102C59.2842 42.1927 59.377 41.2502 59.7318 40.3937C60.0866 39.5371 60.6874 38.8051 61.4583 38.29C62.2291 37.7749 63.1354 37.5 64.0625 37.5C65.3057 37.5 66.498 37.9939 67.3771 38.8729C68.2562 39.752 68.75 40.9443 68.75 42.1875ZM68.332 60.9375C64.3125 67.8867 57.6289 71.875 50 71.875C42.3711 71.875 35.6914 67.8906 31.6719 60.9375C31.4458 60.5818 31.294 60.1841 31.2256 59.7682C31.1572 59.3523 31.1736 58.9269 31.2739 58.5175C31.3741 58.1082 31.5562 57.7233 31.809 57.3861C32.0619 57.049 32.3804 56.7664 32.7452 56.5555C33.1101 56.3446 33.5139 56.2096 33.9323 56.1588C34.3507 56.108 34.775 56.1423 35.1798 56.2598C35.5846 56.3772 35.9614 56.5753 36.2877 56.8421C36.6139 57.109 36.8828 57.439 37.0781 57.8125C39.9961 62.8555 44.5821 65.625 50 65.625C55.418 65.625 60.0039 62.8516 62.918 57.8125C63.3324 57.0946 64.015 56.5706 64.8157 56.356C65.6164 56.1413 66.4696 56.2536 67.1875 56.668C67.9055 57.0824 68.4294 57.765 68.644 58.5657C68.8587 59.3664 68.7464 60.2196 68.332 60.9375Z" fill="#FFF8F0"/>
</svg>
