<svg width="100" height="100" viewBox="0 0 100 100" fill="none" xmlns="http://www.w3.org/2000/svg">
<path d="M89.9727 55.1014C88.9508 54.3139 87.7793 53.7426 86.5295 53.4222C85.2797 53.1019 83.9779 53.0393 82.7031 53.2382C90.0391 45.8319 93.75 38.4686 93.75 31.2499C93.75 20.91 85.4336 12.4999 75.2109 12.4999C72.4985 12.4828 69.8151 13.0597 67.3493 14.1901C64.8836 15.3204 62.6951 16.9767 60.9375 19.0428C59.1799 16.9767 56.9914 15.3204 54.5257 14.1901C52.0599 13.0597 49.3765 12.4828 46.6641 12.4999C36.4414 12.4999 28.125 20.91 28.125 31.2499C28.125 35.5468 29.3906 39.7225 32.0547 44.1405C29.8728 44.6933 27.8816 45.8273 26.293 47.4218L17.457 56.2499H6.25C4.5924 56.2499 3.00269 56.9084 1.83058 58.0805C0.65848 59.2526 0 60.8423 0 62.4999L0 78.1249C0 79.7825 0.65848 81.3722 1.83058 82.5443C3.00269 83.7164 4.5924 84.3749 6.25 84.3749H46.875C47.1305 84.375 47.385 84.3435 47.6328 84.2811L72.6328 78.0311C72.7922 77.9932 72.9477 77.9409 73.0977 77.8749L88.2812 71.4139L88.4531 71.3358C89.9124 70.6066 91.162 69.518 92.0842 68.1724C93.0064 66.8268 93.5709 65.2686 93.7245 63.6445C93.8781 62.0205 93.6157 60.384 92.962 58.8894C92.3084 57.3948 91.285 56.0912 89.9883 55.1014H89.9727ZM46.6641 18.7499C49.0844 18.7145 51.4604 19.4017 53.488 20.7238C55.5157 22.0459 57.103 23.9427 58.0469 26.1718C58.2823 26.7449 58.6828 27.2351 59.1975 27.5801C59.7122 27.9251 60.3179 28.1094 60.9375 28.1094C61.5571 28.1094 62.1628 27.9251 62.6775 27.5801C63.1922 27.2351 63.5927 26.7449 63.8281 26.1718C64.772 23.9427 66.3593 22.0459 68.387 20.7238C70.4146 19.4017 72.7906 18.7145 75.2109 18.7499C81.8711 18.7499 87.5 24.4725 87.5 31.2499C87.5 38.871 81.332 47.4921 69.6641 56.2108L65.332 57.2069C65.7123 55.6006 65.724 53.9291 65.3664 52.3176C65.0087 50.7062 64.291 49.1966 63.267 47.9019C62.2429 46.6073 60.9391 45.5613 59.4533 44.8422C57.9675 44.1231 56.3382 43.7497 54.6875 43.7499H39.3281C35.957 39.203 34.375 35.203 34.375 31.2499C34.375 24.4725 40.0039 18.7499 46.6641 18.7499ZM6.25 62.4999H15.625V78.1249H6.25V62.4999ZM85.7148 65.7069L70.8711 72.0272L46.4844 78.1249H21.875V60.6678L30.7148 51.8319C31.2931 51.249 31.9815 50.7869 32.7399 50.4724C33.4984 50.1579 34.3117 49.9973 35.1328 49.9999H54.6875C55.9307 49.9999 57.123 50.4937 58.0021 51.3728C58.8811 52.2519 59.375 53.4442 59.375 54.6874C59.375 55.9306 58.8811 57.1229 58.0021 58.0019C57.123 58.881 55.9307 59.3749 54.6875 59.3749H43.75C42.9212 59.3749 42.1263 59.7041 41.5403 60.2902C40.9542 60.8762 40.625 61.6711 40.625 62.4999C40.625 63.3287 40.9542 64.1235 41.5403 64.7096C42.1263 65.2956 42.9212 65.6249 43.75 65.6249H56.25C56.4852 65.6242 56.7197 65.598 56.9492 65.5467L83.1211 59.5272L83.2422 59.496C84.0411 59.2742 84.8939 59.3557 85.6363 59.7248C86.3788 60.0939 86.9585 60.7246 87.264 61.4954C87.5694 62.2663 87.5789 63.1229 87.2908 63.9004C87.0027 64.6778 86.4372 65.3213 85.7031 65.7069H85.7148Z" fill="#FFF8F0"/>
</svg>
