<svg width="104" height="42" viewBox="0 0 104 42" fill="none" xmlns="http://www.w3.org/2000/svg">
<path d="M15.8472 38.8088C15.6439 38.9348 15.3868 38.9348 15.1835 38.8088L0.297968 29.5806C0.112692 29.4657 -2.28882e-05 29.2632 -2.28882e-05 29.0452L-2.09808e-05 5.45207C-2.09808e-05 4.79975 0.869848 4.57761 1.18261 5.15007L5.74719 13.5046C5.85763 13.7067 6.0696 13.8325 6.29994 13.8325H24.7308C24.9611 13.8325 25.1731 13.7067 25.2835 13.5046L29.8481 5.15006C30.1609 4.57761 31.0308 4.79974 31.0308 5.45207L31.0307 29.0452C31.0307 29.2632 30.918 29.4657 30.7327 29.5806L15.8472 38.8088Z" fill="url(#paint0_linear_631_751)"/>
<path fill-rule="evenodd" clip-rule="evenodd" d="M15.8461 38.8088C15.6428 38.9349 15.3856 38.9349 15.1823 38.8088L1.95118 30.6056C1.41233 30.2715 1.64907 29.4404 2.28309 29.4404H28.7461C29.3802 29.4404 29.6169 30.2715 29.078 30.6056L15.8461 38.8088Z" fill="url(#paint1_linear_631_751)"/>
<rect x="13.3528" y="28.3066" width="4.40915" height="2.14159" rx="0.629878" fill="url(#paint2_linear_631_751)"/>
<path d="M56.4054 8.98065C56.8172 8.98065 57.1603 8.92918 57.4348 8.82624C57.7093 8.7233 57.9552 8.62036 58.1726 8.51742C58.3899 8.41448 58.6129 8.36301 58.8417 8.36301C59.1619 8.36301 59.4021 8.44879 59.5623 8.62036C59.7338 8.78049 59.8768 9.06072 59.9912 9.46104L61.398 14.6252C61.4781 14.8654 61.4495 15.0713 61.3122 15.2428C61.1864 15.403 61.0034 15.5002 60.7632 15.5345C60.5573 15.5688 60.3572 15.5459 60.1627 15.4659C59.9797 15.3858 59.8253 15.22 59.6995 14.9683C59.1162 13.7445 58.5672 12.818 58.0525 12.1889C57.5378 11.5484 57.0059 11.1138 56.4569 10.885C55.9079 10.6563 55.2731 10.5419 54.5525 10.5419H50.8295V30.3407C50.8295 30.5923 50.8981 30.7982 51.0354 30.9584C51.1726 31.1185 51.39 31.2214 51.6873 31.2672L53.2486 31.4902C53.5117 31.536 53.7004 31.6217 53.8148 31.7476C53.9291 31.8734 53.9863 32.0507 53.9863 32.2794C53.9863 32.4967 53.912 32.674 53.7633 32.8113C53.6146 32.9371 53.3801 33 53.0599 33H43.984C43.6637 33 43.4235 32.9371 43.2634 32.8113C43.1147 32.674 43.0404 32.4967 43.0404 32.2794C43.0404 31.8905 43.2634 31.6275 43.7095 31.4902L44.7389 31.2672C45.0134 31.1985 45.2193 31.0899 45.3565 30.9412C45.5052 30.7925 45.5796 30.5923 45.5796 30.3407V11.6399C45.5796 11.3883 45.5052 11.1881 45.3565 11.0395C45.2193 10.8908 45.0134 10.7821 44.7389 10.7135L43.7095 10.4904C43.2634 10.3532 43.0404 10.0901 43.0404 9.70123C43.0404 9.47248 43.1147 9.29519 43.2634 9.16937C43.4235 9.04356 43.6637 8.98065 43.984 8.98065H56.4054ZM48.8222 20.7158H54.2094C54.9643 20.7158 55.5018 20.5671 55.8221 20.2697C56.1424 19.9724 56.3826 19.389 56.5427 18.5198C56.5999 18.2796 56.6914 18.108 56.8172 18.0051C56.943 17.9021 57.0974 17.8449 57.2804 17.8335C57.7151 17.8106 57.9896 18.0279 58.1039 18.4855L59.3907 23.7011C59.4593 23.9641 59.4536 24.17 59.3735 24.3187C59.2935 24.4674 59.1562 24.5818 58.9618 24.6619C58.7559 24.719 58.5614 24.7133 58.3784 24.6447C58.1954 24.5761 58.0239 24.4331 57.8637 24.2158C57.5435 23.6896 57.2461 23.2836 56.9716 22.9977C56.6971 22.7117 56.3883 22.5173 56.0451 22.4143C55.7134 22.3 55.2902 22.2428 54.7755 22.2428H48.8222V20.7158ZM72.6571 16.4953C74.3842 16.4953 75.9054 16.8556 77.2208 17.5761C78.5475 18.2853 79.5769 19.2804 80.309 20.5614C81.0524 21.8424 81.4242 23.3179 81.4242 24.9878C81.4242 26.6006 81.041 28.0417 80.2747 29.3113C79.5198 30.5809 78.4732 31.5817 77.135 32.3137C75.7968 33.0458 74.2412 33.4118 72.4684 33.4118C70.7413 33.4118 69.2143 33.0515 67.8875 32.3309C66.5722 31.6103 65.5428 30.6152 64.7993 29.3456C64.0673 28.0646 63.7013 26.5948 63.7013 24.9364C63.7013 23.3008 64.0787 21.8539 64.8336 20.5957C65.6 19.3261 66.6523 18.3253 67.9905 17.5933C69.3287 16.8613 70.8842 16.4953 72.6571 16.4953ZM73.8237 31.799C74.6015 31.6732 75.2249 31.3129 75.6938 30.7182C76.1628 30.112 76.4602 29.2827 76.586 28.2304C76.7232 27.1667 76.6603 25.88 76.3972 24.3702C76.1342 22.8833 75.7567 21.6537 75.2649 20.6815C74.7731 19.7093 74.1898 19.0059 73.5149 18.5712C72.8401 18.1366 72.1024 17.9879 71.3017 18.1252C70.5239 18.2395 69.9006 18.5998 69.4316 19.206C68.9627 19.8008 68.6653 20.63 68.5395 21.6937C68.4137 22.746 68.4823 24.0271 68.7454 25.5368C68.997 27.0238 69.3687 28.2533 69.8606 29.2255C70.3638 30.1977 70.9529 30.9012 71.6277 31.3358C72.3025 31.759 73.0345 31.9134 73.8237 31.799ZM91.408 24.353L92.6604 25.0221L89.1948 29.7231C88.8631 30.1806 88.7316 30.5638 88.8002 30.8726C88.8688 31.1814 89.1319 31.4044 89.5894 31.5417L90.1556 31.6789C90.35 31.7476 90.493 31.8333 90.5845 31.9363C90.676 32.0392 90.7217 32.1708 90.7217 32.3309C90.7217 32.5253 90.6474 32.6855 90.4987 32.8113C90.35 32.9257 90.1441 32.9828 89.8811 32.9828H85.2144C84.9628 32.9828 84.7626 32.9257 84.614 32.8113C84.4653 32.6855 84.3909 32.5196 84.3909 32.3137C84.3909 32.165 84.4367 32.0392 84.5282 31.9363C84.6311 31.8219 84.8084 31.7075 85.06 31.5932C85.4032 31.4673 85.7005 31.3186 85.9522 31.1471C86.2152 30.9641 86.484 30.7182 86.7585 30.4093C87.0445 30.1005 87.3762 29.6945 87.7536 29.1912L91.408 24.353ZM92.1972 19.4805L95.4398 23.9927L95.6457 24.2158L100.055 30.1863C100.421 30.6553 100.713 30.9927 100.93 31.1985C101.159 31.4044 101.41 31.5531 101.685 31.6446C101.891 31.7361 102.034 31.8391 102.114 31.9534C102.205 32.0564 102.251 32.1822 102.251 32.3309C102.251 32.5368 102.177 32.7026 102.028 32.8284C101.879 32.9428 101.673 33 101.41 33H93.9472C93.6727 33 93.4611 32.9428 93.3124 32.8284C93.1637 32.7026 93.0894 32.5368 93.0894 32.3309C93.0894 32.1708 93.1237 32.0449 93.1923 31.9534C93.2724 31.8505 93.4039 31.7704 93.5869 31.7132L94.2389 31.5932C94.6163 31.5131 94.8222 31.3816 94.8565 31.1985C94.9022 31.0041 94.7993 30.7296 94.5477 30.375L91.1506 25.6398L90.9619 25.4167L86.81 19.5663C86.5126 19.1431 86.2438 18.8515 86.0036 18.6913C85.7635 18.5198 85.4889 18.3882 85.1801 18.2967C84.9399 18.2167 84.7741 18.1194 84.6826 18.0051C84.6025 17.8907 84.5625 17.742 84.5625 17.559C84.5625 17.3417 84.6368 17.1758 84.7855 17.0614C84.9342 16.9471 85.1401 16.8899 85.4032 16.8899H92.6947C92.9578 16.8899 93.1637 16.9471 93.3124 17.0614C93.4725 17.1758 93.5526 17.336 93.5526 17.5418C93.5526 17.6905 93.5126 17.8163 93.4325 17.9193C93.3639 18.0222 93.2495 18.108 93.0894 18.1766L92.4717 18.3482C92.1286 18.4511 91.9399 18.5884 91.9055 18.76C91.8827 18.9315 91.9799 19.1717 92.1972 19.4805ZM95.0281 25.3824L93.7928 24.6962L97.1555 20.184C97.4986 19.715 97.6359 19.3204 97.5672 19.0002C97.4986 18.6685 97.2298 18.4397 96.7609 18.3139L96.1947 18.1766C95.9888 18.108 95.8401 18.0222 95.7486 17.9193C95.6686 17.8163 95.6285 17.6905 95.6285 17.5418C95.6285 17.336 95.7029 17.1758 95.8516 17.0614C96.0003 16.9471 96.2061 16.8899 96.4692 16.8899H101.136C101.399 16.8899 101.599 16.9471 101.736 17.0614C101.885 17.1758 101.959 17.336 101.959 17.5418C101.959 17.702 101.908 17.8392 101.805 17.9536C101.713 18.0565 101.542 18.1595 101.29 18.2624C100.776 18.4454 100.341 18.7085 99.9863 19.0516C99.6432 19.3948 99.18 19.938 98.5966 20.6815L95.0281 25.3824Z" fill="url(#paint3_linear_631_751)"/>
<defs>
<linearGradient id="paint0_linear_631_751" x1="15.5154" y1="2.9855" x2="15.5154" y2="39.0145" gradientUnits="userSpaceOnUse">
<stop stop-color="#D54310"/>
<stop offset="1" stop-color="#D27B5D"/>
</linearGradient>
<linearGradient id="paint1_linear_631_751" x1="15.5146" y1="29.4404" x2="15.5146" y2="38.9033" gradientUnits="userSpaceOnUse">
<stop stop-color="#FFEACF"/>
<stop offset="1" stop-color="#FAE0BE"/>
</linearGradient>
<linearGradient id="paint2_linear_631_751" x1="15.5574" y1="28.3066" x2="15.5574" y2="30.4482" gradientUnits="userSpaceOnUse">
<stop stop-color="#39393F"/>
<stop offset="1" stop-color="#9695A5"/>
</linearGradient>
<linearGradient id="paint3_linear_631_751" x1="72.3247" y1="0" x2="72.3247" y2="42" gradientUnits="userSpaceOnUse">
<stop stop-color="#131313"/>
<stop offset="1" stop-color="#39393F"/>
</linearGradient>
</defs>
</svg>
