<svg width="106" height="1541" viewBox="0 0 106 1541" fill="none" xmlns="http://www.w3.org/2000/svg">
<path d="M14.9162 18.12C14.9162 18.2733 14.9595 18.4 15.0462 18.5C15.1328 18.5933 15.2562 18.6667 15.4162 18.72L15.9062 18.85C16.2062 18.9567 16.3562 19.1567 16.3562 19.45C16.3562 19.6167 16.2995 19.75 16.1862 19.85C16.0728 19.95 15.8962 20 15.6562 20H10.3262C10.0862 20 9.9095 19.95 9.79617 19.85C9.68284 19.75 9.62617 19.6167 9.62617 19.45C9.62617 19.1567 9.77617 18.9567 10.0762 18.85L10.5662 18.72C10.7328 18.6667 10.8562 18.5933 10.9362 18.5C11.0228 18.4 11.0662 18.2733 11.0662 18.12V7.88C11.0662 7.72667 11.0228 7.60333 10.9362 7.51C10.8562 7.41 10.7328 7.33333 10.5662 7.28L10.0762 7.15C9.77617 7.04333 9.62617 6.84333 9.62617 6.55C9.62617 6.37667 9.68284 6.24333 9.79617 6.15C9.9095 6.05 10.0862 6 10.3262 6H15.6562C15.8962 6 16.0728 6.05 16.1862 6.15C16.2995 6.24333 16.3562 6.37667 16.3562 6.55C16.3562 6.84333 16.2062 7.04333 15.9062 7.15L15.4162 7.28C15.2562 7.33333 15.1328 7.41 15.0462 7.51C14.9595 7.60333 14.9162 7.72667 14.9162 7.88V18.12ZM25.719 18.31L25.599 18.28V7.68C25.599 7.49333 25.5723 7.36 25.519 7.28C25.4657 7.2 25.3857 7.14667 25.279 7.12L24.899 7.07C24.7723 7.03667 24.679 6.98667 24.619 6.92C24.5657 6.84667 24.539 6.75333 24.539 6.64C24.539 6.51333 24.5757 6.41333 24.649 6.34C24.7223 6.26 24.859 6.18 25.059 6.1L27.159 5.33C27.4457 5.21667 27.6757 5.13667 27.849 5.09C28.0223 5.04333 28.1923 5.02 28.359 5.02C28.599 5.02 28.7823 5.09 28.909 5.23C29.0357 5.36333 29.099 5.54 29.099 5.76V18.21C29.099 18.4367 29.1223 18.6033 29.169 18.71C29.2223 18.81 29.3023 18.88 29.409 18.92L29.719 19.02C29.8523 19.0733 29.949 19.14 30.009 19.22C30.0757 19.3 30.109 19.3967 30.109 19.51C30.109 19.6633 30.059 19.7833 29.959 19.87C29.859 19.9567 29.699 20 29.479 20H27.119C26.7323 20 26.4023 19.87 26.129 19.61C25.8557 19.3433 25.719 19.0167 25.719 18.63V18.31ZM18.499 15.53C18.499 14.4567 18.7156 13.5233 19.149 12.73C19.5823 11.93 20.169 11.31 20.909 10.87C21.6557 10.43 22.4957 10.21 23.429 10.21C24.2223 10.21 24.9157 10.3867 25.509 10.74C26.109 11.0933 26.6123 11.6133 27.019 12.3L26.169 12.94C25.8623 12.4533 25.539 12.1 25.199 11.88C24.859 11.6533 24.4923 11.54 24.099 11.54C23.719 11.54 23.379 11.6633 23.079 11.91C22.779 12.1567 22.5457 12.5467 22.379 13.08C22.2123 13.6133 22.129 14.31 22.129 15.17C22.129 15.9567 22.2123 16.6 22.379 17.1C22.5457 17.6 22.7723 17.97 23.059 18.21C23.3523 18.4433 23.6857 18.56 24.059 18.56C24.4857 18.56 24.8757 18.4267 25.229 18.16C25.589 17.8933 25.9257 17.4767 26.239 16.91L26.799 17.51C26.259 18.37 25.6423 19.0433 24.949 19.53C24.2557 20.0167 23.479 20.26 22.619 20.26C21.8323 20.26 21.1257 20.06 20.499 19.66C19.879 19.2533 19.389 18.6967 19.029 17.99C18.6756 17.2767 18.499 16.4567 18.499 15.53ZM41.4938 14.05C41.4938 14.4433 41.3838 14.75 41.1638 14.97C40.9438 15.1833 40.6272 15.29 40.2138 15.29H34.1238V14.42H37.5038C37.8438 14.42 38.0138 14.26 38.0138 13.94C38.0138 13.06 37.8838 12.4133 37.6238 12C37.3705 11.58 37.0305 11.37 36.6038 11.37C36.2838 11.37 35.9972 11.4767 35.7438 11.69C35.4905 11.9033 35.2905 12.22 35.1438 12.64C35.0038 13.06 34.9338 13.5767 34.9338 14.19C34.9338 15.45 35.2205 16.3833 35.7938 16.99C36.3738 17.5967 37.1472 17.9 38.1138 17.9C38.6405 17.9 39.1072 17.8133 39.5138 17.64C39.9205 17.46 40.2638 17.1767 40.5438 16.79C40.6972 16.6433 40.8138 16.5467 40.8938 16.5C40.9738 16.4467 41.0538 16.42 41.1338 16.42C41.2472 16.42 41.3305 16.4767 41.3838 16.59C41.4372 16.6967 41.4638 16.8267 41.4638 16.98C41.4505 17.5667 41.2505 18.11 40.8638 18.61C40.4772 19.11 39.9472 19.51 39.2738 19.81C38.6005 20.11 37.8238 20.26 36.9438 20.26C35.9572 20.26 35.0772 20.06 34.3038 19.66C33.5305 19.26 32.9205 18.7033 32.4738 17.99C32.0272 17.27 31.8038 16.43 31.8038 15.47C31.8038 14.4233 32.0105 13.5067 32.4238 12.72C32.8438 11.9333 33.4472 11.32 34.2338 10.88C35.0205 10.4333 35.9638 10.21 37.0638 10.21C38.0238 10.21 38.8305 10.3767 39.4838 10.71C40.1438 11.0367 40.6438 11.49 40.9838 12.07C41.3238 12.6433 41.4938 13.3033 41.4938 14.05ZM49.3832 18.7V18.48L49.1332 18.46V12.22C49.1332 11.86 49.0399 11.5767 48.8532 11.37C48.6665 11.1633 48.4099 11.06 48.0832 11.06C47.7965 11.06 47.5665 11.1267 47.3932 11.26C47.2199 11.3867 47.1332 11.5467 47.1332 11.74V12.72C47.1332 13.2 46.9699 13.5733 46.6432 13.84C46.3232 14.1 45.8699 14.23 45.2832 14.23C44.7765 14.23 44.3965 14.1167 44.1432 13.89C43.8965 13.6633 43.7732 13.35 43.7732 12.95C43.7732 12.5233 43.9565 12.1033 44.3232 11.69C44.6899 11.27 45.2399 10.9233 45.9732 10.65C46.7065 10.37 47.6199 10.23 48.7132 10.23C50.0265 10.23 51.0032 10.4833 51.6432 10.99C52.2832 11.49 52.6032 12.1767 52.6032 13.05V18.04C52.6032 18.2 52.6365 18.3267 52.7032 18.42C52.7765 18.5067 52.8799 18.55 53.0132 18.55C53.1399 18.55 53.2399 18.5167 53.3132 18.45C53.3865 18.3833 53.4499 18.3133 53.5032 18.24C53.5499 18.2 53.5932 18.1633 53.6332 18.13C53.6732 18.0967 53.7232 18.08 53.7832 18.08C53.8832 18.08 53.9532 18.1167 53.9932 18.19C54.0332 18.2567 54.0532 18.3433 54.0532 18.45C54.0532 18.7033 53.9599 18.97 53.7732 19.25C53.5932 19.53 53.3199 19.77 52.9532 19.97C52.5932 20.1633 52.1432 20.26 51.6032 20.26C50.9365 20.26 50.3999 20.1167 49.9932 19.83C49.5865 19.5433 49.3832 19.1667 49.3832 18.7ZM43.3732 17.89C43.3732 17.0233 43.7599 16.3333 44.5332 15.82C45.3132 15.3 46.4132 15.04 47.8332 15.04C48.2399 15.04 48.5999 15.0733 48.9132 15.14C49.2332 15.2 49.5032 15.2867 49.7232 15.4L49.4532 16.12C49.2665 16.0267 49.0832 15.9567 48.9032 15.91C48.7232 15.8633 48.5265 15.84 48.3132 15.84C47.8799 15.84 47.5365 15.9667 47.2832 16.22C47.0365 16.4733 46.9132 16.8333 46.9132 17.3C46.9132 17.7667 47.0265 18.1233 47.2532 18.37C47.4799 18.6167 47.7732 18.74 48.1332 18.74C48.4065 18.74 48.6665 18.6767 48.9132 18.55C49.1665 18.4233 49.3699 18.2567 49.5232 18.05L49.7432 18.71C49.4032 19.2033 48.9299 19.5867 48.3232 19.86C47.7165 20.1267 47.0665 20.26 46.3732 20.26C45.4799 20.26 44.7565 20.04 44.2032 19.6C43.6499 19.1533 43.3732 18.5833 43.3732 17.89ZM55.9066 11.58L55.4966 11.44C55.35 11.3867 55.2433 11.32 55.1766 11.24C55.11 11.16 55.0766 11.0667 55.0766 10.96C55.0766 10.8067 55.13 10.69 55.2366 10.61C55.3433 10.5233 55.48 10.48 55.6466 10.48H56.2366C56.3766 10.48 56.5 10.45 56.6066 10.39C56.7133 10.33 56.8333 10.22 56.9666 10.06L58.3866 8.45C58.5533 8.26333 58.7133 8.12333 58.8666 8.03C59.02 7.93667 59.17 7.89 59.3166 7.89C59.4766 7.89 59.6033 7.94333 59.6966 8.05C59.79 8.15667 59.8366 8.30667 59.8366 8.5V16.78C59.8366 17.2667 59.9233 17.6367 60.0966 17.89C60.2766 18.1367 60.5266 18.26 60.8466 18.26C61.0933 18.26 61.2833 18.2067 61.4166 18.1C61.55 17.9933 61.6566 17.87 61.7366 17.73C61.8233 17.5833 61.9066 17.4533 61.9866 17.34C62.0733 17.2267 62.1866 17.1633 62.3266 17.15C62.4333 17.15 62.52 17.1867 62.5866 17.26C62.6533 17.3333 62.6866 17.4633 62.6866 17.65C62.68 18.1233 62.5366 18.5567 62.2566 18.95C61.9766 19.3433 61.5866 19.6567 61.0866 19.89C60.5933 20.1233 60.03 20.24 59.3966 20.24C58.43 20.24 57.6766 20.0033 57.1366 19.53C56.6033 19.0567 56.3366 18.34 56.3366 17.38V12.18C56.3366 12 56.3033 11.87 56.2366 11.79C56.17 11.7033 56.06 11.6333 55.9066 11.58ZM58.5666 11.63V10.48H62.0366C62.21 10.48 62.3466 10.5167 62.4466 10.59C62.5466 10.6633 62.5966 10.7667 62.5966 10.9C62.5966 11.1067 62.4966 11.28 62.2966 11.42C62.0966 11.56 61.7666 11.63 61.3066 11.63H58.5666ZM68.8093 10.97V18.21C68.8093 18.4367 68.8326 18.6033 68.8793 18.71C68.926 18.81 69.006 18.88 69.1193 18.92L69.4193 19.02C69.5593 19.0733 69.6593 19.14 69.7193 19.22C69.7793 19.3 69.8093 19.3967 69.8093 19.51C69.8093 19.6633 69.7593 19.7833 69.6593 19.87C69.5593 19.9567 69.3993 20 69.1793 20H64.9193C64.706 20 64.5493 19.9567 64.4493 19.87C64.3493 19.7833 64.2993 19.6633 64.2993 19.51C64.2993 19.4033 64.3293 19.31 64.3893 19.23C64.4493 19.1433 64.546 19.0733 64.6793 19.02L64.9993 18.92C65.106 18.88 65.1826 18.81 65.2293 18.71C65.2826 18.61 65.3093 18.4433 65.3093 18.21V12.9C65.3093 12.7133 65.2826 12.58 65.2293 12.5C65.176 12.42 65.0926 12.3667 64.9793 12.34L64.5993 12.29C64.4726 12.2567 64.3793 12.2067 64.3193 12.14C64.266 12.0667 64.2393 11.9733 64.2393 11.86C64.2393 11.7333 64.276 11.6333 64.3493 11.56C64.4226 11.48 64.5593 11.4 64.7593 11.32L66.8693 10.55C67.1626 10.43 67.396 10.35 67.5693 10.31C67.7426 10.2633 67.896 10.24 68.0293 10.24C68.2893 10.24 68.4826 10.31 68.6093 10.45C68.7426 10.5833 68.8093 10.7567 68.8093 10.97ZM66.8493 9.04C66.2093 9.04 65.7026 8.88667 65.3293 8.58C64.956 8.26667 64.7693 7.84667 64.7693 7.32C64.7693 6.80667 64.956 6.39667 65.3293 6.09C65.7026 5.78333 66.2093 5.63 66.8493 5.63C67.4826 5.63 67.986 5.78333 68.3593 6.09C68.7393 6.39667 68.9293 6.80667 68.9293 7.32C68.9293 7.84667 68.7393 8.26667 68.3593 8.58C67.986 8.88667 67.4826 9.04 66.8493 9.04ZM76.9604 10.21C78.0337 10.21 78.9737 10.4233 79.7804 10.85C80.5937 11.2767 81.2237 11.87 81.6704 12.63C82.1237 13.3833 82.3504 14.2633 82.3504 15.27C82.3504 16.21 82.1137 17.0567 81.6404 17.81C81.1737 18.5633 80.5271 19.16 79.7004 19.6C78.8737 20.04 77.9171 20.26 76.8304 20.26C75.7571 20.26 74.8171 20.0467 74.0104 19.62C73.2037 19.1867 72.5737 18.5933 72.1204 17.84C71.6671 17.08 71.4404 16.2033 71.4404 15.21C71.4404 14.25 71.6737 13.3967 72.1404 12.65C72.6137 11.8967 73.2637 11.3033 74.0904 10.87C74.9171 10.43 75.8737 10.21 76.9604 10.21ZM77.6704 19.06C78.0237 19 78.3037 18.81 78.5104 18.49C78.7171 18.1633 78.8337 17.7067 78.8604 17.12C78.8937 16.5267 78.8237 15.7967 78.6504 14.93C78.4904 14.0767 78.2837 13.38 78.0304 12.84C77.7771 12.2933 77.4871 11.9 77.1604 11.66C76.8404 11.42 76.4937 11.3367 76.1204 11.41C75.7671 11.4767 75.4871 11.6733 75.2804 12C75.0804 12.32 74.9671 12.7733 74.9404 13.36C74.9137 13.9467 74.9804 14.6767 75.1404 15.55C75.3071 16.39 75.5171 17.0833 75.7704 17.63C76.0237 18.1767 76.3104 18.57 76.6304 18.81C76.9571 19.0433 77.3037 19.1267 77.6704 19.06ZM88.7398 10.97V18.21C88.7398 18.4367 88.7631 18.6 88.8098 18.7C88.8564 18.8 88.9364 18.8733 89.0498 18.92L89.3398 19.03C89.5464 19.13 89.6498 19.28 89.6498 19.48C89.6498 19.8267 89.4364 20 89.0098 20H84.8498C84.6364 20 84.4798 19.9567 84.3798 19.87C84.2798 19.7833 84.2298 19.6633 84.2298 19.51C84.2298 19.4033 84.2598 19.31 84.3198 19.23C84.3798 19.1433 84.4764 19.0733 84.6098 19.02L84.9298 18.92C85.0364 18.88 85.1131 18.81 85.1598 18.71C85.2131 18.61 85.2398 18.4433 85.2398 18.21V12.9C85.2398 12.7133 85.2131 12.58 85.1598 12.5C85.1064 12.42 85.0231 12.3667 84.9098 12.34L84.5298 12.29C84.4031 12.2567 84.3098 12.2067 84.2498 12.14C84.1964 12.0667 84.1698 11.9733 84.1698 11.86C84.1698 11.7333 84.2064 11.6333 84.2798 11.56C84.3531 11.48 84.4898 11.4 84.6898 11.32L86.7898 10.55C87.0764 10.4367 87.3064 10.3567 87.4798 10.31C87.6598 10.2633 87.8298 10.24 87.9898 10.24C88.2364 10.24 88.4231 10.31 88.5498 10.45C88.6764 10.5833 88.7398 10.7567 88.7398 10.97ZM88.4098 13.3L87.8998 12.76L88.2498 12.45C89.1298 11.6233 89.8998 11.0433 90.5598 10.71C91.2198 10.3767 91.8298 10.21 92.3898 10.21C93.2564 10.21 93.9531 10.49 94.4798 11.05C95.0131 11.61 95.2798 12.3567 95.2798 13.29V18.19C95.2798 18.43 95.3031 18.6033 95.3498 18.71C95.4031 18.81 95.4864 18.88 95.5998 18.92L95.8898 19.02C96.0298 19.0733 96.1298 19.1433 96.1898 19.23C96.2498 19.31 96.2798 19.4033 96.2798 19.51C96.2798 19.6633 96.2298 19.7833 96.1298 19.87C96.0298 19.9567 95.8698 20 95.6498 20H91.4898C91.0631 20 90.8498 19.8267 90.8498 19.48C90.8498 19.28 90.9531 19.13 91.1598 19.03L91.4598 18.92C91.5731 18.8733 91.6531 18.8 91.6998 18.7C91.7531 18.5933 91.7798 18.4233 91.7798 18.19V13.79C91.7798 13.2833 91.6598 12.9067 91.4198 12.66C91.1798 12.4067 90.8498 12.28 90.4298 12.28C90.1764 12.28 89.9064 12.3367 89.6198 12.45C89.3331 12.5633 89.0531 12.7367 88.7798 12.97L88.4098 13.3ZM37.3308 43.2C37.3308 43.4067 37.3641 43.57 37.4308 43.69C37.5041 43.8033 37.6274 43.8667 37.8008 43.88L38.8208 44.01C38.9941 44.03 39.1174 44.0867 39.1908 44.18C39.2641 44.2667 39.3008 44.3767 39.3008 44.51C39.3008 44.8367 39.1008 45 38.7008 45H33.0708C32.8908 45 32.7441 44.96 32.6308 44.88C32.5241 44.7933 32.4708 44.6767 32.4708 44.53C32.4708 44.39 32.5074 44.28 32.5808 44.2C32.6608 44.1133 32.7841 44.0467 32.9508 44L33.3108 43.91C33.5041 43.85 33.6374 43.7667 33.7108 43.66C33.7908 43.5533 33.8308 43.4067 33.8308 43.22V37.63C33.8308 37.51 33.7974 37.4067 33.7308 37.32C33.6708 37.2267 33.5508 37.1433 33.3708 37.07L32.9008 36.9C32.6741 36.8 32.5174 36.7067 32.4308 36.62C32.3508 36.5267 32.3108 36.4233 32.3108 36.31C32.3108 36.1767 32.3574 36.07 32.4508 35.99C32.5508 35.9033 32.7008 35.86 32.9008 35.86H34.5508L33.8508 36.18V35.88C33.8508 35.72 33.7941 35.56 33.6808 35.4C33.5674 35.24 33.4341 35.0667 33.2808 34.88C33.1341 34.6867 33.0041 34.4633 32.8908 34.21C32.7841 33.95 32.7308 33.6433 32.7308 33.29C32.7308 32.43 33.0574 31.7367 33.7108 31.21C34.3641 30.6833 35.2808 30.42 36.4608 30.42C37.2141 30.42 37.8474 30.5367 38.3608 30.77C38.8808 31.0033 39.2741 31.3133 39.5408 31.7C39.8074 32.0867 39.9408 32.5067 39.9408 32.96C39.9408 33.44 39.8074 33.8067 39.5408 34.06C39.2741 34.3133 38.9274 34.44 38.5008 34.44C38.0341 34.44 37.6574 34.3 37.3708 34.02C37.0908 33.74 36.9508 33.3633 36.9508 32.89V32.16C36.9508 31.8667 36.8674 31.6467 36.7008 31.5C36.5341 31.3533 36.3174 31.28 36.0508 31.28C35.7241 31.2867 35.4741 31.39 35.3008 31.59C35.1341 31.7833 35.0508 32.0633 35.0508 32.43C35.0508 32.75 35.1174 33.0433 35.2508 33.31C35.3908 33.57 35.5608 33.81 35.7608 34.03C35.9608 34.2433 36.1608 34.45 36.3608 34.65C36.5608 34.8433 36.7274 35.04 36.8608 35.24C37.0008 35.44 37.0708 35.6533 37.0708 35.88V36.36L36.6908 35.86H39.0108C39.1841 35.86 39.3208 35.8967 39.4208 35.97C39.5208 36.0433 39.5708 36.15 39.5708 36.29C39.5708 36.4967 39.4708 36.67 39.2708 36.81C39.0708 36.95 38.7408 37.02 38.2808 37.02H37.3308V43.2ZM47.3492 43.7V43.48L47.0992 43.46V37.22C47.0992 36.86 47.0059 36.5767 46.8192 36.37C46.6326 36.1633 46.3759 36.06 46.0492 36.06C45.7626 36.06 45.5326 36.1267 45.3592 36.26C45.1859 36.3867 45.0992 36.5467 45.0992 36.74V37.72C45.0992 38.2 44.9359 38.5733 44.6092 38.84C44.2892 39.1 43.8359 39.23 43.2492 39.23C42.7426 39.23 42.3626 39.1167 42.1092 38.89C41.8626 38.6633 41.7392 38.35 41.7392 37.95C41.7392 37.5233 41.9226 37.1033 42.2892 36.69C42.6559 36.27 43.2059 35.9233 43.9392 35.65C44.6726 35.37 45.5859 35.23 46.6792 35.23C47.9926 35.23 48.9692 35.4833 49.6092 35.99C50.2492 36.49 50.5692 37.1767 50.5692 38.05V43.04C50.5692 43.2 50.6026 43.3267 50.6692 43.42C50.7426 43.5067 50.8459 43.55 50.9792 43.55C51.1059 43.55 51.2059 43.5167 51.2792 43.45C51.3526 43.3833 51.4159 43.3133 51.4692 43.24C51.5159 43.2 51.5592 43.1633 51.5992 43.13C51.6392 43.0967 51.6892 43.08 51.7492 43.08C51.8492 43.08 51.9192 43.1167 51.9592 43.19C51.9992 43.2567 52.0192 43.3433 52.0192 43.45C52.0192 43.7033 51.9259 43.97 51.7392 44.25C51.5592 44.53 51.2859 44.77 50.9192 44.97C50.5592 45.1633 50.1092 45.26 49.5692 45.26C48.9026 45.26 48.3659 45.1167 47.9592 44.83C47.5526 44.5433 47.3492 44.1667 47.3492 43.7ZM41.3392 42.89C41.3392 42.0233 41.7259 41.3333 42.4992 40.82C43.2792 40.3 44.3792 40.04 45.7992 40.04C46.2059 40.04 46.5659 40.0733 46.8792 40.14C47.1992 40.2 47.4692 40.2867 47.6892 40.4L47.4192 41.12C47.2326 41.0267 47.0492 40.9567 46.8692 40.91C46.6892 40.8633 46.4926 40.84 46.2792 40.84C45.8459 40.84 45.5026 40.9667 45.2492 41.22C45.0026 41.4733 44.8792 41.8333 44.8792 42.3C44.8792 42.7667 44.9926 43.1233 45.2192 43.37C45.4459 43.6167 45.7392 43.74 46.0992 43.74C46.3726 43.74 46.6326 43.6767 46.8792 43.55C47.1326 43.4233 47.3359 43.2567 47.4892 43.05L47.7092 43.71C47.3692 44.2033 46.8959 44.5867 46.2892 44.86C45.6826 45.1267 45.0326 45.26 44.3392 45.26C43.4459 45.26 42.7226 45.04 42.1692 44.6C41.6159 44.1533 41.3392 43.5833 41.3392 42.89ZM57.7327 36.26C57.306 36.26 56.9793 36.36 56.7527 36.56C56.5327 36.7533 56.4227 37 56.4227 37.3C56.4227 37.48 56.4593 37.6467 56.5327 37.8C56.6127 37.9533 56.7693 38.0933 57.0027 38.22C57.2427 38.3467 57.5993 38.46 58.0727 38.56C59.1927 38.7733 60.0493 39.0467 60.6427 39.38C61.2427 39.7133 61.656 40.1 61.8827 40.54C62.1093 40.98 62.2227 41.4767 62.2227 42.03C62.2227 43.03 61.8727 43.82 61.1727 44.4C60.4727 44.9733 59.4493 45.26 58.1027 45.26C57.6293 45.26 57.246 45.22 56.9527 45.14C56.666 45.0667 56.4327 44.99 56.2527 44.91C56.0727 44.83 55.916 44.79 55.7827 44.79C55.6293 44.79 55.5027 44.83 55.4027 44.91C55.3027 44.99 55.2027 45.0667 55.1027 45.14C55.0027 45.22 54.8793 45.26 54.7327 45.26C54.5993 45.26 54.496 45.22 54.4227 45.14C54.356 45.06 54.2927 44.92 54.2327 44.72L53.6427 42.78C53.556 42.4933 53.5293 42.2667 53.5627 42.1C53.6027 41.9267 53.7093 41.81 53.8827 41.75C54.056 41.6833 54.2093 41.68 54.3427 41.74C54.476 41.8 54.5993 41.92 54.7127 42.1C55.026 42.6 55.3493 43.0067 55.6827 43.32C56.0227 43.6267 56.376 43.8533 56.7427 44C57.116 44.14 57.4993 44.21 57.8927 44.21C58.3993 44.21 58.7793 44.11 59.0327 43.91C59.286 43.71 59.4127 43.4433 59.4127 43.11C59.4127 42.9033 59.3593 42.72 59.2527 42.56C59.146 42.4 58.9393 42.2533 58.6327 42.12C58.3327 41.9867 57.886 41.8567 57.2927 41.73C56.3927 41.55 55.6727 41.3067 55.1327 41C54.5993 40.6867 54.216 40.3067 53.9827 39.86C53.756 39.4133 53.6427 38.8967 53.6427 38.31C53.6427 37.69 53.806 37.1467 54.1327 36.68C54.4593 36.2133 54.9093 35.8533 55.4827 35.6C56.0627 35.34 56.726 35.21 57.4727 35.21C57.9593 35.21 58.346 35.2533 58.6327 35.34C58.9193 35.42 59.1527 35.5033 59.3327 35.59C59.5193 35.67 59.6927 35.71 59.8527 35.71C60.0127 35.71 60.1493 35.67 60.2627 35.59C60.376 35.5033 60.486 35.42 60.5927 35.34C60.6993 35.26 60.8227 35.22 60.9627 35.22C61.0827 35.22 61.1827 35.2633 61.2627 35.35C61.3493 35.43 61.4127 35.5767 61.4527 35.79L61.8427 37.64C61.896 37.92 61.9027 38.1367 61.8627 38.29C61.8293 38.4367 61.7327 38.5433 61.5727 38.61C61.3993 38.6767 61.246 38.6733 61.1127 38.6C60.986 38.52 60.856 38.38 60.7227 38.18C60.276 37.4733 59.7927 36.9767 59.2727 36.69C58.7527 36.4033 58.2393 36.26 57.7327 36.26ZM73.7598 39.05C73.7598 39.4433 73.6498 39.75 73.4298 39.97C73.2098 40.1833 72.8932 40.29 72.4798 40.29H66.3898V39.42H69.7698C70.1098 39.42 70.2798 39.26 70.2798 38.94C70.2798 38.06 70.1498 37.4133 69.8898 37C69.6365 36.58 69.2965 36.37 68.8698 36.37C68.5498 36.37 68.2632 36.4767 68.0098 36.69C67.7565 36.9033 67.5565 37.22 67.4098 37.64C67.2698 38.06 67.1998 38.5767 67.1998 39.19C67.1998 40.45 67.4865 41.3833 68.0598 41.99C68.6398 42.5967 69.4132 42.9 70.3798 42.9C70.9065 42.9 71.3732 42.8133 71.7798 42.64C72.1865 42.46 72.5298 42.1767 72.8098 41.79C72.9632 41.6433 73.0798 41.5467 73.1598 41.5C73.2398 41.4467 73.3198 41.42 73.3998 41.42C73.5132 41.42 73.5965 41.4767 73.6498 41.59C73.7032 41.6967 73.7298 41.8267 73.7298 41.98C73.7165 42.5667 73.5165 43.11 73.1298 43.61C72.7432 44.11 72.2132 44.51 71.5398 44.81C70.8665 45.11 70.0898 45.26 69.2098 45.26C68.2232 45.26 67.3432 45.06 66.5698 44.66C65.7965 44.26 65.1865 43.7033 64.7398 42.99C64.2932 42.27 64.0698 41.43 64.0698 40.47C64.0698 39.4233 64.2765 38.5067 64.6898 37.72C65.1098 36.9333 65.7132 36.32 66.4998 35.88C67.2865 35.4333 68.2298 35.21 69.3298 35.21C70.2898 35.21 71.0965 35.3767 71.7498 35.71C72.4098 36.0367 72.9098 36.49 73.2498 37.07C73.5898 37.6433 73.7598 38.3033 73.7598 39.05Z" fill="#3A5832"/>
<rect x="56.9999" y="70" width="20" height="4" rx="2" transform="rotate(90 56.9999 70)" fill="#92BB87"/>
<rect x="56.9999" y="550" width="20" height="4" rx="2" transform="rotate(90 56.9999 550)" fill="#92BB87"/>
<rect x="57" y="1509.59" width="20" height="4" rx="2" transform="rotate(90 57 1509.59)" fill="#92BB87"/>
<rect x="56.9999" y="310" width="20" height="4" rx="2" transform="rotate(90 56.9999 310)" fill="#92BB87"/>
<rect x="56.9999" y="1210" width="20" height="4" rx="2" transform="rotate(90 56.9999 1210)" fill="#92BB87"/>
<rect x="56.9999" y="790" width="20" height="4" rx="2" transform="rotate(90 56.9999 790)" fill="#92BB87"/>
<rect x="56.9999" y="190" width="20" height="4" rx="2" transform="rotate(90 56.9999 190)" fill="#92BB87"/>
<path d="M15.9998 202C15.9998 200.895 16.8952 200 17.9998 200H52.9998V204H17.9998C16.8952 204 15.9998 203.105 15.9998 202Z" fill="#92BB87"/>
<path d="M90 499C90 500.105 89.1046 501 88 501H53V497H88C89.1046 497 90 497.895 90 499Z" fill="#92BB87"/>
<path d="M15.9998 1279C15.9998 1277.9 16.8952 1277 17.9998 1277H52.9998V1281H17.9998C16.8952 1281 15.9998 1280.1 15.9998 1279Z" fill="#92BB87"/>
<rect x="56.9999" y="1090" width="20" height="4" rx="2" transform="rotate(90 56.9999 1090)" fill="#92BB87"/>
<rect x="56.9999" y="670" width="20" height="4" rx="2" transform="rotate(90 56.9999 670)" fill="#92BB87"/>
<rect x="56.9999" y="430" width="20" height="4" rx="2" transform="rotate(90 56.9999 430)" fill="#92BB87"/>
<rect x="56.9999" y="1330" width="20" height="4" rx="2" transform="rotate(90 56.9999 1330)" fill="#92BB87"/>
<rect x="56.9999" y="910" width="20" height="4" rx="2" transform="rotate(90 56.9999 910)" fill="#92BB87"/>
<rect x="56.9999" y="130" width="20" height="4" rx="2" transform="rotate(90 56.9999 130)" fill="#92BB87"/>
<rect x="56.9999" y="1030" width="20" height="4" rx="2" transform="rotate(90 56.9999 1030)" fill="#92BB87"/>
<rect x="56.9999" y="610" width="20" height="4" rx="2" transform="rotate(90 56.9999 610)" fill="#92BB87"/>
<rect x="56.9999" y="370" width="20" height="4" rx="2" transform="rotate(90 56.9999 370)" fill="#92BB87"/>
<rect x="56.9999" y="1270" width="20" height="4" rx="2" transform="rotate(90 56.9999 1270)" fill="#92BB87"/>
<rect x="56.9999" y="850" width="20" height="4" rx="2" transform="rotate(90 56.9999 850)" fill="#92BB87"/>
<rect x="56.9999" y="250" width="20" height="4" rx="2" transform="rotate(90 56.9999 250)" fill="#92BB87"/>
<rect x="56.9999" y="1150" width="20" height="4" rx="2" transform="rotate(90 56.9999 1150)" fill="#92BB87"/>
<rect x="56.9999" y="730" width="20" height="4" rx="2" transform="rotate(90 56.9999 730)" fill="#92BB87"/>
<rect x="56.9999" y="490" width="20" height="4" rx="2" transform="rotate(90 56.9999 490)" fill="#92BB87"/>
<rect x="56.9999" y="1390" width="20" height="4" rx="2" transform="rotate(90 56.9999 1390)" fill="#92BB87"/>
<rect x="57" y="1449.59" width="20" height="4" rx="2" transform="rotate(90 57 1449.59)" fill="#92BB87"/>
<rect x="56.9999" y="970" width="20" height="4" rx="2" transform="rotate(90 56.9999 970)" fill="#92BB87"/>
<circle cx="11.5" cy="201.5" r="11.5" fill="#52714A"/>
<circle cx="94.5" cy="499.5" r="11.5" transform="rotate(180 94.5 499.5)" fill="#52714A"/>
<circle cx="11.5" cy="1278.5" r="11.5" fill="#52714A"/>
</svg>
