<svg width="1542" height="1328" viewBox="0 0 1542 1328" fill="none" xmlns="http://www.w3.org/2000/svg">
<path d="M109.256 0C115.534 53.7119 127.515 79.0519 137.063 91.1055C144.938 101.046 154.317 106.071 170.759 108.962C192.236 112.738 210.176 111.289 245.089 113.282C275.303 115.007 313.424 119.768 349.712 141.356C417.63 181.763 432.73 239.223 444.017 264.269C449.499 276.435 453.483 281.733 459.062 285.928C465.339 290.646 479.067 297.871 510.548 302.387C604.186 315.819 671.491 399.664 683.331 494.136C687.672 528.769 698.819 549.92 710.541 563.749C722.607 577.983 738.075 587.726 755.646 595.074C757.805 595.977 759.942 596.824 762.06 597.625C761.815 597.466 763.774 598.312 770.306 600.202C778.49 602.571 792.004 606.012 807.487 611.049C808.373 611.288 809.264 611.529 810.159 611.775C817.68 613.841 830.285 617.364 841.207 623.335C842.397 623.986 843.835 624.824 845.441 625.854C871.456 638.085 899.76 656.408 923.554 685.265C950.03 717.375 968.275 759.332 974.265 813.026C980.536 869.248 1017.74 905.212 1052.2 910.636C1094.53 917.296 1127.85 929.487 1153.65 949.443C1180.15 969.933 1193.32 994.501 1202 1014.49C1219.06 1053.76 1220.42 1069.82 1251.26 1088.74C1264.37 1096.78 1280.9 1100.51 1305.73 1102.27C1325.87 1103.69 1363.36 1103.68 1392.75 1109.26C1427.17 1115.79 1464.06 1131.17 1492.83 1168.51C1519.95 1203.73 1535.14 1252.49 1541.67 1315.83L1486.96 1321.47L1432.25 1327.11C1426.7 1273.32 1415.07 1247.82 1405.68 1235.64C1397.94 1225.59 1388.63 1220.44 1372.23 1217.33C1350.81 1213.26 1332.85 1214.46 1297.97 1212C1267.78 1209.86 1229.73 1204.58 1193.74 1182.5C1126.37 1141.17 1112.06 1083.52 1101.11 1058.32C1095.79 1046.08 1091.88 1040.73 1086.36 1036.46C1080.15 1031.65 1066.52 1024.24 1035.1 1019.3C941.657 1004.6 875.498 919.844 864.943 825.22C861.074 790.531 850.216 769.231 838.683 755.243C826.812 740.846 811.477 730.894 794.008 723.308C788.088 720.737 782.346 718.59 776.652 716.678C762.27 712.891 737.642 706.776 713.207 696.558C685.033 684.776 653.196 666.218 626.629 634.875C599.719 603.127 580.904 561.422 574.186 507.814C567.151 451.683 529.465 416.228 494.928 411.273C452.518 405.19 419.032 393.452 392.958 373.849C366.188 353.721 352.684 329.334 343.729 309.462C326.141 270.43 324.559 254.388 293.47 235.892C280.253 228.029 263.669 224.522 238.818 223.104C218.666 221.953 181.179 222.481 151.71 217.3C117.205 211.233 80.1139 196.363 50.8398 159.409C23.2397 124.568 7.39232 76.0129 0 12.7715L109.256 0Z" fill="#FFCE88"/>
</svg>
