<svg width="1440" height="696" viewBox="0 0 1440 696" fill="none" xmlns="http://www.w3.org/2000/svg">
<path fill-rule="evenodd" clip-rule="evenodd" d="M1078.4 9.68078C1136.36 -6.15891 1198.41 1.78957 1220.91 3.56652L1220.86 4.21105C1278.31 10.0367 1323.32 23.8873 1356.78 48.4142C1394.8 76.2886 1411.04 112.798 1418.39 147.053C1424.67 176.308 1425.54 213.789 1427.44 233.884C1429.79 258.664 1433.91 275.107 1442.26 288.021C1461.9 318.398 1478 319.378 1517.66 335.498C1537.85 343.705 1562.72 356.29 1583.83 382.29C1604.4 407.614 1617.38 440.639 1625.04 482.792C1629.96 509.885 1639.57 524.573 1648.59 533.234C1657.97 542.247 1670.62 548.443 1687.08 552.011C1722.71 559.736 1761.94 552.973 1791.91 548.991L1806.4 658.032C1784.02 661.005 1722.49 672.244 1663.77 659.513C1633.05 652.852 1600.12 639.205 1572.39 612.569C1544.29 585.583 1525.24 548.817 1516.81 502.465C1511.12 471.174 1503.39 457.726 1498.44 451.63C1494.04 446.211 1488.6 442.427 1476.24 437.402C1450.79 427.059 1392.8 414.114 1349.89 347.751C1326.96 312.295 1320.78 274.378 1317.93 244.249C1314.64 209.434 1315.42 191.454 1310.84 170.132C1307.34 153.81 1301.96 144.625 1291.74 137.127C1279.34 128.035 1253.57 117.008 1199.66 112.738L1199.7 112.189C1171.62 109.854 1137.88 107.463 1107.4 115.79C1091.16 120.229 1078.86 127.09 1069.97 136.589C1061.42 145.718 1052.61 160.897 1049.14 188.214C1043.73 230.715 1032.53 264.384 1013.34 290.767C993.646 317.854 969.477 331.745 949.75 341.016C911.004 359.224 894.988 361.061 876.989 392.441C869.338 405.78 866.096 422.419 865.073 447.289C864.244 467.457 865.371 504.932 860.66 534.48C855.144 569.077 840.866 606.4 804.383 636.259C769.986 664.411 721.69 681.031 658.574 689.43L658.569 689.397C600.199 699.452 552.12 698.135 512.69 682.989C468.681 666.085 443.414 635.126 427.321 604.007C413.577 577.429 402.889 541.493 395.773 522.604C386.999 499.31 378.701 484.529 367.251 474.264C340.316 450.115 324.531 453.397 282.028 448.265C260.389 445.652 233.083 440.045 205.881 420.506C179.386 401.475 158.186 373.021 139.717 334.362C127.846 309.516 114.718 297.868 103.741 291.881C92.3193 285.651 78.4869 282.996 61.6709 283.877C25.2612 285.786 -10.8148 302.619 -38.6865 314.336L-60 263.635L-81.3145 212.933C-60.505 204.185 -4.08762 177.172 55.9141 174.027C87.3035 172.382 122.658 176.899 156.415 195.312C190.617 213.967 218.662 244.434 238.971 286.943C252.681 315.64 263.676 326.584 270.054 331.165C275.724 335.238 281.967 337.459 295.216 339.059C322.489 342.352 381.836 339.606 440.68 392.36C472.119 420.547 488.045 455.508 498.713 483.829C511.04 516.555 515.012 534.108 525.029 553.479C532.698 568.307 540.295 575.757 552.133 580.304C566.487 585.818 594.249 589.686 647.385 579.641L647.438 579.928C698.73 572.731 723.067 560.667 734.714 551.134C744.528 543.102 749.404 533.645 752.032 517.159C755.466 495.624 753.73 477.71 755.167 442.77C756.41 412.531 760.562 374.339 781.57 337.712C820.89 269.159 878.102 253.145 902.965 241.461C915.042 235.785 920.274 231.718 924.38 226.072C928.998 219.722 936.005 205.881 940.019 174.331C945.964 127.596 963.034 89.8685 989.655 61.4239C1015.93 33.3496 1048.08 17.9673 1078.4 9.68078Z" fill="#FFAFC0"/>
</svg>
