<svg width="59" height="42" viewBox="0 0 59 42" fill="none" xmlns="http://www.w3.org/2000/svg">
<path d="M12.3521 20.2875C9.06672 20.2875 6.72005 19.5835 5.31205 18.1755C3.90405 16.7675 3.20005 15.0822 3.20005 13.1195C3.24272 11.0715 3.92539 9.04486 5.24805 7.03953C6.61339 5.03419 8.44805 3.37019 10.7521 2.04752C13.0987 0.682192 15.7654 -0.000473022 18.7521 -0.000473022C21.8241 -0.000473022 24.1921 0.874194 25.8561 2.62353C27.5201 4.33019 28.3521 6.76219 28.3521 9.91953C28.3521 14.9115 27.0934 19.5195 24.5761 23.7435C22.0587 27.9675 18.7734 31.5942 14.7201 34.6235C10.7094 37.6529 6.40005 39.8502 1.79205 41.2155C1.23739 41.3862 0.832054 41.4502 0.576054 41.4075C0.320053 41.3649 0.149386 41.2582 0.0640535 41.0875C0.0213868 40.8742 0.0640532 40.6609 0.192053 40.4475C0.36272 40.2342 0.704053 40.0422 1.21605 39.8715C5.65339 38.4209 9.32272 36.6075 12.2241 34.4315C15.1254 32.2555 17.3014 30.1222 18.7521 28.0315C20.2027 25.8982 20.9281 24.2555 20.9281 23.1035C20.9281 22.1222 20.6294 21.4182 20.0321 20.9915C19.4774 20.5222 18.3894 20.2875 16.7681 20.2875H12.3521ZM42.0481 20.2875C38.7627 20.2875 36.4161 19.5835 35.0081 18.1755C33.6001 16.7675 32.8961 15.0822 32.8961 13.1195C32.9387 11.0715 33.6214 9.04486 34.9441 7.03953C36.3094 5.03419 38.1441 3.37019 40.4481 2.04752C42.7947 0.682192 45.4614 -0.000473022 48.4481 -0.000473022C51.5201 -0.000473022 53.8881 0.874194 55.5521 2.62353C57.2161 4.33019 58.0481 6.76219 58.0481 9.91953C58.0481 14.9115 56.7894 19.5195 54.2721 23.7435C51.7547 27.9675 48.4694 31.5942 44.4161 34.6235C40.4054 37.6529 36.0961 39.8502 31.4881 41.2155C30.9334 41.3862 30.5281 41.4502 30.2721 41.4075C30.0161 41.3649 29.8454 41.2582 29.7601 41.0875C29.7174 40.8742 29.7601 40.6609 29.8881 40.4475C30.0587 40.2342 30.4001 40.0422 30.9121 39.8715C35.3494 38.4209 39.0187 36.6075 41.9201 34.4315C44.8214 32.2555 46.9974 30.1222 48.4481 28.0315C49.8987 25.8982 50.6241 24.2555 50.6241 23.1035C50.6241 22.1222 50.3254 21.4182 49.7281 20.9915C49.1734 20.5222 48.0854 20.2875 46.4641 20.2875H42.0481Z" fill="#FFAFC0"/>
</svg>
