<svg width="1039" height="200" viewBox="0 0 1039 200" fill="none" xmlns="http://www.w3.org/2000/svg">
<ellipse cx="426.102" cy="127.783" rx="41.3556" ry="17.1928" fill="#52714A"/>
<path d="M401.822 168.63C401.009 168.63 400.231 168.516 399.487 168.288C398.744 168.05 398.154 167.748 397.718 167.381L398.387 165.879C398.803 166.206 399.319 166.479 399.933 166.697C400.548 166.915 401.177 167.024 401.822 167.024C402.367 167.024 402.808 166.965 403.145 166.846C403.482 166.727 403.73 166.568 403.888 166.37C404.047 166.162 404.126 165.929 404.126 165.671C404.126 165.354 404.012 165.101 403.784 164.913C403.556 164.715 403.259 164.561 402.892 164.452C402.535 164.333 402.134 164.224 401.688 164.125C401.252 164.026 400.81 163.912 400.364 163.783C399.928 163.644 399.527 163.47 399.16 163.262C398.803 163.044 398.511 162.757 398.283 162.4C398.055 162.043 397.941 161.587 397.941 161.032C397.941 160.467 398.089 159.951 398.387 159.485C398.694 159.01 399.155 158.633 399.77 158.355C400.394 158.068 401.182 157.924 402.134 157.924C402.758 157.924 403.378 158.003 403.993 158.162C404.607 158.321 405.142 158.549 405.598 158.846L404.989 160.348C404.523 160.07 404.042 159.867 403.546 159.738C403.051 159.599 402.575 159.53 402.119 159.53C401.584 159.53 401.148 159.594 400.81 159.723C400.483 159.852 400.241 160.021 400.082 160.229C399.933 160.437 399.859 160.675 399.859 160.943C399.859 161.26 399.968 161.518 400.186 161.716C400.414 161.904 400.706 162.053 401.063 162.162C401.43 162.271 401.836 162.38 402.283 162.489C402.729 162.588 403.17 162.702 403.606 162.831C404.052 162.96 404.454 163.128 404.81 163.337C405.177 163.545 405.47 163.827 405.688 164.184C405.916 164.541 406.03 164.992 406.03 165.537C406.03 166.092 405.876 166.608 405.569 167.084C405.271 167.55 404.81 167.926 404.186 168.214C403.561 168.491 402.773 168.63 401.822 168.63ZM412.169 168.586C411.525 168.586 410.935 168.437 410.4 168.139C409.874 167.842 409.453 167.396 409.136 166.801C408.829 166.197 408.675 165.433 408.675 164.511C408.675 163.579 408.824 162.816 409.121 162.221C409.428 161.627 409.845 161.186 410.37 160.898C410.896 160.601 411.495 160.452 412.169 160.452C412.952 160.452 413.641 160.62 414.236 160.958C414.841 161.295 415.317 161.765 415.664 162.37C416.021 162.975 416.199 163.689 416.199 164.511C416.199 165.334 416.021 166.053 415.664 166.667C415.317 167.272 414.841 167.743 414.236 168.08C413.641 168.417 412.952 168.586 412.169 168.586ZM407.768 171.366V160.541H409.537V162.415L409.478 164.526L409.627 166.638V171.366H407.768ZM411.961 166.995C412.407 166.995 412.804 166.895 413.151 166.697C413.508 166.499 413.79 166.211 413.998 165.835C414.206 165.458 414.311 165.017 414.311 164.511C414.311 163.996 414.206 163.555 413.998 163.188C413.79 162.811 413.508 162.524 413.151 162.326C412.804 162.127 412.407 162.028 411.961 162.028C411.515 162.028 411.114 162.127 410.757 162.326C410.4 162.524 410.117 162.811 409.909 163.188C409.701 163.555 409.597 163.996 409.597 164.511C409.597 165.017 409.701 165.458 409.909 165.835C410.117 166.211 410.4 166.499 410.757 166.697C411.114 166.895 411.515 166.995 411.961 166.995ZM417.962 168.481V160.541H419.731V162.727L419.523 162.088C419.761 161.552 420.133 161.146 420.638 160.868C421.154 160.591 421.793 160.452 422.556 160.452V162.221C422.477 162.202 422.403 162.192 422.333 162.192C422.264 162.182 422.194 162.177 422.125 162.177C421.421 162.177 420.861 162.385 420.445 162.801C420.029 163.208 419.82 163.817 419.82 164.63V168.481H417.962ZM424.133 168.481V160.541H425.992V168.481H424.133ZM425.07 159.233C424.723 159.233 424.435 159.124 424.207 158.906C423.989 158.687 423.88 158.425 423.88 158.117C423.88 157.8 423.989 157.538 424.207 157.329C424.435 157.111 424.723 157.002 425.07 157.002C425.417 157.002 425.699 157.106 425.917 157.315C426.145 157.513 426.259 157.766 426.259 158.073C426.259 158.4 426.15 158.678 425.932 158.906C425.714 159.124 425.427 159.233 425.07 159.233ZM432.937 160.452C433.571 160.452 434.136 160.576 434.632 160.824C435.137 161.072 435.534 161.453 435.821 161.969C436.109 162.474 436.253 163.128 436.253 163.931V168.481H434.394V164.169C434.394 163.465 434.225 162.94 433.888 162.593C433.561 162.246 433.1 162.073 432.505 162.073C432.069 162.073 431.683 162.162 431.346 162.34C431.009 162.519 430.746 162.786 430.558 163.143C430.379 163.49 430.29 163.931 430.29 164.467V168.481H428.431V160.541H430.201V162.682L429.888 162.028C430.166 161.523 430.567 161.136 431.093 160.868C431.628 160.591 432.243 160.452 432.937 160.452ZM441.599 168.586C440.727 168.586 440.053 168.362 439.577 167.916C439.101 167.46 438.863 166.791 438.863 165.909V158.787H440.722V165.864C440.722 166.241 440.816 166.534 441.004 166.742C441.203 166.95 441.475 167.054 441.822 167.054C442.239 167.054 442.585 166.945 442.863 166.727L443.383 168.05C443.165 168.229 442.898 168.362 442.581 168.452C442.263 168.541 441.936 168.586 441.599 168.586ZM437.555 162.088V160.601H442.848V162.088H437.555ZM448.323 168.481V167.188L452.457 163.262C452.804 162.935 453.061 162.648 453.23 162.4C453.398 162.152 453.508 161.924 453.557 161.716C453.617 161.498 453.646 161.295 453.646 161.106C453.646 160.63 453.483 160.264 453.156 160.006C452.828 159.738 452.348 159.604 451.713 159.604C451.208 159.604 450.747 159.694 450.33 159.872C449.924 160.05 449.572 160.323 449.275 160.69L447.922 159.649C448.328 159.104 448.873 158.683 449.557 158.385C450.251 158.078 451.024 157.924 451.877 157.924C452.63 157.924 453.284 158.048 453.84 158.296C454.405 158.534 454.836 158.876 455.133 159.322C455.441 159.768 455.594 160.298 455.594 160.913C455.594 161.25 455.55 161.587 455.46 161.924C455.371 162.251 455.203 162.598 454.955 162.965C454.707 163.332 454.345 163.743 453.869 164.199L450.316 167.574L449.914 166.846H455.996V168.481H448.323Z" fill="#3A5832"/>
<ellipse cx="236.517" cy="71.0932" rx="41.3556" ry="17.1928" fill="#52714A"/>
<path d="M213.162 111.94C212.349 111.94 211.571 111.826 210.827 111.598C210.084 111.36 209.494 111.057 209.058 110.691L209.727 109.189C210.144 109.516 210.659 109.789 211.274 110.007C211.888 110.225 212.518 110.334 213.162 110.334C213.707 110.334 214.148 110.274 214.485 110.155C214.822 110.036 215.07 109.878 215.229 109.68C215.387 109.471 215.467 109.238 215.467 108.981C215.467 108.663 215.353 108.411 215.125 108.222C214.897 108.024 214.599 107.87 214.233 107.761C213.876 107.642 213.474 107.533 213.028 107.434C212.592 107.335 212.151 107.221 211.705 107.092C211.269 106.953 210.867 106.78 210.5 106.572C210.144 106.354 209.851 106.066 209.623 105.709C209.395 105.353 209.281 104.897 209.281 104.341C209.281 103.776 209.43 103.261 209.727 102.795C210.034 102.319 210.495 101.943 211.11 101.665C211.735 101.377 212.523 101.234 213.474 101.234C214.099 101.234 214.718 101.313 215.333 101.472C215.948 101.63 216.483 101.858 216.939 102.156L216.329 103.657C215.863 103.38 215.382 103.177 214.887 103.048C214.391 102.909 213.915 102.84 213.459 102.84C212.924 102.84 212.488 102.904 212.151 103.033C211.824 103.162 211.581 103.33 211.422 103.538C211.274 103.747 211.199 103.985 211.199 104.252C211.199 104.569 211.308 104.827 211.526 105.025C211.754 105.214 212.047 105.362 212.404 105.472C212.77 105.581 213.177 105.69 213.623 105.799C214.069 105.898 214.51 106.012 214.946 106.141C215.392 106.27 215.794 106.438 216.151 106.646C216.518 106.854 216.81 107.137 217.028 107.494C217.256 107.851 217.37 108.302 217.37 108.847C217.37 109.402 217.216 109.917 216.909 110.393C216.612 110.859 216.151 111.236 215.526 111.523C214.902 111.801 214.114 111.94 213.162 111.94ZM223.51 111.895C222.865 111.895 222.276 111.746 221.74 111.449C221.215 111.152 220.794 110.706 220.476 110.111C220.169 109.506 220.015 108.743 220.015 107.821C220.015 106.889 220.164 106.126 220.461 105.531C220.769 104.936 221.185 104.495 221.711 104.208C222.236 103.91 222.836 103.762 223.51 103.762C224.293 103.762 224.982 103.93 225.577 104.267C226.181 104.604 226.657 105.075 227.004 105.68C227.361 106.284 227.539 106.998 227.539 107.821C227.539 108.644 227.361 109.362 227.004 109.977C226.657 110.582 226.181 111.053 225.577 111.39C224.982 111.727 224.293 111.895 223.51 111.895ZM219.108 114.676V103.851H220.878V105.724L220.818 107.836L220.967 109.947V114.676H219.108ZM223.302 110.304C223.748 110.304 224.144 110.205 224.491 110.007C224.848 109.808 225.13 109.521 225.339 109.144C225.547 108.768 225.651 108.326 225.651 107.821C225.651 107.305 225.547 106.864 225.339 106.498C225.13 106.121 224.848 105.833 224.491 105.635C224.144 105.437 223.748 105.338 223.302 105.338C222.855 105.338 222.454 105.437 222.097 105.635C221.74 105.833 221.458 106.121 221.25 106.498C221.041 106.864 220.937 107.305 220.937 107.821C220.937 108.326 221.041 108.768 221.25 109.144C221.458 109.521 221.74 109.808 222.097 110.007C222.454 110.205 222.855 110.304 223.302 110.304ZM229.302 111.791V103.851H231.072V106.037L230.863 105.397C231.101 104.862 231.473 104.455 231.979 104.178C232.494 103.9 233.133 103.762 233.897 103.762V105.531C233.817 105.511 233.743 105.501 233.674 105.501C233.604 105.491 233.535 105.486 233.465 105.486C232.762 105.486 232.202 105.695 231.785 106.111C231.369 106.517 231.161 107.127 231.161 107.94V111.791H229.302ZM235.473 111.791V103.851H237.332V111.791H235.473ZM236.41 102.542C236.063 102.542 235.776 102.433 235.548 102.215C235.33 101.997 235.221 101.734 235.221 101.427C235.221 101.11 235.33 100.847 235.548 100.639C235.776 100.421 236.063 100.312 236.41 100.312C236.757 100.312 237.04 100.416 237.258 100.624C237.486 100.822 237.6 101.075 237.6 101.382C237.6 101.71 237.491 101.987 237.273 102.215C237.055 102.433 236.767 102.542 236.41 102.542ZM244.277 103.762C244.911 103.762 245.477 103.885 245.972 104.133C246.478 104.381 246.874 104.763 247.162 105.278C247.449 105.784 247.593 106.438 247.593 107.241V111.791H245.734V107.479C245.734 106.775 245.566 106.25 245.229 105.903C244.902 105.556 244.441 105.382 243.846 105.382C243.41 105.382 243.023 105.472 242.686 105.65C242.349 105.828 242.086 106.096 241.898 106.453C241.72 106.8 241.63 107.241 241.63 107.776V111.791H239.772V103.851H241.541V105.992L241.229 105.338C241.506 104.832 241.908 104.446 242.433 104.178C242.969 103.9 243.583 103.762 244.277 103.762ZM252.94 111.895C252.067 111.895 251.393 111.672 250.917 111.226C250.441 110.77 250.204 110.101 250.204 109.219V102.096H252.062V109.174C252.062 109.551 252.156 109.843 252.345 110.051C252.543 110.259 252.816 110.364 253.163 110.364C253.579 110.364 253.926 110.255 254.203 110.036L254.724 111.36C254.506 111.538 254.238 111.672 253.921 111.761C253.604 111.85 253.277 111.895 252.94 111.895ZM248.895 105.397V103.91H254.189V105.397H248.895ZM261.463 111.791V102.126L262.31 103.003H259.262V101.382H263.396V111.791H261.463Z" fill="#3A5832"/>
<ellipse cx="807.13" cy="127.783" rx="41.3556" ry="17.1928" fill="#52714A"/>
<path d="M781.702 168.63C780.89 168.63 780.111 168.516 779.368 168.288C778.624 168.05 778.035 167.748 777.598 167.381L778.268 165.879C778.684 166.206 779.199 166.479 779.814 166.697C780.429 166.915 781.058 167.024 781.702 167.024C782.248 167.024 782.689 166.965 783.026 166.846C783.363 166.727 783.611 166.568 783.769 166.37C783.928 166.162 784.007 165.929 784.007 165.671C784.007 165.354 783.893 165.101 783.665 164.913C783.437 164.715 783.14 164.561 782.773 164.452C782.416 164.333 782.015 164.224 781.569 164.125C781.132 164.026 780.691 163.912 780.245 163.783C779.809 163.644 779.408 163.47 779.041 163.262C778.684 163.044 778.392 162.757 778.164 162.4C777.936 162.043 777.822 161.587 777.822 161.032C777.822 160.467 777.97 159.951 778.268 159.485C778.575 159.01 779.036 158.633 779.65 158.355C780.275 158.068 781.063 157.924 782.015 157.924C782.639 157.924 783.259 158.003 783.873 158.162C784.488 158.321 785.023 158.549 785.479 158.846L784.87 160.348C784.404 160.07 783.923 159.867 783.427 159.738C782.932 159.599 782.456 159.53 782 159.53C781.465 159.53 781.028 159.594 780.691 159.723C780.364 159.852 780.121 160.021 779.963 160.229C779.814 160.437 779.74 160.675 779.74 160.943C779.74 161.26 779.849 161.518 780.067 161.716C780.295 161.904 780.587 162.053 780.944 162.162C781.311 162.271 781.717 162.38 782.163 162.489C782.609 162.588 783.051 162.702 783.487 162.831C783.933 162.96 784.334 163.128 784.691 163.337C785.058 163.545 785.35 163.827 785.568 164.184C785.796 164.541 785.91 164.992 785.91 165.537C785.91 166.092 785.757 166.608 785.45 167.084C785.152 167.55 784.691 167.926 784.067 168.214C783.442 168.491 782.654 168.63 781.702 168.63ZM792.05 168.586C791.406 168.586 790.816 168.437 790.281 168.139C789.755 167.842 789.334 167.396 789.017 166.801C788.709 166.197 788.556 165.433 788.556 164.511C788.556 163.579 788.705 162.816 789.002 162.221C789.309 161.627 789.726 161.186 790.251 160.898C790.776 160.601 791.376 160.452 792.05 160.452C792.833 160.452 793.522 160.62 794.117 160.958C794.722 161.295 795.198 161.765 795.544 162.37C795.901 162.975 796.08 163.689 796.08 164.511C796.08 165.334 795.901 166.053 795.544 166.667C795.198 167.272 794.722 167.743 794.117 168.08C793.522 168.417 792.833 168.586 792.05 168.586ZM787.649 171.366V160.541H789.418V162.415L789.359 164.526L789.507 166.638V171.366H787.649ZM791.842 166.995C792.288 166.995 792.685 166.895 793.032 166.697C793.388 166.499 793.671 166.211 793.879 165.835C794.087 165.458 794.191 165.017 794.191 164.511C794.191 163.996 794.087 163.555 793.879 163.188C793.671 162.811 793.388 162.524 793.032 162.326C792.685 162.127 792.288 162.028 791.842 162.028C791.396 162.028 790.994 162.127 790.638 162.326C790.281 162.524 789.998 162.811 789.79 163.188C789.582 163.555 789.478 163.996 789.478 164.511C789.478 165.017 789.582 165.458 789.79 165.835C789.998 166.211 790.281 166.499 790.638 166.697C790.994 166.895 791.396 166.995 791.842 166.995ZM797.842 168.481V160.541H799.612V162.727L799.404 162.088C799.642 161.552 800.013 161.146 800.519 160.868C801.034 160.591 801.674 160.452 802.437 160.452V162.221C802.358 162.202 802.283 162.192 802.214 162.192C802.145 162.182 802.075 162.177 802.006 162.177C801.302 162.177 800.742 162.385 800.326 162.801C799.909 163.208 799.701 163.817 799.701 164.63V168.481H797.842ZM804.014 168.481V160.541H805.873V168.481H804.014ZM804.951 159.233C804.604 159.233 804.316 159.124 804.088 158.906C803.87 158.687 803.761 158.425 803.761 158.117C803.761 157.8 803.87 157.538 804.088 157.329C804.316 157.111 804.604 157.002 804.951 157.002C805.298 157.002 805.58 157.106 805.798 157.315C806.026 157.513 806.14 157.766 806.14 158.073C806.14 158.4 806.031 158.678 805.813 158.906C805.595 159.124 805.308 159.233 804.951 159.233ZM812.818 160.452C813.452 160.452 814.017 160.576 814.513 160.824C815.018 161.072 815.415 161.453 815.702 161.969C815.99 162.474 816.133 163.128 816.133 163.931V168.481H814.275V164.169C814.275 163.465 814.106 162.94 813.769 162.593C813.442 162.246 812.981 162.073 812.386 162.073C811.95 162.073 811.564 162.162 811.226 162.34C810.889 162.519 810.627 162.786 810.438 163.143C810.26 163.49 810.171 163.931 810.171 164.467V168.481H808.312V160.541H810.082V162.682L809.769 162.028C810.047 161.523 810.448 161.136 810.974 160.868C811.509 160.591 812.124 160.452 812.818 160.452ZM821.48 168.586C820.608 168.586 819.934 168.362 819.458 167.916C818.982 167.46 818.744 166.791 818.744 165.909V158.787H820.603V165.864C820.603 166.241 820.697 166.534 820.885 166.742C821.083 166.95 821.356 167.054 821.703 167.054C822.119 167.054 822.466 166.945 822.744 166.727L823.264 168.05C823.046 168.229 822.779 168.362 822.461 168.452C822.144 168.541 821.817 168.586 821.48 168.586ZM817.435 162.088V160.601H822.729V162.088H817.435ZM828.189 166.117V164.779L833.319 158.073H835.386L830.33 164.779L829.364 164.482H837.616V166.117H828.189ZM833.899 168.481V166.117L833.958 164.482V162.385H835.772V168.481H833.899Z" fill="#3A5832"/>
<ellipse cx="45.0724" cy="127.783" rx="41.3556" ry="17.1928" fill="#FFAFC0"/>
<path d="M19.1825 169.56C18.3697 169.56 17.5915 169.446 16.848 169.218C16.1046 168.98 15.5147 168.678 15.0786 168.311L15.7477 166.809C16.164 167.136 16.6795 167.409 17.2941 167.627C17.9087 167.845 18.5382 167.954 19.1825 167.954C19.7277 167.954 20.1689 167.894 20.5059 167.775C20.8429 167.657 21.0908 167.498 21.2494 167.3C21.408 167.092 21.4873 166.859 21.4873 166.601C21.4873 166.284 21.3733 166.031 21.1453 165.842C20.9173 165.644 20.6199 165.491 20.2531 165.382C19.8963 165.263 19.4948 165.154 19.0487 165.054C18.6125 164.955 18.1714 164.841 17.7253 164.712C17.2892 164.574 16.8877 164.4 16.5209 164.192C16.164 163.974 15.8716 163.686 15.6436 163.33C15.4156 162.973 15.3016 162.517 15.3016 161.962C15.3016 161.397 15.4503 160.881 15.7477 160.415C16.055 159.939 16.5159 159.563 17.1305 159.285C17.7551 158.998 18.5431 158.854 19.4948 158.854C20.1193 158.854 20.7389 158.933 21.3535 159.092C21.9681 159.25 22.5034 159.478 22.9594 159.776L22.3497 161.278C21.8838 161 21.403 160.797 20.9074 160.668C20.4117 160.529 19.9359 160.46 19.4799 160.46C18.9446 160.46 18.5084 160.524 18.1714 160.653C17.8443 160.782 17.6014 160.95 17.4428 161.159C17.2941 161.367 17.2198 161.605 17.2198 161.872C17.2198 162.19 17.3288 162.447 17.5469 162.646C17.7749 162.834 18.0673 162.983 18.4242 163.092C18.791 163.201 19.1974 163.31 19.6435 163.419C20.0896 163.518 20.5307 163.632 20.9669 163.761C21.4129 163.89 21.8144 164.058 22.1713 164.266C22.5381 164.474 22.8305 164.757 23.0486 165.114C23.2766 165.471 23.3906 165.922 23.3906 166.467C23.3906 167.022 23.2369 167.538 22.9296 168.013C22.6322 168.479 22.1713 168.856 21.5468 169.143C20.9222 169.421 20.1342 169.56 19.1825 169.56ZM29.5302 169.515C28.8859 169.515 28.2961 169.367 27.7608 169.069C27.2354 168.772 26.8141 168.326 26.4969 167.731C26.1896 167.126 26.0359 166.363 26.0359 165.441C26.0359 164.509 26.1846 163.746 26.482 163.151C26.7893 162.556 27.2057 162.115 27.731 161.828C28.2564 161.53 28.8562 161.382 29.5302 161.382C30.3134 161.382 31.0023 161.55 31.5971 161.887C32.2018 162.224 32.6776 162.695 33.0246 163.3C33.3814 163.904 33.5599 164.618 33.5599 165.441C33.5599 166.264 33.3814 166.982 33.0246 167.597C32.6776 168.202 32.2018 168.673 31.5971 169.01C31.0023 169.347 30.3134 169.515 29.5302 169.515ZM25.1289 172.296V161.471H26.8984V163.344L26.8389 165.456L26.9876 167.567V172.296H25.1289ZM29.3221 167.924C29.7682 167.924 30.1647 167.825 30.5116 167.627C30.8685 167.429 31.151 167.141 31.3592 166.764C31.5674 166.388 31.6714 165.947 31.6714 165.441C31.6714 164.926 31.5674 164.484 31.3592 164.118C31.151 163.741 30.8685 163.453 30.5116 163.255C30.1647 163.057 29.7682 162.958 29.3221 162.958C28.876 162.958 28.4745 163.057 28.1176 163.255C27.7608 163.453 27.4783 163.741 27.2701 164.118C27.0619 164.484 26.9578 164.926 26.9578 165.441C26.9578 165.947 27.0619 166.388 27.2701 166.764C27.4783 167.141 27.7608 167.429 28.1176 167.627C28.4745 167.825 28.876 167.924 29.3221 167.924ZM35.3226 169.411V161.471H37.092V163.657L36.8839 163.017C37.1218 162.482 37.4935 162.076 37.9991 161.798C38.5145 161.52 39.1539 161.382 39.9172 161.382V163.151C39.8379 163.131 39.7636 163.121 39.6942 163.121C39.6248 163.111 39.5554 163.107 39.486 163.107C38.7822 163.107 38.2221 163.315 37.8058 163.731C37.3894 164.137 37.1813 164.747 37.1813 165.56V169.411H35.3226ZM41.494 169.411V161.471H43.3526V169.411H41.494ZM42.4307 160.162C42.0838 160.162 41.7963 160.053 41.5683 159.835C41.3502 159.617 41.2412 159.354 41.2412 159.047C41.2412 158.73 41.3502 158.467 41.5683 158.259C41.7963 158.041 42.0838 157.932 42.4307 157.932C42.7777 157.932 43.0602 158.036 43.2783 158.244C43.5063 158.442 43.6203 158.695 43.6203 159.003C43.6203 159.33 43.5112 159.607 43.2932 159.835C43.0751 160.053 42.7876 160.162 42.4307 160.162ZM50.2976 161.382C50.932 161.382 51.4971 161.506 51.9927 161.753C52.4983 162.001 52.8948 162.383 53.1823 162.898C53.4697 163.404 53.6135 164.058 53.6135 164.861V169.411H51.7548V165.099C51.7548 164.395 51.5863 163.87 51.2492 163.523C50.9221 163.176 50.4611 163.002 49.8664 163.002C49.4302 163.002 49.0436 163.092 48.7066 163.27C48.3695 163.448 48.1068 163.716 47.9185 164.073C47.74 164.42 47.6508 164.861 47.6508 165.396V169.411H45.7922V161.471H47.5616V163.612L47.2494 162.958C47.5269 162.452 47.9284 162.066 48.4538 161.798C48.9891 161.52 49.6037 161.382 50.2976 161.382ZM58.9601 169.515C58.0877 169.515 57.4136 169.292 56.9378 168.846C56.462 168.39 56.2241 167.721 56.2241 166.839V159.716H58.0828V166.794C58.0828 167.171 58.1769 167.463 58.3653 167.671C58.5635 167.88 58.8362 167.984 59.1831 167.984C59.5995 167.984 59.9464 167.875 60.224 167.657L60.7444 168.98C60.5263 169.158 60.2587 169.292 59.9414 169.381C59.6242 169.471 59.2971 169.515 58.9601 169.515ZM54.9156 163.017V161.53H60.2091V163.017H54.9156ZM70.1596 169.56C69.3369 169.56 68.5934 169.352 67.9292 168.935C67.275 168.519 66.7595 167.914 66.3828 167.121C66.0061 166.318 65.8178 165.347 65.8178 164.207C65.8178 163.067 66.0061 162.1 66.3828 161.307C66.7595 160.504 67.275 159.895 67.9292 159.478C68.5934 159.062 69.3369 158.854 70.1596 158.854C70.9923 158.854 71.7358 159.062 72.39 159.478C73.0443 159.895 73.5598 160.504 73.9365 161.307C74.3231 162.1 74.5164 163.067 74.5164 164.207C74.5164 165.347 74.3231 166.318 73.9365 167.121C73.5598 167.914 73.0443 168.519 72.39 168.935C71.7358 169.352 70.9923 169.56 70.1596 169.56ZM70.1596 167.88C70.6454 167.88 71.0667 167.751 71.4235 167.493C71.7804 167.225 72.058 166.819 72.2562 166.274C72.4644 165.728 72.5685 165.04 72.5685 164.207C72.5685 163.364 72.4644 162.675 72.2562 162.14C72.058 161.595 71.7804 161.193 71.4235 160.936C71.0667 160.668 70.6454 160.534 70.1596 160.534C69.6937 160.534 69.2774 160.668 68.9106 160.936C68.5537 161.193 68.2712 161.595 68.063 162.14C67.8648 162.675 67.7657 163.364 67.7657 164.207C67.7657 165.04 67.8648 165.728 68.063 166.274C68.2712 166.819 68.5537 167.225 68.9106 167.493C69.2774 167.751 69.6937 167.88 70.1596 167.88ZM17.5359 182.003H19.0229V192.411H17.5359V182.003ZM11.5584 192.411H10.0715V182.003H11.5584V192.411ZM17.6697 187.772H11.4097V186.478H17.6697V187.772ZM26.8222 192.411V190.746L26.7479 190.434V187.593C26.7479 186.989 26.5694 186.523 26.2126 186.196C25.8656 185.859 25.3402 185.69 24.6364 185.69C24.1705 185.69 23.7145 185.769 23.2684 185.928C22.8223 186.077 22.4456 186.28 22.1383 186.538L21.5436 185.467C21.95 185.14 22.4357 184.892 23.0008 184.724C23.5757 184.545 24.1755 184.456 24.8 184.456C25.8805 184.456 26.7132 184.719 27.298 185.244C27.8829 185.769 28.1753 186.572 28.1753 187.653V192.411H26.8222ZM24.2349 192.5C23.6501 192.5 23.1346 192.401 22.6885 192.203C22.2523 192.005 21.9153 191.732 21.6774 191.385C21.4395 191.028 21.3205 190.627 21.3205 190.181C21.3205 189.754 21.4197 189.368 21.6179 189.021C21.8261 188.674 22.1582 188.396 22.6142 188.188C23.0801 187.98 23.7046 187.876 24.4877 187.876H26.9858V188.902H24.5472C23.8335 188.902 23.3527 189.021 23.1049 189.259C22.857 189.497 22.7331 189.784 22.7331 190.121C22.7331 190.508 22.8868 190.82 23.1941 191.058C23.5014 191.286 23.9276 191.4 24.4728 191.4C25.0081 191.4 25.474 191.281 25.8706 191.043C26.277 190.805 26.5694 190.458 26.7479 190.002L27.0304 190.984C26.842 191.45 26.51 191.821 26.0341 192.099C25.5583 192.367 24.9586 192.5 24.2349 192.5ZM34.2518 192.5C33.4489 192.5 32.7302 192.327 32.0957 191.98C31.4712 191.633 30.9805 191.157 30.6237 190.552C30.2668 189.948 30.0884 189.254 30.0884 188.471C30.0884 187.688 30.2668 186.994 30.6237 186.389C30.9805 185.784 31.4712 185.313 32.0957 184.976C32.7302 184.629 33.4489 184.456 34.2518 184.456C34.9655 184.456 35.6 184.6 36.1551 184.887C36.7201 185.165 37.1563 185.581 37.4636 186.136L36.3781 186.835C36.1204 186.448 35.8032 186.166 35.4265 185.988C35.0597 185.799 34.6632 185.705 34.2369 185.705C33.7215 185.705 33.2605 185.819 32.8541 186.047C32.4477 186.275 32.1255 186.597 31.8876 187.014C31.6497 187.42 31.5307 187.906 31.5307 188.471C31.5307 189.036 31.6497 189.526 31.8876 189.943C32.1255 190.359 32.4477 190.681 32.8541 190.909C33.2605 191.137 33.7215 191.251 34.2369 191.251C34.6632 191.251 35.0597 191.162 35.4265 190.984C35.8032 190.795 36.1204 190.508 36.3781 190.121L37.4636 190.805C37.1563 191.35 36.7201 191.772 36.1551 192.069C35.6 192.357 34.9655 192.5 34.2518 192.5ZM40.3699 190.508L40.3996 188.679L44.9348 184.53H46.6596L43.1802 187.95L42.407 188.605L40.3699 190.508ZM39.2101 192.411V181.378H40.6375V192.411H39.2101ZM45.2322 192.411L42.1393 188.575L43.0612 187.43L46.9868 192.411H45.2322ZM53.1196 192.411V190.746L53.0452 190.434V187.593C53.0452 186.989 52.8668 186.523 52.5099 186.196C52.163 185.859 51.6376 185.69 50.9338 185.69C50.4679 185.69 50.0119 185.769 49.5658 185.928C49.1197 186.077 48.743 186.28 48.4357 186.538L47.8409 185.467C48.2474 185.14 48.7331 184.892 49.2981 184.724C49.8731 184.545 50.4728 184.456 51.0973 184.456C52.1779 184.456 53.0105 184.719 53.5954 185.244C54.1803 185.769 54.4727 186.572 54.4727 187.653V192.411H53.1196ZM50.5323 192.5C49.9474 192.5 49.432 192.401 48.9859 192.203C48.5497 192.005 48.2127 191.732 47.9748 191.385C47.7369 191.028 47.6179 190.627 47.6179 190.181C47.6179 189.754 47.717 189.368 47.9153 189.021C48.1235 188.674 48.4555 188.396 48.9115 188.188C49.3774 187.98 50.002 187.876 50.7851 187.876H53.2831V188.902H50.8446C50.1308 188.902 49.6501 189.021 49.4022 189.259C49.1544 189.497 49.0305 189.784 49.0305 190.121C49.0305 190.508 49.1841 190.82 49.4914 191.058C49.7987 191.286 50.225 191.4 50.7702 191.4C51.3055 191.4 51.7714 191.281 52.1679 191.043C52.5744 190.805 52.8668 190.458 53.0452 190.002L53.3278 190.984C53.1394 191.45 52.8073 191.821 52.3315 192.099C51.8557 192.367 51.2559 192.5 50.5323 192.5ZM59.8206 192.5C59.0275 192.5 58.4129 192.287 57.9768 191.861C57.5406 191.435 57.3225 190.825 57.3225 190.032V182.805H58.75V189.973C58.75 190.399 58.8541 190.726 59.0622 190.954C59.2803 191.182 59.5876 191.296 59.9841 191.296C60.4302 191.296 60.802 191.172 61.0993 190.924L61.5454 191.95C61.3273 192.139 61.0647 192.277 60.7574 192.367C60.46 192.456 60.1477 192.5 59.8206 192.5ZM55.9843 185.705V184.53H61.0101V185.705H55.9843ZM66.3852 192.5C65.5922 192.5 64.8883 192.327 64.2737 191.98C63.6591 191.633 63.1734 191.157 62.8165 190.552C62.4597 189.938 62.2812 189.244 62.2812 188.471C62.2812 187.688 62.4597 186.994 62.8165 186.389C63.1734 185.784 63.6591 185.313 64.2737 184.976C64.8883 184.629 65.5922 184.456 66.3852 184.456C67.1683 184.456 67.8672 184.629 68.4818 184.976C69.1063 185.313 69.592 185.784 69.939 186.389C70.2958 186.984 70.4743 187.678 70.4743 188.471C70.4743 189.254 70.2958 189.948 69.939 190.552C69.592 191.157 69.1063 191.633 68.4818 191.98C67.8672 192.327 67.1683 192.5 66.3852 192.5ZM66.3852 191.251C66.8908 191.251 67.3418 191.137 67.7383 190.909C68.1447 190.681 68.462 190.359 68.69 189.943C68.918 189.517 69.0319 189.026 69.0319 188.471C69.0319 187.906 68.918 187.42 68.69 187.014C68.462 186.597 68.1447 186.275 67.7383 186.047C67.3418 185.819 66.8908 185.705 66.3852 185.705C65.8796 185.705 65.4286 185.819 65.0321 186.047C64.6356 186.275 64.3183 186.597 64.0804 187.014C63.8425 187.42 63.7236 187.906 63.7236 188.471C63.7236 189.026 63.8425 189.517 64.0804 189.943C64.3183 190.359 64.6356 190.681 65.0321 190.909C65.4286 191.137 65.8796 191.251 66.3852 191.251ZM76.6565 184.456C77.3008 184.456 77.8659 184.58 78.3516 184.828C78.8472 185.076 79.2338 185.452 79.5114 185.958C79.789 186.463 79.9277 187.103 79.9277 187.876V192.411H78.5003V188.04C78.5003 187.276 78.3119 186.701 77.9352 186.315C77.5685 185.928 77.048 185.735 76.374 185.735C75.8684 185.735 75.4273 185.834 75.0506 186.032C74.6739 186.23 74.3815 186.523 74.1733 186.909C73.975 187.296 73.8759 187.777 73.8759 188.352V192.411H72.4484V184.53H73.8164V186.657L73.5934 186.092C73.8511 185.576 74.2476 185.175 74.7829 184.887C75.3182 184.6 75.9427 184.456 76.6565 184.456Z" fill="#3A5832"/>
<ellipse cx="616.615" cy="71.0932" rx="41.3556" ry="17.1928" fill="#52714A"/>
<path d="M592.335 112.87C591.522 112.87 590.744 112.756 590.001 112.528C589.257 112.29 588.667 111.988 588.231 111.621L588.9 110.12C589.317 110.447 589.832 110.719 590.447 110.937C591.061 111.155 591.691 111.264 592.335 111.264C592.88 111.264 593.322 111.205 593.659 111.086C593.996 110.967 594.244 110.808 594.402 110.61C594.561 110.402 594.64 110.169 594.64 109.911C594.64 109.594 594.526 109.341 594.298 109.153C594.07 108.955 593.773 108.801 593.406 108.692C593.049 108.573 592.648 108.464 592.201 108.365C591.765 108.266 591.324 108.152 590.878 108.023C590.442 107.884 590.04 107.711 589.674 107.503C589.317 107.284 589.024 106.997 588.796 106.64C588.568 106.283 588.454 105.827 588.454 105.272C588.454 104.707 588.603 104.192 588.9 103.726C589.208 103.25 589.669 102.873 590.283 102.596C590.908 102.308 591.696 102.164 592.648 102.164C593.272 102.164 593.892 102.244 594.506 102.402C595.121 102.561 595.656 102.789 596.112 103.086L595.502 104.588C595.037 104.311 594.556 104.107 594.06 103.978C593.564 103.84 593.089 103.77 592.633 103.77C592.097 103.77 591.661 103.835 591.324 103.964C590.997 104.092 590.754 104.261 590.596 104.469C590.447 104.677 590.373 104.915 590.373 105.183C590.373 105.5 590.482 105.758 590.7 105.956C590.928 106.144 591.22 106.293 591.577 106.402C591.944 106.511 592.35 106.62 592.796 106.729C593.242 106.828 593.683 106.942 594.12 107.071C594.566 107.2 594.967 107.369 595.324 107.577C595.691 107.785 595.983 108.068 596.201 108.424C596.429 108.781 596.543 109.232 596.543 109.778C596.543 110.333 596.39 110.848 596.082 111.324C595.785 111.79 595.324 112.167 594.7 112.454C594.075 112.732 593.287 112.87 592.335 112.87ZM602.683 112.826C602.039 112.826 601.449 112.677 600.914 112.38C600.388 112.082 599.967 111.636 599.65 111.041C599.342 110.437 599.189 109.673 599.189 108.752C599.189 107.82 599.337 107.056 599.635 106.462C599.942 105.867 600.358 105.426 600.884 105.138C601.409 104.841 602.009 104.692 602.683 104.692C603.466 104.692 604.155 104.861 604.75 105.198C605.355 105.535 605.83 106.006 606.177 106.61C606.534 107.215 606.713 107.929 606.713 108.752C606.713 109.574 606.534 110.293 606.177 110.908C605.83 111.512 605.355 111.983 604.75 112.32C604.155 112.657 603.466 112.826 602.683 112.826ZM598.282 115.606V104.781H600.051V106.655L599.992 108.766L600.14 110.878V115.606H598.282ZM602.475 111.235C602.921 111.235 603.317 111.136 603.664 110.937C604.021 110.739 604.304 110.452 604.512 110.075C604.72 109.698 604.824 109.257 604.824 108.752C604.824 108.236 604.72 107.795 604.512 107.428C604.304 107.051 604.021 106.764 603.664 106.566C603.317 106.367 602.921 106.268 602.475 106.268C602.029 106.268 601.627 106.367 601.27 106.566C600.914 106.764 600.631 107.051 600.423 107.428C600.215 107.795 600.111 108.236 600.111 108.752C600.111 109.257 600.215 109.698 600.423 110.075C600.631 110.452 600.914 110.739 601.27 110.937C601.627 111.136 602.029 111.235 602.475 111.235ZM608.475 112.722V104.781H610.245V106.967L610.037 106.328C610.275 105.793 610.646 105.386 611.152 105.109C611.667 104.831 612.307 104.692 613.07 104.692V106.462C612.991 106.442 612.916 106.432 612.847 106.432C612.778 106.422 612.708 106.417 612.639 106.417C611.935 106.417 611.375 106.625 610.959 107.042C610.542 107.448 610.334 108.058 610.334 108.871V112.722H608.475ZM614.647 112.722V104.781H616.505V112.722H614.647ZM615.584 103.473C615.237 103.473 614.949 103.364 614.721 103.146C614.503 102.928 614.394 102.665 614.394 102.358C614.394 102.04 614.503 101.778 614.721 101.57C614.949 101.352 615.237 101.242 615.584 101.242C615.93 101.242 616.213 101.347 616.431 101.555C616.659 101.753 616.773 102.006 616.773 102.313C616.773 102.64 616.664 102.918 616.446 103.146C616.228 103.364 615.94 103.473 615.584 103.473ZM623.45 104.692C624.085 104.692 624.65 104.816 625.145 105.064C625.651 105.312 626.048 105.693 626.335 106.209C626.622 106.714 626.766 107.369 626.766 108.172V112.722H624.908V108.41C624.908 107.706 624.739 107.18 624.402 106.833C624.075 106.486 623.614 106.313 623.019 106.313C622.583 106.313 622.196 106.402 621.859 106.581C621.522 106.759 621.26 107.027 621.071 107.384C620.893 107.731 620.804 108.172 620.804 108.707V112.722H618.945V104.781H620.714V106.923L620.402 106.268C620.68 105.763 621.081 105.376 621.607 105.109C622.142 104.831 622.756 104.692 623.45 104.692ZM632.113 112.826C631.24 112.826 630.566 112.603 630.091 112.157C629.615 111.701 629.377 111.032 629.377 110.149V103.027H631.236V110.105C631.236 110.481 631.33 110.774 631.518 110.982C631.716 111.19 631.989 111.294 632.336 111.294C632.752 111.294 633.099 111.185 633.377 110.967L633.897 112.29C633.679 112.469 633.411 112.603 633.094 112.692C632.777 112.781 632.45 112.826 632.113 112.826ZM628.068 106.328V104.841H633.362V106.328H628.068ZM642.242 112.87C641.508 112.87 640.79 112.766 640.086 112.558C639.392 112.34 638.807 112.043 638.331 111.666L639.164 110.164C639.541 110.471 639.997 110.719 640.532 110.908C641.067 111.096 641.627 111.19 642.212 111.19C642.906 111.19 643.446 111.051 643.833 110.774C644.219 110.486 644.413 110.1 644.413 109.614C644.413 109.138 644.234 108.761 643.877 108.484C643.521 108.206 642.946 108.068 642.153 108.068H641.201V106.744L644.175 103.205L644.428 103.934H638.837V102.313H645.929V103.607L642.956 107.146L641.944 106.551H642.524C643.803 106.551 644.76 106.838 645.394 107.413C646.038 107.978 646.361 108.707 646.361 109.599C646.361 110.184 646.212 110.724 645.915 111.22C645.617 111.716 645.161 112.117 644.547 112.424C643.942 112.722 643.174 112.87 642.242 112.87Z" fill="#3A5832"/>
<rect x="93.8633" y="126.39" width="18.5868" height="3.71735" rx="1.85868" fill="#92BB87"/>
<rect x="474.892" y="126.39" width="18.5868" height="3.71735" rx="1.85868" fill="#92BB87"/>
<rect x="854.991" y="126.649" width="18.5868" height="3.71735" rx="1.85868" fill="#92BB87"/>
<rect width="18.5868" height="3.71735" rx="1.85868" transform="matrix(-1 0 0 1 379.07 124.791)" fill="#92BB87"/>
<rect width="18.5868" height="3.71735" rx="1.85868" transform="matrix(-1 0 0 1 760.099 124.791)" fill="#92BB87"/>
<rect x="123.663" y="122.07" width="18.5868" height="3.71735" rx="1.85868" transform="rotate(-35 123.663 122.07)" fill="#92BB87"/>
<rect x="504.692" y="122.07" width="18.5868" height="3.71735" rx="1.85868" transform="rotate(-35 504.692 122.07)" fill="#92BB87"/>
<rect x="884.791" y="122.331" width="18.5868" height="3.71735" rx="1.85868" transform="rotate(-35 884.791 122.331)" fill="#92BB87"/>
<rect width="18.5868" height="3.71735" rx="1.85868" transform="matrix(-0.819152 -0.573576 -0.573576 0.819152 349.269 120.473)" fill="#92BB87"/>
<rect width="18.5868" height="3.71735" rx="1.85868" transform="matrix(-0.819152 -0.573576 -0.573576 0.819152 730.298 120.473)" fill="#92BB87"/>
<rect x="146.259" y="101.966" width="18.5868" height="3.71735" rx="1.85868" transform="rotate(-45 146.259 101.966)" fill="#92BB87"/>
<rect x="527.287" y="101.966" width="18.5868" height="3.71735" rx="1.85868" transform="rotate(-45 527.287 101.966)" fill="#92BB87"/>
<rect x="907.387" y="102.226" width="18.5868" height="3.71735" rx="1.85868" transform="rotate(-45 907.387 102.226)" fill="#92BB87"/>
<rect width="18.5868" height="3.71735" rx="1.85868" transform="matrix(-0.707107 -0.707107 -0.707107 0.707107 326.674 100.367)" fill="#92BB87"/>
<rect width="18.5868" height="3.71735" rx="1.85868" transform="matrix(-0.707107 -0.707107 -0.707107 0.707107 707.703 100.367)" fill="#92BB87"/>
<rect x="169.21" y="81.9404" width="18.5868" height="3.71735" rx="1.85868" transform="rotate(-25 169.21 81.9404)" fill="#92BB87"/>
<rect x="550.238" y="81.9404" width="18.5868" height="3.71735" rx="1.85868" transform="rotate(-25 550.238 81.9404)" fill="#92BB87"/>
<rect x="930.338" y="82.2012" width="18.5868" height="3.71735" rx="1.85868" transform="rotate(-25 930.338 82.2012)" fill="#92BB87"/>
<rect width="18.5868" height="3.71735" rx="1.85868" transform="matrix(-0.906308 -0.422618 -0.422618 0.906308 303.723 80.3418)" fill="#92BB87"/>
<rect width="18.5868" height="3.71735" rx="1.85868" transform="matrix(-0.906308 -0.422618 -0.422618 0.906308 684.751 80.3418)" fill="#92BB87"/>
<path d="M973.35 111.94C972.537 111.94 971.759 111.826 971.016 111.598C970.272 111.36 969.682 111.057 969.246 110.691L969.915 109.189C970.332 109.516 970.847 109.789 971.462 110.007C972.076 110.225 972.706 110.334 973.35 110.334C973.895 110.334 974.336 110.274 974.673 110.155C975.01 110.036 975.258 109.878 975.417 109.68C975.576 109.471 975.655 109.238 975.655 108.981C975.655 108.663 975.541 108.411 975.313 108.222C975.085 108.024 974.787 107.87 974.421 107.761C974.064 107.642 973.662 107.533 973.216 107.434C972.78 107.335 972.339 107.221 971.893 107.092C971.457 106.953 971.055 106.78 970.688 106.572C970.332 106.354 970.039 106.066 969.811 105.709C969.583 105.353 969.469 104.897 969.469 104.341C969.469 103.776 969.618 103.261 969.915 102.795C970.223 102.319 970.683 101.943 971.298 101.665C971.923 101.377 972.711 101.234 973.662 101.234C974.287 101.234 974.906 101.313 975.521 101.472C976.136 101.63 976.671 101.858 977.127 102.156L976.517 103.657C976.051 103.38 975.571 103.177 975.075 103.048C974.579 102.909 974.103 102.84 973.647 102.84C973.112 102.84 972.676 102.904 972.339 103.033C972.012 103.162 971.769 103.33 971.61 103.538C971.462 103.747 971.387 103.985 971.387 104.252C971.387 104.569 971.496 104.827 971.714 105.025C971.942 105.214 972.235 105.362 972.592 105.472C972.959 105.581 973.365 105.69 973.811 105.799C974.257 105.898 974.698 106.012 975.134 106.141C975.58 106.27 975.982 106.438 976.339 106.646C976.706 106.854 976.998 107.137 977.216 107.494C977.444 107.851 977.558 108.302 977.558 108.847C977.558 109.402 977.404 109.917 977.097 110.393C976.8 110.859 976.339 111.236 975.714 111.523C975.09 111.801 974.302 111.94 973.35 111.94ZM983.698 111.895C983.053 111.895 982.464 111.746 981.928 111.449C981.403 111.152 980.982 110.706 980.664 110.111C980.357 109.506 980.203 108.743 980.203 107.821C980.203 106.889 980.352 106.126 980.65 105.531C980.957 104.936 981.373 104.495 981.899 104.208C982.424 103.91 983.024 103.762 983.698 103.762C984.481 103.762 985.17 103.93 985.765 104.267C986.369 104.604 986.845 105.075 987.192 105.68C987.549 106.284 987.727 106.998 987.727 107.821C987.727 108.644 987.549 109.362 987.192 109.977C986.845 110.582 986.369 111.053 985.765 111.39C985.17 111.727 984.481 111.895 983.698 111.895ZM979.296 114.676V103.851H981.066V105.724L981.006 107.836L981.155 109.947V114.676H979.296ZM983.49 110.304C983.936 110.304 984.332 110.205 984.679 110.007C985.036 109.808 985.319 109.521 985.527 109.144C985.735 108.768 985.839 108.326 985.839 107.821C985.839 107.305 985.735 106.864 985.527 106.498C985.319 106.121 985.036 105.833 984.679 105.635C984.332 105.437 983.936 105.338 983.49 105.338C983.044 105.338 982.642 105.437 982.285 105.635C981.928 105.833 981.646 106.121 981.438 106.498C981.229 106.864 981.125 107.305 981.125 107.821C981.125 108.326 981.229 108.768 981.438 109.144C981.646 109.521 981.928 109.808 982.285 110.007C982.642 110.205 983.044 110.304 983.49 110.304ZM989.49 111.791V103.851H991.26V106.037L991.051 105.397C991.289 104.862 991.661 104.455 992.167 104.178C992.682 103.9 993.321 103.762 994.085 103.762V105.531C994.005 105.511 993.931 105.501 993.862 105.501C993.792 105.491 993.723 105.486 993.654 105.486C992.95 105.486 992.39 105.695 991.973 106.111C991.557 106.517 991.349 107.127 991.349 107.94V111.791H989.49ZM995.662 111.791V103.851H997.52V111.791H995.662ZM996.598 102.542C996.251 102.542 995.964 102.433 995.736 102.215C995.518 101.997 995.409 101.734 995.409 101.427C995.409 101.11 995.518 100.847 995.736 100.639C995.964 100.421 996.251 100.312 996.598 100.312C996.945 100.312 997.228 100.416 997.446 100.624C997.674 100.822 997.788 101.075 997.788 101.382C997.788 101.71 997.679 101.987 997.461 102.215C997.243 102.433 996.955 102.542 996.598 102.542ZM1004.47 103.762C1005.1 103.762 1005.66 103.885 1006.16 104.133C1006.67 104.381 1007.06 104.763 1007.35 105.278C1007.64 105.784 1007.78 106.438 1007.78 107.241V111.791H1005.92V107.479C1005.92 106.775 1005.75 106.25 1005.42 105.903C1005.09 105.556 1004.63 105.382 1004.03 105.382C1003.6 105.382 1003.21 105.472 1002.87 105.65C1002.54 105.828 1002.27 106.096 1002.09 106.453C1001.91 106.8 1001.82 107.241 1001.82 107.776V111.791H999.96V103.851H1001.73V105.992L1001.42 105.338C1001.69 104.832 1002.1 104.446 1002.62 104.178C1003.16 103.9 1003.77 103.762 1004.47 103.762ZM1013.13 111.895C1012.26 111.895 1011.58 111.672 1011.11 111.226C1010.63 110.77 1010.39 110.101 1010.39 109.219V102.096H1012.25V109.174C1012.25 109.551 1012.34 109.843 1012.53 110.051C1012.73 110.259 1013 110.364 1013.35 110.364C1013.77 110.364 1014.11 110.255 1014.39 110.036L1014.91 111.36C1014.69 111.538 1014.43 111.672 1014.11 111.761C1013.79 111.85 1013.46 111.895 1013.13 111.895ZM1009.08 105.397V103.91H1014.38V105.397H1009.08ZM1023.44 111.94C1022.7 111.94 1021.98 111.836 1021.28 111.627C1020.59 111.409 1020 111.112 1019.52 110.735L1020.34 109.233C1020.72 109.541 1021.17 109.789 1021.71 109.977C1022.26 110.165 1022.82 110.259 1023.41 110.259C1024.09 110.259 1024.62 110.116 1025.01 109.828C1025.41 109.541 1025.61 109.154 1025.61 108.668C1025.61 108.341 1025.52 108.054 1025.35 107.806C1025.19 107.558 1024.91 107.37 1024.49 107.241C1024.08 107.112 1023.52 107.048 1022.81 107.048H1020.3L1020.83 101.382H1026.94V103.003H1021.55L1022.56 102.081L1022.16 106.319L1021.15 105.412H1023.24C1024.27 105.412 1025.1 105.551 1025.72 105.828C1026.36 106.096 1026.82 106.473 1027.11 106.958C1027.41 107.434 1027.55 107.979 1027.55 108.594C1027.55 109.199 1027.41 109.754 1027.11 110.259C1026.81 110.765 1026.35 111.171 1025.74 111.479C1025.14 111.786 1024.37 111.94 1023.44 111.94Z" fill="#3A5832"/>
<ellipse cx="997.645" cy="71.0922" rx="41.3556" ry="17.1928" fill="#52714A"/>
<rect x="993.461" y="1.85742" width="8.36405" height="62.2657" rx="2.78802" fill="#92BB87"/>
<path d="M1029.53 18.0039C1030.83 18.71 1030.82 20.5785 1029.51 21.2763L1003.88 34.9829C1002.64 35.6462 1001.14 34.7446 1001.15 33.3379L1001.24 5.76098C1001.24 4.35432 1002.75 3.46228 1003.98 4.13352L1029.53 18.0039Z" fill="#52714A"/>
<path d="M32.5571 120.963C32.8386 122.402 31.1049 123.353 30.0428 122.342L12.1392 105.296C11.7083 104.885 11.5596 104.26 11.7597 103.7L21.1747 77.3385C21.6891 75.8981 23.7749 76.0547 24.0685 77.5558L32.5571 120.963Z" fill="#D8633B"/>
<path fill-rule="evenodd" clip-rule="evenodd" d="M21.1758 77.3389C21.6902 75.8985 23.7758 76.0547 24.0693 77.5557L27.2979 94.0664H15.2012L21.1758 77.3389Z" fill="#FAE0BE"/>
<path d="M35.8795 69.2304C39.606 61.4378 50.6994 61.4378 54.4259 69.2304L74.6142 111.447C77.8768 118.269 72.9035 126.16 65.341 126.16H24.9644C17.4019 126.16 12.4286 118.269 15.6912 111.447L35.8795 69.2304Z" fill="#DD704B"/>
<path d="M36.1497 98.8619C39.8872 91.1065 50.9319 91.1065 54.6694 98.8619L60.7826 111.547C64.0716 118.372 59.0987 126.288 51.5228 126.288H39.2964C31.7204 126.288 26.7476 118.372 30.0365 111.547L36.1497 98.8619Z" fill="#FAE0BE"/>
<path d="M45.5076 85.3795C45.1338 85.6113 44.661 85.6113 44.2872 85.3795L16.919 68.4127C16.5783 68.2015 16.3711 67.8292 16.3711 67.4284V24.0504C16.3711 22.851 17.9704 22.4426 18.5455 23.4951L26.9378 38.8556C27.1409 39.2273 27.5306 39.4584 27.9541 39.4584H61.8408C62.2643 39.4584 62.654 39.2273 62.857 38.8556L71.2495 23.4951C71.8245 22.4426 73.4238 22.851 73.4238 24.0504L73.4238 67.4284C73.4238 67.8292 73.2166 68.2015 72.8759 68.4127L45.5076 85.3795Z" fill="url(#paint0_linear_1571_3858)"/>
<path fill-rule="evenodd" clip-rule="evenodd" d="M45.506 85.3795C45.1322 85.6113 44.6595 85.6113 44.2857 85.3795L19.9572 70.2976C18.9664 69.6834 19.4016 68.1553 20.5674 68.1553H69.2243C70.3901 68.1553 70.8253 69.6834 69.8345 70.2976L45.506 85.3795Z" fill="url(#paint1_linear_1571_3858)"/>
<rect x="40.9219" y="66.0703" width="8.10659" height="3.93749" rx="1.15808" fill="url(#paint2_linear_1571_3858)"/>
<defs>
<linearGradient id="paint0_linear_1571_3858" x1="44.8975" y1="19.5154" x2="44.8975" y2="85.7578" gradientUnits="userSpaceOnUse">
<stop stop-color="#D54310"/>
<stop offset="1" stop-color="#D27B5D"/>
</linearGradient>
<linearGradient id="paint1_linear_1571_3858" x1="44.8959" y1="68.1553" x2="44.8959" y2="85.5533" gradientUnits="userSpaceOnUse">
<stop stop-color="#FFEACF"/>
<stop offset="1" stop-color="#FAE0BE"/>
</linearGradient>
<linearGradient id="paint2_linear_1571_3858" x1="44.9752" y1="66.0703" x2="44.9752" y2="70.0078" gradientUnits="userSpaceOnUse">
<stop stop-color="#39393F"/>
<stop offset="1" stop-color="#9695A5"/>
</linearGradient>
</defs>
</svg>
