<svg width="1114" height="254" viewBox="0 0 1114 254" fill="none" xmlns="http://www.w3.org/2000/svg">
<ellipse cx="454.5" cy="177.5" rx="44.5" ry="18.5" fill="#52714A"/>
<path d="M428.093 221.16C427.219 221.16 426.381 221.037 425.581 220.792C424.781 220.536 424.147 220.211 423.677 219.816L424.397 218.2C424.845 218.552 425.4 218.845 426.061 219.08C426.723 219.315 427.4 219.432 428.093 219.432C428.68 219.432 429.155 219.368 429.517 219.24C429.88 219.112 430.147 218.941 430.317 218.728C430.488 218.504 430.573 218.253 430.573 217.976C430.573 217.635 430.451 217.363 430.205 217.16C429.96 216.947 429.64 216.781 429.245 216.664C428.861 216.536 428.429 216.419 427.949 216.312C427.48 216.205 427.005 216.083 426.525 215.944C426.056 215.795 425.624 215.608 425.229 215.384C424.845 215.149 424.531 214.84 424.285 214.456C424.04 214.072 423.917 213.581 423.917 212.984C423.917 212.376 424.077 211.821 424.397 211.32C424.728 210.808 425.224 210.403 425.885 210.104C426.557 209.795 427.405 209.64 428.429 209.64C429.101 209.64 429.768 209.725 430.429 209.896C431.091 210.067 431.667 210.312 432.157 210.632L431.501 212.248C431 211.949 430.483 211.731 429.949 211.592C429.416 211.443 428.904 211.368 428.413 211.368C427.837 211.368 427.368 211.437 427.005 211.576C426.653 211.715 426.392 211.896 426.221 212.12C426.061 212.344 425.981 212.6 425.981 212.888C425.981 213.229 426.099 213.507 426.333 213.72C426.579 213.923 426.893 214.083 427.277 214.2C427.672 214.317 428.109 214.435 428.589 214.552C429.069 214.659 429.544 214.781 430.013 214.92C430.493 215.059 430.925 215.24 431.309 215.464C431.704 215.688 432.019 215.992 432.253 216.376C432.499 216.76 432.621 217.245 432.621 217.832C432.621 218.429 432.456 218.984 432.125 219.496C431.805 219.997 431.309 220.403 430.637 220.712C429.965 221.011 429.117 221.16 428.093 221.16ZM439.228 221.112C438.534 221.112 437.9 220.952 437.324 220.632C436.758 220.312 436.305 219.832 435.964 219.192C435.633 218.541 435.468 217.72 435.468 216.728C435.468 215.725 435.628 214.904 435.948 214.264C436.278 213.624 436.726 213.149 437.292 212.84C437.857 212.52 438.502 212.36 439.228 212.36C440.07 212.36 440.812 212.541 441.452 212.904C442.102 213.267 442.614 213.773 442.988 214.424C443.372 215.075 443.564 215.843 443.564 216.728C443.564 217.613 443.372 218.387 442.988 219.048C442.614 219.699 442.102 220.205 441.452 220.568C440.812 220.931 440.07 221.112 439.228 221.112ZM434.492 224.104V212.456H436.396V214.472L436.332 216.744L436.492 219.016V224.104H434.492ZM439.004 219.4C439.484 219.4 439.91 219.293 440.284 219.08C440.668 218.867 440.972 218.557 441.196 218.152C441.42 217.747 441.532 217.272 441.532 216.728C441.532 216.173 441.42 215.699 441.196 215.304C440.972 214.899 440.668 214.589 440.284 214.376C439.91 214.163 439.484 214.056 439.004 214.056C438.524 214.056 438.092 214.163 437.708 214.376C437.324 214.589 437.02 214.899 436.796 215.304C436.572 215.699 436.46 216.173 436.46 216.728C436.46 217.272 436.572 217.747 436.796 218.152C437.02 218.557 437.324 218.867 437.708 219.08C438.092 219.293 438.524 219.4 439.004 219.4ZM445.46 221V212.456H447.364V214.808L447.14 214.12C447.396 213.544 447.796 213.107 448.34 212.808C448.895 212.509 449.583 212.36 450.404 212.36V214.264C450.319 214.243 450.239 214.232 450.164 214.232C450.09 214.221 450.015 214.216 449.94 214.216C449.183 214.216 448.58 214.44 448.132 214.888C447.684 215.325 447.46 215.981 447.46 216.856V221H445.46ZM452.101 221V212.456H454.101V221H452.101ZM453.109 211.048C452.736 211.048 452.426 210.931 452.181 210.696C451.946 210.461 451.829 210.179 451.829 209.848C451.829 209.507 451.946 209.224 452.181 209C452.426 208.765 452.736 208.648 453.109 208.648C453.482 208.648 453.786 208.76 454.021 208.984C454.266 209.197 454.389 209.469 454.389 209.8C454.389 210.152 454.272 210.451 454.037 210.696C453.802 210.931 453.493 211.048 453.109 211.048ZM461.574 212.36C462.257 212.36 462.865 212.493 463.398 212.76C463.942 213.027 464.369 213.437 464.678 213.992C464.987 214.536 465.142 215.24 465.142 216.104V221H463.142V216.36C463.142 215.603 462.961 215.037 462.598 214.664C462.246 214.291 461.75 214.104 461.11 214.104C460.641 214.104 460.225 214.2 459.862 214.392C459.499 214.584 459.217 214.872 459.014 215.256C458.822 215.629 458.726 216.104 458.726 216.68V221H456.726V212.456H458.63V214.76L458.294 214.056C458.593 213.512 459.025 213.096 459.59 212.808C460.166 212.509 460.827 212.36 461.574 212.36ZM470.895 221.112C469.957 221.112 469.231 220.872 468.719 220.392C468.207 219.901 467.951 219.181 467.951 218.232V210.568H469.951V218.184C469.951 218.589 470.053 218.904 470.255 219.128C470.469 219.352 470.762 219.464 471.135 219.464C471.583 219.464 471.957 219.347 472.255 219.112L472.815 220.536C472.581 220.728 472.293 220.872 471.951 220.968C471.61 221.064 471.258 221.112 470.895 221.112ZM466.543 214.12V212.52H472.239V214.12H466.543ZM478.13 221V219.608L482.578 215.384C482.952 215.032 483.229 214.723 483.41 214.456C483.592 214.189 483.709 213.944 483.762 213.72C483.826 213.485 483.858 213.267 483.858 213.064C483.858 212.552 483.682 212.157 483.33 211.88C482.978 211.592 482.461 211.448 481.778 211.448C481.234 211.448 480.738 211.544 480.29 211.736C479.853 211.928 479.474 212.221 479.154 212.616L477.698 211.496C478.136 210.909 478.722 210.456 479.458 210.136C480.205 209.805 481.037 209.64 481.954 209.64C482.765 209.64 483.469 209.773 484.066 210.04C484.674 210.296 485.138 210.664 485.458 211.144C485.789 211.624 485.954 212.195 485.954 212.856C485.954 213.219 485.906 213.581 485.81 213.944C485.714 214.296 485.533 214.669 485.266 215.064C485 215.459 484.61 215.901 484.098 216.392L480.274 220.024L479.842 219.24H486.386V221H478.13Z" fill="#3A5832"/>
<ellipse cx="250.5" cy="116.5" rx="44.5" ry="18.5" fill="#FFAFC0"/>
<path d="M225.203 160.16C224.328 160.16 223.491 160.037 222.691 159.792C221.891 159.536 221.256 159.211 220.787 158.816L221.507 157.2C221.955 157.552 222.509 157.845 223.171 158.08C223.832 158.315 224.509 158.432 225.203 158.432C225.789 158.432 226.264 158.368 226.627 158.24C226.989 158.112 227.256 157.941 227.427 157.728C227.597 157.504 227.683 157.253 227.683 156.976C227.683 156.635 227.56 156.363 227.315 156.16C227.069 155.947 226.749 155.781 226.355 155.664C225.971 155.536 225.539 155.419 225.059 155.312C224.589 155.205 224.115 155.083 223.635 154.944C223.165 154.795 222.733 154.608 222.339 154.384C221.955 154.149 221.64 153.84 221.395 153.456C221.149 153.072 221.027 152.581 221.027 151.984C221.027 151.376 221.187 150.821 221.507 150.32C221.837 149.808 222.333 149.403 222.995 149.104C223.667 148.795 224.515 148.64 225.539 148.64C226.211 148.64 226.877 148.725 227.539 148.896C228.2 149.067 228.776 149.312 229.267 149.632L228.611 151.248C228.109 150.949 227.592 150.731 227.059 150.592C226.525 150.443 226.013 150.368 225.523 150.368C224.947 150.368 224.477 150.437 224.115 150.576C223.763 150.715 223.501 150.896 223.331 151.12C223.171 151.344 223.091 151.6 223.091 151.888C223.091 152.229 223.208 152.507 223.443 152.72C223.688 152.923 224.003 153.083 224.387 153.2C224.781 153.317 225.219 153.435 225.699 153.552C226.179 153.659 226.653 153.781 227.123 153.92C227.603 154.059 228.035 154.24 228.419 154.464C228.813 154.688 229.128 154.992 229.363 155.376C229.608 155.76 229.731 156.245 229.731 156.832C229.731 157.429 229.565 157.984 229.235 158.496C228.915 158.997 228.419 159.403 227.747 159.712C227.075 160.011 226.227 160.16 225.203 160.16ZM236.337 160.112C235.644 160.112 235.009 159.952 234.433 159.632C233.868 159.312 233.414 158.832 233.073 158.192C232.742 157.541 232.577 156.72 232.577 155.728C232.577 154.725 232.737 153.904 233.057 153.264C233.388 152.624 233.836 152.149 234.401 151.84C234.966 151.52 235.612 151.36 236.337 151.36C237.18 151.36 237.921 151.541 238.561 151.904C239.212 152.267 239.724 152.773 240.097 153.424C240.481 154.075 240.673 154.843 240.673 155.728C240.673 156.613 240.481 157.387 240.097 158.048C239.724 158.699 239.212 159.205 238.561 159.568C237.921 159.931 237.18 160.112 236.337 160.112ZM231.601 163.104V151.456H233.505V153.472L233.441 155.744L233.601 158.016V163.104H231.601ZM236.113 158.4C236.593 158.4 237.02 158.293 237.393 158.08C237.777 157.867 238.081 157.557 238.305 157.152C238.529 156.747 238.641 156.272 238.641 155.728C238.641 155.173 238.529 154.699 238.305 154.304C238.081 153.899 237.777 153.589 237.393 153.376C237.02 153.163 236.593 153.056 236.113 153.056C235.633 153.056 235.201 153.163 234.817 153.376C234.433 153.589 234.129 153.899 233.905 154.304C233.681 154.699 233.569 155.173 233.569 155.728C233.569 156.272 233.681 156.747 233.905 157.152C234.129 157.557 234.433 157.867 234.817 158.08C235.201 158.293 235.633 158.4 236.113 158.4ZM242.57 160V151.456H244.474V153.808L244.25 153.12C244.506 152.544 244.906 152.107 245.45 151.808C246.004 151.509 246.692 151.36 247.514 151.36V153.264C247.428 153.243 247.348 153.232 247.274 153.232C247.199 153.221 247.124 153.216 247.05 153.216C246.292 153.216 245.69 153.44 245.242 153.888C244.794 154.325 244.57 154.981 244.57 155.856V160H242.57ZM249.21 160V151.456H251.21V160H249.21ZM250.218 150.048C249.845 150.048 249.536 149.931 249.29 149.696C249.056 149.461 248.938 149.179 248.938 148.848C248.938 148.507 249.056 148.224 249.29 148C249.536 147.765 249.845 147.648 250.218 147.648C250.592 147.648 250.896 147.76 251.13 147.984C251.376 148.197 251.498 148.469 251.498 148.8C251.498 149.152 251.381 149.451 251.146 149.696C250.912 149.931 250.602 150.048 250.218 150.048ZM258.683 151.36C259.366 151.36 259.974 151.493 260.507 151.76C261.051 152.027 261.478 152.437 261.787 152.992C262.097 153.536 262.251 154.24 262.251 155.104V160H260.251V155.36C260.251 154.603 260.07 154.037 259.707 153.664C259.355 153.291 258.859 153.104 258.219 153.104C257.75 153.104 257.334 153.2 256.971 153.392C256.609 153.584 256.326 153.872 256.123 154.256C255.931 154.629 255.835 155.104 255.835 155.68V160H253.835V151.456H255.739V153.76L255.403 153.056C255.702 152.512 256.134 152.096 256.699 151.808C257.275 151.509 257.937 151.36 258.683 151.36ZM268.005 160.112C267.066 160.112 266.341 159.872 265.829 159.392C265.317 158.901 265.061 158.181 265.061 157.232V149.568H267.061V157.184C267.061 157.589 267.162 157.904 267.365 158.128C267.578 158.352 267.871 158.464 268.245 158.464C268.693 158.464 269.066 158.347 269.365 158.112L269.925 159.536C269.69 159.728 269.402 159.872 269.061 159.968C268.719 160.064 268.367 160.112 268.005 160.112ZM263.653 153.12V151.52H269.349V153.12H263.653ZM277.176 160V149.6L278.088 150.544H274.808V148.8H279.256V160H277.176ZM194.934 185V173.8H199.542C200.534 173.8 201.382 173.96 202.086 174.28C202.8 174.6 203.35 175.059 203.734 175.656C204.118 176.253 204.31 176.963 204.31 177.784C204.31 178.605 204.118 179.315 203.734 179.912C203.35 180.499 202.8 180.952 202.086 181.272C201.382 181.581 200.534 181.736 199.542 181.736H196.086L197.014 180.792V185H194.934ZM202.262 185L199.43 180.936H201.654L204.502 185H202.262ZM197.014 181.016L196.086 180.024H199.446C200.363 180.024 201.051 179.827 201.51 179.432C201.979 179.037 202.214 178.488 202.214 177.784C202.214 177.069 201.979 176.52 201.51 176.136C201.051 175.752 200.363 175.56 199.446 175.56H196.086L197.014 174.536V181.016ZM210.461 185.112C209.511 185.112 208.679 184.925 207.965 184.552C207.261 184.168 206.711 183.645 206.317 182.984C205.933 182.323 205.741 181.571 205.741 180.728C205.741 179.875 205.927 179.123 206.301 178.472C206.685 177.811 207.207 177.293 207.869 176.92C208.541 176.547 209.303 176.36 210.157 176.36C210.989 176.36 211.73 176.541 212.381 176.904C213.031 177.267 213.543 177.779 213.917 178.44C214.29 179.101 214.477 179.88 214.477 180.776C214.477 180.861 214.471 180.957 214.461 181.064C214.461 181.171 214.455 181.272 214.445 181.368H207.325V180.04H213.389L212.605 180.456C212.615 179.965 212.514 179.533 212.301 179.16C212.087 178.787 211.794 178.493 211.421 178.28C211.058 178.067 210.637 177.96 210.157 177.96C209.666 177.96 209.234 178.067 208.861 178.28C208.498 178.493 208.21 178.792 207.997 179.176C207.794 179.549 207.693 179.992 207.693 180.504V180.824C207.693 181.336 207.81 181.789 208.045 182.184C208.279 182.579 208.61 182.883 209.037 183.096C209.463 183.309 209.954 183.416 210.509 183.416C210.989 183.416 211.421 183.341 211.805 183.192C212.189 183.043 212.53 182.808 212.829 182.488L213.901 183.72C213.517 184.168 213.031 184.515 212.445 184.76C211.869 184.995 211.207 185.112 210.461 185.112ZM219.038 185.112C218.323 185.112 217.635 185.021 216.974 184.84C216.323 184.648 215.806 184.419 215.422 184.152L216.19 182.632C216.574 182.877 217.033 183.08 217.566 183.24C218.099 183.4 218.633 183.48 219.166 183.48C219.795 183.48 220.249 183.395 220.526 183.224C220.814 183.053 220.958 182.824 220.958 182.536C220.958 182.301 220.862 182.125 220.67 182.008C220.478 181.88 220.227 181.784 219.918 181.72C219.609 181.656 219.262 181.597 218.878 181.544C218.505 181.491 218.126 181.421 217.742 181.336C217.369 181.24 217.027 181.107 216.718 180.936C216.409 180.755 216.158 180.515 215.966 180.216C215.774 179.917 215.678 179.523 215.678 179.032C215.678 178.488 215.833 178.019 216.142 177.624C216.451 177.219 216.883 176.909 217.438 176.696C218.003 176.472 218.67 176.36 219.438 176.36C220.014 176.36 220.595 176.424 221.182 176.552C221.769 176.68 222.254 176.861 222.638 177.096L221.87 178.616C221.465 178.371 221.054 178.205 220.638 178.12C220.233 178.024 219.827 177.976 219.422 177.976C218.814 177.976 218.361 178.067 218.062 178.248C217.774 178.429 217.63 178.659 217.63 178.936C217.63 179.192 217.726 179.384 217.918 179.512C218.11 179.64 218.361 179.741 218.67 179.816C218.979 179.891 219.321 179.955 219.694 180.008C220.078 180.051 220.457 180.12 220.83 180.216C221.203 180.312 221.545 180.445 221.854 180.616C222.174 180.776 222.43 181.005 222.622 181.304C222.814 181.603 222.91 181.992 222.91 182.472C222.91 183.005 222.75 183.469 222.43 183.864C222.121 184.259 221.678 184.568 221.102 184.792C220.526 185.005 219.838 185.112 219.038 185.112ZM228.648 185.112C227.699 185.112 226.867 184.925 226.152 184.552C225.448 184.168 224.899 183.645 224.504 182.984C224.12 182.323 223.928 181.571 223.928 180.728C223.928 179.875 224.115 179.123 224.488 178.472C224.872 177.811 225.395 177.293 226.056 176.92C226.728 176.547 227.491 176.36 228.344 176.36C229.176 176.36 229.918 176.541 230.568 176.904C231.219 177.267 231.731 177.779 232.104 178.44C232.478 179.101 232.664 179.88 232.664 180.776C232.664 180.861 232.659 180.957 232.648 181.064C232.648 181.171 232.643 181.272 232.632 181.368H225.512V180.04H231.576L230.792 180.456C230.803 179.965 230.702 179.533 230.488 179.16C230.275 178.787 229.982 178.493 229.608 178.28C229.246 178.067 228.824 177.96 228.344 177.96C227.854 177.96 227.422 178.067 227.048 178.28C226.686 178.493 226.398 178.792 226.184 179.176C225.982 179.549 225.88 179.992 225.88 180.504V180.824C225.88 181.336 225.998 181.789 226.232 182.184C226.467 182.579 226.798 182.883 227.224 183.096C227.651 183.309 228.142 183.416 228.696 183.416C229.176 183.416 229.608 183.341 229.992 183.192C230.376 183.043 230.718 182.808 231.016 182.488L232.088 183.72C231.704 184.168 231.219 184.515 230.632 184.76C230.056 184.995 229.395 185.112 228.648 185.112ZM239.615 185V183.272L239.503 182.904V179.88C239.503 179.293 239.327 178.84 238.975 178.52C238.623 178.189 238.09 178.024 237.375 178.024C236.895 178.024 236.42 178.099 235.951 178.248C235.492 178.397 235.103 178.605 234.783 178.872L233.999 177.416C234.458 177.064 235.002 176.803 235.631 176.632C236.271 176.451 236.932 176.36 237.615 176.36C238.852 176.36 239.807 176.659 240.479 177.256C241.162 177.843 241.503 178.755 241.503 179.992V185H239.615ZM236.927 185.112C236.287 185.112 235.727 185.005 235.247 184.792C234.767 184.568 234.394 184.264 234.127 183.88C233.871 183.485 233.743 183.043 233.743 182.552C233.743 182.072 233.855 181.64 234.079 181.256C234.314 180.872 234.692 180.568 235.215 180.344C235.738 180.12 236.431 180.008 237.295 180.008H239.775V181.336H237.439C236.756 181.336 236.298 181.448 236.063 181.672C235.828 181.885 235.711 182.152 235.711 182.472C235.711 182.835 235.855 183.123 236.143 183.336C236.431 183.549 236.831 183.656 237.343 183.656C237.834 183.656 238.271 183.544 238.655 183.32C239.05 183.096 239.332 182.765 239.503 182.328L239.839 183.528C239.647 184.029 239.3 184.419 238.799 184.696C238.308 184.973 237.684 185.112 236.927 185.112ZM244.07 185V176.456H245.974V178.808L245.75 178.12C246.006 177.544 246.406 177.107 246.95 176.808C247.504 176.509 248.192 176.36 249.014 176.36V178.264C248.928 178.243 248.848 178.232 248.774 178.232C248.699 178.221 248.624 178.216 248.55 178.216C247.792 178.216 247.19 178.44 246.742 178.888C246.294 179.325 246.07 179.981 246.07 180.856V185H244.07ZM254.552 185.112C253.656 185.112 252.856 184.925 252.152 184.552C251.459 184.168 250.915 183.645 250.52 182.984C250.126 182.323 249.928 181.571 249.928 180.728C249.928 179.875 250.126 179.123 250.52 178.472C250.915 177.811 251.459 177.293 252.152 176.92C252.856 176.547 253.656 176.36 254.552 176.36C255.384 176.36 256.115 176.531 256.744 176.872C257.384 177.203 257.87 177.693 258.2 178.344L256.664 179.24C256.408 178.835 256.094 178.536 255.72 178.344C255.358 178.152 254.963 178.056 254.536 178.056C254.046 178.056 253.603 178.163 253.208 178.376C252.814 178.589 252.504 178.899 252.28 179.304C252.056 179.699 251.944 180.173 251.944 180.728C251.944 181.283 252.056 181.763 252.28 182.168C252.504 182.563 252.814 182.867 253.208 183.08C253.603 183.293 254.046 183.4 254.536 183.4C254.963 183.4 255.358 183.304 255.72 183.112C256.094 182.92 256.408 182.621 256.664 182.216L258.2 183.112C257.87 183.752 257.384 184.248 256.744 184.6C256.115 184.941 255.384 185.112 254.552 185.112ZM264.699 176.36C265.382 176.36 265.99 176.493 266.523 176.76C267.067 177.027 267.494 177.437 267.803 177.992C268.112 178.536 268.267 179.24 268.267 180.104V185H266.267V180.36C266.267 179.603 266.086 179.037 265.723 178.664C265.371 178.291 264.875 178.104 264.235 178.104C263.766 178.104 263.35 178.2 262.987 178.392C262.624 178.584 262.342 178.872 262.139 179.256C261.947 179.629 261.851 180.104 261.851 180.68V185H259.851V173.128H261.851V178.76L261.419 178.056C261.718 177.512 262.15 177.096 262.715 176.808C263.291 176.509 263.952 176.36 264.699 176.36ZM275.498 185V175.976C275.498 175.08 275.759 174.365 276.282 173.832C276.815 173.288 277.573 173.016 278.554 173.016C278.906 173.016 279.237 173.053 279.546 173.128C279.866 173.203 280.133 173.32 280.346 173.48L279.802 174.984C279.653 174.867 279.482 174.781 279.29 174.728C279.098 174.664 278.901 174.632 278.698 174.632C278.282 174.632 277.967 174.749 277.754 174.984C277.541 175.208 277.434 175.549 277.434 176.008V176.968L277.498 177.864V185H275.498ZM274.09 178.12V176.52H279.786V178.12H274.09ZM286.24 185V183.272L286.128 182.904V179.88C286.128 179.293 285.952 178.84 285.6 178.52C285.248 178.189 284.715 178.024 284 178.024C283.52 178.024 283.045 178.099 282.576 178.248C282.117 178.397 281.728 178.605 281.408 178.872L280.624 177.416C281.083 177.064 281.627 176.803 282.256 176.632C282.896 176.451 283.557 176.36 284.24 176.36C285.477 176.36 286.432 176.659 287.104 177.256C287.787 177.843 288.128 178.755 288.128 179.992V185H286.24ZM283.552 185.112C282.912 185.112 282.352 185.005 281.872 184.792C281.392 184.568 281.019 184.264 280.752 183.88C280.496 183.485 280.368 183.043 280.368 182.552C280.368 182.072 280.48 181.64 280.704 181.256C280.939 180.872 281.317 180.568 281.84 180.344C282.363 180.12 283.056 180.008 283.92 180.008H286.4V181.336H284.064C283.381 181.336 282.923 181.448 282.688 181.672C282.453 181.885 282.336 182.152 282.336 182.472C282.336 182.835 282.48 183.123 282.768 183.336C283.056 183.549 283.456 183.656 283.968 183.656C284.459 183.656 284.896 183.544 285.28 183.32C285.675 183.096 285.957 182.765 286.128 182.328L286.464 183.528C286.272 184.029 285.925 184.419 285.424 184.696C284.933 184.973 284.309 185.112 283.552 185.112ZM293.335 185.112C292.62 185.112 291.932 185.021 291.271 184.84C290.62 184.648 290.103 184.419 289.719 184.152L290.487 182.632C290.871 182.877 291.329 183.08 291.863 183.24C292.396 183.4 292.929 183.48 293.463 183.48C294.092 183.48 294.545 183.395 294.823 183.224C295.111 183.053 295.255 182.824 295.255 182.536C295.255 182.301 295.159 182.125 294.967 182.008C294.775 181.88 294.524 181.784 294.215 181.72C293.905 181.656 293.559 181.597 293.175 181.544C292.801 181.491 292.423 181.421 292.039 181.336C291.665 181.24 291.324 181.107 291.015 180.936C290.705 180.755 290.455 180.515 290.263 180.216C290.071 179.917 289.975 179.523 289.975 179.032C289.975 178.488 290.129 178.019 290.439 177.624C290.748 177.219 291.18 176.909 291.735 176.696C292.3 176.472 292.967 176.36 293.735 176.36C294.311 176.36 294.892 176.424 295.479 176.552C296.065 176.68 296.551 176.861 296.935 177.096L296.167 178.616C295.761 178.371 295.351 178.205 294.935 178.12C294.529 178.024 294.124 177.976 293.719 177.976C293.111 177.976 292.657 178.067 292.359 178.248C292.071 178.429 291.927 178.659 291.927 178.936C291.927 179.192 292.023 179.384 292.215 179.512C292.407 179.64 292.657 179.741 292.967 179.816C293.276 179.891 293.617 179.955 293.991 180.008C294.375 180.051 294.753 180.12 295.127 180.216C295.5 180.312 295.841 180.445 296.151 180.616C296.471 180.776 296.727 181.005 296.919 181.304C297.111 181.603 297.207 181.992 297.207 182.472C297.207 183.005 297.047 183.469 296.727 183.864C296.417 184.259 295.975 184.568 295.399 184.792C294.823 185.005 294.135 185.112 293.335 185.112ZM302.945 185.112C301.996 185.112 301.164 184.925 300.449 184.552C299.745 184.168 299.196 183.645 298.801 182.984C298.417 182.323 298.225 181.571 298.225 180.728C298.225 179.875 298.412 179.123 298.785 178.472C299.169 177.811 299.692 177.293 300.353 176.92C301.025 176.547 301.788 176.36 302.641 176.36C303.473 176.36 304.215 176.541 304.865 176.904C305.516 177.267 306.028 177.779 306.401 178.44C306.775 179.101 306.961 179.88 306.961 180.776C306.961 180.861 306.956 180.957 306.945 181.064C306.945 181.171 306.94 181.272 306.929 181.368H299.809V180.04H305.873L305.089 180.456C305.1 179.965 304.999 179.533 304.785 179.16C304.572 178.787 304.279 178.493 303.905 178.28C303.543 178.067 303.121 177.96 302.641 177.96C302.151 177.96 301.719 178.067 301.345 178.28C300.983 178.493 300.695 178.792 300.481 179.176C300.279 179.549 300.177 179.992 300.177 180.504V180.824C300.177 181.336 300.295 181.789 300.529 182.184C300.764 182.579 301.095 182.883 301.521 183.096C301.948 183.309 302.439 183.416 302.993 183.416C303.473 183.416 303.905 183.341 304.289 183.192C304.673 183.043 305.015 182.808 305.313 182.488L306.385 183.72C306.001 184.168 305.516 184.515 304.929 184.76C304.353 184.995 303.692 185.112 302.945 185.112Z" fill="#3A5832"/>
<ellipse cx="864.5" cy="177.5" rx="44.5" ry="18.5" fill="#52714A"/>
<path d="M837.32 221.16C836.445 221.16 835.608 221.037 834.808 220.792C834.008 220.536 833.373 220.211 832.904 219.816L833.624 218.2C834.072 218.552 834.626 218.845 835.288 219.08C835.949 219.315 836.626 219.432 837.32 219.432C837.906 219.432 838.381 219.368 838.744 219.24C839.106 219.112 839.373 218.941 839.544 218.728C839.714 218.504 839.8 218.253 839.8 217.976C839.8 217.635 839.677 217.363 839.432 217.16C839.186 216.947 838.866 216.781 838.472 216.664C838.088 216.536 837.656 216.419 837.176 216.312C836.706 216.205 836.232 216.083 835.752 215.944C835.282 215.795 834.85 215.608 834.456 215.384C834.072 215.149 833.757 214.84 833.512 214.456C833.266 214.072 833.144 213.581 833.144 212.984C833.144 212.376 833.304 211.821 833.624 211.32C833.954 210.808 834.45 210.403 835.112 210.104C835.784 209.795 836.632 209.64 837.656 209.64C838.328 209.64 838.994 209.725 839.656 209.896C840.317 210.067 840.893 210.312 841.384 210.632L840.728 212.248C840.226 211.949 839.709 211.731 839.176 211.592C838.642 211.443 838.13 211.368 837.64 211.368C837.064 211.368 836.594 211.437 836.232 211.576C835.88 211.715 835.618 211.896 835.448 212.12C835.288 212.344 835.208 212.6 835.208 212.888C835.208 213.229 835.325 213.507 835.56 213.72C835.805 213.923 836.12 214.083 836.504 214.2C836.898 214.317 837.336 214.435 837.816 214.552C838.296 214.659 838.77 214.781 839.24 214.92C839.72 215.059 840.152 215.24 840.536 215.464C840.93 215.688 841.245 215.992 841.48 216.376C841.725 216.76 841.848 217.245 841.848 217.832C841.848 218.429 841.682 218.984 841.352 219.496C841.032 219.997 840.536 220.403 839.864 220.712C839.192 221.011 838.344 221.16 837.32 221.16ZM848.454 221.112C847.761 221.112 847.126 220.952 846.55 220.632C845.985 220.312 845.532 219.832 845.19 219.192C844.86 218.541 844.694 217.72 844.694 216.728C844.694 215.725 844.854 214.904 845.174 214.264C845.505 213.624 845.953 213.149 846.518 212.84C847.084 212.52 847.729 212.36 848.454 212.36C849.297 212.36 850.038 212.541 850.678 212.904C851.329 213.267 851.841 213.773 852.214 214.424C852.598 215.075 852.79 215.843 852.79 216.728C852.79 217.613 852.598 218.387 852.214 219.048C851.841 219.699 851.329 220.205 850.678 220.568C850.038 220.931 849.297 221.112 848.454 221.112ZM843.718 224.104V212.456H845.622V214.472L845.558 216.744L845.718 219.016V224.104H843.718ZM848.23 219.4C848.71 219.4 849.137 219.293 849.51 219.08C849.894 218.867 850.198 218.557 850.422 218.152C850.646 217.747 850.758 217.272 850.758 216.728C850.758 216.173 850.646 215.699 850.422 215.304C850.198 214.899 849.894 214.589 849.51 214.376C849.137 214.163 848.71 214.056 848.23 214.056C847.75 214.056 847.318 214.163 846.934 214.376C846.55 214.589 846.246 214.899 846.022 215.304C845.798 215.699 845.686 216.173 845.686 216.728C845.686 217.272 845.798 217.747 846.022 218.152C846.246 218.557 846.55 218.867 846.934 219.08C847.318 219.293 847.75 219.4 848.23 219.4ZM854.687 221V212.456H856.591V214.808L856.367 214.12C856.623 213.544 857.023 213.107 857.567 212.808C858.122 212.509 858.81 212.36 859.631 212.36V214.264C859.546 214.243 859.466 214.232 859.391 214.232C859.316 214.221 859.242 214.216 859.167 214.216C858.41 214.216 857.807 214.44 857.359 214.888C856.911 215.325 856.687 215.981 856.687 216.856V221H854.687ZM861.328 221V212.456H863.328V221H861.328ZM862.336 211.048C861.962 211.048 861.653 210.931 861.408 210.696C861.173 210.461 861.056 210.179 861.056 209.848C861.056 209.507 861.173 209.224 861.408 209C861.653 208.765 861.962 208.648 862.336 208.648C862.709 208.648 863.013 208.76 863.248 208.984C863.493 209.197 863.616 209.469 863.616 209.8C863.616 210.152 863.498 210.451 863.264 210.696C863.029 210.931 862.72 211.048 862.336 211.048ZM870.801 212.36C871.483 212.36 872.091 212.493 872.625 212.76C873.169 213.027 873.595 213.437 873.905 213.992C874.214 214.536 874.369 215.24 874.369 216.104V221H872.369V216.36C872.369 215.603 872.187 215.037 871.825 214.664C871.473 214.291 870.977 214.104 870.337 214.104C869.867 214.104 869.451 214.2 869.089 214.392C868.726 214.584 868.443 214.872 868.241 215.256C868.049 215.629 867.953 216.104 867.953 216.68V221H865.953V212.456H867.857V214.76L867.521 214.056C867.819 213.512 868.251 213.096 868.817 212.808C869.393 212.509 870.054 212.36 870.801 212.36ZM880.122 221.112C879.183 221.112 878.458 220.872 877.946 220.392C877.434 219.901 877.178 219.181 877.178 218.232V210.568H879.178V218.184C879.178 218.589 879.279 218.904 879.482 219.128C879.695 219.352 879.988 219.464 880.362 219.464C880.81 219.464 881.183 219.347 881.482 219.112L882.042 220.536C881.807 220.728 881.519 220.872 881.178 220.968C880.836 221.064 880.484 221.112 880.122 221.112ZM875.77 214.12V212.52H881.466V214.12H875.77ZM887.341 218.456V217.016L892.861 209.8H895.085L889.645 217.016L888.605 216.696H897.485V218.456H887.341ZM893.485 221V218.456L893.549 216.696V214.44H895.501V221H893.485Z" fill="#3A5832"/>
<ellipse cx="44.5" cy="177.5" rx="44.5" ry="18.5" fill="#FFAFC0"/>
<path d="M16.8666 222.16C15.992 222.16 15.1546 222.037 14.3546 221.792C13.5546 221.536 12.92 221.211 12.4506 220.816L13.1706 219.2C13.6186 219.552 14.1733 219.845 14.8346 220.08C15.496 220.315 16.1733 220.432 16.8666 220.432C17.4533 220.432 17.928 220.368 18.2906 220.24C18.6533 220.112 18.92 219.941 19.0906 219.728C19.2613 219.504 19.3466 219.253 19.3466 218.976C19.3466 218.635 19.224 218.363 18.9786 218.16C18.7333 217.947 18.4133 217.781 18.0186 217.664C17.6346 217.536 17.2026 217.419 16.7226 217.312C16.2533 217.205 15.7786 217.083 15.2986 216.944C14.8293 216.795 14.3973 216.608 14.0026 216.384C13.6186 216.149 13.304 215.84 13.0586 215.456C12.8133 215.072 12.6906 214.581 12.6906 213.984C12.6906 213.376 12.8506 212.821 13.1706 212.32C13.5013 211.808 13.9973 211.403 14.6586 211.104C15.3306 210.795 16.1786 210.64 17.2026 210.64C17.8746 210.64 18.5413 210.725 19.2026 210.896C19.864 211.067 20.44 211.312 20.9306 211.632L20.2746 213.248C19.7733 212.949 19.256 212.731 18.7226 212.592C18.1893 212.443 17.6773 212.368 17.1866 212.368C16.6106 212.368 16.1413 212.437 15.7786 212.576C15.4266 212.715 15.1653 212.896 14.9946 213.12C14.8346 213.344 14.7546 213.6 14.7546 213.888C14.7546 214.229 14.872 214.507 15.1066 214.72C15.352 214.923 15.6666 215.083 16.0506 215.2C16.4453 215.317 16.8826 215.435 17.3626 215.552C17.8426 215.659 18.3173 215.781 18.7866 215.92C19.2666 216.059 19.6986 216.24 20.0826 216.464C20.4773 216.688 20.792 216.992 21.0266 217.376C21.272 217.76 21.3946 218.245 21.3946 218.832C21.3946 219.429 21.2293 219.984 20.8986 220.496C20.5786 220.997 20.0826 221.403 19.4106 221.712C18.7386 222.011 17.8906 222.16 16.8666 222.16ZM28.0011 222.112C27.3078 222.112 26.6731 221.952 26.0971 221.632C25.5318 221.312 25.0785 220.832 24.7371 220.192C24.4065 219.541 24.2411 218.72 24.2411 217.728C24.2411 216.725 24.4011 215.904 24.7211 215.264C25.0518 214.624 25.4998 214.149 26.0651 213.84C26.6305 213.52 27.2758 213.36 28.0011 213.36C28.8438 213.36 29.5851 213.541 30.2251 213.904C30.8758 214.267 31.3878 214.773 31.7611 215.424C32.1451 216.075 32.3371 216.843 32.3371 217.728C32.3371 218.613 32.1451 219.387 31.7611 220.048C31.3878 220.699 30.8758 221.205 30.2251 221.568C29.5851 221.931 28.8438 222.112 28.0011 222.112ZM23.2651 225.104V213.456H25.1691V215.472L25.1051 217.744L25.2651 220.016V225.104H23.2651ZM27.7771 220.4C28.2571 220.4 28.6838 220.293 29.0571 220.08C29.4411 219.867 29.7451 219.557 29.9691 219.152C30.1931 218.747 30.3051 218.272 30.3051 217.728C30.3051 217.173 30.1931 216.699 29.9691 216.304C29.7451 215.899 29.4411 215.589 29.0571 215.376C28.6838 215.163 28.2571 215.056 27.7771 215.056C27.2971 215.056 26.8651 215.163 26.4811 215.376C26.0971 215.589 25.7931 215.899 25.5691 216.304C25.3451 216.699 25.2331 217.173 25.2331 217.728C25.2331 218.272 25.3451 218.747 25.5691 219.152C25.7931 219.557 26.0971 219.867 26.4811 220.08C26.8651 220.293 27.2971 220.4 27.7771 220.4ZM34.2339 222V213.456H36.1379V215.808L35.9139 215.12C36.1699 214.544 36.5699 214.107 37.1139 213.808C37.6685 213.509 38.3565 213.36 39.1779 213.36V215.264C39.0925 215.243 39.0125 215.232 38.9379 215.232C38.8632 215.221 38.7885 215.216 38.7139 215.216C37.9565 215.216 37.3539 215.44 36.9059 215.888C36.4579 216.325 36.2339 216.981 36.2339 217.856V222H34.2339ZM40.8745 222V213.456H42.8745V222H40.8745ZM41.8825 212.048C41.5092 212.048 41.1998 211.931 40.9545 211.696C40.7198 211.461 40.6025 211.179 40.6025 210.848C40.6025 210.507 40.7198 210.224 40.9545 210C41.1998 209.765 41.5092 209.648 41.8825 209.648C42.2558 209.648 42.5598 209.76 42.7945 209.984C43.0398 210.197 43.1625 210.469 43.1625 210.8C43.1625 211.152 43.0452 211.451 42.8105 211.696C42.5758 211.931 42.2665 212.048 41.8825 212.048ZM50.3475 213.36C51.0302 213.36 51.6382 213.493 52.1715 213.76C52.7155 214.027 53.1422 214.437 53.4515 214.992C53.7608 215.536 53.9155 216.24 53.9155 217.104V222H51.9155V217.36C51.9155 216.603 51.7342 216.037 51.3715 215.664C51.0195 215.291 50.5235 215.104 49.8835 215.104C49.4142 215.104 48.9982 215.2 48.6355 215.392C48.2728 215.584 47.9902 215.872 47.7875 216.256C47.5955 216.629 47.4995 217.104 47.4995 217.68V222H45.4995V213.456H47.4035V215.76L47.0675 215.056C47.3662 214.512 47.7982 214.096 48.3635 213.808C48.9395 213.509 49.6008 213.36 50.3475 213.36ZM59.6686 222.112C58.73 222.112 58.0046 221.872 57.4926 221.392C56.9806 220.901 56.7246 220.181 56.7246 219.232V211.568H58.7246V219.184C58.7246 219.589 58.826 219.904 59.0286 220.128C59.242 220.352 59.5353 220.464 59.9086 220.464C60.3566 220.464 60.73 220.347 61.0286 220.112L61.5886 221.536C61.354 221.728 61.066 221.872 60.7246 221.968C60.3833 222.064 60.0313 222.112 59.6686 222.112ZM55.3166 215.12V213.52H61.0126V215.12H55.3166ZM71.7198 222.16C70.8344 222.16 70.0344 221.936 69.3198 221.488C68.6158 221.04 68.0611 220.389 67.6558 219.536C67.2504 218.672 67.0478 217.627 67.0478 216.4C67.0478 215.173 67.2504 214.133 67.6558 213.28C68.0611 212.416 68.6158 211.76 69.3198 211.312C70.0344 210.864 70.8344 210.64 71.7198 210.64C72.6158 210.64 73.4158 210.864 74.1198 211.312C74.8238 211.76 75.3784 212.416 75.7838 213.28C76.1998 214.133 76.4078 215.173 76.4078 216.4C76.4078 217.627 76.1998 218.672 75.7838 219.536C75.3784 220.389 74.8238 221.04 74.1198 221.488C73.4158 221.936 72.6158 222.16 71.7198 222.16ZM71.7198 220.352C72.2424 220.352 72.6958 220.213 73.0798 219.936C73.4638 219.648 73.7624 219.211 73.9758 218.624C74.1998 218.037 74.3118 217.296 74.3118 216.4C74.3118 215.493 74.1998 214.752 73.9758 214.176C73.7624 213.589 73.4638 213.157 73.0798 212.88C72.6958 212.592 72.2424 212.448 71.7198 212.448C71.2184 212.448 70.7704 212.592 70.3758 212.88C69.9918 213.157 69.6878 213.589 69.4638 214.176C69.2504 214.752 69.1438 215.493 69.1438 216.4C69.1438 217.296 69.2504 218.037 69.4638 218.624C69.6878 219.211 69.9918 219.648 70.3758 219.936C70.7704 220.213 71.2184 220.352 71.7198 220.352ZM15.0948 235.8H16.6948V247H15.0948V235.8ZM8.66281 247H7.06281V235.8H8.66281V247ZM15.2388 242.008H8.50281V240.616H15.2388V242.008ZM25.0872 247V245.208L25.0072 244.872V241.816C25.0072 241.165 24.8152 240.664 24.4312 240.312C24.0579 239.949 23.4925 239.768 22.7352 239.768C22.2339 239.768 21.7432 239.853 21.2632 240.024C20.7832 240.184 20.3779 240.403 20.0472 240.68L19.4072 239.528C19.8445 239.176 20.3672 238.909 20.9752 238.728C21.5939 238.536 22.2392 238.44 22.9112 238.44C24.0739 238.44 24.9699 238.723 25.5992 239.288C26.2285 239.853 26.5432 240.717 26.5432 241.88V247H25.0872ZM22.3032 247.096C21.6739 247.096 21.1192 246.989 20.6392 246.776C20.1699 246.563 19.8072 246.269 19.5512 245.896C19.2952 245.512 19.1672 245.08 19.1672 244.6C19.1672 244.141 19.2739 243.725 19.4872 243.352C19.7112 242.979 20.0685 242.68 20.5592 242.456C21.0605 242.232 21.7325 242.12 22.5752 242.12H25.2632V243.224H22.6392C21.8712 243.224 21.3539 243.352 21.0872 243.608C20.8205 243.864 20.6872 244.173 20.6872 244.536C20.6872 244.952 20.8525 245.288 21.1832 245.544C21.5139 245.789 21.9725 245.912 22.5592 245.912C23.1352 245.912 23.6365 245.784 24.0632 245.528C24.5005 245.272 24.8152 244.899 25.0072 244.408L25.3112 245.464C25.1085 245.965 24.7512 246.365 24.2392 246.664C23.7272 246.952 23.0819 247.096 22.3032 247.096ZM33.0817 247.096C32.2177 247.096 31.4444 246.909 30.7617 246.536C30.0897 246.163 29.5617 245.651 29.1777 245C28.7937 244.349 28.6017 243.603 28.6017 242.76C28.6017 241.917 28.7937 241.171 29.1777 240.52C29.5617 239.869 30.0897 239.363 30.7617 239C31.4444 238.627 32.2177 238.44 33.0817 238.44C33.8497 238.44 34.5324 238.595 35.1297 238.904C35.7377 239.203 36.207 239.651 36.5377 240.248L35.3697 241C35.0924 240.584 34.751 240.28 34.3457 240.088C33.951 239.885 33.5244 239.784 33.0657 239.784C32.511 239.784 32.015 239.907 31.5777 240.152C31.1404 240.397 30.7937 240.744 30.5377 241.192C30.2817 241.629 30.1537 242.152 30.1537 242.76C30.1537 243.368 30.2817 243.896 30.5377 244.344C30.7937 244.792 31.1404 245.139 31.5777 245.384C32.015 245.629 32.511 245.752 33.0657 245.752C33.5244 245.752 33.951 245.656 34.3457 245.464C34.751 245.261 35.0924 244.952 35.3697 244.536L36.5377 245.272C36.207 245.859 35.7377 246.312 35.1297 246.632C34.5324 246.941 33.8497 247.096 33.0817 247.096ZM39.6649 244.952L39.6969 242.984L44.5769 238.52H46.4329L42.6889 242.2L41.8569 242.904L39.6649 244.952ZM38.4169 247V235.128H39.9529V247H38.4169ZM44.8969 247L41.5689 242.872L42.5609 241.64L46.7849 247H44.8969ZM53.3841 247V245.208L53.3041 244.872V241.816C53.3041 241.165 53.1121 240.664 52.7281 240.312C52.3547 239.949 51.7894 239.768 51.0321 239.768C50.5307 239.768 50.0401 239.853 49.5601 240.024C49.0801 240.184 48.6747 240.403 48.3441 240.68L47.7041 239.528C48.1414 239.176 48.6641 238.909 49.2721 238.728C49.8907 238.536 50.5361 238.44 51.2081 238.44C52.3707 238.44 53.2667 238.723 53.8961 239.288C54.5254 239.853 54.8401 240.717 54.8401 241.88V247H53.3841ZM50.6001 247.096C49.9707 247.096 49.4161 246.989 48.9361 246.776C48.4667 246.563 48.1041 246.269 47.8481 245.896C47.5921 245.512 47.4641 245.08 47.4641 244.6C47.4641 244.141 47.5707 243.725 47.7841 243.352C48.0081 242.979 48.3654 242.68 48.8561 242.456C49.3574 242.232 50.0294 242.12 50.8721 242.12H53.5601V243.224H50.9361C50.1681 243.224 49.6507 243.352 49.3841 243.608C49.1174 243.864 48.9841 244.173 48.9841 244.536C48.9841 244.952 49.1494 245.288 49.4801 245.544C49.8107 245.789 50.2694 245.912 50.8561 245.912C51.4321 245.912 51.9334 245.784 52.3601 245.528C52.7974 245.272 53.1121 244.899 53.3041 244.408L53.6081 245.464C53.4054 245.965 53.0481 246.365 52.5361 246.664C52.0241 246.952 51.3787 247.096 50.6001 247.096ZM60.5946 247.096C59.7412 247.096 59.0799 246.867 58.6106 246.408C58.1412 245.949 57.9066 245.293 57.9066 244.44V236.664H59.4426V244.376C59.4426 244.835 59.5546 245.187 59.7786 245.432C60.0132 245.677 60.3439 245.8 60.7706 245.8C61.2506 245.8 61.6506 245.667 61.9706 245.4L62.4506 246.504C62.2159 246.707 61.9332 246.856 61.6026 246.952C61.2826 247.048 60.9466 247.096 60.5946 247.096ZM56.4666 239.784V238.52H61.8746V239.784H56.4666ZM67.6583 247.096C66.805 247.096 66.0476 246.909 65.3863 246.536C64.725 246.163 64.2023 245.651 63.8183 245C63.4343 244.339 63.2423 243.592 63.2423 242.76C63.2423 241.917 63.4343 241.171 63.8183 240.52C64.2023 239.869 64.725 239.363 65.3863 239C66.0476 238.627 66.805 238.44 67.6583 238.44C68.501 238.44 69.253 238.627 69.9143 239C70.5863 239.363 71.109 239.869 71.4823 240.52C71.8663 241.16 72.0583 241.907 72.0583 242.76C72.0583 243.603 71.8663 244.349 71.4823 245C71.109 245.651 70.5863 246.163 69.9143 246.536C69.253 246.909 68.501 247.096 67.6583 247.096ZM67.6583 245.752C68.2023 245.752 68.6876 245.629 69.1143 245.384C69.5516 245.139 69.893 244.792 70.1383 244.344C70.3836 243.885 70.5063 243.357 70.5063 242.76C70.5063 242.152 70.3836 241.629 70.1383 241.192C69.893 240.744 69.5516 240.397 69.1143 240.152C68.6876 239.907 68.2023 239.784 67.6583 239.784C67.1143 239.784 66.629 239.907 66.2023 240.152C65.7756 240.397 65.4343 240.744 65.1783 241.192C64.9223 241.629 64.7943 242.152 64.7943 242.76C64.7943 243.357 64.9223 243.885 65.1783 244.344C65.4343 244.792 65.7756 245.139 66.2023 245.384C66.629 245.629 67.1143 245.752 67.6583 245.752ZM78.7106 238.44C79.4039 238.44 80.0119 238.573 80.5346 238.84C81.0679 239.107 81.4839 239.512 81.7826 240.056C82.0812 240.6 82.2306 241.288 82.2306 242.12V247H80.6946V242.296C80.6946 241.475 80.4919 240.856 80.0866 240.44C79.6919 240.024 79.1319 239.816 78.4066 239.816C77.8626 239.816 77.3879 239.923 76.9826 240.136C76.5772 240.349 76.2626 240.664 76.0386 241.08C75.8252 241.496 75.7186 242.013 75.7186 242.632V247H74.1826V238.52H75.6546V240.808L75.4146 240.2C75.6919 239.645 76.1186 239.213 76.6946 238.904C77.2706 238.595 77.9426 238.44 78.7106 238.44Z" fill="#3A5832"/>
<ellipse cx="659.5" cy="116.5" rx="44.5" ry="18.5" fill="#52714A"/>
<path d="M633.093 161.16C632.219 161.16 631.381 161.037 630.581 160.792C629.781 160.536 629.147 160.211 628.677 159.816L629.397 158.2C629.845 158.552 630.4 158.845 631.061 159.08C631.723 159.315 632.4 159.432 633.093 159.432C633.68 159.432 634.155 159.368 634.517 159.24C634.88 159.112 635.147 158.941 635.317 158.728C635.488 158.504 635.573 158.253 635.573 157.976C635.573 157.635 635.451 157.363 635.205 157.16C634.96 156.947 634.64 156.781 634.245 156.664C633.861 156.536 633.429 156.419 632.949 156.312C632.48 156.205 632.005 156.083 631.525 155.944C631.056 155.795 630.624 155.608 630.229 155.384C629.845 155.149 629.531 154.84 629.285 154.456C629.04 154.072 628.917 153.581 628.917 152.984C628.917 152.376 629.077 151.821 629.397 151.32C629.728 150.808 630.224 150.403 630.885 150.104C631.557 149.795 632.405 149.64 633.429 149.64C634.101 149.64 634.768 149.725 635.429 149.896C636.091 150.067 636.667 150.312 637.157 150.632L636.501 152.248C636 151.949 635.483 151.731 634.949 151.592C634.416 151.443 633.904 151.368 633.413 151.368C632.837 151.368 632.368 151.437 632.005 151.576C631.653 151.715 631.392 151.896 631.221 152.12C631.061 152.344 630.981 152.6 630.981 152.888C630.981 153.229 631.099 153.507 631.333 153.72C631.579 153.923 631.893 154.083 632.277 154.2C632.672 154.317 633.109 154.435 633.589 154.552C634.069 154.659 634.544 154.781 635.013 154.92C635.493 155.059 635.925 155.24 636.309 155.464C636.704 155.688 637.019 155.992 637.253 156.376C637.499 156.76 637.621 157.245 637.621 157.832C637.621 158.429 637.456 158.984 637.125 159.496C636.805 159.997 636.309 160.403 635.637 160.712C634.965 161.011 634.117 161.16 633.093 161.16ZM644.228 161.112C643.534 161.112 642.9 160.952 642.324 160.632C641.758 160.312 641.305 159.832 640.964 159.192C640.633 158.541 640.468 157.72 640.468 156.728C640.468 155.725 640.628 154.904 640.948 154.264C641.278 153.624 641.726 153.149 642.292 152.84C642.857 152.52 643.502 152.36 644.228 152.36C645.07 152.36 645.812 152.541 646.452 152.904C647.102 153.267 647.614 153.773 647.988 154.424C648.372 155.075 648.564 155.843 648.564 156.728C648.564 157.613 648.372 158.387 647.988 159.048C647.614 159.699 647.102 160.205 646.452 160.568C645.812 160.931 645.07 161.112 644.228 161.112ZM639.492 164.104V152.456H641.396V154.472L641.332 156.744L641.492 159.016V164.104H639.492ZM644.004 159.4C644.484 159.4 644.91 159.293 645.284 159.08C645.668 158.867 645.972 158.557 646.196 158.152C646.42 157.747 646.532 157.272 646.532 156.728C646.532 156.173 646.42 155.699 646.196 155.304C645.972 154.899 645.668 154.589 645.284 154.376C644.91 154.163 644.484 154.056 644.004 154.056C643.524 154.056 643.092 154.163 642.708 154.376C642.324 154.589 642.02 154.899 641.796 155.304C641.572 155.699 641.46 156.173 641.46 156.728C641.46 157.272 641.572 157.747 641.796 158.152C642.02 158.557 642.324 158.867 642.708 159.08C643.092 159.293 643.524 159.4 644.004 159.4ZM650.46 161V152.456H652.364V154.808L652.14 154.12C652.396 153.544 652.796 153.107 653.34 152.808C653.895 152.509 654.583 152.36 655.404 152.36V154.264C655.319 154.243 655.239 154.232 655.164 154.232C655.09 154.221 655.015 154.216 654.94 154.216C654.183 154.216 653.58 154.44 653.132 154.888C652.684 155.325 652.46 155.981 652.46 156.856V161H650.46ZM657.101 161V152.456H659.101V161H657.101ZM658.109 151.048C657.736 151.048 657.426 150.931 657.181 150.696C656.946 150.461 656.829 150.179 656.829 149.848C656.829 149.507 656.946 149.224 657.181 149C657.426 148.765 657.736 148.648 658.109 148.648C658.482 148.648 658.786 148.76 659.021 148.984C659.266 149.197 659.389 149.469 659.389 149.8C659.389 150.152 659.272 150.451 659.037 150.696C658.802 150.931 658.493 151.048 658.109 151.048ZM666.574 152.36C667.257 152.36 667.865 152.493 668.398 152.76C668.942 153.027 669.369 153.437 669.678 153.992C669.987 154.536 670.142 155.24 670.142 156.104V161H668.142V156.36C668.142 155.603 667.961 155.037 667.598 154.664C667.246 154.291 666.75 154.104 666.11 154.104C665.641 154.104 665.225 154.2 664.862 154.392C664.499 154.584 664.217 154.872 664.014 155.256C663.822 155.629 663.726 156.104 663.726 156.68V161H661.726V152.456H663.63V154.76L663.294 154.056C663.593 153.512 664.025 153.096 664.59 152.808C665.166 152.509 665.827 152.36 666.574 152.36ZM675.895 161.112C674.957 161.112 674.231 160.872 673.719 160.392C673.207 159.901 672.951 159.181 672.951 158.232V150.568H674.951V158.184C674.951 158.589 675.053 158.904 675.255 159.128C675.469 159.352 675.762 159.464 676.135 159.464C676.583 159.464 676.957 159.347 677.255 159.112L677.815 160.536C677.581 160.728 677.293 160.872 676.951 160.968C676.61 161.064 676.258 161.112 675.895 161.112ZM671.543 154.12V152.52H677.239V154.12H671.543ZM686.794 161.16C686.005 161.16 685.232 161.048 684.474 160.824C683.728 160.589 683.098 160.269 682.586 159.864L683.482 158.248C683.888 158.579 684.378 158.845 684.954 159.048C685.53 159.251 686.133 159.352 686.762 159.352C687.509 159.352 688.09 159.203 688.506 158.904C688.922 158.595 689.13 158.179 689.13 157.656C689.13 157.144 688.938 156.739 688.554 156.44C688.17 156.141 687.552 155.992 686.698 155.992H685.674V154.568L688.874 150.76L689.146 151.544H683.13V149.8H690.762V151.192L687.562 155L686.474 154.36H687.098C688.474 154.36 689.504 154.669 690.186 155.288C690.88 155.896 691.226 156.68 691.226 157.64C691.226 158.269 691.066 158.851 690.746 159.384C690.426 159.917 689.936 160.349 689.274 160.68C688.624 161 687.797 161.16 686.794 161.16Z" fill="#3A5832"/>
<rect x="97" y="176" width="20" height="4" rx="2" fill="#FFCE88"/>
<rect x="507" y="176" width="20" height="4" rx="2" fill="#92BB87"/>
<rect x="916" y="176.28" width="20" height="4" rx="2" fill="#92BB87"/>
<rect width="20" height="4" rx="2" transform="matrix(-1 0 0 1 403.892 174.28)" fill="#92BB87"/>
<rect width="20" height="4" rx="2" transform="matrix(-1 0 0 1 813.892 174.28)" fill="#92BB87"/>
<rect x="129.067" y="171.354" width="20" height="4" rx="2" transform="rotate(-35 129.067 171.354)" fill="#FFCE88"/>
<rect x="539.067" y="171.354" width="20" height="4" rx="2" transform="rotate(-35 539.067 171.354)" fill="#92BB87"/>
<rect x="948.067" y="171.634" width="20" height="4" rx="2" transform="rotate(-35 948.067 171.634)" fill="#92BB87"/>
<rect width="20" height="4" rx="2" transform="matrix(-0.819152 -0.573576 -0.573576 0.819152 371.826 169.634)" fill="#92BB87"/>
<rect width="20" height="4" rx="2" transform="matrix(-0.819152 -0.573576 -0.573576 0.819152 781.826 169.634)" fill="#92BB87"/>
<rect x="153.38" y="149.72" width="20" height="4" rx="2" transform="rotate(-45 153.38 149.72)" fill="#FFCE88"/>
<rect x="563.38" y="149.72" width="20" height="4" rx="2" transform="rotate(-45 563.38 149.72)" fill="#92BB87"/>
<rect x="972.38" y="150" width="20" height="4" rx="2" transform="rotate(-45 972.38 150)" fill="#92BB87"/>
<rect width="20" height="4" rx="2" transform="matrix(-0.707107 -0.707107 -0.707107 0.707107 347.512 148)" fill="#92BB87"/>
<rect width="20" height="4" rx="2" transform="matrix(-0.707107 -0.707107 -0.707107 0.707107 757.512 148)" fill="#92BB87"/>
<rect x="178.076" y="128.172" width="20" height="4" rx="2" transform="rotate(-25 178.076 128.172)" fill="#FFCE88"/>
<rect x="588.076" y="128.172" width="20" height="4" rx="2" transform="rotate(-25 588.076 128.172)" fill="#92BB87"/>
<rect x="997.076" y="128.452" width="20" height="4" rx="2" transform="rotate(-25 997.076 128.452)" fill="#92BB87"/>
<rect width="20" height="4" rx="2" transform="matrix(-0.906308 -0.422618 -0.422618 0.906308 322.817 126.452)" fill="#92BB87"/>
<rect width="20" height="4" rx="2" transform="matrix(-0.906308 -0.422618 -0.422618 0.906308 732.817 126.452)" fill="#92BB87"/>
<path d="M1043.08 160.16C1042.2 160.16 1041.37 160.037 1040.57 159.792C1039.77 159.536 1039.13 159.211 1038.66 158.816L1039.38 157.2C1039.83 157.552 1040.38 157.845 1041.05 158.08C1041.71 158.315 1042.38 158.432 1043.08 158.432C1043.66 158.432 1044.14 158.368 1044.5 158.24C1044.86 158.112 1045.13 157.941 1045.3 157.728C1045.47 157.504 1045.56 157.253 1045.56 156.976C1045.56 156.635 1045.43 156.363 1045.19 156.16C1044.94 155.947 1044.62 155.781 1044.23 155.664C1043.85 155.536 1043.41 155.419 1042.93 155.312C1042.46 155.205 1041.99 155.083 1041.51 154.944C1041.04 154.795 1040.61 154.608 1040.21 154.384C1039.83 154.149 1039.51 153.84 1039.27 153.456C1039.02 153.072 1038.9 152.581 1038.9 151.984C1038.9 151.376 1039.06 150.821 1039.38 150.32C1039.71 149.808 1040.21 149.403 1040.87 149.104C1041.54 148.795 1042.39 148.64 1043.41 148.64C1044.09 148.64 1044.75 148.725 1045.41 148.896C1046.07 149.067 1046.65 149.312 1047.14 149.632L1046.49 151.248C1045.98 150.949 1045.47 150.731 1044.93 150.592C1044.4 150.443 1043.89 150.368 1043.4 150.368C1042.82 150.368 1042.35 150.437 1041.99 150.576C1041.64 150.715 1041.38 150.896 1041.21 151.12C1041.05 151.344 1040.97 151.6 1040.97 151.888C1040.97 152.229 1041.08 152.507 1041.32 152.72C1041.56 152.923 1041.88 153.083 1042.26 153.2C1042.66 153.317 1043.09 153.435 1043.57 153.552C1044.05 153.659 1044.53 153.781 1045 153.92C1045.48 154.059 1045.91 154.24 1046.29 154.464C1046.69 154.688 1047 154.992 1047.24 155.376C1047.48 155.76 1047.61 156.245 1047.61 156.832C1047.61 157.429 1047.44 157.984 1047.11 158.496C1046.79 158.997 1046.29 159.403 1045.62 159.712C1044.95 160.011 1044.1 160.16 1043.08 160.16ZM1054.21 160.112C1053.52 160.112 1052.88 159.952 1052.31 159.632C1051.74 159.312 1051.29 158.832 1050.95 158.192C1050.62 157.541 1050.45 156.72 1050.45 155.728C1050.45 154.725 1050.61 153.904 1050.93 153.264C1051.26 152.624 1051.71 152.149 1052.28 151.84C1052.84 151.52 1053.49 151.36 1054.21 151.36C1055.05 151.36 1055.8 151.541 1056.44 151.904C1057.09 152.267 1057.6 152.773 1057.97 153.424C1058.36 154.075 1058.55 154.843 1058.55 155.728C1058.55 156.613 1058.36 157.387 1057.97 158.048C1057.6 158.699 1057.09 159.205 1056.44 159.568C1055.8 159.931 1055.05 160.112 1054.21 160.112ZM1049.48 163.104V151.456H1051.38V153.472L1051.32 155.744L1051.48 158.016V163.104H1049.48ZM1053.99 158.4C1054.47 158.4 1054.89 158.293 1055.27 158.08C1055.65 157.867 1055.96 157.557 1056.18 157.152C1056.4 156.747 1056.52 156.272 1056.52 155.728C1056.52 155.173 1056.4 154.699 1056.18 154.304C1055.96 153.899 1055.65 153.589 1055.27 153.376C1054.89 153.163 1054.47 153.056 1053.99 153.056C1053.51 153.056 1053.08 153.163 1052.69 153.376C1052.31 153.589 1052 153.899 1051.78 154.304C1051.56 154.699 1051.44 155.173 1051.44 155.728C1051.44 156.272 1051.56 156.747 1051.78 157.152C1052 157.557 1052.31 157.867 1052.69 158.08C1053.08 158.293 1053.51 158.4 1053.99 158.4ZM1060.44 160V151.456H1062.35V153.808L1062.12 153.12C1062.38 152.544 1062.78 152.107 1063.32 151.808C1063.88 151.509 1064.57 151.36 1065.39 151.36V153.264C1065.3 153.243 1065.22 153.232 1065.15 153.232C1065.07 153.221 1065 153.216 1064.92 153.216C1064.17 153.216 1063.56 153.44 1063.12 153.888C1062.67 154.325 1062.44 154.981 1062.44 155.856V160H1060.44ZM1067.09 160V151.456H1069.09V160H1067.09ZM1068.09 150.048C1067.72 150.048 1067.41 149.931 1067.17 149.696C1066.93 149.461 1066.81 149.179 1066.81 148.848C1066.81 148.507 1066.93 148.224 1067.17 148C1067.41 147.765 1067.72 147.648 1068.09 147.648C1068.47 147.648 1068.77 147.76 1069.01 147.984C1069.25 148.197 1069.37 148.469 1069.37 148.8C1069.37 149.152 1069.26 149.451 1069.02 149.696C1068.79 149.931 1068.48 150.048 1068.09 150.048ZM1076.56 151.36C1077.24 151.36 1077.85 151.493 1078.38 151.76C1078.93 152.027 1079.35 152.437 1079.66 152.992C1079.97 153.536 1080.13 154.24 1080.13 155.104V160H1078.13V155.36C1078.13 154.603 1077.95 154.037 1077.58 153.664C1077.23 153.291 1076.73 153.104 1076.09 153.104C1075.63 153.104 1075.21 153.2 1074.85 153.392C1074.48 153.584 1074.2 153.872 1074 154.256C1073.81 154.629 1073.71 155.104 1073.71 155.68V160H1071.71V151.456H1073.61V153.76L1073.28 153.056C1073.58 152.512 1074.01 152.096 1074.57 151.808C1075.15 151.509 1075.81 151.36 1076.56 151.36ZM1085.88 160.112C1084.94 160.112 1084.22 159.872 1083.7 159.392C1083.19 158.901 1082.94 158.181 1082.94 157.232V149.568H1084.94V157.184C1084.94 157.589 1085.04 157.904 1085.24 158.128C1085.45 158.352 1085.75 158.464 1086.12 158.464C1086.57 158.464 1086.94 158.347 1087.24 158.112L1087.8 159.536C1087.56 159.728 1087.28 159.872 1086.94 159.968C1086.59 160.064 1086.24 160.112 1085.88 160.112ZM1081.53 153.12V151.52H1087.22V153.12H1081.53ZM1096.97 160.16C1096.18 160.16 1095.41 160.048 1094.65 159.824C1093.9 159.589 1093.27 159.269 1092.76 158.864L1093.64 157.248C1094.05 157.579 1094.54 157.845 1095.11 158.048C1095.7 158.251 1096.31 158.352 1096.94 158.352C1097.67 158.352 1098.25 158.197 1098.67 157.888C1099.09 157.579 1099.31 157.163 1099.31 156.64C1099.31 156.288 1099.22 155.979 1099.03 155.712C1098.86 155.445 1098.55 155.243 1098.11 155.104C1097.67 154.965 1097.07 154.896 1096.3 154.896H1093.59L1094.17 148.8H1100.75V150.544H1094.94L1096.03 149.552L1095.59 154.112L1094.51 153.136H1096.76C1097.87 153.136 1098.76 153.285 1099.43 153.584C1100.12 153.872 1100.61 154.277 1100.92 154.8C1101.24 155.312 1101.4 155.899 1101.4 156.56C1101.4 157.211 1101.24 157.808 1100.92 158.352C1100.6 158.896 1100.11 159.333 1099.45 159.664C1098.8 159.995 1097.97 160.16 1096.97 160.16Z" fill="#3A5832"/>
<ellipse cx="1069.5" cy="116.499" rx="44.5" ry="18.5" fill="#52714A"/>
<rect x="1065" y="42" width="9" height="67" rx="3" fill="#92BB87"/>
<path d="M1103.8 59.3733C1105.2 60.1331 1105.2 62.1438 1103.79 62.8946L1076.21 77.6434C1074.88 78.3571 1073.26 77.3869 1073.27 75.8733L1073.36 46.1996C1073.37 44.686 1074.99 43.7261 1076.32 44.4484L1103.8 59.3733Z" fill="#52714A"/>
<path d="M238.033 109.162C238.336 110.71 236.47 111.733 235.327 110.645L216.062 92.3027C215.599 91.8613 215.439 91.1883 215.654 90.5855L225.785 62.2198C226.338 60.6699 228.583 60.8384 228.899 62.4536L238.033 109.162Z" fill="#D8633B"/>
<path fill-rule="evenodd" clip-rule="evenodd" d="M225.785 62.2197C226.339 60.6704 228.583 60.8391 228.899 62.4541L232.372 80.2197H219.357L225.785 62.2197Z" fill="#FAE0BE"/>
<path d="M241.608 53.4949C245.618 45.1098 257.555 45.1098 261.565 53.4949L283.288 98.9213C286.799 106.263 281.447 114.754 273.31 114.754H229.863C221.726 114.754 216.374 106.262 219.885 98.9213L241.608 53.4949Z" fill="#DD704B"/>
<path d="M241.899 85.3795C245.921 77.0344 257.805 77.0344 261.827 85.3794L268.405 99.029C271.944 106.373 266.593 114.891 258.441 114.891H245.285C237.133 114.891 231.782 106.373 235.321 99.029L241.899 85.3795Z" fill="#FAE0BE"/>
<path d="M251.969 70.8722C251.567 71.1216 251.058 71.1216 250.656 70.8722L221.206 52.6153C220.84 52.3881 220.617 51.9875 220.617 51.5562V4.88001C220.617 3.58947 222.338 3.14999 222.957 4.28252L231.987 20.8109C232.206 21.2108 232.625 21.4596 233.081 21.4596H269.544C269.999 21.4596 270.419 21.2108 270.637 20.8109L279.668 4.28251C280.287 3.14999 282.008 3.58945 282.008 4.88L282.008 51.5562C282.008 51.9875 281.785 52.3881 281.418 52.6153L251.969 70.8722Z" fill="url(#paint0_linear_859_1081)"/>
<path fill-rule="evenodd" clip-rule="evenodd" d="M251.968 70.8722C251.565 71.1216 251.057 71.1216 250.654 70.8722L224.476 54.6432C223.41 53.9822 223.878 52.3379 225.132 52.3379H277.49C278.744 52.3379 279.212 53.9822 278.146 54.6432L251.968 70.8722Z" fill="url(#paint1_linear_859_1081)"/>
<rect x="247.034" y="50.0947" width="8.72297" height="4.23687" rx="1.24614" fill="url(#paint2_linear_859_1081)"/>
<defs>
<linearGradient id="paint0_linear_859_1081" x1="251.312" y1="0.000183105" x2="251.312" y2="71.2793" gradientUnits="userSpaceOnUse">
<stop stop-color="#D54310"/>
<stop offset="1" stop-color="#D27B5D"/>
</linearGradient>
<linearGradient id="paint1_linear_859_1081" x1="251.311" y1="52.3379" x2="251.311" y2="71.0593" gradientUnits="userSpaceOnUse">
<stop stop-color="#FFEACF"/>
<stop offset="1" stop-color="#FAE0BE"/>
</linearGradient>
<linearGradient id="paint2_linear_859_1081" x1="251.395" y1="50.0947" x2="251.395" y2="54.3316" gradientUnits="userSpaceOnUse">
<stop stop-color="#39393F"/>
<stop offset="1" stop-color="#9695A5"/>
</linearGradient>
</defs>
</svg>
