<svg width="1036" height="200" viewBox="0 0 1036 200" fill="none" xmlns="http://www.w3.org/2000/svg">
<ellipse cx="422.384" cy="127.783" rx="41.3556" ry="17.1928" fill="#FFAFC0"/>
<path d="M398.605 168.629C397.792 168.629 397.014 168.515 396.27 168.287C395.527 168.049 394.937 167.747 394.501 167.38L395.17 165.878C395.586 166.205 396.102 166.478 396.716 166.696C397.331 166.914 397.96 167.023 398.605 167.023C399.15 167.023 399.591 166.964 399.928 166.845C400.265 166.726 400.513 166.567 400.672 166.369C400.83 166.161 400.909 165.928 400.909 165.67C400.909 165.353 400.795 165.1 400.567 164.912C400.339 164.714 400.042 164.56 399.675 164.451C399.318 164.332 398.917 164.223 398.471 164.124C398.035 164.025 397.594 163.911 397.147 163.782C396.711 163.643 396.31 163.469 395.943 163.261C395.586 163.043 395.294 162.756 395.066 162.399C394.838 162.042 394.724 161.586 394.724 161.031C394.724 160.466 394.872 159.95 395.17 159.484C395.477 159.009 395.938 158.632 396.553 158.354C397.177 158.067 397.965 157.923 398.917 157.923C399.541 157.923 400.161 158.002 400.776 158.161C401.39 158.32 401.926 158.548 402.382 158.845L401.772 160.347C401.306 160.069 400.825 159.866 400.33 159.737C399.834 159.598 399.358 159.529 398.902 159.529C398.367 159.529 397.931 159.594 397.594 159.722C397.266 159.851 397.024 160.02 396.865 160.228C396.716 160.436 396.642 160.674 396.642 160.942C396.642 161.259 396.751 161.517 396.969 161.715C397.197 161.903 397.489 162.052 397.846 162.161C398.213 162.27 398.62 162.379 399.066 162.488C399.512 162.587 399.953 162.701 400.389 162.83C400.835 162.959 401.237 163.127 401.593 163.336C401.96 163.544 402.253 163.826 402.471 164.183C402.699 164.54 402.813 164.991 402.813 165.536C402.813 166.091 402.659 166.607 402.352 167.083C402.054 167.549 401.593 167.925 400.969 168.213C400.344 168.49 399.556 168.629 398.605 168.629ZM408.952 168.585C408.308 168.585 407.718 168.436 407.183 168.138C406.658 167.841 406.236 167.395 405.919 166.8C405.612 166.196 405.458 165.432 405.458 164.51C405.458 163.579 405.607 162.815 405.904 162.22C406.211 161.626 406.628 161.185 407.153 160.897C407.679 160.6 408.278 160.451 408.952 160.451C409.736 160.451 410.424 160.62 411.019 160.957C411.624 161.294 412.1 161.764 412.447 162.369C412.804 162.974 412.982 163.688 412.982 164.51C412.982 165.333 412.804 166.052 412.447 166.666C412.1 167.271 411.624 167.742 411.019 168.079C410.424 168.416 409.736 168.585 408.952 168.585ZM404.551 171.365V160.54H406.321V162.414L406.261 164.525L406.41 166.637V171.365H404.551ZM408.744 166.994C409.19 166.994 409.587 166.894 409.934 166.696C410.291 166.498 410.573 166.21 410.781 165.834C410.99 165.457 411.094 165.016 411.094 164.51C411.094 163.995 410.99 163.554 410.781 163.187C410.573 162.81 410.291 162.523 409.934 162.325C409.587 162.126 409.19 162.027 408.744 162.027C408.298 162.027 407.897 162.126 407.54 162.325C407.183 162.523 406.9 162.81 406.692 163.187C406.484 163.554 406.38 163.995 406.38 164.51C406.38 165.016 406.484 165.457 406.692 165.834C406.9 166.21 407.183 166.498 407.54 166.696C407.897 166.894 408.298 166.994 408.744 166.994ZM414.745 168.48V160.54H416.514V162.726L416.306 162.087C416.544 161.551 416.916 161.145 417.421 160.867C417.937 160.59 418.576 160.451 419.339 160.451V162.22C419.26 162.201 419.186 162.191 419.116 162.191C419.047 162.181 418.978 162.176 418.908 162.176C418.204 162.176 417.644 162.384 417.228 162.8C416.812 163.207 416.603 163.816 416.603 164.629V168.48H414.745ZM420.916 168.48V160.54H422.775V168.48H420.916ZM421.853 159.232C421.506 159.232 421.218 159.123 420.99 158.905C420.772 158.686 420.663 158.424 420.663 158.116C420.663 157.799 420.772 157.537 420.99 157.328C421.218 157.11 421.506 157.001 421.853 157.001C422.2 157.001 422.482 157.105 422.7 157.314C422.928 157.512 423.042 157.765 423.042 158.072C423.042 158.399 422.933 158.677 422.715 158.905C422.497 159.123 422.21 159.232 421.853 159.232ZM429.72 160.451C430.354 160.451 430.919 160.575 431.415 160.823C431.92 161.071 432.317 161.452 432.604 161.968C432.892 162.473 433.036 163.127 433.036 163.93V168.48H431.177V164.168C431.177 163.465 431.008 162.939 430.671 162.592C430.344 162.245 429.883 162.072 429.289 162.072C428.852 162.072 428.466 162.161 428.129 162.339C427.792 162.518 427.529 162.785 427.341 163.142C427.162 163.489 427.073 163.93 427.073 164.466V168.48H425.214V160.54H426.984V162.681L426.672 162.027C426.949 161.522 427.351 161.135 427.876 160.867C428.411 160.59 429.026 160.451 429.72 160.451ZM438.382 168.585C437.51 168.585 436.836 168.362 436.36 167.915C435.884 167.459 435.646 166.79 435.646 165.908V158.786H437.505V165.863C437.505 166.24 437.599 166.533 437.787 166.741C437.986 166.949 438.258 167.053 438.605 167.053C439.022 167.053 439.369 166.944 439.646 166.726L440.167 168.049C439.948 168.228 439.681 168.362 439.364 168.451C439.046 168.54 438.719 168.585 438.382 168.585ZM434.338 162.087V160.6H439.631V162.087H434.338ZM445.106 168.48V167.187L449.24 163.261C449.587 162.934 449.845 162.647 450.013 162.399C450.182 162.151 450.291 161.923 450.34 161.715C450.4 161.497 450.429 161.294 450.429 161.105C450.429 160.629 450.266 160.263 449.939 160.005C449.612 159.737 449.131 159.603 448.496 159.603C447.991 159.603 447.53 159.693 447.113 159.871C446.707 160.05 446.355 160.322 446.058 160.689L444.705 159.648C445.111 159.103 445.656 158.682 446.34 158.384C447.034 158.077 447.807 157.923 448.66 157.923C449.413 157.923 450.068 158.047 450.623 158.295C451.188 158.533 451.619 158.875 451.916 159.321C452.224 159.767 452.377 160.297 452.377 160.912C452.377 161.249 452.333 161.586 452.243 161.923C452.154 162.25 451.986 162.597 451.738 162.964C451.49 163.331 451.128 163.742 450.652 164.198L447.099 167.573L446.697 166.845H452.779V168.48H445.106ZM375.622 191.48V181.072H377.555V191.48H375.622ZM383.553 191.585C382.789 191.585 382.1 191.416 381.486 191.079C380.881 190.732 380.405 190.256 380.058 189.652C379.711 189.047 379.538 188.333 379.538 187.51C379.538 186.688 379.711 185.974 380.058 185.369C380.405 184.764 380.881 184.294 381.486 183.957C382.1 183.62 382.789 183.451 383.553 183.451C384.217 183.451 384.812 183.6 385.337 183.897C385.862 184.185 386.279 184.626 386.586 185.22C386.893 185.815 387.047 186.579 387.047 187.51C387.047 188.432 386.898 189.196 386.601 189.8C386.304 190.395 385.892 190.841 385.367 191.138C384.841 191.436 384.237 191.585 383.553 191.585ZM383.776 189.994C384.222 189.994 384.618 189.894 384.965 189.696C385.322 189.498 385.605 189.21 385.813 188.834C386.031 188.457 386.14 188.016 386.14 187.51C386.14 186.995 386.031 186.554 385.813 186.187C385.605 185.81 385.322 185.523 384.965 185.325C384.618 185.126 384.222 185.027 383.776 185.027C383.33 185.027 382.928 185.126 382.571 185.325C382.224 185.523 381.942 185.81 381.724 186.187C381.516 186.554 381.412 186.995 381.412 187.51C381.412 188.016 381.516 188.457 381.724 188.834C381.942 189.21 382.224 189.498 382.571 189.696C382.928 189.894 383.33 189.994 383.776 189.994ZM386.185 191.48V189.607L386.259 187.495L386.11 185.384V180.447H387.954V191.48H386.185ZM394.133 191.585C393.25 191.585 392.477 191.411 391.813 191.064C391.159 190.707 390.648 190.222 390.281 189.607C389.925 188.992 389.746 188.293 389.746 187.51C389.746 186.717 389.92 186.018 390.267 185.414C390.623 184.799 391.109 184.318 391.724 183.971C392.348 183.624 393.057 183.451 393.85 183.451C394.623 183.451 395.312 183.62 395.917 183.957C396.522 184.294 396.998 184.769 397.344 185.384C397.691 185.999 397.865 186.722 397.865 187.555C397.865 187.634 397.86 187.723 397.85 187.823C397.85 187.922 397.845 188.016 397.835 188.105H391.218V186.871H396.854L396.125 187.258C396.135 186.802 396.041 186.4 395.843 186.053C395.644 185.706 395.372 185.434 395.025 185.235C394.688 185.037 394.296 184.938 393.85 184.938C393.394 184.938 392.993 185.037 392.646 185.235C392.309 185.434 392.041 185.711 391.843 186.068C391.654 186.415 391.56 186.826 391.56 187.302V187.6C391.56 188.075 391.669 188.497 391.887 188.863C392.105 189.23 392.413 189.513 392.809 189.711C393.206 189.909 393.662 190.008 394.177 190.008C394.623 190.008 395.025 189.939 395.382 189.8C395.739 189.661 396.056 189.443 396.333 189.146L397.33 190.291C396.973 190.707 396.522 191.029 395.976 191.257C395.441 191.476 394.827 191.585 394.133 191.585ZM404.324 191.48V189.875L404.22 189.533V186.722C404.22 186.177 404.057 185.756 403.73 185.458C403.403 185.151 402.907 184.997 402.243 184.997C401.797 184.997 401.356 185.067 400.919 185.206C400.493 185.344 400.131 185.538 399.834 185.785L399.105 184.432C399.532 184.105 400.037 183.862 400.622 183.704C401.217 183.535 401.831 183.451 402.466 183.451C403.616 183.451 404.503 183.729 405.127 184.284C405.762 184.829 406.079 185.676 406.079 186.826V191.48H404.324ZM401.826 191.585C401.232 191.585 400.711 191.485 400.265 191.287C399.819 191.079 399.472 190.796 399.224 190.44C398.986 190.073 398.867 189.661 398.867 189.205C398.867 188.759 398.971 188.358 399.18 188.001C399.398 187.644 399.75 187.362 400.235 187.153C400.721 186.945 401.365 186.841 402.168 186.841H404.473V188.075H402.302C401.668 188.075 401.242 188.179 401.023 188.388C400.805 188.586 400.696 188.834 400.696 189.131C400.696 189.468 400.83 189.736 401.098 189.934C401.365 190.132 401.737 190.231 402.213 190.231C402.669 190.231 403.075 190.127 403.432 189.919C403.799 189.711 404.062 189.404 404.22 188.997L404.533 190.112C404.354 190.578 404.032 190.94 403.566 191.198C403.11 191.456 402.53 191.585 401.826 191.585ZM411.453 191.585C410.581 191.585 409.907 191.362 409.431 190.915C408.955 190.459 408.717 189.79 408.717 188.908V181.786H410.576V188.863C410.576 189.24 410.67 189.533 410.858 189.741C411.057 189.949 411.329 190.053 411.676 190.053C412.093 190.053 412.44 189.944 412.717 189.726L413.238 191.049C413.019 191.228 412.752 191.362 412.435 191.451C412.117 191.54 411.79 191.585 411.453 191.585ZM407.409 185.087V183.6H412.702V185.087H407.409ZM414.767 191.48V183.54H416.625V191.48H414.767ZM415.703 182.232C415.356 182.232 415.069 182.123 414.841 181.905C414.623 181.686 414.514 181.424 414.514 181.116C414.514 180.799 414.623 180.537 414.841 180.328C415.069 180.11 415.356 180.001 415.703 180.001C416.05 180.001 416.333 180.105 416.551 180.314C416.779 180.512 416.893 180.765 416.893 181.072C416.893 181.399 416.784 181.677 416.566 181.905C416.348 182.123 416.06 182.232 415.703 182.232ZM422.633 191.585C421.821 191.585 421.097 191.411 420.462 191.064C419.828 190.707 419.327 190.222 418.961 189.607C418.594 188.992 418.41 188.293 418.41 187.51C418.41 186.717 418.594 186.018 418.961 185.414C419.327 184.799 419.828 184.318 420.462 183.971C421.097 183.624 421.821 183.451 422.633 183.451C423.456 183.451 424.185 183.624 424.819 183.971C425.464 184.318 425.964 184.794 426.321 185.399C426.688 186.004 426.871 186.707 426.871 187.51C426.871 188.293 426.688 188.992 426.321 189.607C425.964 190.222 425.464 190.707 424.819 191.064C424.185 191.411 423.456 191.585 422.633 191.585ZM422.633 189.994C423.089 189.994 423.496 189.894 423.853 189.696C424.21 189.498 424.487 189.21 424.685 188.834C424.894 188.457 424.998 188.016 424.998 187.51C424.998 186.995 424.894 186.554 424.685 186.187C424.487 185.81 424.21 185.523 423.853 185.325C423.496 185.126 423.094 185.027 422.648 185.027C422.192 185.027 421.786 185.126 421.429 185.325C421.082 185.523 420.804 185.81 420.596 186.187C420.388 186.554 420.284 186.995 420.284 187.51C420.284 188.016 420.388 188.457 420.596 188.834C420.804 189.21 421.082 189.498 421.429 189.696C421.786 189.894 422.187 189.994 422.633 189.994ZM433.154 183.451C433.788 183.451 434.353 183.575 434.849 183.823C435.355 184.071 435.751 184.452 436.039 184.968C436.326 185.473 436.47 186.127 436.47 186.93V191.48H434.611V187.168C434.611 186.465 434.443 185.939 434.106 185.592C433.778 185.245 433.318 185.072 432.723 185.072C432.287 185.072 431.9 185.161 431.563 185.339C431.226 185.518 430.963 185.785 430.775 186.142C430.596 186.489 430.507 186.93 430.507 187.466V191.48H428.649V183.54H430.418V185.681L430.106 185.027C430.383 184.522 430.785 184.135 431.31 183.867C431.845 183.59 432.46 183.451 433.154 183.451ZM443.19 191.48V183.094C443.19 182.261 443.433 181.597 443.918 181.102C444.414 180.596 445.118 180.343 446.03 180.343C446.357 180.343 446.664 180.378 446.952 180.447C447.249 180.517 447.497 180.626 447.695 180.774L447.19 182.172C447.051 182.063 446.892 181.984 446.714 181.934C446.535 181.875 446.352 181.845 446.164 181.845C445.777 181.845 445.485 181.954 445.286 182.172C445.088 182.38 444.989 182.698 444.989 183.124V184.016L445.049 184.849V191.48H443.19ZM441.881 185.087V183.6H447.175V185.087H441.881ZM453.173 191.48V189.875L453.069 189.533V186.722C453.069 186.177 452.905 185.756 452.578 185.458C452.251 185.151 451.755 184.997 451.091 184.997C450.645 184.997 450.204 185.067 449.768 185.206C449.341 185.344 448.98 185.538 448.682 185.785L447.954 184.432C448.38 184.105 448.885 183.862 449.47 183.704C450.065 183.535 450.68 183.451 451.314 183.451C452.464 183.451 453.351 183.729 453.976 184.284C454.61 184.829 454.927 185.676 454.927 186.826V191.48H453.173ZM450.675 191.585C450.08 191.585 449.56 191.485 449.113 191.287C448.667 191.079 448.32 190.796 448.073 190.44C447.835 190.073 447.716 189.661 447.716 189.205C447.716 188.759 447.82 188.358 448.028 188.001C448.246 187.644 448.598 187.362 449.084 187.153C449.569 186.945 450.214 186.841 451.017 186.841H453.322V188.075H451.151C450.516 188.075 450.09 188.179 449.872 188.388C449.654 188.586 449.545 188.834 449.545 189.131C449.545 189.468 449.679 189.736 449.946 189.934C450.214 190.132 450.586 190.231 451.061 190.231C451.517 190.231 451.924 190.127 452.281 189.919C452.647 189.711 452.91 189.404 453.069 188.997L453.381 190.112C453.203 190.578 452.88 190.94 452.414 191.198C451.959 191.456 451.379 191.585 450.675 191.585ZM459.766 191.585C459.102 191.585 458.463 191.5 457.848 191.332C457.243 191.153 456.763 190.94 456.406 190.692L457.119 189.28C457.476 189.508 457.903 189.696 458.398 189.845C458.894 189.994 459.39 190.068 459.885 190.068C460.47 190.068 460.891 189.989 461.149 189.83C461.417 189.671 461.551 189.458 461.551 189.191C461.551 188.972 461.461 188.809 461.283 188.7C461.104 188.581 460.872 188.492 460.584 188.432C460.297 188.373 459.974 188.318 459.618 188.269C459.271 188.219 458.919 188.155 458.562 188.075C458.215 187.986 457.898 187.862 457.61 187.704C457.323 187.535 457.09 187.312 456.911 187.035C456.733 186.757 456.644 186.39 456.644 185.934C456.644 185.429 456.787 184.992 457.075 184.626C457.362 184.249 457.764 183.962 458.279 183.763C458.805 183.555 459.424 183.451 460.138 183.451C460.673 183.451 461.214 183.51 461.759 183.629C462.304 183.748 462.755 183.917 463.112 184.135L462.398 185.548C462.021 185.32 461.64 185.166 461.253 185.087C460.877 184.997 460.5 184.953 460.123 184.953C459.558 184.953 459.137 185.037 458.859 185.206C458.592 185.374 458.458 185.587 458.458 185.845C458.458 186.083 458.547 186.261 458.725 186.38C458.904 186.499 459.137 186.593 459.424 186.663C459.712 186.732 460.029 186.792 460.376 186.841C460.733 186.881 461.085 186.945 461.432 187.035C461.779 187.124 462.096 187.248 462.383 187.406C462.681 187.555 462.919 187.768 463.097 188.046C463.275 188.323 463.365 188.685 463.365 189.131C463.365 189.627 463.216 190.058 462.919 190.425C462.631 190.792 462.22 191.079 461.684 191.287C461.149 191.485 460.51 191.585 459.766 191.585ZM468.698 191.585C467.815 191.585 467.042 191.411 466.378 191.064C465.724 190.707 465.213 190.222 464.846 189.607C464.49 188.992 464.311 188.293 464.311 187.51C464.311 186.717 464.485 186.018 464.832 185.414C465.188 184.799 465.674 184.318 466.289 183.971C466.913 183.624 467.622 183.451 468.415 183.451C469.188 183.451 469.877 183.62 470.482 183.957C471.087 184.294 471.562 184.769 471.909 185.384C472.256 185.999 472.43 186.722 472.43 187.555C472.43 187.634 472.425 187.723 472.415 187.823C472.415 187.922 472.41 188.016 472.4 188.105H465.783V186.871H471.419L470.69 187.258C470.7 186.802 470.606 186.4 470.408 186.053C470.209 185.706 469.937 185.434 469.59 185.235C469.253 185.037 468.861 184.938 468.415 184.938C467.959 184.938 467.558 185.037 467.211 185.235C466.874 185.434 466.606 185.711 466.408 186.068C466.219 186.415 466.125 186.826 466.125 187.302V187.6C466.125 188.075 466.234 188.497 466.452 188.863C466.67 189.23 466.978 189.513 467.374 189.711C467.771 189.909 468.227 190.008 468.742 190.008C469.188 190.008 469.59 189.939 469.947 189.8C470.303 189.661 470.621 189.443 470.898 189.146L471.894 190.291C471.538 190.707 471.087 191.029 470.541 191.257C470.006 191.476 469.391 191.585 468.698 191.585Z" fill="#3A5832"/>
<ellipse cx="232.799" cy="71.0932" rx="41.3556" ry="17.1928" fill="#FFAFC0"/>
<path d="M209.445 111.94C208.632 111.94 207.854 111.826 207.11 111.598C206.367 111.36 205.777 111.057 205.341 110.691L206.01 109.189C206.426 109.516 206.942 109.789 207.556 110.007C208.171 110.225 208.8 110.334 209.445 110.334C209.99 110.334 210.431 110.274 210.768 110.155C211.105 110.036 211.353 109.878 211.511 109.68C211.67 109.471 211.749 109.238 211.749 108.981C211.749 108.663 211.635 108.411 211.407 108.222C211.179 108.024 210.882 107.87 210.515 107.761C210.158 107.642 209.757 107.533 209.311 107.434C208.875 107.335 208.433 107.221 207.987 107.092C207.551 106.953 207.15 106.78 206.783 106.572C206.426 106.354 206.134 106.066 205.906 105.709C205.678 105.353 205.564 104.897 205.564 104.341C205.564 103.776 205.712 103.261 206.01 102.795C206.317 102.319 206.778 101.943 207.393 101.665C208.017 101.377 208.805 101.234 209.757 101.234C210.381 101.234 211.001 101.313 211.616 101.472C212.23 101.63 212.765 101.858 213.221 102.156L212.612 103.657C212.146 103.38 211.665 103.177 211.169 103.048C210.674 102.909 210.198 102.84 209.742 102.84C209.207 102.84 208.771 102.904 208.433 103.033C208.106 103.162 207.863 103.33 207.705 103.538C207.556 103.747 207.482 103.985 207.482 104.252C207.482 104.569 207.591 104.827 207.809 105.025C208.037 105.214 208.329 105.362 208.686 105.472C209.053 105.581 209.459 105.69 209.906 105.799C210.352 105.898 210.793 106.012 211.229 106.141C211.675 106.27 212.076 106.438 212.433 106.646C212.8 106.854 213.093 107.137 213.311 107.494C213.539 107.851 213.653 108.302 213.653 108.847C213.653 109.402 213.499 109.917 213.192 110.393C212.894 110.859 212.433 111.236 211.809 111.523C211.184 111.801 210.396 111.94 209.445 111.94ZM219.792 111.895C219.148 111.895 218.558 111.746 218.023 111.449C217.497 111.152 217.076 110.706 216.759 110.111C216.452 109.506 216.298 108.743 216.298 107.821C216.298 106.889 216.447 106.126 216.744 105.531C217.051 104.936 217.468 104.495 217.993 104.208C218.518 103.91 219.118 103.762 219.792 103.762C220.575 103.762 221.264 103.93 221.859 104.267C222.464 104.604 222.94 105.075 223.287 105.68C223.643 106.284 223.822 106.998 223.822 107.821C223.822 108.644 223.643 109.362 223.287 109.977C222.94 110.582 222.464 111.053 221.859 111.39C221.264 111.727 220.575 111.895 219.792 111.895ZM215.391 114.676V103.851H217.16V105.724L217.101 107.836L217.25 109.947V114.676H215.391ZM219.584 110.304C220.03 110.304 220.427 110.205 220.774 110.007C221.131 109.808 221.413 109.521 221.621 109.144C221.829 108.768 221.934 108.326 221.934 107.821C221.934 107.305 221.829 106.864 221.621 106.498C221.413 106.121 221.131 105.833 220.774 105.635C220.427 105.437 220.03 105.338 219.584 105.338C219.138 105.338 218.737 105.437 218.38 105.635C218.023 105.833 217.74 106.121 217.532 106.498C217.324 106.864 217.22 107.305 217.22 107.821C217.22 108.326 217.324 108.768 217.532 109.144C217.74 109.521 218.023 109.808 218.38 110.007C218.737 110.205 219.138 110.304 219.584 110.304ZM225.585 111.791V103.851H227.354V106.037L227.146 105.397C227.384 104.862 227.756 104.455 228.261 104.178C228.777 103.9 229.416 103.762 230.179 103.762V105.531C230.1 105.511 230.026 105.501 229.956 105.501C229.887 105.491 229.817 105.486 229.748 105.486C229.044 105.486 228.484 105.695 228.068 106.111C227.651 106.517 227.443 107.127 227.443 107.94V111.791H225.585ZM231.756 111.791V103.851H233.615V111.791H231.756ZM232.693 102.542C232.346 102.542 232.058 102.433 231.83 102.215C231.612 101.997 231.503 101.734 231.503 101.427C231.503 101.11 231.612 100.847 231.83 100.639C232.058 100.421 232.346 100.312 232.693 100.312C233.04 100.312 233.322 100.416 233.54 100.624C233.768 100.822 233.882 101.075 233.882 101.382C233.882 101.71 233.773 101.987 233.555 102.215C233.337 102.433 233.05 102.542 232.693 102.542ZM240.56 103.762C241.194 103.762 241.759 103.885 242.255 104.133C242.76 104.381 243.157 104.763 243.444 105.278C243.732 105.784 243.876 106.438 243.876 107.241V111.791H242.017V107.479C242.017 106.775 241.848 106.25 241.511 105.903C241.184 105.556 240.723 105.382 240.128 105.382C239.692 105.382 239.306 105.472 238.969 105.65C238.632 105.828 238.369 106.096 238.181 106.453C238.002 106.8 237.913 107.241 237.913 107.776V111.791H236.054V103.851H237.824V105.992L237.511 105.338C237.789 104.832 238.19 104.446 238.716 104.178C239.251 103.9 239.866 103.762 240.56 103.762ZM249.222 111.895C248.35 111.895 247.676 111.672 247.2 111.226C246.724 110.77 246.486 110.101 246.486 109.219V102.096H248.345V109.174C248.345 109.551 248.439 109.843 248.627 110.051C248.826 110.259 249.098 110.364 249.445 110.364C249.862 110.364 250.208 110.255 250.486 110.036L251.006 111.36C250.788 111.538 250.521 111.672 250.204 111.761C249.886 111.85 249.559 111.895 249.222 111.895ZM245.178 105.397V103.91H250.471V105.397H245.178ZM257.745 111.791V102.126L258.593 103.003H255.545V101.382H259.678V111.791H257.745ZM181.315 134.791V124.382H185.597C186.519 124.382 187.307 124.531 187.961 124.829C188.625 125.126 189.136 125.552 189.493 126.107C189.85 126.662 190.028 127.322 190.028 128.085C190.028 128.848 189.85 129.507 189.493 130.063C189.136 130.608 188.625 131.029 187.961 131.326C187.307 131.614 186.519 131.758 185.597 131.758H182.385L183.248 130.88V134.791H181.315ZM188.125 134.791L185.493 131.014H187.56L190.206 134.791H188.125ZM183.248 131.089L182.385 130.167H185.508C186.36 130.167 187 129.983 187.426 129.616C187.862 129.25 188.08 128.739 188.08 128.085C188.08 127.421 187.862 126.91 187.426 126.553C187 126.196 186.36 126.018 185.508 126.018H182.385L183.248 125.066V131.089ZM195.745 134.895C194.862 134.895 194.089 134.722 193.425 134.375C192.771 134.018 192.26 133.532 191.893 132.917C191.536 132.303 191.358 131.604 191.358 130.821C191.358 130.028 191.532 129.329 191.878 128.724C192.235 128.11 192.721 127.629 193.336 127.282C193.96 126.935 194.669 126.762 195.462 126.762C196.235 126.762 196.924 126.93 197.529 127.267C198.134 127.604 198.609 128.08 198.956 128.695C199.303 129.309 199.477 130.033 199.477 130.865C199.477 130.945 199.472 131.034 199.462 131.133C199.462 131.232 199.457 131.326 199.447 131.416H192.83V130.181H198.466L197.737 130.568C197.747 130.112 197.653 129.711 197.454 129.364C197.256 129.017 196.984 128.744 196.637 128.546C196.3 128.348 195.908 128.248 195.462 128.248C195.006 128.248 194.605 128.348 194.258 128.546C193.921 128.744 193.653 129.022 193.455 129.379C193.266 129.726 193.172 130.137 193.172 130.613V130.91C193.172 131.386 193.281 131.807 193.499 132.174C193.717 132.541 194.025 132.823 194.421 133.022C194.818 133.22 195.274 133.319 195.789 133.319C196.235 133.319 196.637 133.25 196.994 133.111C197.35 132.972 197.668 132.754 197.945 132.457L198.941 133.601C198.585 134.018 198.134 134.34 197.588 134.568C197.053 134.786 196.438 134.895 195.745 134.895ZM203.716 134.895C203.051 134.895 202.412 134.811 201.797 134.642C201.193 134.464 200.712 134.251 200.355 134.003L201.069 132.59C201.426 132.818 201.852 133.007 202.348 133.155C202.843 133.304 203.339 133.378 203.835 133.378C204.419 133.378 204.841 133.299 205.098 133.141C205.366 132.982 205.5 132.769 205.5 132.501C205.5 132.283 205.411 132.119 205.232 132.01C205.054 131.891 204.821 131.802 204.533 131.743C204.246 131.683 203.924 131.629 203.567 131.579C203.22 131.53 202.868 131.465 202.511 131.386C202.164 131.297 201.847 131.173 201.56 131.014C201.272 130.846 201.039 130.623 200.861 130.345C200.682 130.067 200.593 129.701 200.593 129.245C200.593 128.739 200.737 128.303 201.024 127.936C201.312 127.56 201.713 127.272 202.229 127.074C202.754 126.866 203.374 126.762 204.087 126.762C204.623 126.762 205.163 126.821 205.708 126.94C206.253 127.059 206.704 127.227 207.061 127.446L206.347 128.858C205.971 128.63 205.589 128.476 205.203 128.397C204.826 128.308 204.449 128.263 204.072 128.263C203.507 128.263 203.086 128.348 202.809 128.516C202.541 128.685 202.407 128.898 202.407 129.156C202.407 129.393 202.496 129.572 202.675 129.691C202.853 129.81 203.086 129.904 203.374 129.973C203.661 130.043 203.978 130.102 204.325 130.152C204.682 130.191 205.034 130.256 205.381 130.345C205.728 130.434 206.045 130.558 206.333 130.717C206.63 130.865 206.868 131.079 207.046 131.356C207.225 131.634 207.314 131.996 207.314 132.442C207.314 132.937 207.165 133.369 206.868 133.735C206.58 134.102 206.169 134.39 205.634 134.598C205.098 134.796 204.459 134.895 203.716 134.895ZM212.647 134.895C211.765 134.895 210.991 134.722 210.327 134.375C209.673 134.018 209.162 133.532 208.796 132.917C208.439 132.303 208.26 131.604 208.26 130.821C208.26 130.028 208.434 129.329 208.781 128.724C209.138 128.11 209.623 127.629 210.238 127.282C210.863 126.935 211.571 126.762 212.364 126.762C213.138 126.762 213.826 126.93 214.431 127.267C215.036 127.604 215.512 128.08 215.859 128.695C216.206 129.309 216.379 130.033 216.379 130.865C216.379 130.945 216.374 131.034 216.364 131.133C216.364 131.232 216.359 131.326 216.349 131.416H209.732V130.181H215.368L214.639 130.568C214.649 130.112 214.555 129.711 214.357 129.364C214.159 129.017 213.886 128.744 213.539 128.546C213.202 128.348 212.81 128.248 212.364 128.248C211.908 128.248 211.507 128.348 211.16 128.546C210.823 128.744 210.555 129.022 210.357 129.379C210.169 129.726 210.074 130.137 210.074 130.613V130.91C210.074 131.386 210.183 131.807 210.402 132.174C210.62 132.541 210.927 132.823 211.323 133.022C211.72 133.22 212.176 133.319 212.691 133.319C213.138 133.319 213.539 133.25 213.896 133.111C214.253 132.972 214.57 132.754 214.848 132.457L215.844 133.601C215.487 134.018 215.036 134.34 214.491 134.568C213.955 134.786 213.341 134.895 212.647 134.895ZM222.839 134.791V133.185L222.735 132.843V130.033C222.735 129.488 222.571 129.066 222.244 128.769C221.917 128.462 221.421 128.308 220.757 128.308C220.311 128.308 219.87 128.377 219.434 128.516C219.007 128.655 218.646 128.848 218.348 129.096L217.62 127.743C218.046 127.416 218.551 127.173 219.136 127.014C219.731 126.846 220.346 126.762 220.98 126.762C222.13 126.762 223.017 127.039 223.642 127.594C224.276 128.139 224.593 128.987 224.593 130.137V134.791H222.839ZM220.341 134.895C219.746 134.895 219.225 134.796 218.779 134.598C218.333 134.39 217.986 134.107 217.738 133.75C217.501 133.383 217.382 132.972 217.382 132.516C217.382 132.07 217.486 131.668 217.694 131.312C217.912 130.955 218.264 130.672 218.75 130.464C219.235 130.256 219.88 130.152 220.683 130.152H222.987V131.386H220.816C220.182 131.386 219.756 131.49 219.538 131.698C219.32 131.896 219.211 132.144 219.211 132.442C219.211 132.779 219.344 133.046 219.612 133.245C219.88 133.443 220.251 133.542 220.727 133.542C221.183 133.542 221.59 133.438 221.947 133.23C222.313 133.022 222.576 132.714 222.735 132.308L223.047 133.423C222.868 133.889 222.546 134.251 222.08 134.508C221.624 134.766 221.044 134.895 220.341 134.895ZM226.979 134.791V126.851H228.748V129.037L228.54 128.397C228.778 127.862 229.15 127.455 229.655 127.178C230.171 126.9 230.81 126.762 231.573 126.762V128.531C231.494 128.511 231.42 128.501 231.35 128.501C231.281 128.491 231.211 128.486 231.142 128.486C230.438 128.486 229.878 128.695 229.462 129.111C229.045 129.517 228.837 130.127 228.837 130.94V134.791H226.979ZM236.72 134.895C235.888 134.895 235.144 134.722 234.49 134.375C233.846 134.018 233.34 133.532 232.973 132.917C232.607 132.303 232.423 131.604 232.423 130.821C232.423 130.028 232.607 129.329 232.973 128.724C233.34 128.11 233.846 127.629 234.49 127.282C235.144 126.935 235.888 126.762 236.72 126.762C237.494 126.762 238.173 126.92 238.758 127.237C239.352 127.545 239.803 128.001 240.111 128.605L238.683 129.438C238.445 129.061 238.153 128.784 237.806 128.605C237.469 128.427 237.102 128.338 236.706 128.338C236.25 128.338 235.838 128.437 235.471 128.635C235.105 128.833 234.817 129.121 234.609 129.498C234.401 129.864 234.297 130.305 234.297 130.821C234.297 131.336 234.401 131.782 234.609 132.159C234.817 132.526 235.105 132.808 235.471 133.007C235.838 133.205 236.25 133.304 236.706 133.304C237.102 133.304 237.469 133.215 237.806 133.036C238.153 132.858 238.445 132.58 238.683 132.204L240.111 133.036C239.803 133.631 239.352 134.092 238.758 134.419C238.173 134.736 237.494 134.895 236.72 134.895ZM246.15 126.762C246.785 126.762 247.35 126.885 247.845 127.133C248.351 127.381 248.747 127.763 249.035 128.278C249.322 128.784 249.466 129.438 249.466 130.241V134.791H247.607V130.479C247.607 129.775 247.439 129.25 247.102 128.903C246.775 128.556 246.314 128.382 245.719 128.382C245.283 128.382 244.896 128.472 244.559 128.65C244.222 128.828 243.959 129.096 243.771 129.453C243.593 129.8 243.503 130.241 243.503 130.776V134.791H241.645V123.758H243.503V128.992L243.102 128.338C243.38 127.832 243.781 127.446 244.306 127.178C244.842 126.9 245.456 126.762 246.15 126.762ZM256.186 134.791V126.405C256.186 125.572 256.429 124.908 256.915 124.412C257.41 123.907 258.114 123.654 259.026 123.654C259.353 123.654 259.661 123.689 259.948 123.758C260.245 123.827 260.493 123.936 260.692 124.085L260.186 125.483C260.047 125.374 259.889 125.294 259.71 125.245C259.532 125.185 259.348 125.156 259.16 125.156C258.773 125.156 258.481 125.265 258.283 125.483C258.084 125.691 257.985 126.008 257.985 126.434V127.327L258.045 128.159V134.791H256.186ZM254.878 128.397V126.91H260.171V128.397H254.878ZM266.169 134.791V133.185L266.065 132.843V130.033C266.065 129.488 265.901 129.066 265.574 128.769C265.247 128.462 264.752 128.308 264.087 128.308C263.641 128.308 263.2 128.377 262.764 128.516C262.338 128.655 261.976 128.848 261.679 129.096L260.95 127.743C261.376 127.416 261.882 127.173 262.467 127.014C263.061 126.846 263.676 126.762 264.31 126.762C265.46 126.762 266.348 127.039 266.972 127.594C267.606 128.139 267.924 128.987 267.924 130.137V134.791H266.169ZM263.671 134.895C263.076 134.895 262.556 134.796 262.11 134.598C261.664 134.39 261.317 134.107 261.069 133.75C260.831 133.383 260.712 132.972 260.712 132.516C260.712 132.07 260.816 131.668 261.024 131.312C261.242 130.955 261.594 130.672 262.08 130.464C262.566 130.256 263.21 130.152 264.013 130.152H266.318V131.386H264.147C263.512 131.386 263.086 131.49 262.868 131.698C262.65 131.896 262.541 132.144 262.541 132.442C262.541 132.779 262.675 133.046 262.942 133.245C263.21 133.443 263.582 133.542 264.058 133.542C264.514 133.542 264.92 133.438 265.277 133.23C265.644 133.022 265.906 132.714 266.065 132.308L266.377 133.423C266.199 133.889 265.877 134.251 265.411 134.508C264.955 134.766 264.375 134.895 263.671 134.895ZM272.762 134.895C272.098 134.895 271.459 134.811 270.844 134.642C270.24 134.464 269.759 134.251 269.402 134.003L270.116 132.59C270.473 132.818 270.899 133.007 271.395 133.155C271.89 133.304 272.386 133.378 272.881 133.378C273.466 133.378 273.888 133.299 274.145 133.141C274.413 132.982 274.547 132.769 274.547 132.501C274.547 132.283 274.458 132.119 274.279 132.01C274.101 131.891 273.868 131.802 273.58 131.743C273.293 131.683 272.971 131.629 272.614 131.579C272.267 131.53 271.915 131.465 271.558 131.386C271.211 131.297 270.894 131.173 270.606 131.014C270.319 130.846 270.086 130.623 269.908 130.345C269.729 130.067 269.64 129.701 269.64 129.245C269.64 128.739 269.784 128.303 270.071 127.936C270.359 127.56 270.76 127.272 271.276 127.074C271.801 126.866 272.421 126.762 273.134 126.762C273.67 126.762 274.21 126.821 274.755 126.94C275.3 127.059 275.751 127.227 276.108 127.446L275.394 128.858C275.018 128.63 274.636 128.476 274.249 128.397C273.873 128.308 273.496 128.263 273.119 128.263C272.554 128.263 272.133 128.348 271.855 128.516C271.588 128.685 271.454 128.898 271.454 129.156C271.454 129.393 271.543 129.572 271.722 129.691C271.9 129.81 272.133 129.904 272.421 129.973C272.708 130.043 273.025 130.102 273.372 130.152C273.729 130.191 274.081 130.256 274.428 130.345C274.775 130.434 275.092 130.558 275.38 130.717C275.677 130.865 275.915 131.079 276.093 131.356C276.272 131.634 276.361 131.996 276.361 132.442C276.361 132.937 276.212 133.369 275.915 133.735C275.627 134.102 275.216 134.39 274.681 134.598C274.145 134.796 273.506 134.895 272.762 134.895ZM281.694 134.895C280.812 134.895 280.038 134.722 279.374 134.375C278.72 134.018 278.209 133.532 277.843 132.917C277.486 132.303 277.307 131.604 277.307 130.821C277.307 130.028 277.481 129.329 277.828 128.724C278.185 128.11 278.67 127.629 279.285 127.282C279.909 126.935 280.618 126.762 281.411 126.762C282.184 126.762 282.873 126.93 283.478 127.267C284.083 127.604 284.559 128.08 284.906 128.695C285.253 129.309 285.426 130.033 285.426 130.865C285.426 130.945 285.421 131.034 285.411 131.133C285.411 131.232 285.406 131.326 285.396 131.416H278.779V130.181H284.415L283.686 130.568C283.696 130.112 283.602 129.711 283.404 129.364C283.206 129.017 282.933 128.744 282.586 128.546C282.249 128.348 281.857 128.248 281.411 128.248C280.955 128.248 280.554 128.348 280.207 128.546C279.87 128.744 279.602 129.022 279.404 129.379C279.216 129.726 279.121 130.137 279.121 130.613V130.91C279.121 131.386 279.23 131.807 279.449 132.174C279.667 132.541 279.974 132.823 280.37 133.022C280.767 133.22 281.223 133.319 281.738 133.319C282.184 133.319 282.586 133.25 282.943 133.111C283.3 132.972 283.617 132.754 283.894 132.457L284.891 133.601C284.534 134.018 284.083 134.34 283.538 134.568C283.002 134.786 282.388 134.895 281.694 134.895Z" fill="#3A5832"/>
<ellipse cx="803.413" cy="127.783" rx="41.3556" ry="17.1928" fill="#52714A"/>
<path d="M777.985 168.629C777.172 168.629 776.394 168.515 775.651 168.287C774.907 168.049 774.317 167.747 773.881 167.38L774.55 165.878C774.967 166.205 775.482 166.478 776.097 166.696C776.711 166.914 777.341 167.023 777.985 167.023C778.53 167.023 778.971 166.964 779.308 166.845C779.645 166.726 779.893 166.567 780.052 166.369C780.21 166.161 780.29 165.928 780.29 165.67C780.29 165.353 780.176 165.1 779.948 164.912C779.72 164.714 779.422 164.56 779.056 164.451C778.699 164.332 778.297 164.223 777.851 164.124C777.415 164.025 776.974 163.911 776.528 163.782C776.092 163.643 775.69 163.469 775.323 163.261C774.967 163.043 774.674 162.756 774.446 162.399C774.218 162.042 774.104 161.586 774.104 161.031C774.104 160.466 774.253 159.95 774.55 159.484C774.857 159.009 775.318 158.632 775.933 158.354C776.558 158.067 777.346 157.923 778.297 157.923C778.922 157.923 779.541 158.002 780.156 158.161C780.771 158.32 781.306 158.548 781.762 158.845L781.152 160.347C780.686 160.069 780.206 159.866 779.71 159.737C779.214 159.598 778.738 159.529 778.282 159.529C777.747 159.529 777.311 159.594 776.974 159.722C776.647 159.851 776.404 160.02 776.245 160.228C776.097 160.436 776.022 160.674 776.022 160.942C776.022 161.259 776.131 161.517 776.349 161.715C776.577 161.903 776.87 162.052 777.227 162.161C777.593 162.27 778 162.379 778.446 162.488C778.892 162.587 779.333 162.701 779.769 162.83C780.215 162.959 780.617 163.127 780.974 163.336C781.341 163.544 781.633 163.826 781.851 164.183C782.079 164.54 782.193 164.991 782.193 165.536C782.193 166.091 782.039 166.607 781.732 167.083C781.435 167.549 780.974 167.925 780.349 168.213C779.725 168.49 778.937 168.629 777.985 168.629ZM788.333 168.585C787.688 168.585 787.099 168.436 786.563 168.138C786.038 167.841 785.617 167.395 785.299 166.8C784.992 166.196 784.838 165.432 784.838 164.51C784.838 163.579 784.987 162.815 785.285 162.22C785.592 161.626 786.008 161.185 786.534 160.897C787.059 160.6 787.659 160.451 788.333 160.451C789.116 160.451 789.805 160.62 790.4 160.957C791.004 161.294 791.48 161.764 791.827 162.369C792.184 162.974 792.362 163.688 792.362 164.51C792.362 165.333 792.184 166.052 791.827 166.666C791.48 167.271 791.004 167.742 790.4 168.079C789.805 168.416 789.116 168.585 788.333 168.585ZM783.931 171.365V160.54H785.701V162.414L785.641 164.525L785.79 166.637V171.365H783.931ZM788.125 166.994C788.571 166.994 788.967 166.894 789.314 166.696C789.671 166.498 789.954 166.21 790.162 165.834C790.37 165.457 790.474 165.016 790.474 164.51C790.474 163.995 790.37 163.554 790.162 163.187C789.954 162.81 789.671 162.523 789.314 162.325C788.967 162.126 788.571 162.027 788.125 162.027C787.678 162.027 787.277 162.126 786.92 162.325C786.563 162.523 786.281 162.81 786.073 163.187C785.864 163.554 785.76 163.995 785.76 164.51C785.76 165.016 785.864 165.457 786.073 165.834C786.281 166.21 786.563 166.498 786.92 166.696C787.277 166.894 787.678 166.994 788.125 166.994ZM794.125 168.48V160.54H795.895V162.726L795.686 162.087C795.924 161.551 796.296 161.145 796.802 160.867C797.317 160.59 797.956 160.451 798.72 160.451V162.22C798.64 162.201 798.566 162.191 798.497 162.191C798.427 162.181 798.358 162.176 798.289 162.176C797.585 162.176 797.025 162.384 796.608 162.8C796.192 163.207 795.984 163.816 795.984 164.629V168.48H794.125ZM800.296 168.48V160.54H802.155V168.48H800.296ZM801.233 159.232C800.886 159.232 800.599 159.123 800.371 158.905C800.153 158.686 800.044 158.424 800.044 158.116C800.044 157.799 800.153 157.537 800.371 157.328C800.599 157.11 800.886 157.001 801.233 157.001C801.58 157.001 801.863 157.105 802.081 157.314C802.309 157.512 802.423 157.765 802.423 158.072C802.423 158.399 802.314 158.677 802.096 158.905C801.878 159.123 801.59 159.232 801.233 159.232ZM809.1 160.451C809.735 160.451 810.3 160.575 810.795 160.823C811.301 161.071 811.697 161.452 811.985 161.968C812.272 162.473 812.416 163.127 812.416 163.93V168.48H810.557V164.168C810.557 163.465 810.389 162.939 810.052 162.592C809.725 162.245 809.264 162.072 808.669 162.072C808.233 162.072 807.846 162.161 807.509 162.339C807.172 162.518 806.909 162.785 806.721 163.142C806.543 163.489 806.453 163.93 806.453 164.466V168.48H804.595V160.54H806.364V162.681L806.052 162.027C806.329 161.522 806.731 161.135 807.256 160.867C807.792 160.59 808.406 160.451 809.1 160.451ZM817.763 168.585C816.89 168.585 816.216 168.362 815.74 167.915C815.265 167.459 815.027 166.79 815.027 165.908V158.786H816.885V165.863C816.885 166.24 816.979 166.533 817.168 166.741C817.366 166.949 817.639 167.053 817.986 167.053C818.402 167.053 818.749 166.944 819.026 166.726L819.547 168.049C819.329 168.228 819.061 168.362 818.744 168.451C818.427 168.54 818.1 168.585 817.763 168.585ZM813.718 162.087V160.6H819.012V162.087H813.718ZM824.472 166.116V164.778L829.602 158.072H831.668L826.613 164.778L825.646 164.481H833.899V166.116H824.472ZM830.181 168.48V166.116L830.241 164.481V162.384H832.055V168.48H830.181Z" fill="#3A5832"/>
<ellipse cx="41.3556" cy="127.783" rx="41.3556" ry="17.1928" fill="#FFAFC0"/>
<path d="M15.466 169.559C14.6531 169.559 13.8749 169.445 13.1315 169.217C12.388 168.979 11.7982 168.677 11.362 168.31L12.0311 166.808C12.4475 167.135 12.963 167.408 13.5776 167.626C14.1922 167.844 14.8216 167.953 15.466 167.953C16.0112 167.953 16.4523 167.893 16.7894 167.775C17.1264 167.656 17.3742 167.497 17.5328 167.299C17.6914 167.091 17.7707 166.858 17.7707 166.6C17.7707 166.283 17.6567 166.03 17.4287 165.841C17.2007 165.643 16.9033 165.49 16.5366 165.381C16.1797 165.262 15.7782 165.153 15.3321 165.053C14.896 164.954 14.4549 164.84 14.0088 164.711C13.5726 164.573 13.1711 164.399 12.8043 164.191C12.4475 163.973 12.1551 163.685 11.9271 163.329C11.6991 162.972 11.5851 162.516 11.5851 161.961C11.5851 161.396 11.7338 160.88 12.0311 160.414C12.3384 159.938 12.7994 159.562 13.414 159.284C14.0385 158.997 14.8266 158.853 15.7782 158.853C16.4027 158.853 17.0223 158.932 17.6369 159.091C18.2515 159.249 18.7868 159.477 19.2428 159.775L18.6332 161.277C18.1673 160.999 17.6865 160.796 17.1908 160.667C16.6952 160.528 16.2194 160.459 15.7634 160.459C15.2281 160.459 14.7919 160.523 14.4549 160.652C14.1277 160.781 13.8849 160.949 13.7263 161.158C13.5776 161.366 13.5032 161.604 13.5032 161.871C13.5032 162.189 13.6123 162.446 13.8303 162.645C14.0583 162.833 14.3508 162.982 14.7076 163.091C15.0744 163.2 15.4808 163.309 15.9269 163.418C16.373 163.517 16.8141 163.631 17.2503 163.76C17.6964 163.889 18.0979 164.057 18.4547 164.265C18.8215 164.474 19.1139 164.756 19.332 165.113C19.56 165.47 19.674 165.921 19.674 166.466C19.674 167.021 19.5204 167.537 19.2131 168.012C18.9157 168.478 18.4547 168.855 17.8302 169.143C17.2057 169.42 16.4176 169.559 15.466 169.559ZM25.8137 169.514C25.1693 169.514 24.5795 169.366 24.0442 169.068C23.5188 168.771 23.0975 168.325 22.7803 167.73C22.473 167.125 22.3194 166.362 22.3194 165.44C22.3194 164.508 22.4681 163.745 22.7655 163.15C23.0728 162.555 23.4891 162.114 24.0145 161.827C24.5399 161.529 25.1396 161.381 25.8137 161.381C26.5968 161.381 27.2858 161.549 27.8805 161.886C28.4852 162.223 28.9611 162.694 29.308 163.299C29.6649 163.904 29.8433 164.617 29.8433 165.44C29.8433 166.263 29.6649 166.981 29.308 167.596C28.9611 168.201 28.4852 168.672 27.8805 169.009C27.2858 169.346 26.5968 169.514 25.8137 169.514ZM21.4123 172.295V161.47H23.1818V163.343L23.1223 165.455L23.271 167.566V172.295H21.4123ZM25.6055 167.923C26.0516 167.923 26.4481 167.824 26.7951 167.626C27.1519 167.428 27.4345 167.14 27.6426 166.763C27.8508 166.387 27.9549 165.946 27.9549 165.44C27.9549 164.925 27.8508 164.483 27.6426 164.117C27.4345 163.74 27.1519 163.452 26.7951 163.254C26.4481 163.056 26.0516 162.957 25.6055 162.957C25.1594 162.957 24.758 163.056 24.4011 163.254C24.0442 163.452 23.7617 163.74 23.5535 164.117C23.3454 164.483 23.2413 164.925 23.2413 165.44C23.2413 165.946 23.3454 166.387 23.5535 166.763C23.7617 167.14 24.0442 167.428 24.4011 167.626C24.758 167.824 25.1594 167.923 25.6055 167.923ZM31.606 169.41V161.47H33.3755V163.656L33.1673 163.016C33.4052 162.481 33.777 162.075 34.2825 161.797C34.798 161.519 35.4374 161.381 36.2007 161.381V163.15C36.1214 163.13 36.047 163.12 35.9776 163.12C35.9082 163.11 35.8389 163.106 35.7695 163.106C35.0656 163.106 34.5056 163.314 34.0892 163.73C33.6729 164.136 33.4647 164.746 33.4647 165.559V169.41H31.606ZM37.7774 169.41V161.47H39.6361V169.41H37.7774ZM38.7142 160.161C38.3672 160.161 38.0798 160.052 37.8518 159.834C37.6337 159.616 37.5246 159.353 37.5246 159.046C37.5246 158.729 37.6337 158.466 37.8518 158.258C38.0798 158.04 38.3672 157.931 38.7142 157.931C39.0611 157.931 39.3437 158.035 39.5617 158.243C39.7897 158.441 39.9037 158.694 39.9037 159.002C39.9037 159.329 39.7947 159.606 39.5766 159.834C39.3585 160.052 39.0711 160.161 38.7142 160.161ZM46.581 161.381C47.2155 161.381 47.7805 161.505 48.2761 161.752C48.7817 162 49.1782 162.382 49.4657 162.897C49.7532 163.403 49.8969 164.057 49.8969 164.86V169.41H48.0382V165.098C48.0382 164.394 47.8697 163.869 47.5327 163.522C47.2055 163.175 46.7446 163.001 46.1498 163.001C45.7137 163.001 45.327 163.091 44.99 163.269C44.653 163.448 44.3903 163.715 44.2019 164.072C44.0235 164.419 43.9343 164.86 43.9343 165.395V169.41H42.0756V161.47H43.8451V163.611L43.5328 162.957C43.8104 162.451 44.2118 162.065 44.7372 161.797C45.2725 161.519 45.8871 161.381 46.581 161.381ZM55.2435 169.514C54.3712 169.514 53.6971 169.291 53.2213 168.845C52.7455 168.389 52.5075 167.72 52.5075 166.838V159.715H54.3662V166.793C54.3662 167.17 54.4604 167.462 54.6487 167.67C54.847 167.879 55.1196 167.983 55.4666 167.983C55.8829 167.983 56.2299 167.874 56.5074 167.656L57.0278 168.979C56.8098 169.157 56.5421 169.291 56.2249 169.38C55.9077 169.47 55.5806 169.514 55.2435 169.514ZM51.199 163.016V161.529H56.4925V163.016H51.199ZM66.4431 169.559C65.6203 169.559 64.8768 169.351 64.2127 168.934C63.5584 168.518 63.0429 167.913 62.6663 167.12C62.2896 166.317 62.1012 165.346 62.1012 164.206C62.1012 163.066 62.2896 162.099 62.6663 161.306C63.0429 160.503 63.5584 159.894 64.2127 159.477C64.8768 159.061 65.6203 158.853 66.4431 158.853C67.2758 158.853 68.0192 159.061 68.6735 159.477C69.3278 159.894 69.8432 160.503 70.2199 161.306C70.6065 162.099 70.7998 163.066 70.7998 164.206C70.7998 165.346 70.6065 166.317 70.2199 167.12C69.8432 167.913 69.3278 168.518 68.6735 168.934C68.0192 169.351 67.2758 169.559 66.4431 169.559ZM66.4431 167.879C66.9288 167.879 67.3501 167.75 67.707 167.492C68.0639 167.224 68.3414 166.818 68.5397 166.273C68.7478 165.727 68.8519 165.039 68.8519 164.206C68.8519 163.363 68.7478 162.674 68.5397 162.139C68.3414 161.594 68.0639 161.192 67.707 160.935C67.3501 160.667 66.9288 160.533 66.4431 160.533C65.9772 160.533 65.5608 160.667 65.1941 160.935C64.8372 161.192 64.5547 161.594 64.3465 162.139C64.1482 162.674 64.0491 163.363 64.0491 164.206C64.0491 165.039 64.1482 165.727 64.3465 166.273C64.5547 166.818 64.8372 167.224 65.1941 167.492C65.5608 167.75 65.9772 167.879 66.4431 167.879ZM13.8194 182.002H15.3063V192.41H13.8194V182.002ZM7.84186 192.41H6.35491V182.002H7.84186V192.41ZM13.9532 187.771H7.69316V186.477H13.9532V187.771ZM23.1057 192.41V190.745L23.0313 190.433V187.592C23.0313 186.988 22.8529 186.522 22.496 186.195C22.1491 185.858 21.6237 185.689 20.9199 185.689C20.4539 185.689 19.9979 185.768 19.5519 185.927C19.1058 186.076 18.7291 186.279 18.4218 186.537L17.827 185.466C18.2334 185.139 18.7192 184.891 19.2842 184.723C19.8592 184.544 20.4589 184.455 21.0834 184.455C22.1639 184.455 22.9966 184.718 23.5815 185.243C24.1663 185.768 24.4588 186.571 24.4588 187.652V192.41H23.1057ZM20.5184 192.499C19.9335 192.499 19.418 192.4 18.972 192.202C18.5358 192.004 18.1988 191.731 17.9608 191.384C17.7229 191.027 17.604 190.626 17.604 190.18C17.604 189.753 17.7031 189.367 17.9014 189.02C18.1095 188.673 18.4416 188.395 18.8976 188.187C19.3635 187.979 19.988 187.875 20.7712 187.875H23.2692V188.901H20.8306C20.1169 188.901 19.6361 189.02 19.3883 189.258C19.1405 189.496 19.0166 189.783 19.0166 190.12C19.0166 190.507 19.1702 190.819 19.4775 191.057C19.7848 191.285 20.2111 191.399 20.7563 191.399C21.2916 191.399 21.7575 191.28 22.154 191.042C22.5604 190.804 22.8529 190.457 23.0313 190.001L23.3138 190.983C23.1255 191.449 22.7934 191.82 22.3176 192.098C21.8418 192.366 21.242 192.499 20.5184 192.499ZM30.5353 192.499C29.7323 192.499 29.0136 192.326 28.3792 191.979C27.7547 191.632 27.264 191.156 26.9071 190.551C26.5503 189.947 26.3718 189.253 26.3718 188.47C26.3718 187.687 26.5503 186.993 26.9071 186.388C27.264 185.783 27.7547 185.312 28.3792 184.975C29.0136 184.628 29.7323 184.455 30.5353 184.455C31.249 184.455 31.8834 184.599 32.4385 184.886C33.0036 185.164 33.4397 185.58 33.747 186.135L32.6616 186.834C32.4038 186.448 32.0866 186.165 31.7099 185.987C31.3432 185.798 30.9466 185.704 30.5204 185.704C30.0049 185.704 29.544 185.818 29.1375 186.046C28.7311 186.274 28.4089 186.596 28.171 187.013C27.9331 187.419 27.8142 187.905 27.8142 188.47C27.8142 189.035 27.9331 189.525 28.171 189.942C28.4089 190.358 28.7311 190.68 29.1375 190.908C29.544 191.136 30.0049 191.25 30.5204 191.25C30.9466 191.25 31.3432 191.161 31.7099 190.983C32.0866 190.794 32.4038 190.507 32.6616 190.12L33.747 190.804C33.4397 191.349 33.0036 191.771 32.4385 192.068C31.8834 192.356 31.249 192.499 30.5353 192.499ZM36.6533 190.507L36.6831 188.678L41.2182 184.529H42.9431L39.4636 187.949L38.6904 188.604L36.6533 190.507ZM35.4935 192.41V181.377H36.921V192.41H35.4935ZM41.5156 192.41L38.4228 188.574L39.3447 187.429L43.2702 192.41H41.5156ZM49.403 192.41V190.745L49.3287 190.433V187.592C49.3287 186.988 49.1502 186.522 48.7934 186.195C48.4464 185.858 47.921 185.689 47.2172 185.689C46.7513 185.689 46.2953 185.768 45.8492 185.927C45.4032 186.076 45.0265 186.279 44.7192 186.537L44.1244 185.466C44.5308 185.139 45.0166 184.891 45.5816 184.723C46.1565 184.544 46.7563 184.455 47.3808 184.455C48.4613 184.455 49.294 184.718 49.8789 185.243C50.4637 185.768 50.7561 186.571 50.7561 187.652V192.41H49.403ZM46.8158 192.499C46.2309 192.499 45.7154 192.4 45.2693 192.202C44.8332 192.004 44.4961 191.731 44.2582 191.384C44.0203 191.027 43.9013 190.626 43.9013 190.18C43.9013 189.753 44.0005 189.367 44.1987 189.02C44.4069 188.673 44.739 188.395 45.195 188.187C45.6609 187.979 46.2854 187.875 47.0685 187.875H49.5666V188.901H47.128C46.4143 188.901 45.9335 189.02 45.6857 189.258C45.4379 189.496 45.3139 189.783 45.3139 190.12C45.3139 190.507 45.4676 190.819 45.7749 191.057C46.0822 191.285 46.5085 191.399 47.0537 191.399C47.589 191.399 48.0549 191.28 48.4514 191.042C48.8578 190.804 49.1502 190.457 49.3287 190.001L49.6112 190.983C49.4229 191.449 49.0908 191.82 48.615 192.098C48.1391 192.366 47.5394 192.499 46.8158 192.499ZM56.104 192.499C55.311 192.499 54.6964 192.286 54.2602 191.86C53.824 191.434 53.606 190.824 53.606 190.031V182.805H55.0334V189.972C55.0334 190.398 55.1375 190.725 55.3457 190.953C55.5638 191.181 55.8711 191.295 56.2676 191.295C56.7137 191.295 57.0854 191.171 57.3828 190.923L57.8289 191.949C57.6108 192.138 57.3481 192.276 57.0408 192.366C56.7434 192.455 56.4312 192.499 56.104 192.499ZM52.2677 185.704V184.529H57.2936V185.704H52.2677ZM62.6686 192.499C61.8756 192.499 61.1718 192.326 60.5572 191.979C59.9426 191.632 59.4568 191.156 59.1 190.551C58.7431 189.937 58.5647 189.243 58.5647 188.47C58.5647 187.687 58.7431 186.993 59.1 186.388C59.4568 185.783 59.9426 185.312 60.5572 184.975C61.1718 184.628 61.8756 184.455 62.6686 184.455C63.4518 184.455 64.1506 184.628 64.7652 184.975C65.3897 185.312 65.8755 185.783 66.2224 186.388C66.5793 186.983 66.7577 187.677 66.7577 188.47C66.7577 189.253 66.5793 189.947 66.2224 190.551C65.8755 191.156 65.3897 191.632 64.7652 191.979C64.1506 192.326 63.4518 192.499 62.6686 192.499ZM62.6686 191.25C63.1742 191.25 63.6252 191.136 64.0218 190.908C64.4282 190.68 64.7454 190.358 64.9734 189.942C65.2014 189.516 65.3154 189.025 65.3154 188.47C65.3154 187.905 65.2014 187.419 64.9734 187.013C64.7454 186.596 64.4282 186.274 64.0218 186.046C63.6252 185.818 63.1742 185.704 62.6686 185.704C62.1631 185.704 61.712 185.818 61.3155 186.046C60.919 186.274 60.6018 186.596 60.3639 187.013C60.126 187.419 60.007 187.905 60.007 188.47C60.007 189.025 60.126 189.516 60.3639 189.942C60.6018 190.358 60.919 190.68 61.3155 190.908C61.712 191.136 62.1631 191.25 62.6686 191.25ZM72.9399 184.455C73.5843 184.455 74.1493 184.579 74.635 184.827C75.1307 185.075 75.5173 185.451 75.7948 185.957C76.0724 186.462 76.2112 187.102 76.2112 187.875V192.41H74.7837V188.039C74.7837 187.275 74.5954 186.7 74.2187 186.314C73.8519 185.927 73.3315 185.734 72.6574 185.734C72.1518 185.734 71.7107 185.833 71.334 186.031C70.9573 186.229 70.6649 186.522 70.4567 186.908C70.2585 187.295 70.1593 187.776 70.1593 188.351V192.41H68.7319V184.529H70.0999V186.656L69.8768 186.091C70.1346 185.575 70.5311 185.174 71.0664 184.886C71.6017 184.599 72.2262 184.455 72.9399 184.455Z" fill="#3A5832"/>
<ellipse cx="612.899" cy="71.0932" rx="41.3556" ry="17.1928" fill="#52714A"/>
<path d="M588.619 112.871C587.806 112.871 587.028 112.757 586.285 112.529C585.541 112.291 584.951 111.989 584.515 111.622L585.184 110.121C585.601 110.448 586.116 110.72 586.731 110.938C587.345 111.156 587.975 111.265 588.619 111.265C589.164 111.265 589.605 111.206 589.942 111.087C590.28 110.968 590.527 110.809 590.686 110.611C590.845 110.403 590.924 110.17 590.924 109.912C590.924 109.595 590.81 109.342 590.582 109.154C590.354 108.956 590.056 108.802 589.69 108.693C589.333 108.574 588.931 108.465 588.485 108.366C588.049 108.267 587.608 108.153 587.162 108.024C586.726 107.885 586.324 107.712 585.957 107.503C585.601 107.285 585.308 106.998 585.08 106.641C584.852 106.284 584.738 105.828 584.738 105.273C584.738 104.708 584.887 104.193 585.184 103.727C585.492 103.251 585.953 102.874 586.567 102.597C587.192 102.309 587.98 102.165 588.931 102.165C589.556 102.165 590.175 102.245 590.79 102.403C591.405 102.562 591.94 102.79 592.396 103.087L591.786 104.589C591.32 104.312 590.84 104.108 590.344 103.979C589.848 103.841 589.372 103.771 588.916 103.771C588.381 103.771 587.945 103.836 587.608 103.965C587.281 104.093 587.038 104.262 586.879 104.47C586.731 104.678 586.656 104.916 586.656 105.184C586.656 105.501 586.765 105.759 586.983 105.957C587.211 106.145 587.504 106.294 587.861 106.403C588.228 106.512 588.634 106.621 589.08 106.73C589.526 106.829 589.967 106.943 590.403 107.072C590.85 107.201 591.251 107.37 591.608 107.578C591.975 107.786 592.267 108.069 592.485 108.425C592.713 108.782 592.827 109.233 592.827 109.779C592.827 110.334 592.673 110.849 592.366 111.325C592.069 111.791 591.608 112.168 590.983 112.455C590.359 112.733 589.571 112.871 588.619 112.871ZM598.967 112.827C598.322 112.827 597.733 112.678 597.197 112.381C596.672 112.083 596.251 111.637 595.933 111.042C595.626 110.438 595.473 109.674 595.473 108.753C595.473 107.821 595.621 107.057 595.919 106.463C596.226 105.868 596.642 105.427 597.168 105.139C597.693 104.842 598.293 104.693 598.967 104.693C599.75 104.693 600.439 104.862 601.034 105.199C601.638 105.536 602.114 106.007 602.461 106.611C602.818 107.216 602.996 107.93 602.996 108.753C602.996 109.575 602.818 110.294 602.461 110.909C602.114 111.513 601.638 111.984 601.034 112.321C600.439 112.658 599.75 112.827 598.967 112.827ZM594.565 115.607V104.782H596.335V106.656L596.275 108.767L596.424 110.879V115.607H594.565ZM598.759 111.236C599.205 111.236 599.601 111.137 599.948 110.938C600.305 110.74 600.588 110.453 600.796 110.076C601.004 109.699 601.108 109.258 601.108 108.753C601.108 108.237 601.004 107.796 600.796 107.429C600.588 107.052 600.305 106.765 599.948 106.567C599.601 106.368 599.205 106.269 598.759 106.269C598.313 106.269 597.911 106.368 597.554 106.567C597.197 106.765 596.915 107.052 596.707 107.429C596.498 107.796 596.394 108.237 596.394 108.753C596.394 109.258 596.498 109.699 596.707 110.076C596.915 110.453 597.197 110.74 597.554 110.938C597.911 111.137 598.313 111.236 598.759 111.236ZM604.759 112.723V104.782H606.529V106.968L606.32 106.329C606.558 105.794 606.93 105.387 607.436 105.11C607.951 104.832 608.591 104.693 609.354 104.693V106.463C609.274 106.443 609.2 106.433 609.131 106.433C609.061 106.423 608.992 106.418 608.923 106.418C608.219 106.418 607.659 106.626 607.242 107.043C606.826 107.449 606.618 108.059 606.618 108.871V112.723H604.759ZM610.931 112.723V104.782H612.789V112.723H610.931ZM611.867 103.474C611.52 103.474 611.233 103.365 611.005 103.147C610.787 102.929 610.678 102.666 610.678 102.359C610.678 102.041 610.787 101.779 611.005 101.571C611.233 101.353 611.52 101.243 611.867 101.243C612.214 101.243 612.497 101.348 612.715 101.556C612.943 101.754 613.057 102.007 613.057 102.314C613.057 102.641 612.948 102.919 612.73 103.147C612.512 103.365 612.224 103.474 611.867 103.474ZM619.734 104.693C620.369 104.693 620.934 104.817 621.429 105.065C621.935 105.313 622.331 105.694 622.619 106.21C622.906 106.715 623.05 107.37 623.05 108.173V112.723H621.191V108.411C621.191 107.707 621.023 107.181 620.686 106.834C620.359 106.487 619.898 106.314 619.303 106.314C618.867 106.314 618.48 106.403 618.143 106.582C617.806 106.76 617.543 107.028 617.355 107.385C617.177 107.731 617.087 108.173 617.087 108.708V112.723H615.229V104.782H616.998V106.924L616.686 106.269C616.963 105.764 617.365 105.377 617.89 105.11C618.426 104.832 619.04 104.693 619.734 104.693ZM628.397 112.827C627.524 112.827 626.85 112.604 626.374 112.158C625.899 111.702 625.661 111.032 625.661 110.15V103.028H627.519V110.106C627.519 110.482 627.614 110.775 627.802 110.983C628 111.191 628.273 111.295 628.62 111.295C629.036 111.295 629.383 111.186 629.661 110.968L630.181 112.291C629.963 112.47 629.695 112.604 629.378 112.693C629.061 112.782 628.734 112.827 628.397 112.827ZM624.352 106.329V104.842H629.646V106.329H624.352ZM638.526 112.871C637.792 112.871 637.073 112.767 636.37 112.559C635.676 112.341 635.091 112.044 634.615 111.667L635.448 110.165C635.824 110.472 636.28 110.72 636.816 110.909C637.351 111.097 637.911 111.191 638.496 111.191C639.19 111.191 639.73 111.052 640.117 110.775C640.503 110.487 640.697 110.101 640.697 109.615C640.697 109.139 640.518 108.762 640.161 108.485C639.804 108.207 639.229 108.069 638.436 108.069H637.485V106.745L640.459 103.206L640.711 103.935H635.121V102.314H642.213V103.608L639.239 107.147L638.228 106.552H638.808C640.087 106.552 641.044 106.839 641.678 107.414C642.322 107.979 642.644 108.708 642.644 109.6C642.644 110.185 642.496 110.725 642.198 111.221C641.901 111.716 641.445 112.118 640.83 112.425C640.226 112.723 639.457 112.871 638.526 112.871Z" fill="#3A5832"/>
<rect x="90.1459" y="126.389" width="18.5868" height="3.71735" rx="1.85868" fill="#FFCE88"/>
<rect x="471.175" y="126.389" width="18.5868" height="3.71735" rx="1.85868" fill="#92BB87"/>
<rect x="851.274" y="126.648" width="18.5868" height="3.71735" rx="1.85868" fill="#92BB87"/>
<rect width="18.5868" height="3.71735" rx="1.85868" transform="matrix(-1 0 0 1 375.353 124.791)" fill="#FFCE88"/>
<rect width="18.5868" height="3.71735" rx="1.85868" transform="matrix(-1 0 0 1 756.382 124.791)" fill="#92BB87"/>
<rect x="119.946" y="122.07" width="18.5868" height="3.71735" rx="1.85868" transform="rotate(-35 119.946 122.07)" fill="#FFCE88"/>
<rect x="500.975" y="122.07" width="18.5868" height="3.71735" rx="1.85868" transform="rotate(-35 500.975 122.07)" fill="#92BB87"/>
<rect x="881.075" y="122.33" width="18.5868" height="3.71735" rx="1.85868" transform="rotate(-35 881.075 122.33)" fill="#92BB87"/>
<rect width="18.5868" height="3.71735" rx="1.85868" transform="matrix(-0.819152 -0.573576 -0.573576 0.819152 345.552 120.473)" fill="#FFCE88"/>
<rect width="18.5868" height="3.71735" rx="1.85868" transform="matrix(-0.819152 -0.573576 -0.573576 0.819152 726.581 120.473)" fill="#92BB87"/>
<rect x="142.542" y="101.965" width="18.5868" height="3.71735" rx="1.85868" transform="rotate(-45 142.542 101.965)" fill="#FFCE88"/>
<rect x="523.571" y="101.965" width="18.5868" height="3.71735" rx="1.85868" transform="rotate(-45 523.571 101.965)" fill="#92BB87"/>
<rect x="903.67" y="102.227" width="18.5868" height="3.71735" rx="1.85868" transform="rotate(-45 903.67 102.227)" fill="#92BB87"/>
<rect width="18.5868" height="3.71735" rx="1.85868" transform="matrix(-0.707107 -0.707107 -0.707107 0.707107 322.957 100.367)" fill="#FFCE88"/>
<rect width="18.5868" height="3.71735" rx="1.85868" transform="matrix(-0.707107 -0.707107 -0.707107 0.707107 703.986 100.367)" fill="#92BB87"/>
<rect x="165.493" y="81.9414" width="18.5868" height="3.71735" rx="1.85868" transform="rotate(-25 165.493 81.9414)" fill="#FFCE88"/>
<rect x="546.521" y="81.9414" width="18.5868" height="3.71735" rx="1.85868" transform="rotate(-25 546.521 81.9414)" fill="#92BB87"/>
<rect x="926.621" y="82.2012" width="18.5868" height="3.71735" rx="1.85868" transform="rotate(-25 926.621 82.2012)" fill="#92BB87"/>
<rect width="18.5868" height="3.71735" rx="1.85868" transform="matrix(-0.906308 -0.422618 -0.422618 0.906308 300.006 80.3418)" fill="#FFCE88"/>
<rect width="18.5868" height="3.71735" rx="1.85868" transform="matrix(-0.906308 -0.422618 -0.422618 0.906308 681.035 80.3418)" fill="#92BB87"/>
<path d="M969.633 111.94C968.82 111.94 968.042 111.826 967.299 111.598C966.555 111.36 965.965 111.057 965.529 110.691L966.198 109.189C966.615 109.516 967.13 109.789 967.745 110.007C968.359 110.225 968.989 110.334 969.633 110.334C970.178 110.334 970.619 110.274 970.957 110.155C971.294 110.036 971.541 109.878 971.7 109.68C971.859 109.471 971.938 109.238 971.938 108.981C971.938 108.663 971.824 108.411 971.596 108.222C971.368 108.024 971.071 107.87 970.704 107.761C970.347 107.642 969.945 107.533 969.499 107.434C969.063 107.335 968.622 107.221 968.176 107.092C967.74 106.953 967.338 106.78 966.972 106.572C966.615 106.354 966.322 106.066 966.094 105.709C965.866 105.353 965.752 104.897 965.752 104.341C965.752 103.776 965.901 103.261 966.198 102.795C966.506 102.319 966.967 101.943 967.581 101.665C968.206 101.377 968.994 101.234 969.945 101.234C970.57 101.234 971.189 101.313 971.804 101.472C972.419 101.63 972.954 101.858 973.41 102.156L972.8 103.657C972.334 103.38 971.854 103.177 971.358 103.048C970.862 102.909 970.387 102.84 969.931 102.84C969.395 102.84 968.959 102.904 968.622 103.033C968.295 103.162 968.052 103.33 967.893 103.538C967.745 103.747 967.67 103.985 967.67 104.252C967.67 104.569 967.779 104.827 967.998 105.025C968.226 105.214 968.518 105.362 968.875 105.472C969.242 105.581 969.648 105.69 970.094 105.799C970.54 105.898 970.981 106.012 971.417 106.141C971.864 106.27 972.265 106.438 972.622 106.646C972.989 106.854 973.281 107.137 973.499 107.494C973.727 107.851 973.841 108.302 973.841 108.847C973.841 109.402 973.688 109.917 973.38 110.393C973.083 110.859 972.622 111.236 971.997 111.523C971.373 111.801 970.585 111.94 969.633 111.94ZM979.981 111.895C979.337 111.895 978.747 111.746 978.211 111.449C977.686 111.152 977.265 110.706 976.948 110.111C976.64 109.506 976.487 108.743 976.487 107.821C976.487 106.889 976.635 106.126 976.933 105.531C977.24 104.936 977.656 104.495 978.182 104.208C978.707 103.91 979.307 103.762 979.981 103.762C980.764 103.762 981.453 103.93 982.048 104.267C982.652 104.604 983.128 105.075 983.475 105.68C983.832 106.284 984.01 106.998 984.01 107.821C984.01 108.644 983.832 109.362 983.475 109.977C983.128 110.582 982.652 111.053 982.048 111.39C981.453 111.727 980.764 111.895 979.981 111.895ZM975.58 114.676V103.851H977.349V105.724L977.289 107.836L977.438 109.947V114.676H975.58ZM979.773 110.304C980.219 110.304 980.615 110.205 980.962 110.007C981.319 109.808 981.602 109.521 981.81 109.144C982.018 108.768 982.122 108.326 982.122 107.821C982.122 107.305 982.018 106.864 981.81 106.498C981.602 106.121 981.319 105.833 980.962 105.635C980.615 105.437 980.219 105.338 979.773 105.338C979.327 105.338 978.925 105.437 978.568 105.635C978.211 105.833 977.929 106.121 977.721 106.498C977.513 106.864 977.408 107.305 977.408 107.821C977.408 108.326 977.513 108.768 977.721 109.144C977.929 109.521 978.211 109.808 978.568 110.007C978.925 110.205 979.327 110.304 979.773 110.304ZM985.773 111.791V103.851H987.543V106.037L987.334 105.397C987.572 104.862 987.944 104.455 988.45 104.178C988.965 103.9 989.605 103.762 990.368 103.762V105.531C990.289 105.511 990.214 105.501 990.145 105.501C990.075 105.491 990.006 105.486 989.937 105.486C989.233 105.486 988.673 105.695 988.256 106.111C987.84 106.517 987.632 107.127 987.632 107.94V111.791H985.773ZM991.945 111.791V103.851H993.803V111.791H991.945ZM992.881 102.542C992.534 102.542 992.247 102.433 992.019 102.215C991.801 101.997 991.692 101.734 991.692 101.427C991.692 101.11 991.801 100.847 992.019 100.639C992.247 100.421 992.534 100.312 992.881 100.312C993.228 100.312 993.511 100.416 993.729 100.624C993.957 100.822 994.071 101.075 994.071 101.382C994.071 101.71 993.962 101.987 993.744 102.215C993.526 102.433 993.238 102.542 992.881 102.542ZM1000.75 103.762C1001.38 103.762 1001.95 103.885 1002.44 104.133C1002.95 104.381 1003.35 104.763 1003.63 105.278C1003.92 105.784 1004.06 106.438 1004.06 107.241V111.791H1002.21V107.479C1002.21 106.775 1002.04 106.25 1001.7 105.903C1001.37 105.556 1000.91 105.382 1000.32 105.382C999.881 105.382 999.494 105.472 999.157 105.65C998.82 105.828 998.557 106.096 998.369 106.453C998.191 106.8 998.101 107.241 998.101 107.776V111.791H996.243V103.851H998.012V105.992L997.7 105.338C997.978 104.832 998.379 104.446 998.904 104.178C999.44 103.9 1000.05 103.762 1000.75 103.762ZM1009.41 111.895C1008.54 111.895 1007.86 111.672 1007.39 111.226C1006.91 110.77 1006.67 110.101 1006.67 109.219V102.096H1008.53V109.174C1008.53 109.551 1008.63 109.843 1008.82 110.051C1009.01 110.259 1009.29 110.364 1009.63 110.364C1010.05 110.364 1010.4 110.255 1010.67 110.036L1011.2 111.36C1010.98 111.538 1010.71 111.672 1010.39 111.761C1010.07 111.85 1009.75 111.895 1009.41 111.895ZM1005.37 105.397V103.91H1010.66V105.397H1005.37ZM1019.72 111.94C1018.98 111.94 1018.27 111.836 1017.56 111.627C1016.87 111.409 1016.28 111.112 1015.81 110.735L1016.63 109.233C1017 109.541 1017.46 109.789 1017.99 109.977C1018.54 110.165 1019.1 110.259 1019.69 110.259C1020.37 110.259 1020.91 110.116 1021.29 109.828C1021.69 109.541 1021.89 109.154 1021.89 108.668C1021.89 108.341 1021.8 108.054 1021.64 107.806C1021.48 107.558 1021.19 107.37 1020.77 107.241C1020.37 107.112 1019.81 107.048 1019.09 107.048H1016.58L1017.12 101.382H1023.23V103.003H1017.83L1018.84 102.081L1018.44 106.319L1017.43 105.412H1019.52C1020.56 105.412 1021.38 105.551 1022.01 105.828C1022.64 106.096 1023.1 106.473 1023.39 106.958C1023.69 107.434 1023.84 107.979 1023.84 108.594C1023.84 109.199 1023.69 109.754 1023.39 110.259C1023.09 110.765 1022.64 111.171 1022.02 111.479C1021.42 111.786 1020.65 111.94 1019.72 111.94Z" fill="#3A5832"/>
<ellipse cx="993.927" cy="71.0912" rx="41.3556" ry="17.1928" fill="#52714A"/>
<rect x="989.744" y="1.85742" width="8.36405" height="62.2657" rx="2.78802" fill="#92BB87"/>
<path d="M1025.81 18.0029C1027.11 18.709 1027.1 20.5776 1025.8 21.2753L1000.16 34.9819C998.924 35.6452 997.425 34.7436 997.43 33.3369L997.518 5.76001C997.522 4.35335 999.027 3.4613 1000.26 4.13255L1025.81 18.0029Z" fill="#52714A"/>
<path d="M411.84 122.448C412.122 123.887 410.388 124.837 409.326 123.826L391.422 106.78C390.992 106.37 390.843 105.744 391.043 105.184L400.458 78.8228C400.972 77.3825 403.058 77.5391 403.352 79.0401L411.84 122.448Z" fill="#D8633B"/>
<path fill-rule="evenodd" clip-rule="evenodd" d="M400.458 78.8232C400.973 77.3829 403.058 77.5391 403.352 79.04L406.581 95.5508H394.484L400.458 78.8232Z" fill="#FAE0BE"/>
<path d="M415.163 70.7158C418.889 62.9232 429.983 62.9232 433.709 70.7158L453.898 112.932C457.16 119.755 452.187 127.646 444.624 127.646H404.248C396.685 127.646 391.712 119.755 394.974 112.932L415.163 70.7158Z" fill="#DD704B"/>
<path d="M415.433 100.347C419.171 92.5919 430.215 92.5919 433.953 100.347L440.066 113.032C443.355 119.857 438.382 127.774 430.806 127.774H418.58C411.004 127.774 406.031 119.857 409.32 113.032L415.433 100.347Z" fill="#FAE0BE"/>
<path d="M424.791 86.8639C424.418 87.0956 423.945 87.0956 423.571 86.8639L396.203 69.8971C395.862 69.6859 395.655 69.3136 395.655 68.9128V25.5348C395.655 24.3354 397.254 23.927 397.829 24.9795L406.222 40.34C406.425 40.7116 406.814 40.9428 407.238 40.9428H441.125C441.548 40.9428 441.938 40.7116 442.141 40.34L450.533 24.9795C451.108 23.927 452.708 24.3354 452.708 25.5348L452.708 68.9128C452.708 69.3136 452.5 69.6859 452.16 69.8971L424.791 86.8639Z" fill="url(#paint0_linear_1248_3663)"/>
<path fill-rule="evenodd" clip-rule="evenodd" d="M424.79 86.8649C424.416 87.0966 423.944 87.0966 423.57 86.8649L399.241 71.783C398.251 71.1688 398.686 69.6406 399.852 69.6406H448.509C449.674 69.6406 450.11 71.1688 449.119 71.783L424.79 86.8649Z" fill="url(#paint1_linear_1248_3663)"/>
<rect x="420.205" y="67.5547" width="8.10659" height="3.93749" rx="1.15808" fill="url(#paint2_linear_1248_3663)"/>
<defs>
<linearGradient id="paint0_linear_1248_3663" x1="424.181" y1="20.9998" x2="424.181" y2="87.2422" gradientUnits="userSpaceOnUse">
<stop stop-color="#D54310"/>
<stop offset="1" stop-color="#D27B5D"/>
</linearGradient>
<linearGradient id="paint1_linear_1248_3663" x1="424.18" y1="69.6406" x2="424.18" y2="87.0387" gradientUnits="userSpaceOnUse">
<stop stop-color="#FFEACF"/>
<stop offset="1" stop-color="#FAE0BE"/>
</linearGradient>
<linearGradient id="paint2_linear_1248_3663" x1="424.258" y1="67.5547" x2="424.258" y2="71.4922" gradientUnits="userSpaceOnUse">
<stop stop-color="#39393F"/>
<stop offset="1" stop-color="#9695A5"/>
</linearGradient>
</defs>
</svg>
