<svg width="1036" height="235" viewBox="0 0 1036 235" fill="none" xmlns="http://www.w3.org/2000/svg">
<ellipse cx="422.384" cy="162.783" rx="41.3556" ry="17.1928" fill="#FFAFC0"/>
<path d="M398.605 203.63C397.792 203.63 397.014 203.516 396.27 203.288C395.527 203.05 394.937 202.748 394.501 202.381L395.17 200.879C395.586 201.206 396.102 201.479 396.716 201.697C397.331 201.915 397.96 202.024 398.605 202.024C399.15 202.024 399.591 201.965 399.928 201.846C400.265 201.727 400.513 201.568 400.672 201.37C400.83 201.162 400.91 200.929 400.91 200.671C400.91 200.354 400.796 200.101 400.568 199.913C400.34 199.715 400.042 199.561 399.675 199.452C399.319 199.333 398.917 199.224 398.471 199.125C398.035 199.026 397.594 198.912 397.148 198.783C396.711 198.644 396.31 198.47 395.943 198.262C395.586 198.044 395.294 197.757 395.066 197.4C394.838 197.043 394.724 196.587 394.724 196.032C394.724 195.467 394.873 194.951 395.17 194.485C395.477 194.01 395.938 193.633 396.553 193.355C397.177 193.068 397.965 192.924 398.917 192.924C399.542 192.924 400.161 193.003 400.776 193.162C401.39 193.321 401.926 193.549 402.382 193.846L401.772 195.348C401.306 195.07 400.825 194.867 400.33 194.738C399.834 194.599 399.358 194.53 398.902 194.53C398.367 194.53 397.931 194.594 397.594 194.723C397.267 194.852 397.024 195.021 396.865 195.229C396.716 195.437 396.642 195.675 396.642 195.943C396.642 196.26 396.751 196.518 396.969 196.716C397.197 196.904 397.49 197.053 397.846 197.162C398.213 197.271 398.62 197.38 399.066 197.489C399.512 197.588 399.953 197.702 400.389 197.831C400.835 197.96 401.237 198.128 401.594 198.337C401.96 198.545 402.253 198.827 402.471 199.184C402.699 199.541 402.813 199.992 402.813 200.537C402.813 201.092 402.659 201.608 402.352 202.084C402.055 202.55 401.594 202.926 400.969 203.214C400.345 203.491 399.556 203.63 398.605 203.63ZM408.953 203.586C408.308 203.586 407.718 203.437 407.183 203.139C406.658 202.842 406.236 202.396 405.919 201.801C405.612 201.197 405.458 200.433 405.458 199.511C405.458 198.579 405.607 197.816 405.904 197.221C406.212 196.627 406.628 196.186 407.153 195.898C407.679 195.601 408.278 195.452 408.953 195.452C409.736 195.452 410.425 195.62 411.019 195.958C411.624 196.295 412.1 196.765 412.447 197.37C412.804 197.975 412.982 198.689 412.982 199.511C412.982 200.334 412.804 201.053 412.447 201.667C412.1 202.272 411.624 202.743 411.019 203.08C410.425 203.417 409.736 203.586 408.953 203.586ZM404.551 206.366V195.541H406.321V197.415L406.261 199.526L406.41 201.638V206.366H404.551ZM408.744 201.995C409.19 201.995 409.587 201.895 409.934 201.697C410.291 201.499 410.573 201.211 410.781 200.835C410.99 200.458 411.094 200.017 411.094 199.511C411.094 198.996 410.99 198.555 410.781 198.188C410.573 197.811 410.291 197.524 409.934 197.326C409.587 197.127 409.19 197.028 408.744 197.028C408.298 197.028 407.897 197.127 407.54 197.326C407.183 197.524 406.901 197.811 406.692 198.188C406.484 198.555 406.38 198.996 406.38 199.511C406.38 200.017 406.484 200.458 406.692 200.835C406.901 201.211 407.183 201.499 407.54 201.697C407.897 201.895 408.298 201.995 408.744 201.995ZM414.745 203.481V195.541H416.514V197.727L416.306 197.088C416.544 196.552 416.916 196.146 417.421 195.868C417.937 195.591 418.576 195.452 419.34 195.452V197.221C419.26 197.202 419.186 197.192 419.116 197.192C419.047 197.182 418.978 197.177 418.908 197.177C418.204 197.177 417.644 197.385 417.228 197.801C416.812 198.208 416.604 198.817 416.604 199.63V203.481H414.745ZM420.916 203.481V195.541H422.775V203.481H420.916ZM421.853 194.233C421.506 194.233 421.219 194.124 420.991 193.906C420.773 193.687 420.663 193.425 420.663 193.117C420.663 192.8 420.773 192.538 420.991 192.329C421.219 192.111 421.506 192.002 421.853 192.002C422.2 192.002 422.483 192.106 422.701 192.315C422.929 192.513 423.043 192.766 423.043 193.073C423.043 193.4 422.934 193.678 422.715 193.906C422.497 194.124 422.21 194.233 421.853 194.233ZM429.72 195.452C430.354 195.452 430.919 195.576 431.415 195.824C431.921 196.072 432.317 196.453 432.605 196.969C432.892 197.474 433.036 198.128 433.036 198.931V203.481H431.177V199.169C431.177 198.465 431.009 197.94 430.672 197.593C430.344 197.246 429.883 197.073 429.289 197.073C428.852 197.073 428.466 197.162 428.129 197.34C427.792 197.519 427.529 197.786 427.341 198.143C427.162 198.49 427.073 198.931 427.073 199.467V203.481H425.214V195.541H426.984V197.682L426.672 197.028C426.949 196.523 427.351 196.136 427.876 195.868C428.411 195.591 429.026 195.452 429.72 195.452ZM438.382 203.586C437.51 203.586 436.836 203.362 436.36 202.916C435.884 202.46 435.646 201.791 435.646 200.909V193.787H437.505V200.864C437.505 201.241 437.599 201.534 437.788 201.742C437.986 201.95 438.258 202.054 438.605 202.054C439.022 202.054 439.369 201.945 439.646 201.727L440.167 203.05C439.949 203.229 439.681 203.362 439.364 203.452C439.047 203.541 438.719 203.586 438.382 203.586ZM434.338 197.088V195.601H439.631V197.088H434.338ZM445.106 203.481V202.188L449.24 198.262C449.587 197.935 449.845 197.648 450.013 197.4C450.182 197.152 450.291 196.924 450.34 196.716C450.4 196.498 450.429 196.295 450.429 196.106C450.429 195.63 450.266 195.264 449.939 195.006C449.612 194.738 449.131 194.604 448.496 194.604C447.991 194.604 447.53 194.694 447.114 194.872C446.707 195.05 446.355 195.323 446.058 195.69L444.705 194.649C445.111 194.104 445.656 193.683 446.34 193.385C447.034 193.078 447.808 192.924 448.66 192.924C449.413 192.924 450.068 193.048 450.623 193.296C451.188 193.534 451.619 193.876 451.916 194.322C452.224 194.768 452.377 195.298 452.377 195.913C452.377 196.25 452.333 196.587 452.244 196.924C452.154 197.251 451.986 197.598 451.738 197.965C451.49 198.332 451.128 198.743 450.653 199.199L447.099 202.574L446.697 201.846H452.779V203.481H445.106ZM375.622 226.481V216.073H377.555V226.481H375.622ZM383.553 226.586C382.79 226.586 382.101 226.417 381.486 226.08C380.881 225.733 380.405 225.257 380.059 224.653C379.712 224.048 379.538 223.334 379.538 222.511C379.538 221.689 379.712 220.975 380.059 220.37C380.405 219.765 380.881 219.295 381.486 218.958C382.101 218.62 382.79 218.452 383.553 218.452C384.217 218.452 384.812 218.601 385.337 218.898C385.863 219.186 386.279 219.627 386.586 220.221C386.894 220.816 387.047 221.579 387.047 222.511C387.047 223.433 386.898 224.197 386.601 224.801C386.304 225.396 385.892 225.842 385.367 226.139C384.842 226.437 384.237 226.586 383.553 226.586ZM383.776 224.995C384.222 224.995 384.618 224.895 384.965 224.697C385.322 224.499 385.605 224.211 385.813 223.835C386.031 223.458 386.14 223.017 386.14 222.511C386.14 221.996 386.031 221.555 385.813 221.188C385.605 220.811 385.322 220.524 384.965 220.326C384.618 220.127 384.222 220.028 383.776 220.028C383.33 220.028 382.928 220.127 382.571 220.326C382.225 220.524 381.942 220.811 381.724 221.188C381.516 221.555 381.412 221.996 381.412 222.511C381.412 223.017 381.516 223.458 381.724 223.835C381.942 224.211 382.225 224.499 382.571 224.697C382.928 224.895 383.33 224.995 383.776 224.995ZM386.185 226.481V224.608L386.259 222.496L386.11 220.385V215.448H387.954V226.481H386.185ZM394.133 226.586C393.251 226.586 392.477 226.412 391.813 226.065C391.159 225.708 390.648 225.223 390.282 224.608C389.925 223.993 389.746 223.294 389.746 222.511C389.746 221.718 389.92 221.019 390.267 220.415C390.624 219.8 391.109 219.319 391.724 218.972C392.348 218.625 393.057 218.452 393.85 218.452C394.623 218.452 395.312 218.62 395.917 218.958C396.522 219.295 396.998 219.77 397.345 220.385C397.692 221 397.865 221.723 397.865 222.556C397.865 222.635 397.86 222.724 397.85 222.824C397.85 222.923 397.845 223.017 397.835 223.106H391.218V221.872H396.854L396.125 222.259C396.135 221.803 396.041 221.401 395.843 221.054C395.645 220.707 395.372 220.435 395.025 220.236C394.688 220.038 394.296 219.939 393.85 219.939C393.394 219.939 392.993 220.038 392.646 220.236C392.309 220.435 392.041 220.712 391.843 221.069C391.655 221.416 391.56 221.827 391.56 222.303V222.601C391.56 223.076 391.669 223.498 391.888 223.864C392.106 224.231 392.413 224.514 392.809 224.712C393.206 224.91 393.662 225.009 394.177 225.009C394.623 225.009 395.025 224.94 395.382 224.801C395.739 224.662 396.056 224.444 396.333 224.147L397.33 225.292C396.973 225.708 396.522 226.03 395.977 226.258C395.441 226.476 394.827 226.586 394.133 226.586ZM404.325 226.481V224.876L404.221 224.534V221.723C404.221 221.178 404.057 220.757 403.73 220.459C403.403 220.152 402.907 219.998 402.243 219.998C401.797 219.998 401.356 220.068 400.92 220.207C400.493 220.345 400.131 220.539 399.834 220.786L399.105 219.433C399.532 219.106 400.037 218.863 400.622 218.705C401.217 218.536 401.831 218.452 402.466 218.452C403.616 218.452 404.503 218.73 405.128 219.285C405.762 219.83 406.079 220.677 406.079 221.827V226.481H404.325ZM401.827 226.586C401.232 226.586 400.711 226.486 400.265 226.288C399.819 226.08 399.472 225.797 399.224 225.441C398.986 225.074 398.868 224.662 398.868 224.206C398.868 223.76 398.972 223.359 399.18 223.002C399.398 222.645 399.75 222.363 400.236 222.154C400.721 221.946 401.366 221.842 402.169 221.842H404.473V223.076H402.302C401.668 223.076 401.242 223.18 401.024 223.389C400.806 223.587 400.696 223.835 400.696 224.132C400.696 224.469 400.83 224.737 401.098 224.935C401.366 225.133 401.737 225.232 402.213 225.232C402.669 225.232 403.076 225.128 403.432 224.92C403.799 224.712 404.062 224.405 404.221 223.998L404.533 225.113C404.354 225.579 404.032 225.941 403.566 226.199C403.11 226.457 402.53 226.586 401.827 226.586ZM411.453 226.586C410.581 226.586 409.907 226.362 409.431 225.916C408.955 225.46 408.717 224.791 408.717 223.909V216.787H410.576V223.864C410.576 224.241 410.67 224.534 410.859 224.742C411.057 224.95 411.329 225.054 411.676 225.054C412.093 225.054 412.44 224.945 412.717 224.727L413.238 226.05C413.02 226.229 412.752 226.362 412.435 226.452C412.117 226.541 411.79 226.586 411.453 226.586ZM407.409 220.088V218.601H412.702V220.088H407.409ZM414.767 226.481V218.541H416.625V226.481H414.767ZM415.703 217.233C415.356 217.233 415.069 217.124 414.841 216.906C414.623 216.687 414.514 216.425 414.514 216.117C414.514 215.8 414.623 215.538 414.841 215.329C415.069 215.111 415.356 215.002 415.703 215.002C416.05 215.002 416.333 215.106 416.551 215.315C416.779 215.513 416.893 215.766 416.893 216.073C416.893 216.4 416.784 216.678 416.566 216.906C416.348 217.124 416.06 217.233 415.703 217.233ZM422.633 226.586C421.821 226.586 421.097 226.412 420.463 226.065C419.828 225.708 419.328 225.223 418.961 224.608C418.594 223.993 418.411 223.294 418.411 222.511C418.411 221.718 418.594 221.019 418.961 220.415C419.328 219.8 419.828 219.319 420.463 218.972C421.097 218.625 421.821 218.452 422.633 218.452C423.456 218.452 424.185 218.625 424.819 218.972C425.464 219.319 425.964 219.795 426.321 220.4C426.688 221.005 426.871 221.708 426.871 222.511C426.871 223.294 426.688 223.993 426.321 224.608C425.964 225.223 425.464 225.708 424.819 226.065C424.185 226.412 423.456 226.586 422.633 226.586ZM422.633 224.995C423.089 224.995 423.496 224.895 423.853 224.697C424.21 224.499 424.487 224.211 424.685 223.835C424.894 223.458 424.998 223.017 424.998 222.511C424.998 221.996 424.894 221.555 424.685 221.188C424.487 220.811 424.21 220.524 423.853 220.326C423.496 220.127 423.094 220.028 422.648 220.028C422.192 220.028 421.786 220.127 421.429 220.326C421.082 220.524 420.805 220.811 420.596 221.188C420.388 221.555 420.284 221.996 420.284 222.511C420.284 223.017 420.388 223.458 420.596 223.835C420.805 224.211 421.082 224.499 421.429 224.697C421.786 224.895 422.187 224.995 422.633 224.995ZM433.154 218.452C433.789 218.452 434.354 218.576 434.849 218.824C435.355 219.072 435.751 219.453 436.039 219.969C436.326 220.474 436.47 221.128 436.47 221.931V226.481H434.611V222.169C434.611 221.465 434.443 220.94 434.106 220.593C433.779 220.246 433.318 220.073 432.723 220.073C432.287 220.073 431.9 220.162 431.563 220.34C431.226 220.519 430.963 220.786 430.775 221.143C430.597 221.49 430.507 221.931 430.507 222.467V226.481H428.649V218.541H430.418V220.682L430.106 220.028C430.383 219.523 430.785 219.136 431.31 218.868C431.846 218.591 432.46 218.452 433.154 218.452ZM443.19 226.481V218.095C443.19 217.262 443.433 216.598 443.919 216.103C444.414 215.597 445.118 215.344 446.03 215.344C446.357 215.344 446.664 215.379 446.952 215.448C447.249 215.518 447.497 215.627 447.695 215.775L447.19 217.173C447.051 217.064 446.892 216.985 446.714 216.935C446.536 216.876 446.352 216.846 446.164 216.846C445.777 216.846 445.485 216.955 445.287 217.173C445.088 217.381 444.989 217.699 444.989 218.125V219.017L445.049 219.85V226.481H443.19ZM441.881 220.088V218.601H447.175V220.088H441.881ZM453.173 226.481V224.876L453.069 224.534V221.723C453.069 221.178 452.905 220.757 452.578 220.459C452.251 220.152 451.755 219.998 451.091 219.998C450.645 219.998 450.204 220.068 449.768 220.207C449.342 220.345 448.98 220.539 448.682 220.786L447.954 219.433C448.38 219.106 448.886 218.863 449.47 218.705C450.065 218.536 450.68 218.452 451.314 218.452C452.464 218.452 453.351 218.73 453.976 219.285C454.61 219.83 454.928 220.677 454.928 221.827V226.481H453.173ZM450.675 226.586C450.08 226.586 449.56 226.486 449.114 226.288C448.668 226.08 448.321 225.797 448.073 225.441C447.835 225.074 447.716 224.662 447.716 224.206C447.716 223.76 447.82 223.359 448.028 223.002C448.246 222.645 448.598 222.363 449.084 222.154C449.57 221.946 450.214 221.842 451.017 221.842H453.322V223.076H451.151C450.516 223.076 450.09 223.18 449.872 223.389C449.654 223.587 449.545 223.835 449.545 224.132C449.545 224.469 449.679 224.737 449.946 224.935C450.214 225.133 450.586 225.232 451.062 225.232C451.517 225.232 451.924 225.128 452.281 224.92C452.648 224.712 452.91 224.405 453.069 223.998L453.381 225.113C453.203 225.579 452.881 225.941 452.415 226.199C451.959 226.457 451.379 226.586 450.675 226.586ZM459.766 226.586C459.102 226.586 458.463 226.501 457.848 226.333C457.244 226.154 456.763 225.941 456.406 225.693L457.12 224.281C457.476 224.509 457.903 224.697 458.398 224.846C458.894 224.995 459.39 225.069 459.885 225.069C460.47 225.069 460.891 224.99 461.149 224.831C461.417 224.672 461.551 224.459 461.551 224.192C461.551 223.973 461.461 223.81 461.283 223.701C461.105 223.582 460.872 223.493 460.584 223.433C460.297 223.374 459.975 223.319 459.618 223.27C459.271 223.22 458.919 223.156 458.562 223.076C458.215 222.987 457.898 222.863 457.61 222.705C457.323 222.536 457.09 222.313 456.911 222.035C456.733 221.758 456.644 221.391 456.644 220.935C456.644 220.43 456.788 219.993 457.075 219.627C457.362 219.25 457.764 218.962 458.279 218.764C458.805 218.556 459.424 218.452 460.138 218.452C460.673 218.452 461.214 218.511 461.759 218.63C462.304 218.749 462.755 218.918 463.112 219.136L462.398 220.549C462.022 220.321 461.64 220.167 461.253 220.088C460.877 219.998 460.5 219.954 460.123 219.954C459.558 219.954 459.137 220.038 458.859 220.207C458.592 220.375 458.458 220.588 458.458 220.846C458.458 221.084 458.547 221.262 458.726 221.381C458.904 221.5 459.137 221.594 459.424 221.664C459.712 221.733 460.029 221.793 460.376 221.842C460.733 221.882 461.085 221.946 461.432 222.035C461.779 222.125 462.096 222.249 462.383 222.407C462.681 222.556 462.919 222.769 463.097 223.047C463.276 223.324 463.365 223.686 463.365 224.132C463.365 224.628 463.216 225.059 462.919 225.426C462.631 225.792 462.22 226.08 461.685 226.288C461.149 226.486 460.51 226.586 459.766 226.586ZM468.698 226.586C467.815 226.586 467.042 226.412 466.378 226.065C465.724 225.708 465.213 225.223 464.846 224.608C464.49 223.993 464.311 223.294 464.311 222.511C464.311 221.718 464.485 221.019 464.832 220.415C465.188 219.8 465.674 219.319 466.289 218.972C466.913 218.625 467.622 218.452 468.415 218.452C469.188 218.452 469.877 218.62 470.482 218.958C471.087 219.295 471.563 219.77 471.909 220.385C472.256 221 472.43 221.723 472.43 222.556C472.43 222.635 472.425 222.724 472.415 222.824C472.415 222.923 472.41 223.017 472.4 223.106H465.783V221.872H471.419L470.69 222.259C470.7 221.803 470.606 221.401 470.408 221.054C470.209 220.707 469.937 220.435 469.59 220.236C469.253 220.038 468.861 219.939 468.415 219.939C467.959 219.939 467.558 220.038 467.211 220.236C466.874 220.435 466.606 220.712 466.408 221.069C466.219 221.416 466.125 221.827 466.125 222.303V222.601C466.125 223.076 466.234 223.498 466.452 223.864C466.67 224.231 466.978 224.514 467.374 224.712C467.771 224.91 468.227 225.009 468.742 225.009C469.188 225.009 469.59 224.94 469.947 224.801C470.304 224.662 470.621 224.444 470.898 224.147L471.895 225.292C471.538 225.708 471.087 226.03 470.541 226.258C470.006 226.476 469.392 226.586 468.698 226.586Z" fill="#3A5832"/>
<ellipse cx="232.799" cy="106.093" rx="41.3556" ry="17.1928" fill="#FFAFC0"/>
<path d="M209.445 146.94C208.632 146.94 207.854 146.826 207.11 146.598C206.367 146.36 205.777 146.057 205.341 145.691L206.01 144.189C206.426 144.516 206.942 144.789 207.556 145.007C208.171 145.225 208.8 145.334 209.445 145.334C209.99 145.334 210.431 145.274 210.768 145.155C211.105 145.036 211.353 144.878 211.512 144.68C211.67 144.471 211.749 144.238 211.749 143.981C211.749 143.663 211.635 143.411 211.407 143.222C211.179 143.024 210.882 142.87 210.515 142.761C210.158 142.642 209.757 142.533 209.311 142.434C208.875 142.335 208.434 142.221 207.988 142.092C207.551 141.953 207.15 141.78 206.783 141.572C206.426 141.354 206.134 141.066 205.906 140.709C205.678 140.353 205.564 139.897 205.564 139.341C205.564 138.776 205.712 138.261 206.01 137.795C206.317 137.319 206.778 136.943 207.393 136.665C208.017 136.377 208.805 136.234 209.757 136.234C210.381 136.234 211.001 136.313 211.616 136.472C212.23 136.63 212.766 136.858 213.222 137.156L212.612 138.657C212.146 138.38 211.665 138.177 211.17 138.048C210.674 137.909 210.198 137.84 209.742 137.84C209.207 137.84 208.771 137.904 208.434 138.033C208.106 138.162 207.864 138.33 207.705 138.538C207.556 138.747 207.482 138.985 207.482 139.252C207.482 139.569 207.591 139.827 207.809 140.025C208.037 140.214 208.33 140.362 208.686 140.472C209.053 140.581 209.46 140.69 209.906 140.799C210.352 140.898 210.793 141.012 211.229 141.141C211.675 141.27 212.077 141.438 212.433 141.646C212.8 141.854 213.093 142.137 213.311 142.494C213.539 142.851 213.653 143.302 213.653 143.847C213.653 144.402 213.499 144.917 213.192 145.393C212.894 145.859 212.433 146.236 211.809 146.523C211.184 146.801 210.396 146.94 209.445 146.94ZM219.792 146.895C219.148 146.895 218.558 146.746 218.023 146.449C217.498 146.152 217.076 145.706 216.759 145.111C216.452 144.506 216.298 143.743 216.298 142.821C216.298 141.889 216.447 141.126 216.744 140.531C217.052 139.936 217.468 139.495 217.993 139.208C218.519 138.91 219.118 138.762 219.792 138.762C220.576 138.762 221.265 138.93 221.859 139.267C222.464 139.604 222.94 140.075 223.287 140.68C223.644 141.284 223.822 141.998 223.822 142.821C223.822 143.644 223.644 144.362 223.287 144.977C222.94 145.582 222.464 146.053 221.859 146.39C221.265 146.727 220.576 146.895 219.792 146.895ZM215.391 149.676V138.851H217.161V140.724L217.101 142.836L217.25 144.947V149.676H215.391ZM219.584 145.304C220.03 145.304 220.427 145.205 220.774 145.007C221.131 144.808 221.413 144.521 221.621 144.144C221.83 143.768 221.934 143.326 221.934 142.821C221.934 142.305 221.83 141.864 221.621 141.498C221.413 141.121 221.131 140.833 220.774 140.635C220.427 140.437 220.03 140.338 219.584 140.338C219.138 140.338 218.737 140.437 218.38 140.635C218.023 140.833 217.74 141.121 217.532 141.498C217.324 141.864 217.22 142.305 217.22 142.821C217.22 143.326 217.324 143.768 217.532 144.144C217.74 144.521 218.023 144.808 218.38 145.007C218.737 145.205 219.138 145.304 219.584 145.304ZM225.585 146.791V138.851H227.354V141.037L227.146 140.397C227.384 139.862 227.756 139.455 228.261 139.178C228.777 138.9 229.416 138.762 230.179 138.762V140.531C230.1 140.511 230.026 140.501 229.956 140.501C229.887 140.491 229.818 140.486 229.748 140.486C229.044 140.486 228.484 140.695 228.068 141.111C227.652 141.517 227.443 142.127 227.443 142.94V146.791H225.585ZM231.756 146.791V138.851H233.615V146.791H231.756ZM232.693 137.542C232.346 137.542 232.058 137.433 231.83 137.215C231.612 136.997 231.503 136.734 231.503 136.427C231.503 136.11 231.612 135.847 231.83 135.639C232.058 135.421 232.346 135.312 232.693 135.312C233.04 135.312 233.322 135.416 233.54 135.624C233.768 135.822 233.882 136.075 233.882 136.382C233.882 136.71 233.773 136.987 233.555 137.215C233.337 137.433 233.05 137.542 232.693 137.542ZM240.56 138.762C241.194 138.762 241.759 138.885 242.255 139.133C242.76 139.381 243.157 139.763 243.444 140.278C243.732 140.784 243.876 141.438 243.876 142.241V146.791H242.017V142.479C242.017 141.775 241.848 141.25 241.511 140.903C241.184 140.556 240.723 140.382 240.129 140.382C239.692 140.382 239.306 140.472 238.969 140.65C238.632 140.828 238.369 141.096 238.181 141.453C238.002 141.8 237.913 142.241 237.913 142.776V146.791H236.054V138.851H237.824V140.992L237.512 140.338C237.789 139.832 238.191 139.446 238.716 139.178C239.251 138.9 239.866 138.762 240.56 138.762ZM249.222 146.895C248.35 146.895 247.676 146.672 247.2 146.226C246.724 145.77 246.486 145.101 246.486 144.219V137.096H248.345V144.174C248.345 144.551 248.439 144.843 248.627 145.051C248.826 145.259 249.098 145.364 249.445 145.364C249.862 145.364 250.209 145.255 250.486 145.036L251.007 146.36C250.788 146.538 250.521 146.672 250.204 146.761C249.886 146.85 249.559 146.895 249.222 146.895ZM245.178 140.397V138.91H250.471V140.397H245.178ZM257.745 146.791V137.126L258.593 138.003H255.545V136.382H259.678V146.791H257.745ZM181.315 169.791V159.382H185.597C186.519 159.382 187.307 159.531 187.961 159.829C188.625 160.126 189.136 160.552 189.493 161.107C189.85 161.662 190.028 162.322 190.028 163.085C190.028 163.848 189.85 164.507 189.493 165.063C189.136 165.608 188.625 166.029 187.961 166.326C187.307 166.614 186.519 166.758 185.597 166.758H182.385L183.248 165.88V169.791H181.315ZM188.125 169.791L185.493 166.014H187.56L190.207 169.791H188.125ZM183.248 166.089L182.385 165.167H185.508C186.36 165.167 187 164.983 187.426 164.616C187.862 164.25 188.08 163.739 188.08 163.085C188.08 162.421 187.862 161.91 187.426 161.553C187 161.196 186.36 161.018 185.508 161.018H182.385L183.248 160.066V166.089ZM195.745 169.895C194.862 169.895 194.089 169.722 193.425 169.375C192.771 169.018 192.26 168.532 191.893 167.917C191.537 167.303 191.358 166.604 191.358 165.821C191.358 165.028 191.532 164.329 191.879 163.724C192.235 163.11 192.721 162.629 193.336 162.282C193.96 161.935 194.669 161.762 195.462 161.762C196.235 161.762 196.924 161.93 197.529 162.267C198.134 162.604 198.609 163.08 198.956 163.695C199.303 164.309 199.477 165.033 199.477 165.865C199.477 165.945 199.472 166.034 199.462 166.133C199.462 166.232 199.457 166.326 199.447 166.416H192.83V165.181H198.466L197.737 165.568C197.747 165.112 197.653 164.711 197.455 164.364C197.256 164.017 196.984 163.744 196.637 163.546C196.3 163.348 195.908 163.248 195.462 163.248C195.006 163.248 194.605 163.348 194.258 163.546C193.921 163.744 193.653 164.022 193.455 164.379C193.266 164.726 193.172 165.137 193.172 165.613V165.91C193.172 166.386 193.281 166.807 193.499 167.174C193.717 167.541 194.025 167.823 194.421 168.022C194.818 168.22 195.274 168.319 195.789 168.319C196.235 168.319 196.637 168.25 196.994 168.111C197.351 167.972 197.668 167.754 197.945 167.457L198.942 168.601C198.585 169.018 198.134 169.34 197.588 169.568C197.053 169.786 196.439 169.895 195.745 169.895ZM203.716 169.895C203.052 169.895 202.412 169.811 201.798 169.642C201.193 169.464 200.712 169.251 200.355 169.003L201.069 167.59C201.426 167.818 201.852 168.007 202.348 168.155C202.843 168.304 203.339 168.378 203.835 168.378C204.42 168.378 204.841 168.299 205.099 168.141C205.366 167.982 205.5 167.769 205.5 167.501C205.5 167.283 205.411 167.119 205.232 167.01C205.054 166.891 204.821 166.802 204.534 166.743C204.246 166.683 203.924 166.629 203.567 166.579C203.22 166.53 202.868 166.465 202.511 166.386C202.164 166.297 201.847 166.173 201.56 166.014C201.272 165.846 201.039 165.623 200.861 165.345C200.682 165.067 200.593 164.701 200.593 164.245C200.593 163.739 200.737 163.303 201.024 162.936C201.312 162.56 201.713 162.272 202.229 162.074C202.754 161.866 203.374 161.762 204.087 161.762C204.623 161.762 205.163 161.821 205.708 161.94C206.253 162.059 206.704 162.227 207.061 162.446L206.348 163.858C205.971 163.63 205.589 163.476 205.203 163.397C204.826 163.308 204.449 163.263 204.073 163.263C203.508 163.263 203.086 163.348 202.809 163.516C202.541 163.685 202.407 163.898 202.407 164.156C202.407 164.393 202.496 164.572 202.675 164.691C202.853 164.81 203.086 164.904 203.374 164.973C203.661 165.043 203.978 165.102 204.325 165.152C204.682 165.191 205.034 165.256 205.381 165.345C205.728 165.434 206.045 165.558 206.333 165.717C206.63 165.865 206.868 166.079 207.046 166.356C207.225 166.634 207.314 166.996 207.314 167.442C207.314 167.937 207.165 168.369 206.868 168.735C206.581 169.102 206.169 169.39 205.634 169.598C205.099 169.796 204.459 169.895 203.716 169.895ZM212.647 169.895C211.765 169.895 210.992 169.722 210.327 169.375C209.673 169.018 209.163 168.532 208.796 167.917C208.439 167.303 208.261 166.604 208.261 165.821C208.261 165.028 208.434 164.329 208.781 163.724C209.138 163.11 209.624 162.629 210.238 162.282C210.863 161.935 211.571 161.762 212.364 161.762C213.138 161.762 213.827 161.93 214.431 162.267C215.036 162.604 215.512 163.08 215.859 163.695C216.206 164.309 216.379 165.033 216.379 165.865C216.379 165.945 216.374 166.034 216.364 166.133C216.364 166.232 216.359 166.326 216.349 166.416H209.733V165.181H215.368L214.639 165.568C214.649 165.112 214.555 164.711 214.357 164.364C214.159 164.017 213.886 163.744 213.539 163.546C213.202 163.348 212.811 163.248 212.364 163.248C211.908 163.248 211.507 163.348 211.16 163.546C210.823 163.744 210.555 164.022 210.357 164.379C210.169 164.726 210.075 165.137 210.075 165.613V165.91C210.075 166.386 210.184 166.807 210.402 167.174C210.62 167.541 210.927 167.823 211.324 168.022C211.72 168.22 212.176 168.319 212.692 168.319C213.138 168.319 213.539 168.25 213.896 168.111C214.253 167.972 214.57 167.754 214.848 167.457L215.844 168.601C215.487 169.018 215.036 169.34 214.491 169.568C213.955 169.786 213.341 169.895 212.647 169.895ZM222.839 169.791V168.185L222.735 167.843V165.033C222.735 164.488 222.571 164.066 222.244 163.769C221.917 163.462 221.421 163.308 220.757 163.308C220.311 163.308 219.87 163.377 219.434 163.516C219.007 163.655 218.646 163.848 218.348 164.096L217.62 162.743C218.046 162.416 218.551 162.173 219.136 162.014C219.731 161.846 220.346 161.762 220.98 161.762C222.13 161.762 223.017 162.039 223.642 162.594C224.276 163.139 224.593 163.987 224.593 165.137V169.791H222.839ZM220.341 169.895C219.746 169.895 219.226 169.796 218.779 169.598C218.333 169.39 217.986 169.107 217.739 168.75C217.501 168.383 217.382 167.972 217.382 167.516C217.382 167.07 217.486 166.668 217.694 166.312C217.912 165.955 218.264 165.672 218.75 165.464C219.235 165.256 219.88 165.152 220.683 165.152H222.987V166.386H220.817C220.182 166.386 219.756 166.49 219.538 166.698C219.32 166.896 219.211 167.144 219.211 167.442C219.211 167.779 219.344 168.046 219.612 168.245C219.88 168.443 220.252 168.542 220.727 168.542C221.183 168.542 221.59 168.438 221.947 168.23C222.313 168.022 222.576 167.714 222.735 167.308L223.047 168.423C222.869 168.889 222.546 169.251 222.08 169.508C221.624 169.766 221.045 169.895 220.341 169.895ZM226.979 169.791V161.851H228.748V164.037L228.54 163.397C228.778 162.862 229.15 162.455 229.655 162.178C230.171 161.9 230.81 161.762 231.573 161.762V163.531C231.494 163.511 231.42 163.501 231.35 163.501C231.281 163.491 231.212 163.486 231.142 163.486C230.438 163.486 229.878 163.695 229.462 164.111C229.046 164.517 228.837 165.127 228.837 165.94V169.791H226.979ZM236.721 169.895C235.888 169.895 235.144 169.722 234.49 169.375C233.846 169.018 233.34 168.532 232.973 167.917C232.607 167.303 232.423 166.604 232.423 165.821C232.423 165.028 232.607 164.329 232.973 163.724C233.34 163.11 233.846 162.629 234.49 162.282C235.144 161.935 235.888 161.762 236.721 161.762C237.494 161.762 238.173 161.92 238.758 162.237C239.352 162.545 239.803 163.001 240.111 163.605L238.683 164.438C238.445 164.061 238.153 163.784 237.806 163.605C237.469 163.427 237.102 163.338 236.706 163.338C236.25 163.338 235.838 163.437 235.472 163.635C235.105 163.833 234.817 164.121 234.609 164.498C234.401 164.864 234.297 165.305 234.297 165.821C234.297 166.336 234.401 166.782 234.609 167.159C234.817 167.526 235.105 167.808 235.472 168.007C235.838 168.205 236.25 168.304 236.706 168.304C237.102 168.304 237.469 168.215 237.806 168.036C238.153 167.858 238.445 167.58 238.683 167.204L240.111 168.036C239.803 168.631 239.352 169.092 238.758 169.419C238.173 169.736 237.494 169.895 236.721 169.895ZM246.15 161.762C246.785 161.762 247.35 161.885 247.845 162.133C248.351 162.381 248.748 162.763 249.035 163.278C249.322 163.784 249.466 164.438 249.466 165.241V169.791H247.608V165.479C247.608 164.775 247.439 164.25 247.102 163.903C246.775 163.556 246.314 163.382 245.719 163.382C245.283 163.382 244.896 163.472 244.559 163.65C244.222 163.828 243.96 164.096 243.771 164.453C243.593 164.8 243.504 165.241 243.504 165.776V169.791H241.645V158.758H243.504V163.992L243.102 163.338C243.38 162.832 243.781 162.446 244.307 162.178C244.842 161.9 245.456 161.762 246.15 161.762ZM256.186 169.791V161.405C256.186 160.572 256.429 159.908 256.915 159.412C257.41 158.907 258.114 158.654 259.026 158.654C259.353 158.654 259.661 158.689 259.948 158.758C260.246 158.827 260.493 158.936 260.692 159.085L260.186 160.483C260.047 160.374 259.889 160.294 259.71 160.245C259.532 160.185 259.348 160.156 259.16 160.156C258.774 160.156 258.481 160.265 258.283 160.483C258.085 160.691 257.985 161.008 257.985 161.434V162.327L258.045 163.159V169.791H256.186ZM254.878 163.397V161.91H260.171V163.397H254.878ZM266.169 169.791V168.185L266.065 167.843V165.033C266.065 164.488 265.902 164.066 265.574 163.769C265.247 163.462 264.752 163.308 264.087 163.308C263.641 163.308 263.2 163.377 262.764 163.516C262.338 163.655 261.976 163.848 261.679 164.096L260.95 162.743C261.376 162.416 261.882 162.173 262.467 162.014C263.061 161.846 263.676 161.762 264.311 161.762C265.46 161.762 266.348 162.039 266.972 162.594C267.607 163.139 267.924 163.987 267.924 165.137V169.791H266.169ZM263.671 169.895C263.076 169.895 262.556 169.796 262.11 169.598C261.664 169.39 261.317 169.107 261.069 168.75C260.831 168.383 260.712 167.972 260.712 167.516C260.712 167.07 260.816 166.668 261.024 166.312C261.242 165.955 261.594 165.672 262.08 165.464C262.566 165.256 263.21 165.152 264.013 165.152H266.318V166.386H264.147C263.513 166.386 263.086 166.49 262.868 166.698C262.65 166.896 262.541 167.144 262.541 167.442C262.541 167.779 262.675 168.046 262.943 168.245C263.21 168.443 263.582 168.542 264.058 168.542C264.514 168.542 264.92 168.438 265.277 168.23C265.644 168.022 265.907 167.714 266.065 167.308L266.377 168.423C266.199 168.889 265.877 169.251 265.411 169.508C264.955 169.766 264.375 169.895 263.671 169.895ZM272.763 169.895C272.098 169.895 271.459 169.811 270.844 169.642C270.24 169.464 269.759 169.251 269.402 169.003L270.116 167.59C270.473 167.818 270.899 168.007 271.395 168.155C271.89 168.304 272.386 168.378 272.882 168.378C273.466 168.378 273.888 168.299 274.145 168.141C274.413 167.982 274.547 167.769 274.547 167.501C274.547 167.283 274.458 167.119 274.279 167.01C274.101 166.891 273.868 166.802 273.58 166.743C273.293 166.683 272.971 166.629 272.614 166.579C272.267 166.53 271.915 166.465 271.558 166.386C271.211 166.297 270.894 166.173 270.607 166.014C270.319 165.846 270.086 165.623 269.908 165.345C269.729 165.067 269.64 164.701 269.64 164.245C269.64 163.739 269.784 163.303 270.071 162.936C270.359 162.56 270.76 162.272 271.276 162.074C271.801 161.866 272.421 161.762 273.134 161.762C273.67 161.762 274.21 161.821 274.755 161.94C275.3 162.059 275.751 162.227 276.108 162.446L275.395 163.858C275.018 163.63 274.636 163.476 274.25 163.397C273.873 163.308 273.496 163.263 273.119 163.263C272.554 163.263 272.133 163.348 271.856 163.516C271.588 163.685 271.454 163.898 271.454 164.156C271.454 164.393 271.543 164.572 271.722 164.691C271.9 164.81 272.133 164.904 272.421 164.973C272.708 165.043 273.025 165.102 273.372 165.152C273.729 165.191 274.081 165.256 274.428 165.345C274.775 165.434 275.092 165.558 275.38 165.717C275.677 165.865 275.915 166.079 276.093 166.356C276.272 166.634 276.361 166.996 276.361 167.442C276.361 167.937 276.212 168.369 275.915 168.735C275.627 169.102 275.216 169.39 274.681 169.598C274.145 169.796 273.506 169.895 272.763 169.895ZM281.694 169.895C280.812 169.895 280.038 169.722 279.374 169.375C278.72 169.018 278.21 168.532 277.843 167.917C277.486 167.303 277.307 166.604 277.307 165.821C277.307 165.028 277.481 164.329 277.828 163.724C278.185 163.11 278.67 162.629 279.285 162.282C279.91 161.935 280.618 161.762 281.411 161.762C282.185 161.762 282.874 161.93 283.478 162.267C284.083 162.604 284.559 163.08 284.906 163.695C285.253 164.309 285.426 165.033 285.426 165.865C285.426 165.945 285.421 166.034 285.411 166.133C285.411 166.232 285.406 166.326 285.396 166.416H278.78V165.181H284.415L283.686 165.568C283.696 165.112 283.602 164.711 283.404 164.364C283.206 164.017 282.933 163.744 282.586 163.546C282.249 163.348 281.857 163.248 281.411 163.248C280.955 163.248 280.554 163.348 280.207 163.546C279.87 163.744 279.602 164.022 279.404 164.379C279.216 164.726 279.122 165.137 279.122 165.613V165.91C279.122 166.386 279.231 166.807 279.449 167.174C279.667 167.541 279.974 167.823 280.371 168.022C280.767 168.22 281.223 168.319 281.739 168.319C282.185 168.319 282.586 168.25 282.943 168.111C283.3 167.972 283.617 167.754 283.895 167.457L284.891 168.601C284.534 169.018 284.083 169.34 283.538 169.568C283.002 169.786 282.388 169.895 281.694 169.895Z" fill="#3A5832"/>
<ellipse cx="803.413" cy="162.783" rx="41.3556" ry="17.1928" fill="#52714A"/>
<path d="M777.985 203.63C777.172 203.63 776.394 203.516 775.651 203.288C774.907 203.05 774.317 202.748 773.881 202.381L774.55 200.879C774.967 201.206 775.482 201.479 776.097 201.697C776.711 201.915 777.341 202.024 777.985 202.024C778.53 202.024 778.971 201.965 779.309 201.846C779.646 201.727 779.893 201.568 780.052 201.37C780.211 201.162 780.29 200.929 780.29 200.671C780.29 200.354 780.176 200.101 779.948 199.913C779.72 199.715 779.423 199.561 779.056 199.452C778.699 199.333 778.297 199.224 777.851 199.125C777.415 199.026 776.974 198.912 776.528 198.783C776.092 198.644 775.69 198.47 775.324 198.262C774.967 198.044 774.674 197.757 774.446 197.4C774.218 197.043 774.104 196.587 774.104 196.032C774.104 195.467 774.253 194.951 774.55 194.485C774.858 194.01 775.319 193.633 775.933 193.355C776.558 193.068 777.346 192.924 778.297 192.924C778.922 192.924 779.541 193.003 780.156 193.162C780.771 193.321 781.306 193.549 781.762 193.846L781.152 195.348C780.686 195.07 780.206 194.867 779.71 194.738C779.214 194.599 778.739 194.53 778.283 194.53C777.747 194.53 777.311 194.594 776.974 194.723C776.647 194.852 776.404 195.021 776.245 195.229C776.097 195.437 776.022 195.675 776.022 195.943C776.022 196.26 776.131 196.518 776.35 196.716C776.578 196.904 776.87 197.053 777.227 197.162C777.594 197.271 778 197.38 778.446 197.489C778.892 197.588 779.333 197.702 779.769 197.831C780.216 197.96 780.617 198.128 780.974 198.337C781.341 198.545 781.633 198.827 781.851 199.184C782.079 199.541 782.193 199.992 782.193 200.537C782.193 201.092 782.04 201.608 781.732 202.084C781.435 202.55 780.974 202.926 780.349 203.214C779.725 203.491 778.937 203.63 777.985 203.63ZM788.333 203.586C787.689 203.586 787.099 203.437 786.563 203.139C786.038 202.842 785.617 202.396 785.3 201.801C784.992 201.197 784.839 200.433 784.839 199.511C784.839 198.579 784.987 197.816 785.285 197.221C785.592 196.627 786.008 196.186 786.534 195.898C787.059 195.601 787.659 195.452 788.333 195.452C789.116 195.452 789.805 195.62 790.4 195.958C791.004 196.295 791.48 196.765 791.827 197.37C792.184 197.975 792.362 198.689 792.362 199.511C792.362 200.334 792.184 201.053 791.827 201.667C791.48 202.272 791.004 202.743 790.4 203.08C789.805 203.417 789.116 203.586 788.333 203.586ZM783.932 206.366V195.541H785.701V197.415L785.642 199.526L785.79 201.638V206.366H783.932ZM788.125 201.995C788.571 201.995 788.967 201.895 789.314 201.697C789.671 201.499 789.954 201.211 790.162 200.835C790.37 200.458 790.474 200.017 790.474 199.511C790.474 198.996 790.37 198.555 790.162 198.188C789.954 197.811 789.671 197.524 789.314 197.326C788.967 197.127 788.571 197.028 788.125 197.028C787.679 197.028 787.277 197.127 786.92 197.326C786.563 197.524 786.281 197.811 786.073 198.188C785.865 198.555 785.76 198.996 785.76 199.511C785.76 200.017 785.865 200.458 786.073 200.835C786.281 201.211 786.563 201.499 786.92 201.697C787.277 201.895 787.679 201.995 788.125 201.995ZM794.125 203.481V195.541H795.895V197.727L795.686 197.088C795.924 196.552 796.296 196.146 796.802 195.868C797.317 195.591 797.957 195.452 798.72 195.452V197.221C798.641 197.202 798.566 197.192 798.497 197.192C798.427 197.182 798.358 197.177 798.289 197.177C797.585 197.177 797.025 197.385 796.608 197.801C796.192 198.208 795.984 198.817 795.984 199.63V203.481H794.125ZM800.297 203.481V195.541H802.155V203.481H800.297ZM801.233 194.233C800.886 194.233 800.599 194.124 800.371 193.906C800.153 193.687 800.044 193.425 800.044 193.117C800.044 192.8 800.153 192.538 800.371 192.329C800.599 192.111 800.886 192.002 801.233 192.002C801.58 192.002 801.863 192.106 802.081 192.315C802.309 192.513 802.423 192.766 802.423 193.073C802.423 193.4 802.314 193.678 802.096 193.906C801.878 194.124 801.59 194.233 801.233 194.233ZM809.1 195.452C809.735 195.452 810.3 195.576 810.795 195.824C811.301 196.072 811.697 196.453 811.985 196.969C812.272 197.474 812.416 198.128 812.416 198.931V203.481H810.557V199.169C810.557 198.465 810.389 197.94 810.052 197.593C809.725 197.246 809.264 197.073 808.669 197.073C808.233 197.073 807.846 197.162 807.509 197.34C807.172 197.519 806.909 197.786 806.721 198.143C806.543 198.49 806.453 198.931 806.453 199.467V203.481H804.595V195.541H806.364V197.682L806.052 197.028C806.33 196.523 806.731 196.136 807.256 195.868C807.792 195.591 808.406 195.452 809.1 195.452ZM817.763 203.586C816.89 203.586 816.216 203.362 815.74 202.916C815.265 202.46 815.027 201.791 815.027 200.909V193.787H816.885V200.864C816.885 201.241 816.98 201.534 817.168 201.742C817.366 201.95 817.639 202.054 817.986 202.054C818.402 202.054 818.749 201.945 819.027 201.727L819.547 203.05C819.329 203.229 819.061 203.362 818.744 203.452C818.427 203.541 818.1 203.586 817.763 203.586ZM813.718 197.088V195.601H819.012V197.088H813.718ZM824.472 201.117V199.779L829.602 193.073H831.668L826.613 199.779L825.646 199.482H833.899V201.117H824.472ZM830.182 203.481V201.117L830.241 199.482V197.385H832.055V203.481H830.182Z" fill="#3A5832"/>
<ellipse cx="41.3556" cy="162.783" rx="41.3556" ry="17.1928" fill="#FFAFC0"/>
<path d="M15.4657 204.56C14.6529 204.56 13.8747 204.446 13.1312 204.218C12.3878 203.98 11.7979 203.678 11.3618 203.311L12.0309 201.809C12.4472 202.136 12.9627 202.409 13.5773 202.627C14.1919 202.845 14.8214 202.954 15.4657 202.954C16.0109 202.954 16.4521 202.894 16.7891 202.775C17.1261 202.657 17.374 202.498 17.5326 202.3C17.6912 202.092 17.7705 201.859 17.7705 201.601C17.7705 201.284 17.6565 201.031 17.4285 200.842C17.2005 200.644 16.9031 200.491 16.5363 200.382C16.1795 200.263 15.778 200.154 15.3319 200.054C14.8957 199.955 14.4546 199.841 14.0085 199.712C13.5724 199.574 13.1709 199.4 12.8041 199.192C12.4472 198.974 12.1548 198.686 11.9268 198.33C11.6988 197.973 11.5848 197.517 11.5848 196.962C11.5848 196.397 11.7335 195.881 12.0309 195.415C12.3382 194.939 12.7991 194.563 13.4137 194.285C14.0383 193.998 14.8263 193.854 15.778 193.854C16.4025 193.854 17.0221 193.933 17.6367 194.092C18.2513 194.25 18.7866 194.478 19.2426 194.776L18.6329 196.278C18.167 196 17.6862 195.797 17.1906 195.668C16.6949 195.529 16.2191 195.46 15.7631 195.46C15.2278 195.46 14.7916 195.524 14.4546 195.653C14.1275 195.782 13.8846 195.95 13.726 196.159C13.5773 196.367 13.503 196.605 13.503 196.872C13.503 197.19 13.612 197.447 13.8301 197.646C14.0581 197.834 14.3505 197.983 14.7074 198.092C15.0742 198.201 15.4806 198.31 15.9267 198.419C16.3728 198.518 16.8139 198.632 17.2501 198.761C17.6961 198.89 18.0976 199.058 18.4545 199.266C18.8213 199.474 19.1137 199.757 19.3318 200.114C19.5598 200.471 19.6738 200.922 19.6738 201.467C19.6738 202.022 19.5201 202.538 19.2128 203.013C18.9154 203.479 18.4545 203.856 17.83 204.143C17.2055 204.421 16.4174 204.56 15.4657 204.56ZM25.8134 204.515C25.1691 204.515 24.5793 204.367 24.044 204.069C23.5186 203.772 23.0973 203.326 22.7801 202.731C22.4728 202.126 22.3191 201.363 22.3191 200.441C22.3191 199.509 22.4678 198.746 22.7652 198.151C23.0725 197.556 23.4889 197.115 24.0142 196.828C24.5396 196.53 25.1394 196.382 25.8134 196.382C26.5966 196.382 27.2855 196.55 27.8803 196.887C28.485 197.224 28.9608 197.695 29.3078 198.3C29.6646 198.904 29.8431 199.618 29.8431 200.441C29.8431 201.264 29.6646 201.982 29.3078 202.597C28.9608 203.202 28.485 203.673 27.8803 204.01C27.2855 204.347 26.5966 204.515 25.8134 204.515ZM21.4121 207.296V196.471H23.1816V198.344L23.1221 200.456L23.2708 202.567V207.296H21.4121ZM25.6053 202.924C26.0514 202.924 26.4479 202.825 26.7948 202.627C27.1517 202.429 27.4342 202.141 27.6424 201.764C27.8506 201.388 27.9546 200.947 27.9546 200.441C27.9546 199.926 27.8506 199.484 27.6424 199.118C27.4342 198.741 27.1517 198.453 26.7948 198.255C26.4479 198.057 26.0514 197.958 25.6053 197.958C25.1592 197.958 24.7577 198.057 24.4009 198.255C24.044 198.453 23.7615 198.741 23.5533 199.118C23.3451 199.484 23.241 199.926 23.241 200.441C23.241 200.947 23.3451 201.388 23.5533 201.764C23.7615 202.141 24.044 202.429 24.4009 202.627C24.7577 202.825 25.1592 202.924 25.6053 202.924ZM31.6058 204.411V196.471H33.3752V198.657L33.1671 198.017C33.405 197.482 33.7767 197.076 34.2823 196.798C34.7977 196.52 35.4371 196.382 36.2004 196.382V198.151C36.1211 198.131 36.0468 198.121 35.9774 198.121C35.908 198.111 35.8386 198.107 35.7692 198.107C35.0654 198.107 34.5053 198.315 34.089 198.731C33.6726 199.137 33.4645 199.747 33.4645 200.56V204.411H31.6058ZM37.7772 204.411V196.471H39.6358V204.411H37.7772ZM38.7139 195.162C38.367 195.162 38.0795 195.053 37.8515 194.835C37.6334 194.617 37.5244 194.354 37.5244 194.047C37.5244 193.73 37.6334 193.467 37.8515 193.259C38.0795 193.041 38.367 192.932 38.7139 192.932C39.0609 192.932 39.3434 193.036 39.5615 193.244C39.7895 193.442 39.9035 193.695 39.9035 194.003C39.9035 194.33 39.7945 194.607 39.5764 194.835C39.3583 195.053 39.0708 195.162 38.7139 195.162ZM46.5808 196.382C47.2152 196.382 47.7803 196.506 48.2759 196.753C48.7815 197.001 49.178 197.383 49.4655 197.898C49.7529 198.404 49.8967 199.058 49.8967 199.861V204.411H48.038V200.099C48.038 199.395 47.8695 198.87 47.5324 198.523C47.2053 198.176 46.7444 198.002 46.1496 198.002C45.7134 198.002 45.3268 198.092 44.9898 198.27C44.6527 198.448 44.39 198.716 44.2017 199.073C44.0232 199.42 43.934 199.861 43.934 200.396V204.411H42.0754V196.471H43.8448V198.612L43.5326 197.958C43.8101 197.452 44.2116 197.066 44.737 196.798C45.2723 196.52 45.8869 196.382 46.5808 196.382ZM55.2433 204.515C54.3709 204.515 53.6969 204.292 53.221 203.846C52.7452 203.39 52.5073 202.721 52.5073 201.839V194.716H54.366V201.794C54.366 202.171 54.4601 202.463 54.6485 202.671C54.8468 202.88 55.1194 202.984 55.4663 202.984C55.8827 202.984 56.2296 202.875 56.5072 202.657L57.0276 203.98C56.8095 204.158 56.5419 204.292 56.2247 204.381C55.9074 204.471 55.5803 204.515 55.2433 204.515ZM51.1988 198.017V196.53H56.4923V198.017H51.1988ZM66.4428 204.56C65.6201 204.56 64.8766 204.352 64.2124 203.935C63.5582 203.519 63.0427 202.914 62.666 202.121C62.2893 201.318 62.101 200.347 62.101 199.207C62.101 198.067 62.2893 197.1 62.666 196.307C63.0427 195.504 63.5582 194.895 64.2124 194.478C64.8766 194.062 65.6201 193.854 66.4428 193.854C67.2755 193.854 68.019 194.062 68.6733 194.478C69.3275 194.895 69.843 195.504 70.2197 196.307C70.6063 197.1 70.7996 198.067 70.7996 199.207C70.7996 200.347 70.6063 201.318 70.2197 202.121C69.843 202.914 69.3275 203.519 68.6733 203.935C68.019 204.352 67.2755 204.56 66.4428 204.56ZM66.4428 202.88C66.9286 202.88 67.3499 202.751 67.7067 202.493C68.0636 202.225 68.3412 201.819 68.5394 201.274C68.7476 200.728 68.8517 200.04 68.8517 199.207C68.8517 198.364 68.7476 197.675 68.5394 197.14C68.3412 196.595 68.0636 196.193 67.7067 195.936C67.3499 195.668 66.9286 195.534 66.4428 195.534C65.9769 195.534 65.5606 195.668 65.1938 195.936C64.8369 196.193 64.5544 196.595 64.3463 197.14C64.148 197.675 64.0489 198.364 64.0489 199.207C64.0489 200.04 64.148 200.728 64.3463 201.274C64.5544 201.819 64.8369 202.225 65.1938 202.493C65.5606 202.751 65.9769 202.88 66.4428 202.88ZM13.8191 217.003H15.3061V227.411H13.8191V217.003ZM7.84161 227.411H6.35467V217.003H7.84161V227.411ZM13.9529 222.772H7.69292V221.478H13.9529V222.772ZM23.1054 227.411V225.746L23.0311 225.434V222.593C23.0311 221.989 22.8526 221.523 22.4958 221.196C22.1488 220.859 21.6234 220.69 20.9196 220.69C20.4537 220.69 19.9977 220.769 19.5516 220.928C19.1055 221.077 18.7288 221.28 18.4215 221.538L17.8268 220.467C18.2332 220.14 18.7189 219.892 19.284 219.724C19.8589 219.545 20.4587 219.456 21.0832 219.456C22.1637 219.456 22.9964 219.719 23.5812 220.244C24.1661 220.769 24.4585 221.572 24.4585 222.653V227.411H23.1054ZM20.5181 227.5C19.9333 227.5 19.4178 227.401 18.9717 227.203C18.5355 227.005 18.1985 226.732 17.9606 226.385C17.7227 226.028 17.6037 225.627 17.6037 225.181C17.6037 224.754 17.7029 224.368 17.9011 224.021C18.1093 223.674 18.4414 223.396 18.8974 223.188C19.3633 222.98 19.9878 222.876 20.7709 222.876H23.269V223.902H20.8304C20.1167 223.902 19.6359 224.021 19.3881 224.259C19.1402 224.497 19.0163 224.784 19.0163 225.121C19.0163 225.508 19.17 225.82 19.4773 226.058C19.7846 226.286 20.2108 226.4 20.756 226.4C21.2913 226.4 21.7573 226.281 22.1538 226.043C22.5602 225.805 22.8526 225.458 23.0311 225.002L23.3136 225.984C23.1252 226.45 22.7932 226.821 22.3173 227.099C21.8415 227.367 21.2418 227.5 20.5181 227.5ZM30.535 227.5C29.7321 227.5 29.0134 227.327 28.3789 226.98C27.7544 226.633 27.2637 226.157 26.9069 225.552C26.55 224.948 26.3716 224.254 26.3716 223.471C26.3716 222.688 26.55 221.994 26.9069 221.389C27.2637 220.784 27.7544 220.313 28.3789 219.976C29.0134 219.629 29.7321 219.456 30.535 219.456C31.2487 219.456 31.8832 219.6 32.4383 219.887C33.0033 220.165 33.4395 220.581 33.7468 221.136L32.6613 221.835C32.4036 221.448 32.0864 221.166 31.7097 220.988C31.3429 220.799 30.9464 220.705 30.5201 220.705C30.0047 220.705 29.5437 220.819 29.1373 221.047C28.7309 221.275 28.4087 221.597 28.1708 222.014C27.9329 222.42 27.8139 222.906 27.8139 223.471C27.8139 224.036 27.9329 224.526 28.1708 224.943C28.4087 225.359 28.7309 225.681 29.1373 225.909C29.5437 226.137 30.0047 226.251 30.5201 226.251C30.9464 226.251 31.3429 226.162 31.7097 225.984C32.0864 225.795 32.4036 225.508 32.6613 225.121L33.7468 225.805C33.4395 226.35 33.0033 226.772 32.4383 227.069C31.8832 227.357 31.2487 227.5 30.535 227.5ZM36.6531 225.508L36.6828 223.679L41.218 219.53H42.9428L39.4634 222.95L38.6902 223.605L36.6531 225.508ZM35.4933 227.411V216.378H36.9207V227.411H35.4933ZM41.5154 227.411L38.4225 223.575L39.3444 222.43L43.27 227.411H41.5154ZM49.4028 227.411V225.746L49.3284 225.434V222.593C49.3284 221.989 49.15 221.523 48.7931 221.196C48.4462 220.859 47.9208 220.69 47.217 220.69C46.7511 220.69 46.2951 220.769 45.849 220.928C45.4029 221.077 45.0262 221.28 44.7189 221.538L44.1241 220.467C44.5306 220.14 45.0163 219.892 45.5813 219.724C46.1563 219.545 46.756 219.456 47.3805 219.456C48.4611 219.456 49.2937 219.719 49.8786 220.244C50.4635 220.769 50.7559 221.572 50.7559 222.653V227.411H49.4028ZM46.8155 227.5C46.2306 227.5 45.7152 227.401 45.2691 227.203C44.8329 227.005 44.4959 226.732 44.258 226.385C44.0201 226.028 43.9011 225.627 43.9011 225.181C43.9011 224.754 44.0002 224.368 44.1985 224.021C44.4067 223.674 44.7387 223.396 45.1947 223.188C45.6606 222.98 46.2852 222.876 47.0683 222.876H49.5663V223.902H47.1278C46.414 223.902 45.9333 224.021 45.6854 224.259C45.4376 224.497 45.3137 224.784 45.3137 225.121C45.3137 225.508 45.4673 225.82 45.7746 226.058C46.0819 226.286 46.5082 226.4 47.0534 226.4C47.5887 226.4 48.0546 226.281 48.4511 226.043C48.8576 225.805 49.15 225.458 49.3284 225.002L49.611 225.984C49.4226 226.45 49.0905 226.821 48.6147 227.099C48.1389 227.367 47.5392 227.5 46.8155 227.5ZM56.1038 227.5C55.3107 227.5 54.6961 227.287 54.26 226.861C53.8238 226.435 53.6057 225.825 53.6057 225.032V217.805H55.0332V224.973C55.0332 225.399 55.1373 225.726 55.3454 225.954C55.5635 226.182 55.8708 226.296 56.2673 226.296C56.7134 226.296 57.0852 226.172 57.3825 225.924L57.8286 226.95C57.6105 227.139 57.3479 227.277 57.0406 227.367C56.7432 227.456 56.4309 227.5 56.1038 227.5ZM52.2675 220.705V219.53H57.2933V220.705H52.2675ZM62.6684 227.5C61.8754 227.5 61.1715 227.327 60.5569 226.98C59.9423 226.633 59.4566 226.157 59.0997 225.552C58.7429 224.938 58.5644 224.244 58.5644 223.471C58.5644 222.688 58.7429 221.994 59.0997 221.389C59.4566 220.784 59.9423 220.313 60.5569 219.976C61.1715 219.629 61.8754 219.456 62.6684 219.456C63.4515 219.456 64.1504 219.629 64.765 219.976C65.3895 220.313 65.8752 220.784 66.2222 221.389C66.5791 221.984 66.7575 222.678 66.7575 223.471C66.7575 224.254 66.5791 224.948 66.2222 225.552C65.8752 226.157 65.3895 226.633 64.765 226.98C64.1504 227.327 63.4515 227.5 62.6684 227.5ZM62.6684 226.251C63.174 226.251 63.625 226.137 64.0215 225.909C64.4279 225.681 64.7452 225.359 64.9732 224.943C65.2012 224.517 65.3152 224.026 65.3152 223.471C65.3152 222.906 65.2012 222.42 64.9732 222.014C64.7452 221.597 64.4279 221.275 64.0215 221.047C63.625 220.819 63.174 220.705 62.6684 220.705C62.1628 220.705 61.7118 220.819 61.3153 221.047C60.9188 221.275 60.6015 221.597 60.3636 222.014C60.1257 222.42 60.0068 222.906 60.0068 223.471C60.0068 224.026 60.1257 224.517 60.3636 224.943C60.6015 225.359 60.9188 225.681 61.3153 225.909C61.7118 226.137 62.1628 226.251 62.6684 226.251ZM72.9397 219.456C73.584 219.456 74.1491 219.58 74.6348 219.828C75.1304 220.076 75.517 220.452 75.7946 220.958C76.0722 221.463 76.2109 222.103 76.2109 222.876V227.411H74.7835V223.04C74.7835 222.276 74.5951 221.701 74.2184 221.315C73.8517 220.928 73.3312 220.735 72.6572 220.735C72.1516 220.735 71.7105 220.834 71.3338 221.032C70.9571 221.23 70.6647 221.523 70.4565 221.909C70.2582 222.296 70.1591 222.777 70.1591 223.352V227.411H68.7316V219.53H70.0996V221.657L69.8766 221.092C70.1343 220.576 70.5308 220.175 71.0661 219.887C71.6014 219.6 72.2259 219.456 72.9397 219.456Z" fill="#3A5832"/>
<ellipse cx="612.899" cy="106.093" rx="41.3556" ry="17.1928" fill="#FFAFC0"/>
<path d="M588.619 147.87C587.806 147.87 587.028 147.756 586.284 147.528C585.541 147.29 584.951 146.988 584.515 146.621L585.184 145.12C585.6 145.447 586.116 145.719 586.731 145.937C587.345 146.155 587.975 146.264 588.619 146.264C589.164 146.264 589.605 146.205 589.942 146.086C590.279 145.967 590.527 145.808 590.686 145.61C590.844 145.402 590.924 145.169 590.924 144.911C590.924 144.594 590.81 144.341 590.582 144.153C590.354 143.955 590.056 143.801 589.69 143.692C589.333 143.573 588.931 143.464 588.485 143.365C588.049 143.266 587.608 143.152 587.162 143.023C586.726 142.884 586.324 142.711 585.957 142.503C585.6 142.284 585.308 141.997 585.08 141.64C584.852 141.283 584.738 140.827 584.738 140.272C584.738 139.707 584.887 139.192 585.184 138.726C585.491 138.25 585.952 137.873 586.567 137.596C587.192 137.308 587.98 137.164 588.931 137.164C589.556 137.164 590.175 137.244 590.79 137.402C591.405 137.561 591.94 137.789 592.396 138.086L591.786 139.588C591.32 139.311 590.839 139.107 590.344 138.978C589.848 138.84 589.372 138.77 588.916 138.77C588.381 138.77 587.945 138.835 587.608 138.964C587.281 139.092 587.038 139.261 586.879 139.469C586.731 139.677 586.656 139.915 586.656 140.183C586.656 140.5 586.765 140.758 586.983 140.956C587.211 141.144 587.504 141.293 587.861 141.402C588.227 141.511 588.634 141.62 589.08 141.729C589.526 141.828 589.967 141.942 590.403 142.071C590.849 142.2 591.251 142.369 591.608 142.577C591.975 142.785 592.267 143.068 592.485 143.424C592.713 143.781 592.827 144.232 592.827 144.778C592.827 145.333 592.673 145.848 592.366 146.324C592.069 146.79 591.608 147.167 590.983 147.454C590.359 147.732 589.571 147.87 588.619 147.87ZM598.967 147.826C598.322 147.826 597.733 147.677 597.197 147.38C596.672 147.082 596.251 146.636 595.933 146.041C595.626 145.437 595.472 144.673 595.472 143.752C595.472 142.82 595.621 142.056 595.918 141.462C596.226 140.867 596.642 140.426 597.167 140.138C597.693 139.841 598.293 139.692 598.967 139.692C599.75 139.692 600.439 139.861 601.034 140.198C601.638 140.535 602.114 141.006 602.461 141.61C602.818 142.215 602.996 142.929 602.996 143.752C602.996 144.574 602.818 145.293 602.461 145.908C602.114 146.512 601.638 146.983 601.034 147.32C600.439 147.657 599.75 147.826 598.967 147.826ZM594.565 150.606V139.781H596.335V141.655L596.275 143.766L596.424 145.878V150.606H594.565ZM598.759 146.235C599.205 146.235 599.601 146.136 599.948 145.937C600.305 145.739 600.587 145.452 600.796 145.075C601.004 144.698 601.108 144.257 601.108 143.752C601.108 143.236 601.004 142.795 600.796 142.428C600.587 142.051 600.305 141.764 599.948 141.566C599.601 141.367 599.205 141.268 598.759 141.268C598.312 141.268 597.911 141.367 597.554 141.566C597.197 141.764 596.915 142.051 596.707 142.428C596.498 142.795 596.394 143.236 596.394 143.752C596.394 144.257 596.498 144.698 596.707 145.075C596.915 145.452 597.197 145.739 597.554 145.937C597.911 146.136 598.312 146.235 598.759 146.235ZM604.759 147.722V139.781H606.528V141.967L606.32 141.328C606.558 140.793 606.93 140.386 607.436 140.109C607.951 139.831 608.59 139.692 609.354 139.692V141.462C609.274 141.442 609.2 141.432 609.131 141.432C609.061 141.422 608.992 141.417 608.922 141.417C608.219 141.417 607.659 141.625 607.242 142.042C606.826 142.448 606.618 143.058 606.618 143.871V147.722H604.759ZM610.93 147.722V139.781H612.789V147.722H610.93ZM611.867 138.473C611.52 138.473 611.233 138.364 611.005 138.146C610.787 137.928 610.678 137.665 610.678 137.358C610.678 137.04 610.787 136.778 611.005 136.57C611.233 136.352 611.52 136.242 611.867 136.242C612.214 136.242 612.497 136.347 612.715 136.555C612.943 136.753 613.057 137.006 613.057 137.313C613.057 137.64 612.948 137.918 612.73 138.146C612.512 138.364 612.224 138.473 611.867 138.473ZM615.229 147.722V139.781H616.998V141.923L616.686 141.268C616.963 140.763 617.365 140.376 617.89 140.109C618.426 139.831 619.04 139.692 619.734 139.692C620.368 139.692 620.934 139.816 621.429 140.064C621.935 140.312 622.331 140.693 622.619 141.209C622.906 141.714 623.05 142.369 623.05 143.172V147.722H621.191V143.41C621.191 142.706 621.023 142.18 620.686 141.833C620.359 141.486 619.898 141.313 619.303 141.313C618.867 141.313 618.48 141.402 618.143 141.581C617.806 141.759 617.543 142.027 617.355 142.384C617.177 142.731 617.087 143.172 617.087 143.707V147.722H615.229ZM628.397 147.826C627.524 147.826 626.85 147.603 626.374 147.157C625.898 146.701 625.661 146.032 625.661 145.149V138.027H627.519V145.105C627.519 145.481 627.613 145.774 627.802 145.982C628 146.19 628.273 146.294 628.62 146.294C629.036 146.294 629.383 146.185 629.66 145.967L630.181 147.29C629.963 147.469 629.695 147.603 629.378 147.692C629.061 147.781 628.734 147.826 628.397 147.826ZM624.352 141.268V139.781H629.646V141.268H624.352ZM638.525 147.87C637.792 147.87 637.073 147.766 636.369 147.558C635.676 147.34 635.091 147.043 634.615 146.666L635.448 145.164C635.824 145.471 636.28 145.719 636.816 145.908C637.351 146.096 637.911 146.19 638.496 146.19C639.19 146.19 639.73 146.051 640.117 145.774C640.503 145.486 640.696 145.1 640.696 144.614C640.696 144.138 640.518 143.761 640.161 143.484C639.804 143.206 639.229 143.068 638.436 143.068H637.485V141.744L640.459 138.205L640.711 138.934H635.12V137.313H642.213V138.607L639.239 142.146L638.228 141.551H638.808C640.087 141.551 641.043 141.838 641.678 142.413C642.322 142.978 642.644 143.707 642.644 144.599C642.644 145.184 642.496 145.724 642.198 146.22C641.901 146.716 641.445 147.117 640.83 147.424C640.226 147.722 639.457 147.87 638.525 147.87ZM552.343 170.722V160.313H554.276V170.722H552.343ZM560.273 170.826C559.51 170.826 558.821 170.657 558.206 170.32C557.602 169.973 557.126 169.497 556.779 168.893C556.432 168.288 556.258 167.574 556.258 166.752C556.258 165.929 556.432 165.215 556.779 164.61C557.126 164.006 557.602 163.535 558.206 163.198C558.821 162.861 559.51 162.692 560.273 162.692C560.937 162.692 561.532 162.841 562.057 163.138C562.583 163.426 562.999 163.867 563.306 164.462C563.614 165.056 563.767 165.82 563.767 166.752C563.767 167.673 563.619 168.437 563.321 169.041C563.024 169.636 562.613 170.082 562.087 170.38C561.562 170.677 560.957 170.826 560.273 170.826ZM560.496 169.235C560.942 169.235 561.339 169.136 561.686 168.937C562.043 168.739 562.325 168.452 562.533 168.075C562.751 167.698 562.86 167.257 562.86 166.752C562.86 166.236 562.751 165.795 562.533 165.428C562.325 165.051 562.043 164.764 561.686 164.566C561.339 164.367 560.942 164.268 560.496 164.268C560.05 164.268 559.649 164.367 559.292 164.566C558.945 164.764 558.662 165.051 558.444 165.428C558.236 165.795 558.132 166.236 558.132 166.752C558.132 167.257 558.236 167.698 558.444 168.075C558.662 168.452 558.945 168.739 559.292 168.937C559.649 169.136 560.05 169.235 560.496 169.235ZM562.905 170.722V168.848L562.979 166.737L562.831 164.625V159.689H564.674V170.722H562.905ZM570.853 170.826C569.971 170.826 569.198 170.652 568.533 170.305C567.879 169.948 567.369 169.463 567.002 168.848C566.645 168.234 566.467 167.535 566.467 166.752C566.467 165.959 566.64 165.26 566.987 164.655C567.344 164.04 567.83 163.56 568.444 163.213C569.069 162.866 569.777 162.692 570.571 162.692C571.344 162.692 572.033 162.861 572.637 163.198C573.242 163.535 573.718 164.011 574.065 164.625C574.412 165.24 574.585 165.963 574.585 166.796C574.585 166.875 574.58 166.965 574.57 167.064C574.57 167.163 574.565 167.257 574.556 167.346H567.939V166.112H573.574L572.846 166.499C572.855 166.043 572.761 165.641 572.563 165.294C572.365 164.947 572.092 164.675 571.745 164.477C571.408 164.278 571.017 164.179 570.571 164.179C570.115 164.179 569.713 164.278 569.366 164.477C569.029 164.675 568.761 164.952 568.563 165.309C568.375 165.656 568.281 166.068 568.281 166.543V166.841C568.281 167.317 568.39 167.738 568.608 168.105C568.826 168.471 569.133 168.754 569.53 168.952C569.926 169.15 570.382 169.25 570.898 169.25C571.344 169.25 571.745 169.18 572.102 169.041C572.459 168.903 572.776 168.685 573.054 168.387L574.05 169.532C573.693 169.948 573.242 170.271 572.697 170.499C572.162 170.717 571.547 170.826 570.853 170.826ZM581.045 170.722V169.116L580.941 168.774V165.963C580.941 165.418 580.777 164.997 580.45 164.7C580.123 164.392 579.627 164.239 578.963 164.239C578.517 164.239 578.076 164.308 577.64 164.447C577.214 164.586 576.852 164.779 576.554 165.027L575.826 163.674C576.252 163.346 576.758 163.104 577.342 162.945C577.937 162.776 578.552 162.692 579.186 162.692C580.336 162.692 581.223 162.97 581.848 163.525C582.482 164.07 582.799 164.918 582.799 166.068V170.722H581.045ZM578.547 170.826C577.952 170.826 577.432 170.727 576.986 170.528C576.539 170.32 576.192 170.038 575.945 169.681C575.707 169.314 575.588 168.903 575.588 168.447C575.588 168.001 575.692 167.599 575.9 167.242C576.118 166.885 576.47 166.603 576.956 166.395C577.442 166.187 578.086 166.082 578.889 166.082H581.194V167.317H579.023C578.388 167.317 577.962 167.421 577.744 167.629C577.526 167.827 577.417 168.075 577.417 168.372C577.417 168.709 577.551 168.977 577.818 169.175C578.086 169.374 578.458 169.473 578.933 169.473C579.389 169.473 579.796 169.369 580.153 169.16C580.519 168.952 580.782 168.645 580.941 168.238L581.253 169.354C581.075 169.82 580.752 170.181 580.287 170.439C579.831 170.697 579.251 170.826 578.547 170.826ZM588.174 170.826C587.301 170.826 586.627 170.603 586.151 170.157C585.676 169.701 585.438 169.032 585.438 168.149V161.027H587.296V168.105C587.296 168.481 587.39 168.774 587.579 168.982C587.777 169.19 588.05 169.294 588.397 169.294C588.813 169.294 589.16 169.185 589.437 168.967L589.958 170.29C589.74 170.469 589.472 170.603 589.155 170.692C588.838 170.781 588.511 170.826 588.174 170.826ZM584.129 164.268V162.781H589.423V164.268H584.129ZM591.487 170.722V162.781H593.346V170.722H591.487ZM592.424 161.473C592.077 161.473 591.789 161.364 591.561 161.146C591.343 160.928 591.234 160.665 591.234 160.358C591.234 160.04 591.343 159.778 591.561 159.57C591.789 159.352 592.077 159.242 592.424 159.242C592.771 159.242 593.053 159.347 593.271 159.555C593.499 159.753 593.613 160.006 593.613 160.313C593.613 160.64 593.504 160.918 593.286 161.146C593.068 161.364 592.781 161.473 592.424 161.473ZM599.354 170.826C598.541 170.826 597.817 170.652 597.183 170.305C596.548 169.948 596.048 169.463 595.681 168.848C595.314 168.234 595.131 167.535 595.131 166.752C595.131 165.959 595.314 165.26 595.681 164.655C596.048 164.04 596.548 163.56 597.183 163.213C597.817 162.866 598.541 162.692 599.354 162.692C600.177 162.692 600.905 162.866 601.54 163.213C602.184 163.56 602.685 164.035 603.041 164.64C603.408 165.245 603.592 165.949 603.592 166.752C603.592 167.535 603.408 168.234 603.041 168.848C602.685 169.463 602.184 169.948 601.54 170.305C600.905 170.652 600.177 170.826 599.354 170.826ZM599.354 169.235C599.81 169.235 600.216 169.136 600.573 168.937C600.93 168.739 601.207 168.452 601.406 168.075C601.614 167.698 601.718 167.257 601.718 166.752C601.718 166.236 601.614 165.795 601.406 165.428C601.207 165.051 600.93 164.764 600.573 164.566C600.216 164.367 599.815 164.268 599.369 164.268C598.913 164.268 598.506 164.367 598.149 164.566C597.802 164.764 597.525 165.051 597.317 165.428C597.108 165.795 597.004 166.236 597.004 166.752C597.004 167.257 597.108 167.698 597.317 168.075C597.525 168.452 597.802 168.739 598.149 168.937C598.506 169.136 598.908 169.235 599.354 169.235ZM605.369 170.722V162.781H607.138V164.923L606.826 164.268C607.104 163.763 607.505 163.376 608.031 163.109C608.566 162.831 609.18 162.692 609.874 162.692C610.509 162.692 611.074 162.816 611.569 163.064C612.075 163.312 612.472 163.693 612.759 164.209C613.046 164.714 613.19 165.369 613.19 166.172V170.722H611.332V166.41C611.332 165.706 611.163 165.18 610.826 164.833C610.499 164.486 610.038 164.313 609.443 164.313C609.007 164.313 608.62 164.402 608.283 164.581C607.946 164.759 607.684 165.027 607.495 165.384C607.317 165.731 607.228 166.172 607.228 166.707V170.722H605.369ZM615.057 172.967L615.92 169.681L616.173 170.781C615.826 170.781 615.533 170.677 615.295 170.469C615.067 170.251 614.953 169.958 614.953 169.592C614.953 169.215 615.067 168.918 615.295 168.699C615.533 168.471 615.821 168.357 616.158 168.357C616.505 168.357 616.792 168.471 617.02 168.699C617.248 168.927 617.362 169.225 617.362 169.592C617.362 169.691 617.352 169.8 617.332 169.919C617.313 170.028 617.278 170.157 617.228 170.305C617.189 170.454 617.119 170.642 617.02 170.87L616.262 172.967H615.057ZM628.284 170.87C627.491 170.87 626.752 170.742 626.068 170.484C625.394 170.216 624.804 169.844 624.299 169.369C623.803 168.883 623.417 168.313 623.139 167.659C622.861 167.004 622.723 166.291 622.723 165.517C622.723 164.744 622.861 164.03 623.139 163.376C623.417 162.722 623.808 162.157 624.314 161.681C624.819 161.195 625.409 160.824 626.083 160.566C626.757 160.298 627.496 160.164 628.299 160.164C629.151 160.164 629.929 160.313 630.633 160.61C631.337 160.898 631.932 161.329 632.418 161.904L631.169 163.079C630.792 162.672 630.371 162.37 629.905 162.172C629.439 161.964 628.933 161.86 628.388 161.86C627.843 161.86 627.342 161.949 626.886 162.127C626.44 162.306 626.048 162.558 625.711 162.885C625.384 163.213 625.127 163.599 624.938 164.045C624.76 164.491 624.671 164.982 624.671 165.517C624.671 166.053 624.76 166.543 624.938 166.989C625.127 167.436 625.384 167.822 625.711 168.149C626.048 168.476 626.44 168.729 626.886 168.908C627.342 169.086 627.843 169.175 628.388 169.175C628.933 169.175 629.439 169.076 629.905 168.878C630.371 168.67 630.792 168.357 631.169 167.941L632.418 169.131C631.932 169.696 631.337 170.127 630.633 170.424C629.929 170.722 629.146 170.87 628.284 170.87ZM633.961 170.722V162.781H635.73V164.967L635.522 164.328C635.76 163.793 636.132 163.386 636.637 163.109C637.153 162.831 637.792 162.692 638.555 162.692V164.462C638.476 164.442 638.402 164.432 638.332 164.432C638.263 164.422 638.193 164.417 638.124 164.417C637.42 164.417 636.86 164.625 636.444 165.042C636.027 165.448 635.819 166.058 635.819 166.871V170.722H633.961ZM643.792 170.826C642.909 170.826 642.136 170.652 641.472 170.305C640.818 169.948 640.307 169.463 639.94 168.848C639.584 168.234 639.405 167.535 639.405 166.752C639.405 165.959 639.579 165.26 639.926 164.655C640.282 164.04 640.768 163.56 641.383 163.213C642.007 162.866 642.716 162.692 643.509 162.692C644.282 162.692 644.971 162.861 645.576 163.198C646.181 163.535 646.656 164.011 647.003 164.625C647.35 165.24 647.524 165.963 647.524 166.796C647.524 166.875 647.519 166.965 647.509 167.064C647.509 167.163 647.504 167.257 647.494 167.346H640.877V166.112H646.513L645.784 166.499C645.794 166.043 645.7 165.641 645.502 165.294C645.303 164.947 645.031 164.675 644.684 164.477C644.347 164.278 643.955 164.179 643.509 164.179C643.053 164.179 642.652 164.278 642.305 164.477C641.968 164.675 641.7 164.952 641.502 165.309C641.313 165.656 641.219 166.068 641.219 166.543V166.841C641.219 167.317 641.328 167.738 641.546 168.105C641.764 168.471 642.072 168.754 642.468 168.952C642.865 169.15 643.321 169.25 643.836 169.25C644.282 169.25 644.684 169.18 645.041 169.041C645.397 168.903 645.715 168.685 645.992 168.387L646.989 169.532C646.632 169.948 646.181 170.271 645.635 170.499C645.1 170.717 644.485 170.826 643.792 170.826ZM653.983 170.722V169.116L653.879 168.774V165.963C653.879 165.418 653.716 164.997 653.389 164.7C653.062 164.392 652.566 164.239 651.902 164.239C651.456 164.239 651.014 164.308 650.578 164.447C650.152 164.586 649.79 164.779 649.493 165.027L648.764 163.674C649.19 163.346 649.696 163.104 650.281 162.945C650.876 162.776 651.49 162.692 652.125 162.692C653.275 162.692 654.162 162.97 654.786 163.525C655.421 164.07 655.738 164.918 655.738 166.068V170.722H653.983ZM651.485 170.826C650.891 170.826 650.37 170.727 649.924 170.528C649.478 170.32 649.131 170.038 648.883 169.681C648.645 169.314 648.526 168.903 648.526 168.447C648.526 168.001 648.63 167.599 648.839 167.242C649.057 166.885 649.409 166.603 649.894 166.395C650.38 166.187 651.024 166.082 651.827 166.082H654.132V167.317H651.961C651.327 167.317 650.9 167.421 650.682 167.629C650.464 167.827 650.355 168.075 650.355 168.372C650.355 168.709 650.489 168.977 650.757 169.175C651.024 169.374 651.396 169.473 651.872 169.473C652.328 169.473 652.734 169.369 653.091 169.16C653.458 168.952 653.721 168.645 653.879 168.238L654.192 169.354C654.013 169.82 653.691 170.181 653.225 170.439C652.769 170.697 652.189 170.826 651.485 170.826ZM661.112 170.826C660.24 170.826 659.566 170.603 659.09 170.157C658.614 169.701 658.376 169.032 658.376 168.149V161.027H660.235V168.105C660.235 168.481 660.329 168.774 660.517 168.982C660.716 169.19 660.988 169.294 661.335 169.294C661.752 169.294 662.098 169.185 662.376 168.967L662.896 170.29C662.678 170.469 662.411 170.603 662.094 170.692C661.776 170.781 661.449 170.826 661.112 170.826ZM657.068 164.268V162.781H662.361V164.268H657.068ZM667.896 170.826C667.014 170.826 666.241 170.652 665.577 170.305C664.922 169.948 664.412 169.463 664.045 168.848C663.688 168.234 663.51 167.535 663.51 166.752C663.51 165.959 663.683 165.26 664.03 164.655C664.387 164.04 664.873 163.56 665.487 163.213C666.112 162.866 666.821 162.692 667.614 162.692C668.387 162.692 669.076 162.861 669.681 163.198C670.285 163.535 670.761 164.011 671.108 164.625C671.455 165.24 671.629 165.963 671.629 166.796C671.629 166.875 671.624 166.965 671.614 167.064C671.614 167.163 671.609 167.257 671.599 167.346H664.982V166.112H670.617L669.889 166.499C669.899 166.043 669.805 165.641 669.606 165.294C669.408 164.947 669.135 164.675 668.788 164.477C668.451 164.278 668.06 164.179 667.614 164.179C667.158 164.179 666.756 164.278 666.409 164.477C666.072 164.675 665.805 164.952 665.606 165.309C665.418 165.656 665.324 166.068 665.324 166.543V166.841C665.324 167.317 665.433 167.738 665.651 168.105C665.869 168.471 666.176 168.754 666.573 168.952C666.969 169.15 667.425 169.25 667.941 169.25C668.387 169.25 668.788 169.18 669.145 169.041C669.502 168.903 669.819 168.685 670.097 168.387L671.093 169.532C670.736 169.948 670.285 170.271 669.74 170.499C669.205 170.717 668.59 170.826 667.896 170.826ZM587.448 193.885L581.501 188.175C581.164 187.848 580.891 187.546 580.683 187.268C580.475 186.991 580.326 186.723 580.237 186.465C580.148 186.198 580.103 185.925 580.103 185.648C580.103 185.162 580.227 184.736 580.475 184.369C580.723 183.992 581.074 183.705 581.53 183.506C581.986 183.298 582.517 183.194 583.121 183.194C583.687 183.194 584.172 183.288 584.579 183.477C584.995 183.655 585.317 183.918 585.545 184.265C585.783 184.602 585.902 185.008 585.902 185.484C585.902 185.9 585.798 186.287 585.59 186.644C585.382 186.991 585.055 187.323 584.608 187.64C584.172 187.957 583.587 188.289 582.854 188.636C582.309 188.904 581.877 189.157 581.56 189.395C581.243 189.633 581.015 189.871 580.876 190.108C580.737 190.346 580.668 190.609 580.668 190.896C580.668 191.184 580.752 191.437 580.921 191.655C581.099 191.873 581.347 192.046 581.664 192.175C581.981 192.294 582.353 192.354 582.779 192.354C583.414 192.354 583.989 192.215 584.504 191.937C585.03 191.65 585.471 191.224 585.828 190.659C586.185 190.094 586.442 189.395 586.601 188.562L588.103 189.053C587.895 190.054 587.533 190.916 587.017 191.64C586.512 192.354 585.887 192.904 585.144 193.29C584.4 193.677 583.568 193.87 582.646 193.87C581.922 193.87 581.273 193.751 580.698 193.514C580.123 193.276 579.672 192.948 579.345 192.532C579.018 192.116 578.854 191.635 578.854 191.09C578.854 190.594 578.963 190.148 579.181 189.752C579.399 189.355 579.746 188.978 580.222 188.621C580.698 188.255 581.307 187.888 582.051 187.521C582.636 187.234 583.092 186.981 583.419 186.763C583.756 186.545 583.989 186.337 584.118 186.138C584.257 185.94 584.326 185.732 584.326 185.514C584.326 185.216 584.222 184.978 584.014 184.8C583.805 184.612 583.508 184.518 583.121 184.518C582.705 184.518 582.378 184.622 582.14 184.83C581.912 185.028 581.798 185.291 581.798 185.618C581.798 185.786 581.828 185.95 581.887 186.109C581.957 186.267 582.076 186.446 582.244 186.644C582.413 186.842 582.656 187.095 582.973 187.402L588.474 192.681L587.448 193.885ZM596.362 193.722V184.949H592.912V183.313H601.744V184.949H598.295V193.722H596.362ZM605.936 193.826C605.053 193.826 604.28 193.652 603.616 193.305C602.962 192.948 602.451 192.463 602.084 191.848C601.728 191.234 601.549 190.535 601.549 189.752C601.549 188.959 601.723 188.26 602.07 187.655C602.426 187.04 602.912 186.56 603.527 186.213C604.151 185.866 604.86 185.692 605.653 185.692C606.426 185.692 607.115 185.861 607.72 186.198C608.325 186.535 608.8 187.011 609.147 187.625C609.494 188.24 609.668 188.963 609.668 189.796C609.668 189.875 609.663 189.965 609.653 190.064C609.653 190.163 609.648 190.257 609.638 190.346H603.021V189.112H608.657L607.928 189.499C607.938 189.043 607.844 188.641 607.646 188.294C607.447 187.947 607.175 187.675 606.828 187.477C606.491 187.278 606.099 187.179 605.653 187.179C605.197 187.179 604.796 187.278 604.449 187.477C604.112 187.675 603.844 187.952 603.646 188.309C603.457 188.656 603.363 189.068 603.363 189.543V189.841C603.363 190.317 603.472 190.738 603.69 191.105C603.908 191.471 604.216 191.754 604.612 191.952C605.009 192.15 605.465 192.25 605.98 192.25C606.426 192.25 606.828 192.18 607.185 192.041C607.541 191.903 607.859 191.685 608.136 191.387L609.132 192.532C608.776 192.948 608.325 193.271 607.779 193.499C607.244 193.717 606.629 193.826 605.936 193.826ZM613.907 193.826C613.242 193.826 612.603 193.742 611.988 193.573C611.384 193.395 610.903 193.181 610.546 192.934L611.26 191.521C611.617 191.749 612.043 191.937 612.539 192.086C613.034 192.235 613.53 192.309 614.026 192.309C614.61 192.309 615.032 192.23 615.289 192.071C615.557 191.913 615.691 191.699 615.691 191.432C615.691 191.214 615.602 191.05 615.423 190.941C615.245 190.822 615.012 190.733 614.724 190.673C614.437 190.614 614.115 190.559 613.758 190.51C613.411 190.46 613.059 190.396 612.702 190.317C612.355 190.227 612.038 190.103 611.751 189.945C611.463 189.776 611.23 189.553 611.052 189.276C610.873 188.998 610.784 188.631 610.784 188.175C610.784 187.67 610.928 187.234 611.215 186.867C611.503 186.49 611.904 186.203 612.42 186.004C612.945 185.796 613.565 185.692 614.278 185.692C614.814 185.692 615.354 185.752 615.899 185.871C616.444 185.99 616.895 186.158 617.252 186.376L616.539 187.789C616.162 187.561 615.78 187.407 615.394 187.328C615.017 187.239 614.64 187.194 614.263 187.194C613.698 187.194 613.277 187.278 613 187.447C612.732 187.615 612.598 187.828 612.598 188.086C612.598 188.324 612.687 188.503 612.866 188.621C613.044 188.74 613.277 188.835 613.565 188.904C613.852 188.973 614.169 189.033 614.516 189.082C614.873 189.122 615.225 189.187 615.572 189.276C615.919 189.365 616.236 189.489 616.524 189.647C616.821 189.796 617.059 190.009 617.237 190.287C617.416 190.564 617.505 190.926 617.505 191.372C617.505 191.868 617.356 192.299 617.059 192.666C616.771 193.033 616.36 193.32 615.825 193.528C615.289 193.727 614.65 193.826 613.907 193.826ZM622.094 193.826C621.222 193.826 620.548 193.603 620.072 193.157C619.596 192.701 619.358 192.032 619.358 191.149V184.027H621.217V191.105C621.217 191.481 621.311 191.774 621.5 191.982C621.698 192.19 621.971 192.294 622.317 192.294C622.734 192.294 623.081 192.185 623.358 191.967L623.879 193.29C623.661 193.469 623.393 193.603 623.076 193.692C622.759 193.781 622.431 193.826 622.094 193.826ZM618.05 187.268V185.781H623.343V187.268H618.05ZM625.408 193.722V185.781H627.266V193.722H625.408ZM626.345 184.473C625.998 184.473 625.71 184.364 625.482 184.146C625.264 183.928 625.155 183.665 625.155 183.358C625.155 183.04 625.264 182.778 625.482 182.57C625.71 182.352 625.998 182.242 626.345 182.242C626.691 182.242 626.974 182.347 627.192 182.555C627.42 182.753 627.534 183.006 627.534 183.313C627.534 183.64 627.425 183.918 627.207 184.146C626.989 184.364 626.701 184.473 626.345 184.473ZM629.706 193.722V185.781H631.475V187.923L631.163 187.268C631.441 186.763 631.842 186.376 632.368 186.109C632.903 185.831 633.517 185.692 634.211 185.692C634.846 185.692 635.411 185.816 635.907 186.064C636.412 186.312 636.809 186.693 637.096 187.209C637.384 187.714 637.527 188.369 637.527 189.172V193.722H635.669V189.41C635.669 188.706 635.5 188.18 635.163 187.833C634.836 187.486 634.375 187.313 633.78 187.313C633.344 187.313 632.957 187.402 632.62 187.581C632.283 187.759 632.021 188.027 631.832 188.384C631.654 188.731 631.565 189.172 631.565 189.707V193.722H629.706ZM643.498 196.71C642.764 196.71 642.046 196.611 641.342 196.413C640.648 196.225 640.078 195.947 639.632 195.58L640.465 194.183C640.812 194.47 641.248 194.698 641.773 194.867C642.308 195.045 642.849 195.134 643.394 195.134C644.266 195.134 644.906 194.931 645.312 194.525C645.719 194.128 645.922 193.528 645.922 192.725V191.313L646.07 189.514L646.011 187.714V185.781H647.78V192.517C647.78 193.955 647.414 195.01 646.68 195.684C645.947 196.368 644.886 196.71 643.498 196.71ZM643.26 193.365C642.507 193.365 641.823 193.206 641.208 192.889C640.603 192.562 640.123 192.111 639.766 191.536C639.419 190.961 639.245 190.287 639.245 189.514C639.245 188.75 639.419 188.081 639.766 187.506C640.123 186.931 640.603 186.485 641.208 186.168C641.823 185.851 642.507 185.692 643.26 185.692C643.934 185.692 644.539 185.826 645.074 186.094C645.609 186.361 646.036 186.778 646.353 187.343C646.68 187.908 646.844 188.631 646.844 189.514C646.844 190.396 646.68 191.124 646.353 191.699C646.036 192.264 645.609 192.686 645.074 192.963C644.539 193.231 643.934 193.365 643.26 193.365ZM643.543 191.789C644.009 191.789 644.425 191.694 644.792 191.506C645.158 191.308 645.441 191.04 645.639 190.703C645.847 190.356 645.951 189.96 645.951 189.514C645.951 189.068 645.847 188.676 645.639 188.339C645.441 187.992 645.158 187.729 644.792 187.551C644.425 187.363 644.009 187.268 643.543 187.268C643.077 187.268 642.655 187.363 642.279 187.551C641.912 187.729 641.624 187.992 641.416 188.339C641.218 188.676 641.119 189.068 641.119 189.514C641.119 189.96 641.218 190.356 641.416 190.703C641.624 191.04 641.912 191.308 642.279 191.506C642.655 191.694 643.077 191.789 643.543 191.789ZM599.458 217.722V209.335C599.458 208.503 599.7 207.838 600.186 207.343C600.682 206.837 601.386 206.584 602.298 206.584C602.625 206.584 602.932 206.619 603.22 206.689C603.517 206.758 603.765 206.867 603.963 207.016L603.457 208.413C603.319 208.304 603.16 208.225 602.982 208.176C602.803 208.116 602.62 208.086 602.431 208.086C602.045 208.086 601.752 208.195 601.554 208.413C601.356 208.622 601.257 208.939 601.257 209.365V210.257L601.316 211.09V217.722H599.458ZM598.149 211.328V209.841H603.443V211.328H598.149ZM609.441 217.722V216.116L609.336 215.774V212.963C609.336 212.418 609.173 211.997 608.846 211.7C608.519 211.392 608.023 211.239 607.359 211.239C606.913 211.239 606.472 211.308 606.035 211.447C605.609 211.586 605.247 211.779 604.95 212.027L604.221 210.674C604.648 210.346 605.153 210.104 605.738 209.945C606.333 209.776 606.947 209.692 607.582 209.692C608.732 209.692 609.619 209.97 610.243 210.525C610.878 211.07 611.195 211.918 611.195 213.068V217.722H609.441ZM606.942 217.826C606.348 217.826 605.827 217.727 605.381 217.528C604.935 217.32 604.588 217.038 604.34 216.681C604.102 216.314 603.983 215.903 603.983 215.447C603.983 215.001 604.088 214.599 604.296 214.242C604.514 213.885 604.866 213.603 605.351 213.395C605.837 213.187 606.482 213.082 607.284 213.082H609.589V214.317H607.418C606.784 214.317 606.358 214.421 606.14 214.629C605.921 214.827 605.812 215.075 605.812 215.372C605.812 215.709 605.946 215.977 606.214 216.175C606.482 216.374 606.853 216.473 607.329 216.473C607.785 216.473 608.191 216.369 608.548 216.16C608.915 215.952 609.178 215.645 609.336 215.238L609.649 216.354C609.47 216.82 609.148 217.181 608.682 217.439C608.226 217.697 607.646 217.826 606.942 217.826ZM616.034 217.826C615.37 217.826 614.73 217.742 614.116 217.573C613.511 217.395 613.03 217.181 612.673 216.934L613.387 215.521C613.744 215.749 614.17 215.937 614.666 216.086C615.162 216.235 615.657 216.309 616.153 216.309C616.738 216.309 617.159 216.23 617.417 216.071C617.684 215.913 617.818 215.699 617.818 215.432C617.818 215.214 617.729 215.05 617.551 214.941C617.372 214.822 617.139 214.733 616.852 214.673C616.564 214.614 616.242 214.559 615.885 214.51C615.538 214.46 615.186 214.396 614.83 214.317C614.483 214.227 614.165 214.103 613.878 213.945C613.59 213.776 613.357 213.553 613.179 213.276C613.001 212.998 612.911 212.631 612.911 212.175C612.911 211.67 613.055 211.234 613.343 210.867C613.63 210.49 614.032 210.203 614.547 210.004C615.072 209.796 615.692 209.692 616.406 209.692C616.941 209.692 617.481 209.752 618.026 209.871C618.572 209.99 619.023 210.158 619.38 210.376L618.666 211.789C618.289 211.561 617.907 211.407 617.521 211.328C617.144 211.239 616.767 211.194 616.391 211.194C615.826 211.194 615.404 211.278 615.127 211.447C614.859 211.615 614.725 211.828 614.725 212.086C614.725 212.324 614.815 212.503 614.993 212.621C615.172 212.74 615.404 212.835 615.692 212.904C615.979 212.973 616.297 213.033 616.644 213.082C617 213.122 617.352 213.187 617.699 213.276C618.046 213.365 618.363 213.489 618.651 213.647C618.948 213.796 619.186 214.009 619.365 214.287C619.543 214.564 619.632 214.926 619.632 215.372C619.632 215.868 619.484 216.299 619.186 216.666C618.899 217.033 618.487 217.32 617.952 217.528C617.417 217.727 616.777 217.826 616.034 217.826ZM624.965 217.826C624.083 217.826 623.31 217.652 622.646 217.305C621.991 216.948 621.481 216.463 621.114 215.848C620.757 215.234 620.579 214.535 620.579 213.752C620.579 212.959 620.752 212.26 621.099 211.655C621.456 211.04 621.942 210.56 622.556 210.213C623.181 209.866 623.89 209.692 624.683 209.692C625.456 209.692 626.145 209.861 626.75 210.198C627.354 210.535 627.83 211.011 628.177 211.625C628.524 212.24 628.697 212.963 628.697 213.796C628.697 213.875 628.692 213.965 628.683 214.064C628.683 214.163 628.678 214.257 628.668 214.346H622.051V213.112H627.686L626.958 213.499C626.968 213.043 626.873 212.641 626.675 212.294C626.477 211.947 626.204 211.675 625.857 211.477C625.52 211.278 625.129 211.179 624.683 211.179C624.227 211.179 623.825 211.278 623.478 211.477C623.141 211.675 622.874 211.952 622.675 212.309C622.487 212.656 622.393 213.068 622.393 213.543V213.841C622.393 214.317 622.502 214.738 622.72 215.105C622.938 215.471 623.245 215.754 623.642 215.952C624.038 216.15 624.494 216.25 625.01 216.25C625.456 216.25 625.857 216.18 626.214 216.041C626.571 215.903 626.888 215.685 627.166 215.387L628.162 216.532C627.805 216.948 627.354 217.271 626.809 217.499C626.274 217.717 625.659 217.826 624.965 217.826Z" fill="#3A5832"/>
<rect x="90.1455" y="161.39" width="18.5868" height="3.71735" rx="1.85868" fill="#FFCE88"/>
<rect x="471.174" y="161.39" width="18.5868" height="3.71735" rx="1.85868" fill="#FFCE88"/>
<rect x="851.274" y="161.649" width="18.5868" height="3.71735" rx="1.85868" fill="#92BB87"/>
<rect width="18.5868" height="3.71735" rx="1.85868" transform="matrix(-1 0 0 1 375.353 159.791)" fill="#FFCE88"/>
<rect width="18.5868" height="3.71735" rx="1.85868" transform="matrix(-1 0 0 1 756.382 159.791)" fill="#92BB87"/>
<rect x="119.946" y="157.07" width="18.5868" height="3.71735" rx="1.85868" transform="rotate(-35 119.946 157.07)" fill="#FFCE88"/>
<rect x="500.975" y="157.07" width="18.5868" height="3.71735" rx="1.85868" transform="rotate(-35 500.975 157.07)" fill="#FFCE88"/>
<rect x="881.074" y="157.331" width="18.5868" height="3.71735" rx="1.85868" transform="rotate(-35 881.074 157.331)" fill="#92BB87"/>
<rect width="18.5868" height="3.71735" rx="1.85868" transform="matrix(-0.819152 -0.573576 -0.573576 0.819152 345.552 155.473)" fill="#FFCE88"/>
<rect width="18.5868" height="3.71735" rx="1.85868" transform="matrix(-0.819152 -0.573576 -0.573576 0.819152 726.581 155.473)" fill="#92BB87"/>
<rect x="142.542" y="136.966" width="18.5868" height="3.71735" rx="1.85868" transform="rotate(-45 142.542 136.966)" fill="#FFCE88"/>
<rect x="523.57" y="136.966" width="18.5868" height="3.71735" rx="1.85868" transform="rotate(-45 523.57 136.966)" fill="#FFCE88"/>
<rect x="903.67" y="137.226" width="18.5868" height="3.71735" rx="1.85868" transform="rotate(-45 903.67 137.226)" fill="#92BB87"/>
<rect width="18.5868" height="3.71735" rx="1.85868" transform="matrix(-0.707107 -0.707107 -0.707107 0.707107 322.957 135.367)" fill="#FFCE88"/>
<rect width="18.5868" height="3.71735" rx="1.85868" transform="matrix(-0.707107 -0.707107 -0.707107 0.707107 703.985 135.367)" fill="#92BB87"/>
<rect x="165.493" y="116.94" width="18.5868" height="3.71735" rx="1.85868" transform="rotate(-25 165.493 116.94)" fill="#FFCE88"/>
<rect x="546.521" y="116.94" width="18.5868" height="3.71735" rx="1.85868" transform="rotate(-25 546.521 116.94)" fill="#FFCE88"/>
<rect x="926.621" y="117.201" width="18.5868" height="3.71735" rx="1.85868" transform="rotate(-25 926.621 117.201)" fill="#92BB87"/>
<rect width="18.5868" height="3.71735" rx="1.85868" transform="matrix(-0.906308 -0.422618 -0.422618 0.906308 300.006 115.342)" fill="#FFCE88"/>
<rect width="18.5868" height="3.71735" rx="1.85868" transform="matrix(-0.906308 -0.422618 -0.422618 0.906308 681.034 115.342)" fill="#92BB87"/>
<path d="M969.633 146.94C968.82 146.94 968.042 146.826 967.299 146.598C966.555 146.36 965.965 146.057 965.529 145.691L966.198 144.189C966.615 144.516 967.13 144.789 967.745 145.007C968.359 145.225 968.989 145.334 969.633 145.334C970.178 145.334 970.62 145.274 970.957 145.155C971.294 145.036 971.542 144.878 971.7 144.68C971.859 144.471 971.938 144.238 971.938 143.981C971.938 143.663 971.824 143.411 971.596 143.222C971.368 143.024 971.071 142.87 970.704 142.761C970.347 142.642 969.946 142.533 969.499 142.434C969.063 142.335 968.622 142.221 968.176 142.092C967.74 141.953 967.338 141.78 966.972 141.572C966.615 141.354 966.322 141.066 966.094 140.709C965.866 140.353 965.752 139.897 965.752 139.341C965.752 138.776 965.901 138.261 966.198 137.795C966.506 137.319 966.967 136.943 967.581 136.665C968.206 136.377 968.994 136.234 969.946 136.234C970.57 136.234 971.19 136.313 971.804 136.472C972.419 136.63 972.954 136.858 973.41 137.156L972.8 138.657C972.335 138.38 971.854 138.177 971.358 138.048C970.862 137.909 970.387 137.84 969.931 137.84C969.395 137.84 968.959 137.904 968.622 138.033C968.295 138.162 968.052 138.33 967.894 138.538C967.745 138.747 967.671 138.985 967.671 139.252C967.671 139.569 967.78 139.827 967.998 140.025C968.226 140.214 968.518 140.362 968.875 140.472C969.242 140.581 969.648 140.69 970.094 140.799C970.54 140.898 970.981 141.012 971.418 141.141C971.864 141.27 972.265 141.438 972.622 141.646C972.989 141.854 973.281 142.137 973.499 142.494C973.727 142.851 973.841 143.302 973.841 143.847C973.841 144.402 973.688 144.917 973.38 145.393C973.083 145.859 972.622 146.236 971.998 146.523C971.373 146.801 970.585 146.94 969.633 146.94ZM979.981 146.895C979.337 146.895 978.747 146.746 978.212 146.449C977.686 146.152 977.265 145.706 976.948 145.111C976.64 144.506 976.487 143.743 976.487 142.821C976.487 141.889 976.635 141.126 976.933 140.531C977.24 139.936 977.656 139.495 978.182 139.208C978.707 138.91 979.307 138.762 979.981 138.762C980.764 138.762 981.453 138.93 982.048 139.267C982.653 139.604 983.128 140.075 983.475 140.68C983.832 141.284 984.011 141.998 984.011 142.821C984.011 143.644 983.832 144.362 983.475 144.977C983.128 145.582 982.653 146.053 982.048 146.39C981.453 146.727 980.764 146.895 979.981 146.895ZM975.58 149.676V138.851H977.349V140.724L977.29 142.836L977.438 144.947V149.676H975.58ZM979.773 145.304C980.219 145.304 980.615 145.205 980.962 145.007C981.319 144.808 981.602 144.521 981.81 144.144C982.018 143.768 982.122 143.326 982.122 142.821C982.122 142.305 982.018 141.864 981.81 141.498C981.602 141.121 981.319 140.833 980.962 140.635C980.615 140.437 980.219 140.338 979.773 140.338C979.327 140.338 978.925 140.437 978.568 140.635C978.212 140.833 977.929 141.121 977.721 141.498C977.513 141.864 977.409 142.305 977.409 142.821C977.409 143.326 977.513 143.768 977.721 144.144C977.929 144.521 978.212 144.808 978.568 145.007C978.925 145.205 979.327 145.304 979.773 145.304ZM985.773 146.791V138.851H987.543V141.037L987.335 140.397C987.573 139.862 987.944 139.455 988.45 139.178C988.965 138.9 989.605 138.762 990.368 138.762V140.531C990.289 140.511 990.214 140.501 990.145 140.501C990.076 140.491 990.006 140.486 989.937 140.486C989.233 140.486 988.673 140.695 988.257 141.111C987.84 141.517 987.632 142.127 987.632 142.94V146.791H985.773ZM991.945 146.791V138.851H993.803V146.791H991.945ZM992.881 137.542C992.535 137.542 992.247 137.433 992.019 137.215C991.801 136.997 991.692 136.734 991.692 136.427C991.692 136.11 991.801 135.847 992.019 135.639C992.247 135.421 992.535 135.312 992.881 135.312C993.228 135.312 993.511 135.416 993.729 135.624C993.957 135.822 994.071 136.075 994.071 136.382C994.071 136.71 993.962 136.987 993.744 137.215C993.526 137.433 993.238 137.542 992.881 137.542ZM1000.75 138.762C1001.38 138.762 1001.95 138.885 1002.44 139.133C1002.95 139.381 1003.35 139.763 1003.63 140.278C1003.92 140.784 1004.06 141.438 1004.06 142.241V146.791H1002.21V142.479C1002.21 141.775 1002.04 141.25 1001.7 140.903C1001.37 140.556 1000.91 140.382 1000.32 140.382C999.881 140.382 999.494 140.472 999.157 140.65C998.82 140.828 998.558 141.096 998.369 141.453C998.191 141.8 998.102 142.241 998.102 142.776V146.791H996.243V138.851H998.012V140.992L997.7 140.338C997.978 139.832 998.379 139.446 998.905 139.178C999.44 138.9 1000.05 138.762 1000.75 138.762ZM1009.41 146.895C1008.54 146.895 1007.86 146.672 1007.39 146.226C1006.91 145.77 1006.67 145.101 1006.67 144.219V137.096H1008.53V144.174C1008.53 144.551 1008.63 144.843 1008.82 145.051C1009.01 145.259 1009.29 145.364 1009.63 145.364C1010.05 145.364 1010.4 145.255 1010.67 145.036L1011.2 146.36C1010.98 146.538 1010.71 146.672 1010.39 146.761C1010.07 146.85 1009.75 146.895 1009.41 146.895ZM1005.37 140.397V138.91H1010.66V140.397H1005.37ZM1019.72 146.94C1018.98 146.94 1018.27 146.836 1017.56 146.627C1016.87 146.409 1016.28 146.112 1015.81 145.735L1016.63 144.233C1017 144.541 1017.46 144.789 1017.99 144.977C1018.54 145.165 1019.1 145.259 1019.69 145.259C1020.37 145.259 1020.91 145.116 1021.29 144.828C1021.69 144.541 1021.89 144.154 1021.89 143.668C1021.89 143.341 1021.8 143.054 1021.64 142.806C1021.48 142.558 1021.19 142.37 1020.77 142.241C1020.37 142.112 1019.81 142.048 1019.09 142.048H1016.58L1017.12 136.382H1023.23V138.003H1017.83L1018.84 137.081L1018.44 141.319L1017.43 140.412H1019.52C1020.56 140.412 1021.38 140.551 1022.01 140.828C1022.64 141.096 1023.1 141.473 1023.39 141.958C1023.69 142.434 1023.84 142.979 1023.84 143.594C1023.84 144.199 1023.69 144.754 1023.39 145.259C1023.09 145.765 1022.64 146.171 1022.02 146.479C1021.42 146.786 1020.65 146.94 1019.72 146.94Z" fill="#3A5832"/>
<ellipse cx="993.927" cy="106.092" rx="41.3556" ry="17.1928" fill="#52714A"/>
<rect x="989.744" y="36.8574" width="8.36405" height="62.2657" rx="2.78802" fill="#92BB87"/>
<path d="M1025.81 53.0039C1027.11 53.71 1027.1 55.5785 1025.8 56.2763L1000.16 69.9829C998.924 70.6462 997.425 69.7446 997.43 68.3379L997.518 40.761C997.523 39.3543 999.027 38.4623 1000.26 39.1335L1025.81 53.0039Z" fill="#52714A"/>
<path d="M602.199 101.448C602.48 102.887 600.746 103.837 599.684 102.826L581.781 85.78C581.35 85.3699 581.201 84.7444 581.401 84.1842L590.816 57.8228C591.331 56.3825 593.417 56.5391 593.71 58.0401L602.199 101.448Z" fill="#D8633B"/>
<path fill-rule="evenodd" clip-rule="evenodd" d="M590.817 57.8232C591.331 56.3829 593.417 56.5391 593.71 58.04L596.939 74.5508H584.842L590.817 57.8232Z" fill="#FAE0BE"/>
<path d="M605.522 49.7148C609.248 41.9222 620.342 41.9222 624.068 49.7148L644.256 91.9313C647.519 98.7538 642.546 106.645 634.983 106.645H594.606C587.044 106.645 582.071 98.7538 585.333 91.9313L605.522 49.7148Z" fill="#DD704B"/>
<path d="M605.792 79.3462C609.529 71.5909 620.574 71.5909 624.311 79.3462L630.425 92.0313C633.714 98.8561 628.741 106.773 621.165 106.773H608.938C601.363 106.773 596.39 98.8561 599.679 92.0313L605.792 79.3462Z" fill="#FAE0BE"/>
<path d="M615.15 65.8639C614.776 66.0956 614.303 66.0956 613.929 65.8639L586.561 48.8971C586.22 48.6859 586.013 48.3136 586.013 47.9128V4.53477C586.013 3.33541 587.613 2.927 588.188 3.97951L596.58 19.34C596.783 19.7116 597.173 19.9428 597.596 19.9428H631.483C631.906 19.9428 632.296 19.7116 632.499 19.34L640.892 3.97949C641.467 2.92699 643.066 3.33541 643.066 4.53476L643.066 47.9128C643.066 48.3136 642.859 48.6859 642.518 48.8971L615.15 65.8639Z" fill="url(#paint0_linear_1666_2558)"/>
<path fill-rule="evenodd" clip-rule="evenodd" d="M615.149 65.8639C614.775 66.0956 614.302 66.0956 613.928 65.8639L589.6 50.782C588.609 50.1678 589.044 48.6396 590.21 48.6396H638.867C640.033 48.6396 640.468 50.1678 639.477 50.782L615.149 65.8639Z" fill="url(#paint1_linear_1666_2558)"/>
<rect x="610.563" y="46.5547" width="8.10659" height="3.93749" rx="1.15808" fill="url(#paint2_linear_1666_2558)"/>
<defs>
<linearGradient id="paint0_linear_1666_2558" x1="614.54" y1="-0.000236511" x2="614.54" y2="66.2422" gradientUnits="userSpaceOnUse">
<stop stop-color="#D54310"/>
<stop offset="1" stop-color="#D27B5D"/>
</linearGradient>
<linearGradient id="paint1_linear_1666_2558" x1="614.538" y1="48.6396" x2="614.538" y2="66.0377" gradientUnits="userSpaceOnUse">
<stop stop-color="#FFEACF"/>
<stop offset="1" stop-color="#FAE0BE"/>
</linearGradient>
<linearGradient id="paint2_linear_1666_2558" x1="614.617" y1="46.5547" x2="614.617" y2="50.4922" gradientUnits="userSpaceOnUse">
<stop stop-color="#39393F"/>
<stop offset="1" stop-color="#9695A5"/>
</linearGradient>
</defs>
</svg>
