<svg width="247" height="286" viewBox="0 0 247 286" fill="none" xmlns="http://www.w3.org/2000/svg">
<path d="M125.796 284.367C124.182 285.367 122.141 285.367 120.527 284.367L2.3654 211.113C0.894669 210.201 -7.62939e-05 208.594 -7.62939e-05 206.863L-6.10352e-05 19.5798C-6.10352e-05 14.4016 6.905 12.6383 9.38774 17.1824L45.6215 83.5009C46.4982 85.1055 48.1809 86.1036 50.0093 86.1036H196.314C198.143 86.1036 199.825 85.1055 200.702 83.5009L236.936 17.1824C239.419 12.6382 246.324 14.4016 246.324 19.5797L246.324 206.863C246.324 208.594 245.429 210.201 243.958 211.113L125.796 284.367Z" fill="url(#paint0_linear_135_99)"/>
<path fill-rule="evenodd" clip-rule="evenodd" d="M125.797 284.367C124.183 285.367 122.142 285.367 120.528 284.367L15.4905 219.25C11.2129 216.598 13.0921 210 18.125 210H228.199C233.232 210 235.112 216.598 230.834 219.25L125.797 284.367Z" fill="url(#paint1_linear_135_99)"/>
<rect x="106" y="201" width="35" height="17" rx="5" fill="url(#paint2_linear_135_99)"/>
<defs>
<linearGradient id="paint0_linear_135_99" x1="123.162" y1="0" x2="123.162" y2="286" gradientUnits="userSpaceOnUse">
<stop stop-color="#D54310"/>
<stop offset="1" stop-color="#D27B5D"/>
</linearGradient>
<linearGradient id="paint1_linear_135_99" x1="123.162" y1="210" x2="123.162" y2="285.117" gradientUnits="userSpaceOnUse">
<stop stop-color="#E9E1E1"/>
<stop offset="1" stop-color="white"/>
</linearGradient>
<linearGradient id="paint2_linear_135_99" x1="123.5" y1="201" x2="123.5" y2="218" gradientUnits="userSpaceOnUse">
<stop stop-color="#39393F"/>
<stop offset="1" stop-color="#9695A5"/>
</linearGradient>
</defs>
</svg>
